<svg xmlns="http://www.w3.org/2000/svg" viewBox="0 0 500 500"><g id="freepik--clouds-2--inject-18"><path d="M219.75,229s-12.94-35-33.65-44-38.83,6.47-45.31,15.53-6.47,11.65-12.94,9.06S111,195.34,96.78,207,89,229,81.25,230.29s-18.12-9.07-28.48,0-10.35,16.82-10.35,16.82-14.24-6.47-20.71-1.29-7.77,14.24-7.77,14.24H267.65s9.06-18.12-10.36-25.89S228.82,230.29,219.75,229Z" style="fill:#fff;stroke:#263238;stroke-linecap:round;stroke-linejoin:round"></path><path d="M315.92,303.75s-6.43-17.35-16.71-21.85-19.27,3.22-22.48,7.71-3.22,5.79-6.43,4.5S262,287,254.88,292.83s-3.85,10.92-7.71,11.56-9-4.5-14.14,0-5.14,8.35-5.14,8.35-7.06-3.21-10.28-.64-3.85,7.07-3.85,7.07H339.69s4.5-9-5.14-12.85S320.42,304.39,315.92,303.75Z" style="fill:#fff;stroke:#263238;stroke-linecap:round;stroke-linejoin:round"></path><path d="M457.05,121.6s-6.43-17.34-16.71-21.84-19.27,3.21-22.49,7.71-3.21,5.78-6.42,4.5-8.35-7.07-15.42-1.29-3.86,10.92-7.71,11.57-9-4.5-14.14,0S369,130.6,369,130.6s-7.06-3.21-10.28-.64-3.85,7.06-3.85,7.06H480.82s4.5-9-5.14-12.85S461.55,122.25,457.05,121.6Z" style="fill:#fff;stroke:#263238;stroke-linecap:round;stroke-linejoin:round"></path></g><g id="freepik--Symbol--inject-18"><path d="M449.46,230v-3.39q-4.15-.17-6.2-2.7a12.2,12.2,0,0,1-2.23-7.22l5.16-1a16.81,16.81,0,0,0,.44,3.35,4.71,4.71,0,0,0,1.15,2.23,2.8,2.8,0,0,0,2.08.79,2.39,2.39,0,0,0,2.08-.87,3.68,3.68,0,0,0,.62-2.19,5.83,5.83,0,0,0-1-3.51,16.49,16.49,0,0,0-2.56-2.75l-4.15-3.62a15.63,15.63,0,0,1-2-2.12,9.07,9.07,0,0,1-1.33-2.5,10,10,0,0,1-.48-3.25,7.76,7.76,0,0,1,2.09-5.75,8.39,8.39,0,0,1,5.65-2.27V190h1.73v3.22a7.63,7.63,0,0,1,3.39.91,6.23,6.23,0,0,1,2.12,2,9.49,9.49,0,0,1,1.17,2.76,16.46,16.46,0,0,1,.46,3.19l-5.08.88a19.43,19.43,0,0,0-.32-2.76,3.83,3.83,0,0,0-.91-1.93,2.34,2.34,0,0,0-1.95-.63,2.65,2.65,0,0,0-2.08.89,3.23,3.23,0,0,0-.71,2.14,4.71,4.71,0,0,0,.77,2.8,14.48,14.48,0,0,0,1.89,2.12l4.12,3.59a22.23,22.23,0,0,1,2.4,2.54,11.33,11.33,0,0,1,1.77,3.06,10.4,10.4,0,0,1,.67,3.87,8.47,8.47,0,0,1-.87,3.89,7.11,7.11,0,0,1-2.44,2.77,8.29,8.29,0,0,1-3.75,1.29V230Z" style="fill:#263238"></path></g><g id="freepik--Graphics--inject-18"><path d="M292.93,82.49a1.5,1.5,0,0,1-1.5-1.5V72.91a1.5,1.5,0,0,1,3,0V81A1.5,1.5,0,0,1,292.93,82.49Z" style="fill:#263238"></path><path d="M297,78.45h-8.08a1.5,1.5,0,0,1,0-3H297a1.5,1.5,0,0,1,0,3Z" style="fill:#263238"></path><path d="M66.69,188.05a1.5,1.5,0,0,1-1.5-1.5v-8.08a1.5,1.5,0,0,1,3,0v8.08A1.5,1.5,0,0,1,66.69,188.05Z" style="fill:#263238"></path><path d="M70.73,184H62.65a1.5,1.5,0,0,1,0-3h8.08a1.5,1.5,0,1,1,0,3Z" style="fill:#263238"></path><path d="M321.88,375.23a1.5,1.5,0,0,1-1.5-1.5v-8.08a1.5,1.5,0,0,1,3,0v8.08A1.5,1.5,0,0,1,321.88,375.23Z" style="fill:#263238"></path><path d="M325.92,371.19h-8.08a1.5,1.5,0,0,1,0-3h8.08a1.5,1.5,0,0,1,0,3Z" style="fill:#263238"></path><path d="M373.72,176.6a1.5,1.5,0,0,1-1.5-1.5V167a1.5,1.5,0,1,1,3,0v8.08A1.5,1.5,0,0,1,373.72,176.6Z" style="fill:#263238"></path><path d="M377.76,172.56h-8.08a1.5,1.5,0,0,1,0-3h8.08a1.5,1.5,0,0,1,0,3Z" style="fill:#263238"></path><path d="M119.88,377.25a1.5,1.5,0,0,1-1.5-1.5v-8.08a1.5,1.5,0,0,1,3,0v8.08A1.5,1.5,0,0,1,119.88,377.25Z" style="fill:#263238"></path><path d="M123.92,373.21h-8.08a1.5,1.5,0,1,1,0-3h8.08a1.5,1.5,0,1,1,0,3Z" style="fill:#263238"></path><circle cx="321.88" cy="252.69" r="4.71" style="fill:none;stroke:#263238;stroke-linecap:round;stroke-linejoin:round"></circle><circle cx="165" cy="78.97" r="4.71" style="fill:none;stroke:#263238;stroke-linecap:round;stroke-linejoin:round"></circle><circle cx="38.08" cy="279.29" r="2.36" style="fill:none;stroke:#263238;stroke-linecap:round;stroke-linejoin:round"></circle><path d="M287.2,178.62a2.36,2.36,0,1,0-2.35,2.36A2.35,2.35,0,0,0,287.2,178.62Z" style="fill:none;stroke:#263238;stroke-linecap:round;stroke-linejoin:round"></path><circle cx="421.87" cy="74.93" r="2.36" style="fill:none;stroke:#263238;stroke-linecap:round;stroke-linejoin:round"></circle></g><g id="freepik--Lines--inject-18"><line x1="454.7" y1="180.22" x2="454.7" y2="84.01" style="fill:none;stroke:#263238;stroke-linecap:round;stroke-linejoin:round"></line><line x1="435.41" y1="203.66" x2="382.74" y2="147.62" style="fill:none;stroke:#263238;stroke-linecap:round;stroke-linejoin:round"></line><line x1="428.74" y1="218.94" x2="276.73" y2="218.94" style="fill:none;stroke:#263238;stroke-linecap:round;stroke-linejoin:round"></line><line x1="415.96" y1="204.01" x2="273.51" y2="141.84" style="fill:none;stroke:#263238;stroke-linecap:round;stroke-linejoin:round"></line><line x1="429.52" y1="209.93" x2="421.59" y2="206.47" style="fill:none;stroke:#263238;stroke-linecap:round;stroke-linejoin:round"></line><line x1="404.02" y1="337.89" x2="400.09" y2="346.8" style="fill:none;stroke:#263238;stroke-linecap:round;stroke-linejoin:round"></line><line x1="448.7" y1="236.81" x2="406.13" y2="333.11" style="fill:none;stroke:#263238;stroke-linecap:round;stroke-linejoin:round"></line><line x1="454.7" y1="239.5" x2="454.7" y2="290.26" style="fill:none;stroke:#263238;stroke-linecap:round;stroke-linejoin:round"></line><line x1="470.01" y1="218.94" x2="477.19" y2="218.94" style="fill:none;stroke:#263238;stroke-linecap:round;stroke-linejoin:round"></line><line x1="421.9" y1="240.81" x2="153.04" y2="452.78" style="fill:none;stroke:#263238;stroke-linecap:round;stroke-linejoin:round"></line><line x1="432.75" y1="232.26" x2="426.61" y2="237.1" style="fill:none;stroke:#263238;stroke-linecap:round;stroke-linejoin:round"></line><line x1="443.81" y1="189.98" x2="433.4" y2="160.06" style="fill:none;stroke:#263238;stroke-linecap:round;stroke-linejoin:round"></line></g><g id="freepik--ladder-3--inject-18"><path d="M282.9,376.44a.59.59,0,0,0-.59.59v6.57H265.39V377a.59.59,0,0,0-.6-.59.58.58,0,0,0-.59.59v68.15a.59.59,0,0,0,.59.6.6.6,0,0,0,.6-.6v-7.73h16.92v7.73a.6.6,0,1,0,1.19,0V377A.59.59,0,0,0,282.9,376.44Zm-17.51,25.9h16.92v7.59H265.39Zm0,8.78h16.92v7.59H265.39Zm16.92-10H265.39v-7.58h16.92ZM265.39,419.9h16.92v7.58H265.39Zm16.92-35.11v7.59H265.39v-7.59Zm-16.92,51.47v-7.59h16.92v7.59Z" style="fill:#263238"></path></g><g id="freepik--ladder-2--inject-18"><line x1="103.76" y1="87.95" x2="103.76" y2="431.53" style="fill:none;stroke:#263238;stroke-linecap:round;stroke-linejoin:round;stroke-width:6px"></line><line x1="195.07" y1="87.95" x2="195.07" y2="431.53" style="fill:none;stroke:#263238;stroke-linecap:round;stroke-linejoin:round;stroke-width:6px"></line><line x1="105.01" y1="124.05" x2="193.03" y2="124.05" style="fill:none;stroke:#263238;stroke-linecap:round;stroke-linejoin:round;stroke-width:6px"></line><line x1="105.01" y1="168.3" x2="193.03" y2="168.3" style="fill:none;stroke:#263238;stroke-linecap:round;stroke-linejoin:round;stroke-width:6px"></line><line x1="105.01" y1="212.55" x2="193.03" y2="212.55" style="fill:none;stroke:#263238;stroke-linecap:round;stroke-linejoin:round;stroke-width:6px"></line><line x1="105.01" y1="256.8" x2="193.03" y2="256.8" style="fill:none;stroke:#263238;stroke-linecap:round;stroke-linejoin:round;stroke-width:6px"></line><line x1="105.01" y1="301.05" x2="193.03" y2="301.05" style="fill:none;stroke:#263238;stroke-linecap:round;stroke-linejoin:round;stroke-width:6px"></line><line x1="105.01" y1="345.3" x2="193.03" y2="345.3" style="fill:none;stroke:#263238;stroke-linecap:round;stroke-linejoin:round;stroke-width:6px"></line><line x1="105.01" y1="389.55" x2="193.03" y2="389.55" style="fill:none;stroke:#263238;stroke-linecap:round;stroke-linejoin:round;stroke-width:6px"></line></g><g id="freepik--ladder-1--inject-18"><path d="M83.77,315.84a.92.92,0,0,0-.92.92v10.17H56.64V316.76a.92.92,0,0,0-1.84,0V422.33a.92.92,0,0,0,1.84,0v-12H82.85v12a.92.92,0,0,0,1.84,0V316.76A.92.92,0,0,0,83.77,315.84ZM56.64,356H82.85v11.75H56.64Zm0,13.59H82.85v11.75H56.64Zm26.21-15.44H56.64V342.37H82.85Zm-26.21,29H82.85v11.75H56.64Zm26.21-54.39v11.76H56.64V328.77ZM56.64,408.51V396.75H82.85v11.76Z" style="fill:#263238"></path></g><g id="freepik--Character--inject-18"><path d="M174.81,287.85s-5.56,26-4.32,41.43,4.63,50.7,4.63,50.7-8.65,2.78-11.74,2.47-6.19-.93-4.64,1.85,2.47,2.79,6.18,4.95,4,3.4,6.8,5.56,8.35,6.81,10.51,1.86.62-16.39.62-16.39,3.71-21.64,5.57-39.26.61-26.89.61-26.89l9.9-26.59Z" style="fill:#fff;stroke:#263238;stroke-linecap:round;stroke-linejoin:round"></path><path d="M177,386.16c-4.33-2.48-1.86-6.18-1.86-6.18s-8.65,2.78-11.74,2.47-6.19-.93-4.64,1.85,2.47,2.79,6.18,4.95,4,3.4,6.8,5.56,8.35,6.8,10.51,1.86c1.05-2.4,1.23-6.31,1.13-9.71A9.31,9.31,0,0,1,177,386.16Z" style="fill:#8B5CF6;stroke:#263238;stroke-linecap:round;stroke-linejoin:round"></path><path d="M182.23,396.67v0a23.28,23.28,0,0,1-10-4.59c-4.22-3.59-4.86-3.17-7.81-4.86a21,21,0,0,1-5.28-4.94c-.85.19-1.16.74-.43,2.05,1.54,2.79,2.47,2.79,6.18,4.95s4,3.4,6.8,5.56S180.07,401.61,182.23,396.67Z" style="fill:#fff;stroke:#263238;stroke-linecap:round;stroke-linejoin:round"></path><path d="M135.86,251.06s-5.56,7.73-4.64,11.44,5.57,21.33,11.13,38.95a124.17,124.17,0,0,1,5.88,31.23,49.56,49.56,0,0,1-12.06-2.17c-5.25-1.85-5.56,1.86-3.4,4.95s11.13,12.36,16.69,16.38,6.5,4,7.73.93.63-18.14-.61-25.56-.75-31.65-.53-36.48a69.17,69.17,0,0,0-.4-10.92Z" style="fill:#fff;stroke:#263238;stroke-linecap:round;stroke-linejoin:round"></path><line x1="135.09" y1="264.01" x2="140.12" y2="264.96" style="fill:none;stroke:#263238;stroke-linecap:round;stroke-linejoin:round"></line><path d="M149.46,337.93c-2.16-3.09-1.23-5.25-1.23-5.25a49.56,49.56,0,0,1-12.06-2.17c-5.25-1.85-5.56,1.86-3.4,4.95s11.13,12.36,16.69,16.38,6.5,4,7.73.93c.61-1.52.75-5.4.46-12.52C155.52,341.24,151.07,340.22,149.46,337.93Z" style="fill:#8B5CF6;stroke:#263238;stroke-linecap:round;stroke-linejoin:round"></path><path d="M149.46,351.84c5.57,4,6.5,4,7.73.93a5.4,5.4,0,0,0,.28-1c-4.28-.18-8.95-2.86-15.18-9.09a114.73,114.73,0,0,1-10.47-11.76c-.65,1.06-.21,2.89,1,4.56C134.93,338.55,143.9,347.82,149.46,351.84Z" style="fill:#fff;stroke:#263238;stroke-linecap:round;stroke-linejoin:round"></path><path d="M160.28,222.31l-24.42,28.75a39.26,39.26,0,0,0,9.28,26c10.2,11.75,24.73,16.39,38.64,16.39s17.62-3.71,17.62-3.71,13.43-23.24,13.8-37.47c.32-12.41-1.46-18.25-1.46-18.25S184.09,241.79,160.28,222.31Z" style="fill:#263238;stroke:#263238;stroke-linecap:round;stroke-linejoin:round"></path><path d="M223.89,136.38c0,2.28-1,4.12-2.14,4.12s-2.13-1.84-2.13-4.12.95-4.11,2.13-4.11S223.89,134.11,223.89,136.38Z" style="fill:#fff;stroke:#263238;stroke-linecap:round;stroke-linejoin:round"></path><path d="M236.79,129.25a1.24,1.24,0,0,0-.5.1l-14.54,2.92v8.23l15-1.73c1.37,0,2.48-2.13,2.48-4.76S238.16,129.25,236.79,129.25Z" style="fill:#fff;stroke:#263238;stroke-linecap:round;stroke-linejoin:round"></path><path d="M220.48,133.45l-5.29.81.34,6.64,4.95-.56c1,0,1.79-1.54,1.79-3.44S221.47,133.45,220.48,133.45Z" style="fill:#fff;stroke:#263238;stroke-linecap:round;stroke-linejoin:round"></path><path d="M221.83,130.35s.34,2.21.77,4.17a18.1,18.1,0,0,1-.17,5.95c-.17.43-3.07-.17-3.58.6s.85.25,2.9,1.7a8.92,8.92,0,0,0,4.34,1.79c1.27.25,4.85,5.28,4.85,5.28l6.72-2.3-3.74-5.19s.76-6.9.42-9.54-2-3.4-2.81-4.08-3.06-.17-4-.09-1.1.34-1.87.09S222,128.39,221.83,130.35Z" style="fill:#fff;stroke:#263238;stroke-linecap:round;stroke-linejoin:round"></path><path d="M217.72,127.36a17,17,0,0,1-.16,3.8c-.32,1.27-1.43,1.43-.16,4.43s1.27,8.08-.63,10.93-4,6.49-6.49,6.17a11.58,11.58,0,0,1-4.59-1.74l-.95,5.22L193.18,153s-1.43-9,.63-12.83,10.77-7.44,14.73-11.08S214.71,123.56,217.72,127.36Z" style="fill:#fff;stroke:#263238;stroke-linecap:round;stroke-linejoin:round"></path><path d="M193,151.58s12.35,2.85,13.3,3.64,2.22,4.91,2.22,4.91l-16.94-4.75Z" style="fill:#fff;stroke:#263238;stroke-linecap:round;stroke-linejoin:round"></path><polygon points="188.69 152.68 208.69 158.71 212.02 163.77 189.85 158.55 188.69 152.68" style="fill:#8B5CF6;stroke:#263238;stroke-linecap:round;stroke-linejoin:round"></polygon><path d="M141.72,119.13s-2.48,0-3.55,1.42-2.48,4.43-1.41,6.55,2.12,8.51,2.12,8.51l8.55-1.44s2.44-4,2.62-4.59,3-3.54,2.66-5.13-1.78-.89-2.13-2.31.53-3-.53-4.25a2.83,2.83,0,0,0-3.55-.53,13.62,13.62,0,0,1-1.59,1.24S144.38,118.07,141.72,119.13Z" style="fill:#fff;stroke:#263238;stroke-linecap:round;stroke-linejoin:round"></path><path d="M139.41,140.39l-.53-4.78s.36-1.06,3-2.3,6.64-.72,6.64-.72l-.09,4.79Z" style="fill:#fff;stroke:#263238;stroke-linecap:round;stroke-linejoin:round"></path><path d="M231.9,145.3h0a6.13,6.13,0,0,0-3.45,6.64l4.89,20.88L214,163.08s-41.11-12.58-44-12.05-16.48,8.15-16.48,8.15l-4.78-24.1a15.74,15.74,0,0,0-5.67.88,17,17,0,0,0-5.5,3.55s2.66,29.42,3.9,34.2,2.13,8.15,3.19,8.15,20.73-7.8,20.73-7.8L172,202.24l-19.49,27.47s8.68,12.76,30.3,15.95,33.32-8,33.32-8l-5-35.26,4.61-11.88s39.87,6.21,42,5.85,4.25-3,3.37-6.2c-.69-2.48-15.51-31.18-21.27-42.18A6.12,6.12,0,0,0,231.9,145.3Z" style="fill:#8B5CF6;stroke:#263238;stroke-linecap:round;stroke-linejoin:round"></path><line x1="246.48" y1="178.31" x2="249.46" y2="179.56" style="fill:none;stroke:#263238;stroke-linecap:round;stroke-linejoin:round"></line><line x1="233.34" y1="172.82" x2="242.86" y2="176.8" style="fill:none;stroke:#263238;stroke-linecap:round;stroke-linejoin:round"></line><line x1="165.46" y1="174.06" x2="162.27" y2="160.95" style="fill:none;stroke:#263238;stroke-linecap:round;stroke-linejoin:round"></line><line x1="153.59" y1="159.18" x2="144.02" y2="162.9" style="fill:none;stroke:#263238;stroke-linecap:round;stroke-linejoin:round"></line><path d="M193.76,194.89a26.59,26.59,0,0,0,2.54,3.27" style="fill:none;stroke:#263238;stroke-linecap:round;stroke-linejoin:round"></path><path d="M182.12,170.52a161.89,161.89,0,0,0,9.39,20.73" style="fill:none;stroke:#263238;stroke-linecap:round;stroke-linejoin:round"></path><path d="M187.26,192.67s6.2,7.27,9.22,9.75" style="fill:none;stroke:#263238;stroke-linecap:round;stroke-linejoin:round"></path><line x1="215.79" y1="190.54" x2="205.69" y2="190.37" style="fill:none;stroke:#263238;stroke-linecap:round;stroke-linejoin:round"></line><line x1="164.4" y1="168.93" x2="159.08" y2="161.48" style="fill:none;stroke:#263238;stroke-linecap:round;stroke-linejoin:round"></line><path d="M215.5,130.05a15,15,0,0,1-5.22,8.23c-4.44,3.65-10.93,4-12,6.81s-1.43,10.77-4.12,15.83-8.23,5.86-14.41,3.64-6.33-8.23-11.39-10.76-10.77-2.22-14.89-6.49-7.44-9-4.9-14.72,3.64-5.7,3.64-5.7-3.8.79-4.91,3.16a4.18,4.18,0,0,0,.16,4.12s-3-.79-2.69-4.91,5.22-9.5,13.61-10.13,12.35,3.8,19.32,2.53,14.88-16.3,23.11-15.35,9.18,6,15.35,5.7,8.55,3.64,7,9.65S215.5,130.05,215.5,130.05Z" style="fill:#263238;stroke:#263238;stroke-linecap:round;stroke-linejoin:round"></path><path d="M215.5,130.05a14.78,14.78,0,0,1-9.81-1c-5.54-2.37-10.93-2.85-13.3.16" style="fill:none;stroke:#fff;stroke-linecap:round;stroke-linejoin:round"></path><path d="M194,126.25s2.69-4.43,7.76-4.75,7.28,4,10.92.64" style="fill:none;stroke:#fff;stroke-linecap:round;stroke-linejoin:round"></path></g><g id="freepik--cloud-1--inject-18"><path d="M473.45,463.82c.07-1.08.11-2.16.11-3.25a47.56,47.56,0,0,0-14.28-34A57.9,57.9,0,0,0,348,406.71a57.92,57.92,0,0,0-73.61,19.53,39,39,0,0,0-17-8.41,39.2,39.2,0,0,0-71.55,2.28,39.73,39.73,0,0,0-6.77-.59A39.25,39.25,0,0,0,169,420.84a60.39,60.39,0,0,0-77-18.21,39.19,39.19,0,0,0-57.38,21.23A39.15,39.15,0,0,0,13.3,458.71c0,1.08,0,2.15.13,3.2" style="fill:#fff;stroke:#263238;stroke-linecap:round;stroke-linejoin:round"></path></g></svg>
