<svg width="618" height="380" viewBox="0 0 618 380" fill="none" xmlns="http://www.w3.org/2000/svg">
<path d="M346.85 137.877C346.85 137.947 345.677 137.471 343.5 136.995C340.434 136.325 337.273 136.202 334.164 136.634C329.545 137.241 325.186 139.122 321.574 142.064C317.148 145.667 314.026 150.623 312.687 156.17V156.32L312.423 157.334L312.035 156.373C309.875 151.113 306.167 146.633 301.403 143.528C297.509 141.005 293.036 139.516 288.408 139.199C285.289 138.983 282.155 139.281 279.133 140.081C276.991 140.645 275.853 141.139 275.827 141.077C276.081 140.917 276.354 140.787 276.638 140.689C277.425 140.34 278.235 140.046 279.062 139.808C282.853 138.693 286.838 138.403 290.751 138.955C294.663 139.506 298.412 140.888 301.746 143.008C306.648 146.154 310.464 150.731 312.679 156.117L312.035 156.17V156.012C313.402 150.328 316.603 145.253 321.142 141.571C324.857 138.589 329.336 136.714 334.067 136.158C337.228 135.762 340.436 135.956 343.526 136.731C344.362 136.94 345.184 137.202 345.986 137.515C346.284 137.61 346.574 137.73 346.85 137.877Z" fill="#263238"/>
<path d="M428.144 83.0925C428.144 83.1454 427.483 82.9074 426.293 82.6605C424.61 82.3138 422.879 82.2631 421.179 82.5106C418.664 82.8572 416.294 83.8915 414.329 85.4993C411.929 87.4663 410.236 90.1622 409.507 93.1782V93.2664L409.251 94.2714L408.863 93.3193C407.694 90.4366 405.678 87.977 403.08 86.2663C400.968 84.8872 398.542 84.0653 396.027 83.8772C394.323 83.7463 392.609 83.8862 390.949 84.2915C389.767 84.5913 389.141 84.8381 389.115 84.7852C389.244 84.6813 389.39 84.6007 389.547 84.5472C389.977 84.3465 390.422 84.1785 390.878 84.0447C392.554 83.5223 394.309 83.3043 396.062 83.4011C398.685 83.518 401.231 84.3271 403.441 85.7462C406.169 87.4867 408.293 90.0267 409.524 93.0195L408.872 93.0724V92.9843C409.636 89.8224 411.428 87.0037 413.968 84.9704C415.689 83.5947 417.707 82.6393 419.861 82.1802C422.016 81.721 424.248 81.7708 426.381 82.3255C426.841 82.4413 427.292 82.5916 427.73 82.7751C428.003 82.9867 428.153 83.0661 428.144 83.0925Z" fill="#263238"/>
<path d="M368.697 70.4854C368.143 71.193 367.555 71.8727 366.933 72.5219C365.302 74.3711 363.828 76.3527 362.525 78.4464C358.231 85.3565 355.976 93.3387 356.019 101.474V101.765L355.34 101.818C354.671 97.4452 353.242 93.2232 351.117 89.3432C348.21 84.0252 344.116 79.4487 339.154 75.969C337.734 74.9904 336.914 74.4967 336.941 74.4438C337.162 74.521 337.375 74.6215 337.576 74.7436C337.963 74.9728 338.581 75.2637 339.295 75.7574C341.373 77.0769 343.304 78.6169 345.052 80.3507C350.91 86.1075 354.751 93.6035 356.001 101.721L355.331 101.774V101.483C355.274 93.2188 357.631 85.1177 362.111 78.1731C363.451 76.0845 364.989 74.13 366.704 72.3367C367.295 71.6932 367.824 71.2524 368.15 70.9262C368.314 70.7574 368.497 70.6093 368.697 70.4854Z" fill="#263238"/>
<path d="M125.009 366.788C117.074 360.775 108.716 350.76 106.442 340.516C115.246 347.096 121.745 356.292 125.009 366.788Z" fill="#FFC100"/>
<path d="M126.701 352.215C118.766 346.202 110.409 336.196 108.134 325.951C116.938 332.528 123.437 341.721 126.701 352.215Z" fill="#FFC100"/>
<path d="M127.618 337.862C119.684 331.849 111.317 321.843 109.042 311.599C117.854 318.17 124.357 327.365 127.618 337.862Z" fill="#FFC100"/>
<path d="M128.068 322.698C120.962 315.645 113.865 304.483 112.833 293.975C120.754 301.748 126.075 311.781 128.068 322.698Z" fill="#FFC100"/>
<path d="M127.389 310.849C123.325 301.327 120.654 288.024 123.334 277.762C127.91 288.152 129.32 299.661 127.389 310.849Z" fill="#FFC100"/>
<path d="M127.768 316.501C131.744 306.036 139.379 293.579 148.548 287.267C144.367 298.698 137.19 308.795 127.768 316.501Z" fill="#FFC100"/>
<path d="M127.645 329.02C132.635 318.44 141.61 306.098 151.678 300.358C146.392 311.901 138.089 321.803 127.645 329.02Z" fill="#FFC100"/>
<path d="M127.283 344.236C132.282 333.656 141.257 321.314 151.316 315.574C146.031 327.117 137.728 337.019 127.283 344.236Z" fill="#FFC100"/>
<path d="M125.423 362.565C130.413 351.985 139.388 339.643 149.447 333.903C144.161 345.443 135.861 355.344 125.423 362.565Z" fill="#FFC100"/>
<path d="M127.512 308.636C127.523 308.697 127.523 308.76 127.512 308.821C127.512 308.962 127.512 309.138 127.512 309.359C127.512 309.861 127.583 310.558 127.644 311.439C127.75 313.203 127.856 315.847 127.927 319.092C127.997 322.336 128.032 326.145 127.971 330.456C127.909 334.767 127.724 339.431 127.424 344.359C127.124 349.287 126.675 353.969 126.216 358.227C125.758 362.485 125.246 366.294 124.762 369.494C124.277 372.694 123.88 375.268 123.51 377.049C123.351 377.931 123.219 378.601 123.131 379.095C123.131 379.315 123.051 379.491 123.016 379.624C122.981 379.756 123.016 379.809 123.016 379.809C123.008 379.747 123.008 379.685 123.016 379.624C123.016 379.483 123.06 379.306 123.095 379.086C123.166 378.586 123.272 377.899 123.413 377.023C123.704 375.26 124.091 372.615 124.541 369.459C124.991 366.302 125.467 362.406 125.925 358.191C126.384 353.977 126.807 349.261 127.098 344.332C127.389 339.404 127.583 334.723 127.671 330.447C127.759 326.171 127.759 322.327 127.671 319.092C127.583 315.856 127.556 313.247 127.495 311.439C127.495 310.558 127.45 309.861 127.433 309.359V308.821C127.455 308.757 127.481 308.696 127.512 308.636Z" fill="#263238"/>
<g opacity="0.5">
<path d="M125.009 366.787C117.074 360.774 108.716 350.759 106.442 340.515C115.246 347.095 121.745 356.291 125.009 366.787Z" fill="black"/>
<path d="M126.701 352.215C118.767 346.202 110.409 336.196 108.134 325.951C116.938 332.528 123.437 341.721 126.701 352.215Z" fill="black"/>
<path d="M127.618 337.861C119.683 331.848 111.317 321.842 109.042 311.598C117.854 318.169 124.357 327.364 127.618 337.861Z" fill="black"/>
<path d="M128.068 322.698C120.962 315.645 113.865 304.483 112.833 293.975C120.754 301.748 126.075 311.781 128.068 322.698Z" fill="black"/>
<path d="M127.389 310.849C123.325 301.327 120.653 288.024 123.333 277.762C127.909 288.152 129.32 299.661 127.389 310.849Z" fill="black"/>
<path d="M127.768 316.5C131.744 306.035 139.379 293.578 148.548 287.266C144.367 298.697 137.19 308.794 127.768 316.5Z" fill="black"/>
<path d="M127.645 329.019C132.634 318.439 141.609 306.097 151.677 300.357C146.392 311.9 138.089 321.802 127.645 329.019Z" fill="black"/>
<path d="M127.283 344.236C132.282 333.656 141.257 321.314 151.316 315.574C146.031 327.117 137.728 337.019 127.283 344.236Z" fill="black"/>
<path d="M125.423 362.565C130.413 351.985 139.388 339.643 149.447 333.903C144.161 345.443 135.862 355.344 125.423 362.565Z" fill="black"/>
</g>
<path d="M126.701 371.443C125.123 362.133 125.555 349.799 130.043 341.354C131.878 351.495 130.717 361.952 126.701 371.443Z" fill="#FFC100"/>
<path d="M136.231 362.689C134.653 353.379 135.094 341.046 139.573 332.591C141.416 342.735 140.255 353.196 136.231 362.689Z" fill="#FFC100"/>
<path d="M145.145 353.554C143.567 344.245 144.008 331.911 148.486 323.465C150.332 333.606 149.171 344.065 145.145 353.554Z" fill="#FFC100"/>
<path d="M154.217 343.539C153.776 334.035 155.689 321.798 161.12 313.996C161.731 324.305 159.333 334.569 154.217 343.539Z" fill="#FFC100"/>
<path d="M160.688 335.094C163.606 325.951 169.619 315.16 177.289 309.985C174.35 319.808 168.575 328.543 160.688 335.094Z" fill="#FFC100"/>
<path d="M157.637 339.175C166.251 334.706 178.391 331.294 187.903 333.101C178.638 338.076 168.105 340.19 157.637 339.175Z" fill="#FFC100"/>
<path d="M150.293 347.586C159.621 343.725 172.536 341.283 182.314 344.06C172.226 348.385 161.08 349.612 150.293 347.586Z" fill="#FFC100"/>
<path d="M141.239 357.645C150.558 353.784 163.473 351.342 173.251 354.119C163.165 358.439 152.023 359.666 141.239 357.645Z" fill="#FFC100"/>
<path d="M129.426 368.869C138.753 365.007 151.669 362.565 161.446 365.342C151.357 369.663 140.213 370.89 129.426 368.869Z" fill="#FFC100"/>
<path d="M162.036 333.674C162.036 333.674 162.036 333.727 161.948 333.815L161.666 334.203L160.564 335.684C159.594 336.962 158.157 338.787 156.35 341.018C152.735 345.47 147.534 351.474 141.433 357.768C138.374 360.907 135.376 363.816 132.617 366.408C129.857 369 127.283 371.257 125.097 373.117C122.91 374.978 121.121 376.468 119.86 377.455L118.414 378.601L118.026 378.892L117.894 378.98L118.008 378.866L118.37 378.548L119.772 377.349C121.006 376.327 122.769 374.819 124.929 372.941C127.089 371.063 129.619 368.762 132.388 366.17C135.156 363.578 138.127 360.66 141.204 357.53C147.305 351.262 152.515 345.294 156.191 340.885C158.025 338.681 159.489 336.883 160.485 335.596L161.649 334.159C161.772 334.009 161.878 333.894 161.957 333.788L162.036 333.674Z" fill="#263238"/>
<path d="M472.11 212.259C472.11 212.382 397.032 212.488 304.435 212.488C211.839 212.488 136.751 212.382 136.751 212.259C136.751 212.135 211.812 212.029 304.435 212.029C397.058 212.029 472.11 212.179 472.11 212.259Z" fill="#263238"/>
<path d="M350.121 233.956C350.121 234.088 332.894 234.185 311.638 234.185C290.382 234.185 273.146 234.088 273.146 233.956C273.146 233.824 290.382 233.727 311.638 233.727C332.894 233.727 350.121 233.832 350.121 233.956Z" fill="#263238"/>
<path d="M325.409 242.436C325.409 242.56 320.031 242.665 313.401 242.665C306.771 242.665 301.394 242.56 301.394 242.436C301.394 242.313 306.771 242.207 313.401 242.207C320.031 242.207 325.409 242.304 325.409 242.436Z" fill="#263238"/>
<path d="M318.347 253.73C314.351 254.036 310.337 254.036 306.34 253.73C310.337 253.425 314.351 253.425 318.347 253.73Z" fill="#263238"/>
<path d="M455.704 347.243H444.031V378.876H455.704V347.243Z" fill="#F5F5F5"/>
<path d="M447.601 361.666L445.847 345.665L439.702 340.023L440.822 338.7L447.601 344.598L449.691 361.666H447.601Z" fill="#FFC100"/>
<path opacity="0.3" d="M447.601 361.666L445.847 345.665L439.702 340.023L440.822 338.7L447.601 344.598L449.691 361.666H447.601Z" fill="white"/>
<path d="M455.712 378.876C455.692 378.665 455.692 378.452 455.712 378.241C455.712 377.8 455.712 377.209 455.712 376.478C455.712 374.891 455.712 372.651 455.65 369.857C455.65 364.223 455.589 356.35 455.545 347.261L455.774 347.481H444.039L444.26 347.261V356.368C444.26 359.313 444.26 362.143 444.26 364.831C444.26 370.183 444.26 374.952 444.207 378.876L444.048 378.726L452.574 378.805L454.892 378.849H455.509H455.73C455.73 378.849 455.668 378.849 455.536 378.849H454.954H452.662L444.048 378.937H443.898V378.779C443.898 374.855 443.898 370.086 443.845 364.734C443.845 362.09 443.845 359.216 443.845 356.271V351.784C443.845 351.016 443.845 350.249 443.845 349.482V347.164L444.084 346.926H455.977V347.146C455.977 356.297 455.897 364.214 455.871 369.892C455.871 372.669 455.871 374.891 455.809 376.46C455.809 377.192 455.809 377.765 455.809 378.223C455.793 378.443 455.76 378.661 455.712 378.876Z" fill="#263238"/>
<path d="M445.027 362.442C445.499 361.864 446.115 361.421 446.813 361.158C447.512 360.895 448.267 360.821 449.003 360.944C451.384 361.481 451.489 363.112 453.596 363.059H454.822V376.16C454.822 376.486 454.693 376.799 454.463 377.03C454.234 377.261 453.922 377.392 453.596 377.395H446.253C445.927 377.392 445.615 377.261 445.385 377.03C445.156 376.799 445.027 376.486 445.027 376.16V362.442Z" fill="#FFC100"/>
<path d="M431.036 236.449C429.481 236.973 427.959 237.588 426.478 238.292L431.547 231.98C432.684 230.569 434.324 228.356 433.769 227.572C433.213 226.787 430.948 229.494 429.775 230.437C428.603 231.38 426.963 232.747 426.963 232.747C426.963 232.747 431.371 227.069 432.085 225.2C432.64 223.842 430.842 223.366 429.916 224.768C429.916 224.768 430.225 223.005 428.911 223.587C427.598 224.169 423.375 229.873 423.04 229.52C422.705 229.167 425.861 224.362 425.508 223.516C425.305 223.031 424.538 223.199 423.674 224.398C422.81 225.597 416.357 234.528 415.801 235.982C415.664 236.303 415.561 236.637 415.493 236.978C415.493 236.978 393.038 253.368 389.503 259.698C386.444 265.173 381.771 305.33 381.771 305.33L396.988 312.207L401.131 265.19L422.167 243.917C422.6 243.912 423.029 243.835 423.436 243.688C425.103 243.026 433.619 237.128 433.619 237.128C433.619 237.128 433.108 235.885 431.036 236.449Z" fill="#FFBE9D"/>
<path d="M420.535 234.801C420.805 235.117 420.998 235.491 421.1 235.894C421.436 236.849 421.573 237.863 421.505 238.874L421.258 238.689L421.373 238.645C422.354 238.309 423.387 238.151 424.423 238.177C424.853 238.153 425.283 238.223 425.684 238.38C424.266 238.389 422.857 238.597 421.496 238.997L421.382 239.041L421.108 239.13V238.847C421.152 237.476 420.958 236.107 420.535 234.801Z" fill="#EB996E"/>
<path d="M430.075 224.574C429.35 225.903 428.528 227.176 427.615 228.383C426.803 229.662 425.825 230.827 424.706 231.848C424.635 231.786 425.887 230.208 427.351 228.162C428.151 226.889 429.063 225.688 430.075 224.574Z" fill="#EB996E"/>
<path d="M416.304 238.336C416.41 238.336 416.683 239.218 417.265 240.293C417.847 241.369 418.49 242.056 418.411 242.145C417.803 241.702 417.3 241.131 416.936 240.473C416.572 239.815 416.356 239.086 416.304 238.336Z" fill="#EB996E"/>
<path d="M314.177 323.474L336.703 324.171L360.506 317.021C361.441 312.19 364.667 305.657 372.893 304.969C381.903 304.211 388.074 306.283 392.289 304.969L398.566 302.324C398.566 302.324 413.756 313.609 414.435 316.43C415.114 319.251 401.837 333.798 397.164 337.651C389.926 343.628 373.008 344.871 367.286 345.585C358.884 353.52 352.298 360.017 348.067 362.098C341.014 365.554 325.003 365.783 316.575 361.137C302.628 353.485 314.177 323.474 314.177 323.474Z" fill="#FFC100"/>
<path d="M411.843 313.177C411.089 312.406 410.168 311.819 409.152 311.46C408.136 311.101 407.051 310.979 405.98 311.105C403.845 311.376 401.742 311.86 399.703 312.551C395.515 313.707 391.17 314.19 386.831 313.979C383.869 313.838 380.819 313.335 378.315 311.731C375.811 310.126 373.907 307.816 374.286 304.872C379.197 304.71 384.114 304.846 389.009 305.277L392.262 304.281C393.761 303.699 398.248 301.769 398.248 301.769L408.616 308.822L411.843 313.177Z" fill="#FFBE9D"/>
<path d="M366.034 329.708C365.893 329.532 365.781 329.336 365.699 329.126C365.438 328.571 365.222 327.996 365.055 327.407C364.506 325.449 364.368 323.399 364.65 321.385C364.932 319.372 365.629 317.438 366.695 315.707C367.013 315.183 367.376 314.688 367.78 314.226C368.071 313.909 368.247 313.741 368.265 313.759C368.282 313.777 367.718 314.544 366.977 315.866C365.039 319.355 364.467 323.44 365.373 327.327C365.717 328.799 366.105 329.672 366.034 329.708Z" fill="#263238"/>
<path d="M354.573 340.014C354.512 340.058 353.745 338.965 352.325 337.369C350.479 335.251 348.41 333.339 346.154 331.665C343.899 329.992 341.473 328.565 338.916 327.407C336.95 326.525 335.68 326.102 335.707 326.022C336.008 326.064 336.303 326.138 336.588 326.243C337.17 326.41 338.008 326.701 339.013 327.124C344.278 329.304 348.919 332.757 352.519 337.175C353.062 337.839 353.571 338.531 354.044 339.247C354.252 339.479 354.43 339.737 354.573 340.014Z" fill="#263238"/>
<path d="M345.14 345.03C344.998 345.03 345.139 342.843 344.575 340.243C344.011 337.642 343.024 335.702 343.147 335.641C344.11 336.978 344.753 338.52 345.025 340.146C345.444 341.742 345.483 343.415 345.14 345.03Z" fill="#263238"/>
<g opacity="0.3">
<path d="M367.868 314.121C366.912 314.381 366.024 314.844 365.263 315.478C364.502 316.113 363.887 316.903 363.46 317.797C362.61 319.59 362.214 321.563 362.305 323.545C362.305 325.599 362.79 327.847 364.412 329.126C364.694 329.355 365.117 329.531 365.39 329.293C365.664 329.055 365.558 328.658 365.452 328.332C364.707 325.908 364.548 323.341 364.988 320.843C365.428 318.345 366.454 315.986 367.982 313.962" fill="black"/>
</g>
<g opacity="0.3">
<path d="M350.235 345.303C350.315 342.658 349.468 340.736 348.155 338.461C346.784 336.215 345.117 334.163 343.2 332.361C342.169 331.44 341.022 330.657 339.788 330.033C338.69 329.32 337.404 328.948 336.094 328.966C339.171 330.633 342.204 332.696 343.764 336.901C344.767 339.401 345.244 342.081 345.166 344.774L350.235 345.303Z" fill="black"/>
</g>
<path d="M366.105 346.079C366.621 345.501 367.09 344.882 367.506 344.228C368.578 342.405 368.983 340.268 368.653 338.18C368.369 336.655 367.683 335.234 366.664 334.065C365.645 332.896 364.332 332.021 362.86 331.532C361.098 331.016 359.235 330.946 357.438 331.329C355.552 331.585 353.418 331.92 351.399 331.136C350.394 330.781 349.515 330.141 348.869 329.293C348.245 328.448 347.95 327.404 348.04 326.357C348.07 325.846 348.219 325.349 348.475 324.905C348.73 324.461 349.085 324.083 349.513 323.8C349.936 323.552 350.41 323.405 350.899 323.37C351.389 323.334 351.88 323.412 352.334 323.598C352.781 323.764 353.168 324.06 353.446 324.448C353.724 324.836 353.88 325.298 353.894 325.775C353.901 326.213 353.813 326.647 353.639 327.048C353.464 327.45 353.205 327.809 352.88 328.103C352.261 328.616 351.497 328.924 350.694 328.984C349.998 329.047 349.297 328.962 348.637 328.735C347.976 328.509 347.37 328.146 346.859 327.671C346.423 327.282 346.051 326.827 345.757 326.322C345.254 325.524 344.952 324.617 344.875 323.677C344.838 323.083 344.901 322.487 345.06 321.914C345.123 321.722 345.202 321.536 345.298 321.358C345.074 322.097 344.99 322.872 345.052 323.642C345.149 324.536 345.451 325.395 345.933 326.154C346.226 326.629 346.592 327.055 347.018 327.415C347.481 327.834 348.023 328.154 348.613 328.358C349.27 328.614 349.982 328.692 350.678 328.585C351.375 328.478 352.031 328.19 352.581 327.75C352.863 327.492 353.088 327.177 353.24 326.826C353.392 326.475 353.468 326.096 353.462 325.714C353.439 325.323 353.301 324.947 353.066 324.634C352.831 324.32 352.509 324.083 352.14 323.95C351.746 323.797 351.323 323.734 350.902 323.766C350.481 323.798 350.072 323.924 349.707 324.135C349.341 324.384 349.037 324.714 348.82 325.099C348.603 325.485 348.478 325.915 348.455 326.357C348.375 327.299 348.638 328.238 349.195 329.002C349.794 329.775 350.602 330.359 351.523 330.686C353.409 331.418 355.437 331.118 357.341 330.862C358.293 330.719 359.253 330.645 360.215 330.642C361.152 330.648 362.08 330.806 362.966 331.109C364.257 331.527 365.433 332.237 366.405 333.184C367.376 334.131 368.116 335.29 368.566 336.569C369.017 337.849 369.166 339.215 369.002 340.562C368.838 341.909 368.365 343.199 367.621 344.333C367.231 345.007 366.717 345.599 366.105 346.079Z" fill="#FAFAFA"/>
<path d="M367.691 314.446C367.691 314.49 367.277 314.244 366.81 313.671C366.226 312.911 365.841 312.017 365.69 311.07C365.537 310.122 365.631 309.15 365.963 308.249C366.219 307.561 366.51 307.208 366.554 307.235C366.085 308.429 365.943 309.727 366.143 310.995C366.343 312.263 366.877 313.454 367.691 314.446Z" fill="#FAFAFA"/>
<path d="M386.496 335.059C386.452 335.059 386.734 334.371 386.902 333.084C387.111 331.263 386.934 329.419 386.382 327.671C385.61 325.065 383.847 322.865 381.471 321.544C380.081 320.782 378.504 320.427 376.922 320.521C375.224 320.609 373.602 321.25 372.302 322.346C371.657 322.887 371.173 323.595 370.9 324.391C370.766 324.758 370.731 325.153 370.799 325.537C370.867 325.921 371.036 326.28 371.288 326.578C371.549 326.85 371.87 327.057 372.225 327.181C372.581 327.305 372.961 327.343 373.334 327.292C373.692 327.23 374.033 327.094 374.337 326.894C374.64 326.694 374.899 326.433 375.097 326.128C375.468 325.54 375.656 324.856 375.639 324.161C375.621 323.466 375.399 322.792 375 322.223C374.292 321.198 373.271 320.431 372.091 320.036C370.36 319.44 368.479 319.44 366.748 320.036C366.12 320.287 365.51 320.581 364.923 320.918C365.05 320.795 365.188 320.686 365.337 320.592C365.764 320.32 366.216 320.09 366.686 319.904C368.472 319.193 370.451 319.134 372.276 319.737C373.539 320.137 374.636 320.943 375.397 322.029C375.81 322.65 376.059 323.366 376.12 324.109C376.184 324.911 375.972 325.71 375.52 326.375C375.288 326.734 374.984 327.041 374.628 327.276C374.271 327.511 373.869 327.67 373.448 327.742C373.001 327.798 372.546 327.748 372.121 327.594C371.697 327.441 371.315 327.189 371.006 326.86C370.696 326.503 370.488 326.069 370.403 325.604C370.317 325.139 370.358 324.659 370.521 324.215C370.813 323.337 371.344 322.558 372.055 321.967C373.429 320.802 375.149 320.124 376.948 320.036C378.613 319.944 380.27 320.326 381.727 321.138C382.944 321.822 384.014 322.739 384.874 323.837C385.735 324.936 386.371 326.194 386.743 327.539C387.273 329.335 387.396 331.226 387.105 333.075C387.02 333.572 386.896 334.062 386.734 334.539C386.676 334.721 386.596 334.896 386.496 335.059Z" fill="#FAFAFA"/>
<g opacity="0.3">
<path d="M399.147 317.091C396.961 315.327 393.858 315.327 391.019 315.53C388.736 315.662 386.285 315.848 384.486 317.293C383.288 318.339 382.416 319.707 381.974 321.234C381.451 322.767 381.18 324.375 381.171 325.995C381.226 326.88 381.166 327.769 380.995 328.64C380.634 329.971 379.602 331.003 378.8 332.122C376.719 335.058 375.555 340.736 378.923 344.112C378.923 344.112 382.644 343.477 383.948 343.125" fill="black"/>
</g>
<path d="M374.039 306.362C374.039 306.477 373.466 306.362 373.087 305.895C372.708 305.428 372.743 304.854 372.867 304.854C372.99 304.854 373.149 305.234 373.449 305.613C373.748 305.992 374.039 306.239 374.039 306.362Z" fill="#FAFAFA"/>
<path d="M395.26 322.381C395.26 322.425 394.748 322.187 394.096 321.623C392.412 320.087 391.394 317.956 391.257 315.681C391.192 315.216 391.238 314.742 391.389 314.297C391.546 315.813 391.923 317.298 392.509 318.705C393.236 320.062 394.163 321.301 395.26 322.381Z" fill="#FAFAFA"/>
<path d="M344.946 341.194C345.066 341.29 345.167 341.406 345.245 341.538C345.497 341.879 345.693 342.257 345.827 342.658C346.042 343.311 346.166 343.99 346.198 344.677C346.259 345.479 346.198 346.387 346.251 347.374C346.235 348.437 346.461 349.489 346.912 350.451C347.164 350.969 347.539 351.417 348.005 351.756C348.512 352.1 349.097 352.312 349.706 352.373C350.353 352.466 351.009 352.466 351.655 352.373C352.304 352.309 352.902 351.992 353.321 351.492C353.494 351.211 353.597 350.894 353.622 350.566C353.646 350.237 353.592 349.908 353.462 349.605C353.206 348.935 352.781 348.343 352.228 347.886C351.722 347.401 351.087 347.072 350.399 346.939C349.711 346.806 348.999 346.875 348.349 347.136C347.175 347.794 346.209 348.769 345.563 349.949C344.883 350.961 344.435 352.111 344.249 353.317C344.146 354.376 344.303 355.444 344.708 356.429C345.338 357.856 346.212 359.163 347.291 360.29C347.695 360.703 348.074 361.139 348.428 361.595C348.302 361.515 348.187 361.421 348.084 361.313C347.864 361.11 347.547 360.81 347.159 360.431C346.008 359.327 345.075 358.018 344.408 356.57C343.96 355.541 343.775 354.417 343.87 353.299C344.046 352.038 344.504 350.832 345.21 349.772C345.888 348.514 346.913 347.476 348.164 346.784C348.875 346.456 349.673 346.369 350.438 346.537C351.213 346.706 351.933 347.07 352.528 347.595C353.138 348.101 353.606 348.757 353.885 349.499C354.043 349.87 354.107 350.274 354.072 350.675C354.037 351.076 353.903 351.463 353.683 351.8C353.444 352.098 353.15 352.346 352.815 352.529C352.481 352.712 352.113 352.827 351.734 352.867C351.044 352.968 350.343 352.968 349.654 352.867C348.98 352.793 348.335 352.554 347.776 352.17C347.263 351.788 346.851 351.285 346.577 350.707C346.112 349.687 345.889 348.574 345.924 347.454C345.924 346.449 345.977 345.558 345.924 344.809C345.91 344.139 345.815 343.473 345.642 342.825C345.482 342.254 345.248 341.705 344.946 341.194Z" fill="#FAFAFA"/>
<path d="M341.516 328.781C341.56 328.781 341.789 328.896 342.036 329.266C342.344 329.749 342.52 330.304 342.548 330.876C342.576 331.448 342.454 332.017 342.195 332.528C341.983 332.907 341.772 333.084 341.728 333.048C342.002 332.364 342.125 331.628 342.089 330.892C342.052 330.155 341.857 329.435 341.516 328.781Z" fill="#FAFAFA"/>
<path d="M330.567 329.778C330.523 329.778 330.232 329.575 329.932 329.055C329.542 328.368 329.355 327.585 329.394 326.797C329.433 326.008 329.696 325.247 330.152 324.603C330.505 324.118 330.813 323.915 330.858 323.95C330.253 324.791 329.905 325.787 329.853 326.821C329.801 327.855 330.049 328.881 330.567 329.778Z" fill="#FAFAFA"/>
<path d="M205.342 296.196C205.342 296.196 259.261 284.85 263.528 283.351C267.795 281.852 274.452 283.624 276.629 285.467C276.629 285.467 329.949 325.492 326 325.228C320.49 324.858 308.702 347.859 308.702 347.859C308.702 347.859 266.94 305.85 261.404 305.4C255.867 304.951 205.35 299.229 205.35 299.229L205.342 296.196Z" fill="#EB996E"/>
<path d="M183.31 292.141C187.198 288.138 201.824 297.722 208.789 295.456C211.574 298.233 211.698 299.978 211.698 299.978C211.698 299.978 200.113 307.076 197.909 304.898C195.705 302.72 194.304 298.101 189.728 296.417C187.308 295.465 185.12 294.008 183.31 292.141Z" fill="#EB996E"/>
<path d="M199.999 296.621L203.631 296.33L261.192 291.789C261.192 291.789 269.374 290.026 274.716 294.505C276.435 295.951 326.009 325.229 326.009 325.229C326.009 325.229 344.734 339.053 337.549 354.182C331.325 367.282 318.665 363.201 310.104 358.837C302.778 355.107 280.711 333.023 270.723 319.922C270.529 319.666 270.343 319.411 270.167 319.146C269.1 317.603 264.56 311.458 259.87 311.917C254.51 312.455 237.3 312.172 228.37 310.303C219.439 308.434 198.13 301.91 198.13 301.91L199.999 296.621Z" fill="#FFBE9D"/>
<path d="M177.271 288.977C181.776 285.671 194.577 297.546 201.841 296.471C201.841 302.086 198.112 301.91 198.112 301.91C198.112 301.91 191.368 306.495 189.561 303.982C187.753 301.469 187.127 296.682 182.895 294.284C180.664 292.935 178.747 291.126 177.271 288.977Z" fill="#FFBE9D"/>
<path d="M444.745 288.658C441.756 286.763 437.895 288.024 434.368 288.315C430.138 288.655 425.921 287.498 422.458 285.044C414.894 279.631 411.993 268.769 403.521 264.925C400.937 263.835 398.108 263.46 395.33 263.84C392.551 264.22 389.927 265.341 387.731 267.085C385.575 268.875 383.866 271.144 382.743 273.711C381.619 276.278 381.111 279.072 381.26 281.87C381.45 284.665 382.192 287.395 383.441 289.902C384.691 292.409 386.425 294.644 388.542 296.478L421.55 311.748C430.022 312.63 439.949 308.53 444.243 301.169C445.389 299.194 447.769 296.822 447.707 294.53C447.728 293.384 447.469 292.251 446.952 291.228C446.436 290.205 445.679 289.323 444.745 288.658Z" fill="#FFC100"/>
<g opacity="0.3">
<path d="M413.051 277.418C412.736 274.801 411.695 272.325 410.045 270.269C408.395 268.214 406.202 266.662 403.714 265.79C401.206 264.98 398.533 264.828 395.949 265.346C393.365 265.865 390.957 267.037 388.956 268.752C386.99 270.505 385.462 272.694 384.493 275.143C383.524 277.592 383.141 280.234 383.375 282.858C383.79 286.606 385.186 290.179 387.422 293.217C389.662 296.238 392.336 298.912 395.357 301.151" fill="black"/>
</g>
<path d="M401.131 283.272C399.853 285.917 398.284 288.888 395.445 289.77C393.399 290.396 390.763 289.955 389.494 291.674C388.224 293.393 389.494 296.294 388.286 298.189C387.501 299.415 385.888 299.82 384.433 299.873C382.979 299.926 381.462 299.75 380.087 300.235C378.712 300.72 377.504 302.192 377.98 303.576C378.456 304.96 380.237 305.383 381.718 305.569C384.09 305.851 386.576 306.133 388.824 305.304C390.339 304.652 391.738 303.759 392.967 302.659L400.726 296.426" fill="#263238"/>
<path d="M421.55 273.513C420.121 273.003 418.577 272.909 417.096 273.239C415.616 273.57 414.259 274.313 413.183 275.382C412.434 276.264 411.825 277.357 410.767 277.859C409.811 278.165 408.808 278.3 407.805 278.256C406.124 278.393 404.531 279.061 403.256 280.165C401.98 281.269 401.09 282.75 400.714 284.394C400.337 286.038 400.495 287.759 401.163 289.307C401.831 290.856 402.975 292.151 404.429 293.005" fill="#263238"/>
<g opacity="0.3">
<path d="M422.281 311.158C425.693 311.051 429.04 310.197 432.087 308.657C435.133 307.118 437.805 304.929 439.914 302.245C441.175 300.731 442.058 298.939 442.488 297.017C442.616 296.541 442.575 296.037 442.374 295.588C441.915 294.768 440.734 294.76 439.835 295.033C438.935 295.306 438.01 295.765 437.11 295.5C436.343 298.695 434.523 301.54 431.944 303.576C429.376 305.583 426.59 307.295 423.639 308.68" fill="black"/>
</g>
<path d="M408.607 280.945C416.798 266.354 432.711 275.109 435.982 283.854C439.05 292.08 437.745 297.475 434.06 301.936C430.384 306.511 425.358 309.809 419.698 311.361C416.912 312.057 413.527 312.066 411.623 309.959" fill="#263238"/>
<path d="M387.907 306.088C393.699 301.68 397.182 299.114 397.146 299.132C397.111 299.15 394.29 293.472 400.1 287.6C402.991 284.682 408.475 280.909 413.068 277.964C417.194 275.32 423.956 274.385 426.434 278.626L432.332 293.181C432.697 293.8 432.816 294.534 432.664 295.237C432.512 295.94 432.1 296.559 431.512 296.972L405.513 314.816" fill="#FFBE9D"/>
<path d="M410.353 283.511C410.131 283.667 409.98 283.904 409.93 284.171C409.881 284.438 409.938 284.713 410.089 284.939C410.156 285.053 410.246 285.152 410.353 285.231C410.46 285.309 410.582 285.366 410.711 285.396C410.84 285.427 410.974 285.431 411.105 285.408C411.236 285.386 411.361 285.337 411.473 285.265C411.696 285.11 411.849 284.873 411.9 284.607C411.951 284.34 411.896 284.063 411.746 283.837C411.604 283.609 411.378 283.447 411.117 283.386C410.856 283.325 410.581 283.37 410.353 283.511Z" fill="#263238"/>
<path d="M416.939 292.449C416.718 292.604 416.566 292.839 416.517 293.105C416.467 293.37 416.524 293.644 416.674 293.868C416.742 293.983 416.832 294.082 416.939 294.161C417.046 294.239 417.168 294.295 417.297 294.326C417.426 294.356 417.56 294.36 417.691 294.338C417.822 294.315 417.947 294.267 418.058 294.195C418.281 294.041 418.434 293.806 418.485 293.541C418.536 293.275 418.481 293 418.332 292.775C418.263 292.661 418.172 292.561 418.064 292.483C417.957 292.404 417.834 292.348 417.704 292.317C417.574 292.287 417.44 292.283 417.308 292.305C417.177 292.328 417.051 292.377 416.939 292.449Z" fill="#263238"/>
<path d="M411.525 281.077C411.525 281.262 412.407 281.589 413.051 282.523C413.694 283.458 413.685 284.454 413.87 284.471C414.056 284.489 414.082 284.242 414.091 283.793C414.096 283.201 413.917 282.621 413.58 282.135C413.25 281.65 412.774 281.283 412.222 281.086C411.808 280.945 411.543 280.989 411.525 281.077Z" fill="#263238"/>
<path d="M417.635 289.857C417.635 290.042 418.517 290.333 419.213 291.241C419.91 292.15 419.918 293.146 420.095 293.163C420.271 293.181 420.297 292.917 420.289 292.476C420.274 291.883 420.073 291.309 419.716 290.836C419.37 290.364 418.881 290.015 418.323 289.84C417.908 289.76 417.644 289.76 417.635 289.857Z" fill="#263238"/>
<path d="M408.352 291.876C408.159 291.286 407.886 290.726 407.541 290.21C407.391 289.954 407.276 289.699 407.408 289.549C407.634 289.353 407.914 289.23 408.211 289.196L410.476 288.588C412.44 288.13 414.363 287.511 416.225 286.736C414.232 287.045 412.266 287.508 410.344 288.12L408.087 288.764C407.697 288.824 407.34 289.02 407.082 289.319C407.027 289.413 406.993 289.518 406.984 289.626C406.975 289.735 406.991 289.844 407.029 289.945C407.087 290.098 407.164 290.244 407.259 290.377C407.558 290.921 407.925 291.425 408.352 291.876Z" fill="#263238"/>
<path d="M397.146 299.133C399.377 302.253 402.428 304.695 405.962 306.186C405.962 306.186 399.791 307.314 395.533 300.279L397.146 299.133Z" fill="#EB996E"/>
<path d="M406.447 293.87C406.791 293.882 407.126 293.982 407.42 294.159C407.715 294.337 407.96 294.586 408.131 294.884C408.261 295.099 408.346 295.338 408.381 295.586C408.416 295.835 408.4 296.088 408.334 296.33C408.274 296.565 408.142 296.776 407.958 296.934C407.773 297.091 407.544 297.188 407.303 297.211C407.033 297.184 406.778 297.078 406.569 296.905C406.36 296.732 406.207 296.501 406.13 296.242C405.967 295.699 405.913 295.13 405.971 294.567C405.971 294.413 405.998 294.261 406.051 294.117C406.077 294.046 406.124 293.985 406.185 293.941C406.246 293.897 406.319 293.872 406.395 293.87" fill="#EB996E"/>
<path d="M409.692 295.05C409.586 294.901 408.599 295.623 407.285 295.288C405.971 294.953 405.301 293.834 405.16 293.922C405.019 294.01 405.16 294.301 405.451 294.751C405.867 295.335 406.476 295.754 407.17 295.932C407.835 296.102 408.54 296.007 409.136 295.668C409.577 295.359 409.745 295.05 409.692 295.05Z" fill="#263238"/>
<path d="M418.799 288.659C418.614 288.923 419.398 289.752 420.051 290.907C420.703 292.062 421.047 293.146 421.373 293.12C421.523 293.12 421.646 292.785 421.629 292.238C421.593 291.557 421.393 290.895 421.047 290.307C420.708 289.717 420.238 289.213 419.672 288.835C419.222 288.588 418.887 288.535 418.799 288.659Z" fill="#263238"/>
<path d="M414.003 279.587C413.915 279.896 414.585 280.363 415.149 281.113C415.713 281.862 416.031 282.603 416.357 282.594C416.507 282.594 416.639 282.329 416.63 281.906C416.588 281.36 416.386 280.839 416.049 280.407C415.712 279.976 415.255 279.654 414.735 279.482C414.329 279.376 414.056 279.446 414.003 279.587Z" fill="#263238"/>
<path d="M422.061 302.175C422.176 302.237 426.205 304.555 422.29 307.465C418.376 310.374 416.243 305.86 416.357 305.772C416.472 305.684 422.061 302.175 422.061 302.175Z" fill="#FFBE9D"/>
<path d="M418.728 305.877C418.728 305.877 418.728 305.974 418.728 306.132C418.782 306.346 418.914 306.531 419.098 306.652C419.448 306.783 419.826 306.82 420.195 306.758C420.563 306.696 420.909 306.538 421.197 306.3C421.557 306.062 421.858 305.745 422.078 305.374C422.168 305.248 422.227 305.102 422.25 304.949C422.273 304.796 422.26 304.639 422.21 304.492C422.173 304.399 422.104 304.322 422.015 304.275C421.926 304.229 421.823 304.215 421.725 304.237C421.576 304.237 421.523 304.351 421.496 304.334C421.47 304.316 421.496 304.201 421.681 304.113C421.798 304.072 421.926 304.072 422.043 304.113C422.204 304.159 422.34 304.267 422.422 304.413C422.512 304.598 422.552 304.803 422.54 305.009C422.528 305.214 422.463 305.413 422.351 305.586C422.145 306.001 421.843 306.36 421.47 306.635C421.136 306.914 420.727 307.088 420.294 307.137C419.862 307.185 419.424 307.106 419.037 306.908C418.924 306.828 418.832 306.722 418.767 306.6C418.703 306.477 418.668 306.341 418.666 306.203C418.64 305.956 418.71 305.868 418.728 305.877Z" fill="#EB996E"/>
<path d="M427.448 275.858C424.706 274.491 419.566 276.88 417.935 279.472C416.304 282.064 416.974 285.326 418.217 288.13C419.366 290.897 421.183 293.335 423.507 295.227C422.026 296.558 421.091 298.753 421.805 300.587C422.757 303.047 426.152 303.734 428.567 302.668C430.983 301.601 432.623 299.344 434.139 297.193" fill="#263238"/>
<path d="M425.905 303.726C425.731 303.717 425.56 303.688 425.394 303.638C425.076 303.55 424.609 303.435 424.045 303.224C423.377 302.994 422.749 302.661 422.184 302.236C421.467 301.715 420.938 300.976 420.677 300.129C420.458 299.266 420.532 298.354 420.888 297.537C421.166 296.877 421.57 296.278 422.079 295.774C422.414 295.446 422.78 295.151 423.172 294.892C423.306 294.784 423.458 294.701 423.621 294.646C423.621 294.646 423.022 295.077 422.22 295.933C421.755 296.429 421.385 297.005 421.126 297.634C420.806 298.399 420.744 299.247 420.95 300.05C421.191 300.843 421.679 301.538 422.343 302.033C422.878 302.453 423.473 302.792 424.106 303.039C425.173 303.479 425.922 303.682 425.905 303.726Z" fill="#263238"/>
<path d="M435.858 297.044C435.858 297.044 436.035 296.823 436.273 296.382C436.598 295.758 436.79 295.074 436.837 294.372C436.903 293.329 436.749 292.284 436.387 291.304C435.908 290.111 435.318 288.966 434.624 287.884C433.389 285.889 432.381 283.763 431.618 281.545C431.336 280.663 431.133 279.993 431.018 279.508C430.948 279.261 430.912 279.067 430.886 278.944C430.86 278.821 430.886 278.741 430.886 278.741C430.911 278.804 430.931 278.869 430.948 278.935L431.115 279.491C431.256 279.967 431.468 280.663 431.768 281.501C432.561 283.698 433.581 285.808 434.809 287.795C435.507 288.888 436.097 290.045 436.572 291.251C436.936 292.252 437.08 293.32 436.996 294.381C436.938 295.099 436.721 295.794 436.361 296.418C436.265 296.585 436.156 296.744 436.035 296.894C435.981 296.949 435.922 296.999 435.858 297.044Z" fill="#455A64"/>
<path d="M415.176 303.109C414.887 302.713 414.513 302.387 414.081 302.157C413.649 301.926 413.171 301.796 412.681 301.776C412.192 301.757 411.704 301.848 411.255 302.044C410.806 302.24 410.407 302.535 410.089 302.906C409.551 303.541 409.154 304.449 408.325 304.59C407.497 304.731 406.985 304.185 406.368 303.815C405.746 303.445 405.047 303.223 404.326 303.165C403.605 303.106 402.88 303.214 402.207 303.478C401.533 303.743 400.929 304.157 400.44 304.691C399.951 305.224 399.591 305.862 399.386 306.556C399.095 307.535 399.051 308.716 398.231 309.333C397.411 309.951 396.203 309.642 395.145 309.58C394.422 309.542 393.698 309.65 393.017 309.898C392.336 310.145 391.712 310.527 391.181 311.02C390.651 311.514 390.225 312.109 389.929 312.77C389.633 313.432 389.473 314.146 389.459 314.87C389.509 315.341 389.439 315.817 389.256 316.254C388.932 316.666 388.494 316.973 387.995 317.136C386.724 317.733 385.637 318.66 384.844 319.819C384.052 320.979 383.585 322.329 383.49 323.73C383.405 324.266 383.464 324.816 383.663 325.321C383.861 325.827 384.191 326.27 384.619 326.604C385.091 326.81 385.606 326.901 386.121 326.87C386.636 326.84 387.136 326.688 387.581 326.428C390.949 324.938 393.576 321.976 397.094 320.874C398.129 320.65 399.137 320.312 400.1 319.869C401.114 319.167 401.974 318.268 402.63 317.224C406.465 312.071 411.064 307.534 416.269 303.77" fill="#263238"/>
<path d="M387.501 267.271C389.391 265.684 391.597 264.519 393.974 263.855C396.35 263.19 398.841 263.041 401.279 263.418C403.718 263.794 406.048 264.687 408.113 266.038C410.178 267.388 411.931 269.164 413.253 271.247C413.594 271.932 414.115 272.511 414.761 272.922C415.863 273.469 417.159 272.825 418.287 272.349C420.538 271.4 422.997 271.052 425.423 271.339C427.849 271.626 430.159 272.538 432.126 273.985C434.094 275.433 435.652 277.367 436.647 279.597C437.643 281.828 438.043 284.279 437.806 286.71L443.334 288.051C443.405 288.051 443.334 288.641 443.334 288.641L443.898 295.826C440.742 296.708 431.291 295.139 429.581 294.398C425.719 292.75 422.863 291.603 419.654 288.906C414.426 284.498 412.998 272.111 407.602 267.914C402.312 263.832 393.152 263.832 387.484 267.315" fill="#FFC100"/>
<path d="M436.405 293.287C436.042 293.357 435.671 293.381 435.303 293.358C434.301 293.349 433.301 293.257 432.314 293.084C429.02 292.527 425.916 291.157 423.284 289.099C420.652 287.041 418.574 284.36 417.238 281.297C416.827 280.381 416.497 279.432 416.251 278.458C416.142 278.109 416.077 277.748 416.057 277.383C416.145 277.383 416.454 278.899 417.529 281.165C418.918 284.123 420.984 286.714 423.558 288.728C426.132 290.741 429.143 292.122 432.349 292.758C434.871 293.287 436.405 293.19 436.405 293.287Z" fill="#263238"/>
<path d="M437.815 287.495C437.461 287.609 437.094 287.677 436.722 287.698C435.712 287.813 434.695 287.84 433.681 287.777C430.306 287.577 427.047 286.477 424.241 284.591C421.435 282.706 419.185 280.105 417.723 277.057C417.281 276.145 416.921 275.195 416.648 274.218C416.529 273.864 416.455 273.497 416.427 273.125C416.891 274.412 417.42 275.675 418.014 276.907C419.519 279.856 421.748 282.374 424.493 284.225C427.238 286.076 430.409 287.198 433.707 287.487C436.237 287.681 437.807 287.398 437.815 287.495Z" fill="#FAFAFA"/>
<path d="M437.436 283.642C437.155 283.753 436.857 283.816 436.555 283.827C435.756 283.926 434.947 283.926 434.148 283.827C431.492 283.467 428.993 282.364 426.936 280.645C424.908 278.931 423.196 276.875 421.876 274.57C421.365 273.689 420.994 272.975 420.739 272.472C420.588 272.217 420.475 271.94 420.404 271.652C420.465 271.652 421.065 272.719 422.167 274.403C423.548 276.614 425.261 278.6 427.245 280.292C429.246 281.954 431.647 283.064 434.21 283.51C435.281 283.631 436.359 283.676 437.436 283.642Z" fill="#FAFAFA"/>
<path d="M436.802 280.6C436.081 280.52 435.378 280.324 434.721 280.019C433.096 279.358 431.583 278.451 430.233 277.33C428.891 276.205 427.731 274.878 426.795 273.398C426.376 272.803 426.055 272.145 425.843 271.449C427.144 273.499 428.723 275.359 430.533 276.977C432.444 278.471 434.553 279.691 436.802 280.6Z" fill="#FAFAFA"/>
<path d="M404.014 312.18C404.014 312.18 378.447 331.479 380.14 340.71C380.14 340.71 381.286 344.236 388.665 343.354C396.044 342.473 404.464 334.538 408.607 331.082C414.673 326.075 423.216 309.086 423.216 309.086L404.014 312.18Z" fill="#FFBE9D"/>
<path d="M420.677 286.992L417.344 298.453L393.038 323.553L410.75 324.249L427.183 304.325L433.504 293.745C433.504 293.745 435.338 289.496 431.82 290.06C431.82 290.06 431.071 287.574 429.661 287.636C428.966 287.641 428.275 287.739 427.606 287.927C427.606 287.927 427.077 286.34 425.79 286.692C425.449 286.751 425.13 286.903 424.87 287.132C424.61 287.361 424.419 287.657 424.318 287.988C424.318 287.988 424.142 286.049 422.44 286.225C420.739 286.402 420.677 286.992 420.677 286.992Z" fill="#FFBE9D"/>
<path d="M83.1045 220.625C83.1045 220.625 200.624 302.941 245.499 317.25C272.538 325.864 305.845 337.069 332.056 342.491C349.353 346.079 355.163 345.515 359.659 345.568C365.566 345.638 398.389 340.728 413.976 320.494C429.563 300.261 512.497 218.482 512.497 218.482L513.052 221.242C513.052 221.242 422.422 350.954 378.164 361.093C333.907 371.232 299.471 365.766 290.364 357.443C281.257 349.121 191.385 314.023 153.801 278.582C145.946 271.15 83.1045 220.625 83.1045 220.625Z" fill="#FFC100"/>
<path opacity="0.5" d="M83.1045 220.625C83.1045 220.625 200.624 302.941 245.499 317.25C272.538 325.864 305.845 337.069 332.056 342.491C349.353 346.079 355.163 345.515 359.659 345.568C365.566 345.638 398.389 340.728 413.976 320.494C429.563 300.261 512.497 218.482 512.497 218.482L513.052 221.242C513.052 221.242 422.422 350.954 378.164 361.093C333.907 371.232 299.471 365.766 290.364 357.443C281.257 349.121 191.385 314.023 153.801 278.582C145.946 271.15 83.1045 220.625 83.1045 220.625Z" fill="black"/>
<path d="M410.468 330.599C409.129 332.017 407.682 333.329 406.139 334.522C401.943 337.805 397.322 340.507 392.403 342.553C385.09 345.544 377.401 347.517 369.552 348.416C359.962 349.534 350.3 349.911 340.652 349.545C323.108 348.965 305.704 346.208 288.84 341.337C282.368 339.494 277.255 337.607 273.729 336.32L269.7 334.733L268.659 334.301C268.537 334.259 268.419 334.206 268.307 334.143L268.677 334.257L269.735 334.645L273.79 336.153C277.317 337.387 282.457 339.221 288.937 341.019C305.789 345.799 323.162 348.508 340.67 349.086C350.293 349.448 359.93 349.086 369.499 348.002C377.317 347.123 384.98 345.189 392.28 342.254C397.185 340.24 401.806 337.594 406.024 334.381C407.505 333.226 408.607 332.265 409.339 331.604L410.177 330.845C410.268 330.757 410.365 330.674 410.468 330.599Z" fill="#263238"/>
<path d="M387.263 344.599C387.087 344.688 386.904 344.765 386.717 344.828L385.103 345.41C383.701 345.921 381.656 346.591 379.117 347.367C365.839 351.404 352.15 353.935 338.307 354.914C335.662 355.099 333.502 355.196 332.021 355.231H330.258C330.061 355.25 329.863 355.25 329.667 355.231C329.86 355.183 330.059 355.16 330.258 355.16L331.968 355.037C333.449 354.958 335.591 354.808 338.236 354.579C343.526 354.138 350.826 353.3 358.796 351.828C366.765 350.356 373.88 348.531 378.976 347.05C381.533 346.309 383.587 345.683 385.006 345.233L386.637 344.731C386.84 344.664 387.05 344.62 387.263 344.599Z" fill="#263238"/>
<path d="M491.294 243.847C491.391 243.926 477.453 260.183 460.173 280.143C442.893 300.103 428.761 316.21 428.699 316.14C428.637 316.069 442.541 299.803 459.829 279.835C477.118 259.866 491.171 243.759 491.294 243.847Z" fill="#263238"/>
<path d="M266.287 334.653L266.049 334.565L265.379 334.265L262.796 333.075C260.566 332.035 257.348 330.492 253.389 328.552C245.455 324.673 234.611 319.163 222.78 312.78C210.948 306.397 200.36 300.341 192.796 295.818C189.005 293.57 185.954 291.727 183.856 290.431L181.449 288.932L180.823 288.527C180.75 288.485 180.682 288.434 180.621 288.377C180.702 288.404 180.779 288.442 180.85 288.492L181.493 288.853L183.953 290.272L192.963 295.562C200.58 299.97 211.169 306.009 222.991 312.401C234.814 318.793 245.658 324.338 253.539 328.27L262.876 332.916L265.415 334.195L266.067 334.53C266.145 334.562 266.219 334.603 266.287 334.653Z" fill="#263238"/>
<path d="M359.201 348.83C359.078 348.777 359.36 348.018 359.025 347.146C358.69 346.273 358.02 345.876 358.073 345.761C358.126 345.647 358.32 345.761 358.619 345.911C359.005 346.173 359.298 346.549 359.457 346.987C359.619 347.425 359.641 347.903 359.519 348.353C359.404 348.68 359.245 348.83 359.201 348.83Z" fill="#FAFAFA"/>
<path d="M349.186 353.026C349.124 353.132 348.366 352.559 348.243 351.484C348.119 350.408 348.683 349.659 348.772 349.72C348.86 349.782 348.569 350.496 348.692 351.395C348.816 352.295 349.283 352.929 349.186 353.026Z" fill="#FAFAFA"/>
<path d="M363.997 364.266C363.918 364.266 363.997 363.508 363.997 362.3C363.986 360.732 363.727 359.176 363.23 357.689C362.722 356.204 361.988 354.806 361.053 353.546C360.33 352.585 359.783 352.056 359.836 352.003C360.41 352.353 360.91 352.811 361.308 353.352C363.415 355.847 364.498 359.047 364.341 362.309C364.346 362.977 364.229 363.64 363.997 364.266Z" fill="#FAFAFA"/>
<path d="M385.262 344.872C385.05 344.089 384.797 343.318 384.504 342.562C383.931 341.354 383.067 340.64 383.155 340.534C383.243 340.428 384.283 341.037 384.918 342.359C385.146 342.731 385.294 343.147 385.353 343.579C385.412 344.012 385.381 344.452 385.262 344.872Z" fill="#FAFAFA"/>
<path d="M389.996 356.024C389.926 356.024 389.811 355.389 389.344 354.464C388.688 353.265 387.924 352.129 387.06 351.069C386.167 349.985 385.488 348.74 385.059 347.402C384.854 346.837 384.817 346.224 384.953 345.639C385.033 345.639 385.024 346.3 385.368 347.278C385.873 348.55 386.566 349.738 387.422 350.805C388.31 351.879 389.054 353.065 389.635 354.331C389.907 354.852 390.032 355.438 389.996 356.024Z" fill="#FAFAFA"/>
<path d="M404.807 335.06C404.558 334.344 404.23 333.658 403.829 333.015C403.079 332.009 402.065 331.648 402.127 331.525C402.189 331.401 402.418 331.481 402.833 331.657C403.373 331.892 403.841 332.266 404.19 332.741C404.548 333.207 404.782 333.756 404.869 334.337C404.895 334.787 404.895 335.06 404.807 335.06Z" fill="#FAFAFA"/>
<path d="M411.896 341.169C411.913 339.577 411.672 337.993 411.182 336.479C410.553 335.017 409.699 333.664 408.651 332.467C408.651 332.423 409.154 332.714 409.78 333.349C410.58 334.206 411.203 335.212 411.613 336.311C412.023 337.409 412.212 338.578 412.169 339.749C412.192 340.238 412.099 340.724 411.896 341.169Z" fill="#FAFAFA"/>
<path d="M429.202 323.784C429.131 323.828 428.699 323.131 427.853 322.144C425.629 319.555 422.676 317.696 419.38 316.81C418.128 316.475 417.317 316.378 417.317 316.299C418.037 316.237 418.762 316.303 419.46 316.493C421.163 316.859 422.789 317.522 424.265 318.45C425.743 319.387 427.042 320.581 428.1 321.976C428.566 322.513 428.938 323.123 429.202 323.784Z" fill="#FAFAFA"/>
<path d="M438.062 305.136C437.398 304.049 436.624 303.033 435.752 302.103C434.781 301.269 433.73 300.534 432.613 299.908C433.919 300.201 435.119 300.85 436.078 301.784C437.037 302.718 437.717 303.9 438.044 305.198L438.062 305.136Z" fill="#FAFAFA"/>
<path d="M445.856 307.2C445.856 307.253 445.424 307.2 444.78 306.979C443.948 306.649 443.192 306.154 442.557 305.524C441.923 304.894 441.422 304.141 441.086 303.312C440.848 302.668 440.813 302.245 440.866 302.228C441.406 303.302 442.084 304.301 442.885 305.199C443.786 305.989 444.784 306.662 445.856 307.2Z" fill="#FAFAFA"/>
<path d="M455.95 283.009C455.349 282.26 454.578 281.664 453.701 281.272C452.824 280.879 451.867 280.701 450.907 280.752C450.907 280.699 451.207 280.54 451.789 280.487C452.517 280.427 453.248 280.552 453.916 280.849C454.583 281.147 455.164 281.607 455.606 282.189C455.906 282.647 456.029 282.982 455.95 283.009Z" fill="#FAFAFA"/>
<path d="M461.548 287.998C460.379 288.15 459.192 287.912 458.172 287.319C457.086 286.864 456.176 286.069 455.58 285.054C456.476 285.725 457.409 286.346 458.374 286.914C459.407 287.344 460.468 287.707 461.548 287.998Z" fill="#FAFAFA"/>
<path d="M473.908 263.586C473.785 263.648 473.335 262.705 472.357 262.07C471.721 261.733 471.065 261.439 470.391 261.188C470.778 261.098 471.181 261.1 471.567 261.195C471.953 261.29 472.311 261.475 472.612 261.735C473.723 262.431 474.032 263.569 473.908 263.586Z" fill="#FAFAFA"/>
<path d="M480.653 264.547C479.68 264.572 478.726 264.274 477.939 263.7C477.153 263.126 476.579 262.308 476.307 261.373C476.883 262.077 477.52 262.729 478.211 263.321C478.99 263.797 479.806 264.207 480.653 264.547Z" fill="#FAFAFA"/>
<path d="M488.473 246.677C488.341 246.677 488.2 246.042 487.715 245.443C487.23 244.843 486.648 244.561 486.683 244.42C486.718 244.279 487.494 244.42 488.076 245.16C488.658 245.901 488.596 246.694 488.473 246.677Z" fill="#FAFAFA"/>
<path d="M493.939 247.206C493.939 247.329 492.96 247.32 492.061 246.606C491.162 245.892 490.933 244.931 491.047 244.913C491.162 244.896 491.55 245.628 492.343 246.245C493.137 246.862 493.939 247.073 493.939 247.206Z" fill="#FAFAFA"/>
<path d="M501.08 238.372C500.888 237.311 500.457 236.307 499.819 235.436C499.055 234.675 498.126 234.099 497.104 233.752C497.104 233.691 497.501 233.655 498.109 233.823C498.905 234.05 499.618 234.505 500.16 235.132C500.702 235.758 501.049 236.529 501.159 237.349C501.239 237.993 501.142 238.372 501.08 238.372Z" fill="#FAFAFA"/>
<path d="M332.541 348.628C332.022 347.716 331.765 346.677 331.801 345.628C331.837 344.579 332.163 343.56 332.744 342.686C332.533 343.661 332.371 344.647 332.259 345.639C332.301 346.639 332.395 347.637 332.541 348.628Z" fill="#FAFAFA"/>
<path d="M327.313 355.001C327.313 355.001 326.934 354.843 326.493 354.367C325.931 353.732 325.526 352.974 325.312 352.154C325.093 351.333 325.069 350.473 325.241 349.641C325.391 349.006 325.603 348.662 325.647 348.689C325.506 349.801 325.542 350.929 325.753 352.03C326.109 353.098 326.636 354.102 327.313 355.001Z" fill="#FAFAFA"/>
<path d="M331.413 366.7C331.504 366.121 331.667 365.555 331.898 365.016C332.365 363.704 332.713 362.353 332.938 360.979C333.145 359.611 333.067 358.215 332.709 356.879C332.409 355.865 332.039 355.301 332.109 355.257C332.527 355.682 332.831 356.207 332.991 356.782C333.462 358.15 333.589 359.612 333.361 361.04C333.139 362.446 332.739 363.818 332.171 365.122C331.989 365.679 331.734 366.21 331.413 366.7Z" fill="#FAFAFA"/>
<path d="M305.987 345.304C306.057 345.304 305.59 346.265 305.043 347.834C303.617 351.933 303.334 356.343 304.223 360.591C304.567 362.222 304.911 363.192 304.832 363.236C304.69 363.038 304.583 362.817 304.514 362.583C304.269 361.966 304.066 361.333 303.906 360.688C302.822 356.39 303.115 351.86 304.744 347.737C304.995 347.129 305.29 346.54 305.625 345.974C305.819 345.542 305.96 345.304 305.987 345.304Z" fill="#FAFAFA"/>
<path d="M314.406 338.78C314.406 338.841 314.027 339.097 313.525 339.661C312.913 340.435 312.49 341.34 312.29 342.306C312.104 343.288 312.015 344.287 312.026 345.286C312.065 345.712 312.029 346.142 311.92 346.556C311.767 346.156 311.692 345.731 311.7 345.304C311.596 344.271 311.643 343.228 311.841 342.209C312.05 341.168 312.552 340.208 313.287 339.441C313.895 338.894 314.38 338.727 314.406 338.78Z" fill="#FAFAFA"/>
<path d="M284.502 340.261C282.408 343.42 281.454 347.198 281.795 350.972C281.57 350.452 281.453 349.891 281.451 349.324C281.336 347.963 281.449 346.592 281.786 345.268C282.122 343.947 282.673 342.69 283.417 341.548C283.691 341.052 284.059 340.614 284.502 340.261Z" fill="#FAFAFA"/>
<path d="M285.207 330.555C285.321 330.643 284.14 332.212 283.214 334.416C282.289 336.62 281.954 338.551 281.812 338.533C281.95 335.553 283.154 332.721 285.207 330.555Z" fill="#FAFAFA"/>
<path d="M259.429 331.497C259.534 331.603 258.688 332.996 258.168 335.024C257.648 337.051 257.648 338.779 257.507 338.788C257.244 337.474 257.323 336.114 257.736 334.839C258.265 332.687 259.323 331.383 259.429 331.497Z" fill="#FAFAFA"/>
<path d="M256.837 321.5C256.837 321.5 257.207 321.809 257.507 322.487C257.881 323.392 258.012 324.379 257.886 325.351C257.761 326.322 257.384 327.243 256.793 328.024C256.325 328.606 255.911 328.844 255.911 328.8C255.911 328.756 256.176 328.43 256.546 327.839C257.027 327.065 257.336 326.197 257.453 325.294C257.57 324.391 257.492 323.473 257.225 322.602C256.996 321.941 256.784 321.553 256.837 321.5Z" fill="#FAFAFA"/>
<path d="M241.205 322.214C241.399 322.329 239.883 323.933 239.619 326.322C239.354 328.711 240.394 330.519 240.174 330.598C239.954 330.677 239.68 330.237 239.292 329.461C238.836 328.457 238.665 327.346 238.799 326.252C238.943 325.139 239.378 324.084 240.059 323.193C240.641 322.496 241.126 322.17 241.205 322.214Z" fill="#FAFAFA"/>
<path d="M235.131 312.966C235.223 313.863 235.037 314.767 234.599 315.555C234.16 316.343 233.491 316.978 232.68 317.374C232.601 317.259 233.562 316.563 234.188 315.346C234.814 314.13 234.99 312.957 235.131 312.966Z" fill="#FAFAFA"/>
<path d="M219.191 311.185C219.324 311.255 219.13 313.248 219.112 315.716C219.094 318.185 219.262 320.177 219.112 320.248C218.704 318.768 218.543 317.231 218.636 315.698C218.567 314.173 218.755 312.648 219.191 311.185Z" fill="#FAFAFA"/>
<path d="M215.929 303.99C216.035 304.07 215.497 304.819 215.242 305.886C214.986 306.953 215.092 307.852 214.96 307.887C214.782 307.567 214.675 307.212 214.646 306.847C214.617 306.482 214.667 306.115 214.792 305.771C215.083 304.581 215.85 303.867 215.929 303.99Z" fill="#FAFAFA"/>
<path d="M196.675 297.899C196.816 298.013 196.022 300.182 196.075 303.135C196.174 304.887 196.418 306.627 196.807 308.337C196.754 308.39 196.463 307.94 196.164 307.023C195.769 305.771 195.566 304.466 195.564 303.153C195.539 301.834 195.708 300.518 196.067 299.247C196.349 298.313 196.622 297.846 196.675 297.899Z" fill="#FAFAFA"/>
<path d="M194.85 292.733C194.912 292.847 194.259 293.288 193.915 294.143C193.572 294.998 193.695 295.765 193.572 295.801C193.448 295.836 193.395 295.642 193.325 295.298C193.258 294.847 193.316 294.387 193.492 293.967C193.662 293.545 193.95 293.18 194.321 292.918C194.603 292.724 194.824 292.68 194.85 292.733Z" fill="#FAFAFA"/>
<path d="M180.003 297.89C179.495 297.376 179.112 296.751 178.884 296.065C178.173 294.364 177.845 292.528 177.923 290.687C177.997 288.857 178.482 287.067 179.342 285.45C179.995 284.269 180.576 283.731 180.621 283.784C180.665 283.837 180.206 284.489 179.651 285.679C178.932 287.266 178.519 288.974 178.434 290.713C178.367 292.469 178.631 294.221 179.21 295.88C179.651 297.132 180.083 297.828 180.003 297.89Z" fill="#FAFAFA"/>
<path d="M167.74 288.977C167.216 288.496 166.799 287.91 166.515 287.258C165.751 285.765 165.327 284.121 165.272 282.444C165.217 280.768 165.533 279.1 166.197 277.56C166.429 276.896 166.809 276.293 167.308 275.797C167.502 275.85 165.739 278.645 165.906 282.435C166.074 286.226 167.916 288.88 167.74 288.977Z" fill="#FAFAFA"/>
<path d="M154.754 276.987C154.557 276.653 154.454 276.272 154.454 275.885C154.357 274.958 154.453 274.022 154.736 273.134C155.012 272.244 155.464 271.42 156.067 270.71C156.544 270.181 156.949 269.943 156.949 269.978C155.343 271.945 154.557 274.455 154.754 276.987Z" fill="#FAFAFA"/>
<path d="M144.051 260.668C143.488 261.95 143.088 263.298 142.861 264.679C142.785 266.075 142.877 267.475 143.134 268.849C142.88 268.505 142.708 268.107 142.632 267.686C142.367 266.689 142.289 265.652 142.403 264.626C142.515 263.602 142.814 262.607 143.284 261.691C143.672 260.968 144.007 260.606 144.051 260.668Z" fill="#FAFAFA"/>
<path d="M125.079 248.978C125.158 249.084 124.497 249.631 124.127 250.574C123.756 251.517 123.818 252.337 123.686 252.381C123.522 252.076 123.437 251.736 123.437 251.39C123.437 251.043 123.522 250.703 123.686 250.398C124.135 249.313 125.035 248.864 125.079 248.978Z" fill="#FAFAFA"/>
<path d="M110.435 239.933C110.435 240.065 110.083 240.232 109.756 240.567C109.43 240.903 109.263 241.264 109.13 241.246C108.998 241.229 108.989 240.691 109.43 240.241C109.871 239.792 110.435 239.809 110.435 239.933Z" fill="#FAFAFA"/>
<path d="M89.5758 81.6288C89.5758 81.6288 57.9169 247.373 90.9599 379.501H124.003C124.003 379.501 95.2005 244.058 98.6036 161.927L101.998 79.7598L89.5758 81.6288Z" fill="#263238"/>
<path d="M101.936 231.161C101.531 231.118 101.132 231.032 100.746 230.905C99.9789 230.72 98.8857 230.394 97.5633 229.944C94.1001 228.738 90.7682 227.185 87.6186 225.307C84.4619 223.43 81.5075 221.231 78.8024 218.747C77.7709 217.795 76.9599 216.984 76.4397 216.411C76.141 216.13 75.8748 215.817 75.6462 215.477C75.9659 215.714 76.2612 215.983 76.5279 216.279C77.0921 216.825 77.9296 217.592 78.9788 218.509C81.7261 220.895 84.6759 223.036 87.7949 224.91C90.9236 226.77 94.21 228.352 97.6162 229.635C98.921 230.129 99.9965 230.517 100.737 230.737C101.149 230.841 101.55 230.983 101.936 231.161Z" fill="#FFC100"/>
<path d="M99.4413 213.81C99.2881 214.177 99.0991 214.529 98.8771 214.859C98.6492 215.269 98.399 215.667 98.1277 216.049C97.8191 216.499 97.4841 217.028 97.0522 217.566C96.0829 218.854 95.0285 220.077 93.896 221.224C91.1087 224.045 87.8884 226.403 84.3568 228.207C82.9325 228.941 81.4597 229.577 79.9488 230.111C79.3052 230.358 78.7057 230.525 78.1855 230.684C77.6654 230.843 77.2069 230.957 76.8278 231.037C76.4442 231.144 76.0518 231.218 75.6553 231.257C75.6553 231.169 77.2951 230.781 79.843 229.811C81.3485 229.234 82.8202 228.571 84.2511 227.828C85.9763 226.906 87.6375 225.869 89.2234 224.724C90.7929 223.558 92.2832 222.289 93.6844 220.925C94.8209 219.814 95.8896 218.637 96.8846 217.398C98.498 215.221 99.3708 213.757 99.4413 213.81Z" fill="#FFC100"/>
<path d="M101.196 232.457C100.889 232.594 100.566 232.692 100.235 232.748C99.6177 232.906 98.7008 233.1 97.59 233.303C91.6712 234.363 85.6367 234.621 79.649 234.07C78.5029 233.964 77.586 233.85 76.9513 233.744C76.6146 233.72 76.2826 233.652 75.9639 233.541C76.298 233.506 76.6348 233.506 76.9689 233.541L79.6755 233.726C81.9677 233.859 85.1327 233.955 88.6239 233.806C92.1151 233.656 95.2625 233.285 97.5371 232.924L100.182 232.51C100.517 232.459 100.857 232.441 101.196 232.457Z" fill="#FFC100"/>
<path d="M77.0657 210.566C77.3569 210.517 77.6524 210.5 77.9473 210.513C78.5203 210.513 79.3579 210.513 80.3894 210.575C82.4435 210.654 85.2824 210.848 88.4033 211.219C91.5242 211.589 94.3366 212.047 96.3378 212.444C97.3429 212.638 98.1628 212.814 98.7182 212.955C99.023 212.997 99.32 213.083 99.5998 213.211C98.4905 213.121 97.3869 212.971 96.2938 212.761C94.2661 212.444 91.4625 212.038 88.3592 211.668C85.2559 211.298 82.4259 211.06 80.3717 210.892C79.2639 210.854 78.1596 210.745 77.0657 210.566Z" fill="#FFC100"/>
<path d="M99.4854 213.387C99.5512 213.066 99.6578 212.755 99.8027 212.461C100.147 211.641 100.578 210.861 101.09 210.133C102.29 208.395 103.839 206.927 105.639 205.822C105.992 205.611 106.353 205.408 106.732 205.223C106.93 205.108 107.144 205.024 107.367 204.976C107.5 204.932 107.641 204.921 107.779 204.942C107.917 204.964 108.047 205.017 108.16 205.099C108.274 205.194 108.359 205.318 108.406 205.458C108.452 205.599 108.459 205.749 108.425 205.893C108.376 206.119 108.292 206.336 108.178 206.536C107.984 206.916 107.773 207.277 107.561 207.621C107.13 208.279 106.644 208.898 106.106 209.472C105.192 210.434 104.137 211.252 102.977 211.897C102.198 212.331 101.369 212.669 100.508 212.902C100.198 213.007 99.8743 213.069 99.5471 213.087C100.67 212.679 101.76 212.187 102.809 211.615C103.917 210.951 104.923 210.131 105.798 209.181C106.303 208.63 106.766 208.04 107.182 207.418C107.385 207.083 107.587 206.73 107.764 206.369C107.94 206.007 108.072 205.62 107.878 205.487C107.684 205.355 107.261 205.487 106.935 205.655C106.609 205.822 106.212 206.034 105.877 206.237C105.225 206.627 104.603 207.066 104.017 207.55C103.025 208.371 102.137 209.309 101.372 210.345C100.688 211.323 100.058 212.339 99.4854 213.387Z" fill="#FFC100"/>
<path d="M98.877 212.893C99.1364 212.846 99.4022 212.846 99.6616 212.893C100.381 212.946 101.094 213.058 101.795 213.228C104.128 213.787 106.299 214.883 108.134 216.428L108.363 216.622L108.116 216.79L108.011 216.851C107.381 217.23 106.641 217.382 105.912 217.283C105.262 217.208 104.625 217.048 104.017 216.807C102.993 216.42 102.046 215.853 101.222 215.132C100.667 214.656 100.175 214.111 99.7586 213.51C99.5923 213.297 99.4613 213.059 99.3707 212.805C100.002 213.549 100.688 214.245 101.425 214.885C102.25 215.539 103.176 216.054 104.167 216.411C104.733 216.628 105.326 216.771 105.93 216.834C106.559 216.921 107.199 216.794 107.746 216.472L107.825 216.419V216.772C106.021 215.269 103.917 214.166 101.654 213.536C99.9878 213.06 98.8682 212.972 98.877 212.893Z" fill="#FFC100"/>
<path d="M190.724 103.396C183.847 84.9701 167.74 69.7005 148.406 66.0329C129.072 62.3654 107.402 71.6665 98.5771 89.2371L100.499 89.7396C115.247 99.1853 132.261 104.496 149.764 105.115C148.624 102.594 147.492 100.072 146.37 97.5508C160.298 103.678 175.684 105.705 190.724 103.396Z" fill="#455A64"/>
<path d="M93.3581 93.3368C92.8291 80.2183 84.9298 67.9109 73.8655 60.8315C62.8012 53.7521 48.951 51.6627 35.9559 53.7786C22.9608 55.8944 10.9356 62.1275 0.691173 70.3177C0.338526 70.5998 -0.0405708 70.9525 0.00351013 71.4021C0.047591 71.8517 0.558929 72.1691 1.00855 72.3631L14.127 77.9878C17.6535 79.4954 21.2505 81.0294 25.0679 81.3291C28.8853 81.6289 33.0025 80.5004 35.4269 77.5029L31.636 84.1327C49.8915 92.1607 70.3055 93.8611 89.6376 88.964" fill="#455A64"/>
<path d="M92.3177 87.5711C77.7005 79.7335 60.3943 84.3179 45.5391 91.6971C38.1221 95.465 31.6938 100.922 26.7721 107.63C21.8505 114.337 18.573 122.106 17.2039 130.312C16.9394 132.005 16.7983 133.891 17.7857 135.293C18.6642 136.352 19.888 137.067 21.2417 137.312C23.6282 137.922 26.127 137.946 28.5246 137.38C30.9221 136.815 33.1472 135.678 35.0097 134.065C36.8722 132.453 38.3168 130.414 39.22 128.123C40.1232 125.831 40.4582 123.354 40.1965 120.905C41.9524 124.646 43.0699 128.653 43.5025 132.763L88.6238 101.342C92.8996 98.3621 94.4689 97.075 98.5949 95.779L92.3177 87.5711Z" fill="#455A64"/>
<path d="M145.744 124.255C142.217 117.096 136.275 111.489 130.227 106.305C125.44 102.206 120.459 98.2121 114.728 95.5937C108.998 92.9753 102.386 91.8204 96.3291 93.6101L97.5546 94.1303C92.5822 113.526 106.194 136.06 120.75 149.857C123.416 149.128 125.712 147.426 127.186 145.088C125.423 147.891 123.636 150.689 121.825 153.481C128.07 160.148 134.823 166.32 142.023 171.942C145.065 164.307 147.842 156.487 148.953 148.35C150.064 140.212 149.35 131.643 145.744 124.255Z" fill="#455A64"/>
<path d="M108.901 91.6272L99.6529 90.5781C82.0206 94.0517 67.6678 108.651 62.5721 125.843C57.4763 143.034 61.0909 162.183 70.4185 177.497C77.1188 169.915 83.8631 162.289 89.2057 153.693C90.775 151.172 92.2473 148.492 92.6264 145.538C92.9661 143.187 92.3607 140.797 90.9425 138.891C93.0231 140.707 95.6063 142.126 97.8809 140.857C98.8502 140.203 99.6484 139.326 100.208 138.3C104.74 131.3 109.025 123.991 111.158 115.925C113.292 107.858 113.08 98.8653 108.901 91.6272Z" fill="#455A64"/>
<path d="M108.487 42.6706C104.766 26.2469 95.1718 11.7489 81.509 1.9046C80.3805 1.10233 78.9964 0.300055 77.6916 0.749681C76.6709 1.25867 75.8872 2.14349 75.5052 3.21821C68.378 17.6957 66.2362 34.1231 69.4132 49.944C72.6047 65.6103 84.1979 87.113 96.329 97.5514L103.197 93.4166C111.387 78.8258 112.092 58.9453 108.487 42.6706Z" fill="#455A64"/>
<path d="M98.3657 93.3102C98.285 93.3328 98.2023 93.3476 98.1188 93.3543L97.3959 93.4336C97.0785 93.4336 96.6818 93.5218 96.2234 93.6011C95.6886 93.6795 95.1588 93.7884 94.6364 93.9273C91.3017 94.7683 88.177 96.2901 85.4588 98.3971C83.5779 99.8338 81.8707 101.485 80.3719 103.317C78.6536 105.43 77.1752 107.727 75.9638 110.167C73.2911 115.812 71.4102 121.799 70.3743 127.958C68.2181 139.12 67.5982 150.525 68.5317 161.856C68.8932 166.194 69.4133 169.694 69.7836 172.1C69.9688 173.308 70.1627 174.234 70.2597 174.869L70.3743 175.592C70.3804 175.674 70.3804 175.756 70.3743 175.838C70.3386 175.763 70.3148 175.683 70.3038 175.6C70.3038 175.415 70.2068 175.177 70.1363 174.886C70.0128 174.26 69.7924 173.335 69.5809 172.127C69.14 169.729 68.5934 166.238 68.1879 161.882C67.1528 150.521 67.7286 139.07 69.8982 127.87C70.9452 121.67 72.8501 115.647 75.5582 109.973C76.7883 107.514 78.2906 105.202 80.0368 103.079C81.5614 101.232 83.3018 99.5741 85.2208 98.1414C87.9824 96.0223 91.1659 94.5192 94.5571 93.7333C95.8053 93.4412 97.0838 93.2991 98.3657 93.3102Z" fill="#263238"/>
<path d="M100.517 89.7402C100.276 89.8211 100.028 89.8802 99.7764 89.9166C99.3003 90.0312 98.5686 90.1282 97.6693 90.3574C95.0966 90.9644 92.5874 91.8145 90.1756 92.8964C88.512 93.6475 86.8983 94.5044 85.3443 95.4619C83.5738 96.5743 81.8829 97.8086 80.2838 99.1559C76.6126 102.268 73.4062 105.89 70.7624 109.912C68.0842 113.896 65.8269 118.148 64.0268 122.598C63.2564 124.545 62.5999 126.535 62.0608 128.558C61.621 130.317 61.2883 132.101 61.0646 133.901C60.7323 136.533 60.6909 139.194 60.9411 141.835C61.0028 142.77 61.1615 143.484 61.2056 143.977C61.2497 144.471 61.2938 144.727 61.285 144.727C61.2035 144.486 61.1474 144.238 61.1174 143.986C61.0381 143.501 60.853 142.787 60.7648 141.853C60.4586 139.217 60.4586 136.554 60.7648 133.918C60.973 132.092 61.2969 130.281 61.7346 128.496C62.2513 126.451 62.8962 124.439 63.6653 122.475C65.4558 117.983 67.7196 113.695 70.4185 109.682C73.0772 105.635 76.3115 101.997 80.0193 98.8826C81.6452 97.534 83.3626 96.2997 85.1592 95.1886C86.7312 94.2357 88.3659 93.3903 90.0522 92.6584C92.4868 91.587 95.0284 90.7773 97.6341 90.2428C98.5157 90.0312 99.2827 89.9606 99.7676 89.8813C100.014 89.8197 100.265 89.7726 100.517 89.7402Z" fill="#263238"/>
<path d="M109.818 97.6123C109.996 98.051 110.131 98.5056 110.223 98.97C110.373 99.5008 110.494 100.039 110.585 100.583C110.699 101.218 110.858 101.941 110.937 102.752C111.017 103.563 111.149 104.445 111.184 105.397C111.22 106.349 111.246 107.381 111.246 108.456C111.177 110.792 110.917 113.118 110.47 115.412C109.986 117.703 109.314 119.95 108.46 122.13C108.037 123.126 107.658 124.07 107.208 124.925C106.759 125.78 106.327 126.565 105.948 127.27C105.568 127.975 105.128 128.584 104.775 129.121C104.48 129.589 104.16 130.039 103.814 130.47C103.552 130.859 103.257 131.225 102.932 131.563C103.148 131.146 103.398 130.748 103.682 130.373C103.946 130.003 104.255 129.545 104.563 128.989C104.872 128.434 105.295 127.825 105.665 127.102C106.036 126.38 106.476 125.621 106.864 124.757C107.252 123.893 107.658 122.994 108.072 121.98C109.746 117.654 110.676 113.075 110.823 108.439C110.823 107.381 110.867 106.358 110.823 105.415C110.779 104.471 110.717 103.581 110.629 102.77C110.541 101.959 110.435 101.245 110.347 100.61C110.259 99.975 110.162 99.4284 110.065 98.9876C109.947 98.5363 109.864 98.0764 109.818 97.6123Z" fill="#263238"/>
<path d="M140.533 170.373C140.522 170.303 140.522 170.232 140.533 170.162L140.675 169.571C140.789 169.051 141.018 168.301 141.221 167.305C141.861 164.523 142.314 161.701 142.579 158.859C143.574 148.015 141.767 137.097 137.33 127.152C132.893 117.207 125.976 108.569 117.241 102.065C116.448 101.439 115.778 101.016 115.354 100.69L114.87 100.329C114.758 100.252 114.705 100.208 114.711 100.196L114.896 100.293L115.407 100.619C115.848 100.91 116.527 101.316 117.347 101.915C119.684 103.578 121.896 105.407 123.968 107.39C127.057 110.326 129.832 113.576 132.246 117.088C138.247 125.708 141.927 135.727 142.931 146.181C143.367 150.417 143.367 154.686 142.931 158.921C142.642 161.775 142.141 164.604 141.433 167.384C141.204 168.372 140.948 169.148 140.798 169.633C140.727 169.871 140.666 170.056 140.622 170.214C140.6 170.271 140.57 170.325 140.533 170.373Z" fill="#263238"/>
<path d="M189.049 102.189C189.049 102.189 188.978 102.136 188.873 102.004C188.767 101.871 188.59 101.66 188.388 101.422C187.965 100.919 187.383 100.135 186.554 99.1824C184.291 96.4545 181.881 93.8527 179.333 91.3889C177.738 89.8108 175.886 88.1886 173.859 86.5047C171.675 84.742 169.397 83.0997 167.035 81.5853C161.632 78.0928 155.711 75.4773 149.491 73.8359C146.261 73.0496 142.963 72.5772 139.643 72.4253C136.549 72.3003 133.449 72.4656 130.386 72.919C125.182 73.6663 120.154 75.3383 115.54 77.8561C113.777 78.8277 112.091 79.9329 110.497 81.1621C109.809 81.7264 109.157 82.2377 108.584 82.7402L107.076 84.1861C106.664 84.5583 106.278 84.959 105.921 85.3851L105.11 86.2667L104.608 86.8221C104.493 86.9456 104.431 87.0073 104.422 86.9985C104.465 86.9256 104.515 86.8576 104.572 86.7957L105.04 86.205L105.824 85.2617C106.172 84.8222 106.549 84.4069 106.953 84.0186C107.393 83.5778 107.896 83.0841 108.434 82.5375C108.972 81.9909 109.659 81.506 110.338 80.9241C111.93 79.6614 113.619 78.5264 115.39 77.5299C120.021 74.9521 125.081 73.2346 130.324 72.4606C133.414 71.9978 136.539 71.8237 139.661 71.9404C143.014 72.0871 146.345 72.5625 149.605 73.3598C155.865 75.0113 161.818 77.6575 167.238 81.1974C169.609 82.7292 171.893 84.3922 174.079 86.1786C176.098 87.8801 177.941 89.5287 179.536 91.1156C182.07 93.616 184.451 96.2656 186.669 99.0502C187.471 100.02 188.035 100.813 188.432 101.351L188.881 101.96L189.049 102.189Z" fill="#263238"/>
<path d="M77.9561 0L78.0883 0.193954L78.4321 0.78464L79.7369 3.09448C80.31 4.09071 80.9888 5.32497 81.7206 6.77964C82.4523 8.23431 83.3427 9.87412 84.1979 11.7432L85.582 14.6966C86.0581 15.7104 86.4637 16.7948 86.9926 17.8968C87.9801 20.1009 88.9146 22.5165 89.9196 25.038C91.8504 30.1249 93.7723 35.7849 95.4738 41.7887C97.1753 47.7925 98.4008 53.6905 99.3706 59.042C99.8025 61.6868 100.252 64.27 100.534 66.6768C100.684 67.8758 100.86 69.0307 100.975 70.1415C101.09 71.2524 101.187 72.3368 101.292 73.3595C101.522 75.4048 101.61 77.2562 101.724 78.8872C101.839 80.5182 101.901 81.92 101.927 83.0749C101.954 84.2298 101.98 85.0761 101.998 85.7197C101.998 86.0019 101.998 86.2223 101.998 86.4074C102.005 86.4836 102.005 86.5604 101.998 86.6366C101.989 86.5605 101.989 86.4835 101.998 86.4074C101.998 86.2223 101.998 86.0019 101.945 85.7197C101.945 85.085 101.857 84.1945 101.795 83.0749C101.733 81.9552 101.663 80.5182 101.513 78.896C101.363 77.2738 101.266 75.4224 101.01 73.3771C100.905 72.3632 100.79 71.2876 100.667 70.1768C100.543 69.066 100.358 67.911 100.199 66.7209C99.8995 64.3229 99.4411 61.7838 98.9915 59.1125C98.0041 53.7699 96.7257 47.9424 95.0683 41.9033C93.4108 35.8642 91.4713 30.2131 89.567 25.1526C88.5796 22.6311 87.6627 20.2155 86.6841 18.0115C86.1992 16.9094 85.8025 15.825 85.2999 14.8112L83.9511 11.8842C83.0694 10.0064 82.2495 8.35774 81.5354 6.89425C80.8213 5.43077 80.1689 4.18769 79.6223 3.17382L78.3969 0.82872L78.0883 0.220405C78.0302 0.156294 77.9853 0.0814112 77.9561 0Z" fill="#263238"/>
<path d="M101.037 88.4615C100.961 88.4027 100.893 88.3345 100.834 88.2587L100.261 87.6416C99.741 87.1038 99.0621 86.2486 98.0659 85.2524C95.3276 82.393 92.3808 79.7408 89.2497 77.3178C87.2749 75.7574 85.0003 74.1881 82.5141 72.6012C79.835 70.9511 77.0686 69.4472 74.2269 68.0961C67.7007 65.0278 60.787 62.8627 53.6764 61.6603C46.5527 60.5178 39.3063 60.3547 32.1385 61.1754C29.0128 61.5357 25.9104 62.0744 22.8462 62.7888C19.9721 63.4941 17.3273 64.2523 14.9116 65.0898C11.1581 66.3911 7.50688 67.9706 3.98839 69.8153C2.72767 70.4412 1.80197 71.0319 1.14958 71.3757L0.409018 71.7813C0.326927 71.8343 0.237932 71.8759 0.144531 71.9047L0.382569 71.7372L1.09668 71.2964C1.74026 70.9261 2.65714 70.309 3.90904 69.6654C7.40409 67.7495 11.0482 66.1191 14.8058 64.79C17.4083 63.8639 20.0566 63.0723 22.7404 62.4185C25.8151 61.685 28.9294 61.1287 32.0679 60.7522C46.5493 58.9963 61.2309 61.4127 74.3856 67.717C77.2387 69.0796 80.0116 70.6044 82.6904 72.2838C85.0138 73.7592 87.2591 75.3542 89.4172 77.0622C92.5537 79.5201 95.4845 82.2298 98.1805 85.1642C99.1591 86.1781 99.8291 87.0597 100.323 87.6151C100.543 87.8796 100.72 88.1 100.861 88.2587C100.927 88.3189 100.987 88.387 101.037 88.4615Z" fill="#263238"/>
<path d="M65.5957 57.0938C65.7585 57.1229 65.9161 57.1764 66.063 57.2524L67.3766 57.7814C68.505 58.2663 70.136 58.9804 72.1109 59.9414C77.2572 62.4603 82.2263 65.3263 86.9838 68.5195C89.6363 70.2397 92.1614 72.1489 94.5392 74.2324C96.4991 75.9314 98.1799 77.9276 99.5204 80.1481C100.426 81.6499 101.048 83.3055 101.354 85.0322C101.442 85.4976 101.492 85.9694 101.504 86.4428C101.527 86.6066 101.527 86.7728 101.504 86.9365C101.454 86.7794 101.424 86.6164 101.416 86.4516C101.366 85.9857 101.286 85.5234 101.178 85.0675C100.809 83.3852 100.156 81.7781 99.2471 80.3156C97.8813 78.155 96.1993 76.2115 94.2571 74.5498C91.8798 72.4959 89.3642 70.6078 86.7281 68.8986C81.982 65.7195 77.0509 62.8256 71.961 60.2323C70.0126 59.2361 68.4345 58.4691 67.2972 57.9489L66.0277 57.3318C65.8749 57.2695 65.73 57.1896 65.5957 57.0938Z" fill="#263238"/>
<path d="M17.7856 135.293C17.7982 135.205 17.8219 135.119 17.8562 135.037C17.9267 134.852 18.0237 134.614 18.1295 134.314C18.394 133.688 18.7202 132.736 19.2579 131.563C20.7196 128.223 22.438 125.002 24.3978 121.927C27.3058 117.357 30.7153 113.125 34.5628 109.311C36.8442 107.074 39.2552 104.972 41.7833 103.017C44.5216 100.949 47.3833 99.0499 50.3526 97.3303C56.1137 94.0315 62.2815 91.5003 68.6991 89.8012C71.4919 89.0595 74.3232 88.4709 77.1803 88.038C79.878 87.6677 82.3906 87.4032 84.7005 87.3063C88.343 87.1221 91.9943 87.2105 95.6237 87.5707C96.9109 87.6677 97.8983 87.8529 98.5683 87.9322L99.3353 88.0556L99.591 88.1085C99.503 88.1164 99.4145 88.1164 99.3265 88.1085L98.5595 88.038C97.8807 87.9851 96.8932 87.8264 95.6061 87.7559C91.9838 87.4641 88.3457 87.4258 84.7181 87.6413C82.4171 87.7559 79.9133 88.038 77.242 88.4259C74.4002 88.8631 71.5839 89.4517 68.8049 90.1892C62.432 91.9006 56.307 94.4283 50.5818 97.7094C47.6287 99.4193 44.7817 101.306 42.0566 103.361C39.5379 105.298 37.1357 107.382 34.8626 109.602C31.02 113.379 27.6024 117.565 24.6711 122.086C22.6831 125.136 20.9154 128.324 19.3814 131.625C18.8171 132.78 18.4998 133.715 18.1824 134.332C18.0501 134.623 17.9532 134.852 17.865 135.037C17.7768 135.222 17.7856 135.293 17.7856 135.293Z" fill="#263238"/>
<path d="M99.5823 87.9588C99.4919 87.9446 99.4033 87.921 99.3178 87.8883L98.5596 87.6238C97.8896 87.4122 96.9375 86.9978 95.6503 86.6276C92.062 85.4831 88.376 84.6716 84.6389 84.2031C79.1019 83.4647 73.49 83.4854 67.9587 84.2648C61.1781 85.1786 54.5967 87.2135 48.4837 90.2863C45.3371 91.8911 42.3188 93.7362 39.456 95.8052C36.7973 97.7621 34.2947 99.9227 31.971 102.267C29.893 104.404 27.9747 106.691 26.2317 109.109C24.7336 111.23 23.3873 113.454 22.2027 115.765C20.4867 119.117 19.1331 122.643 18.1649 126.283C17.7946 127.561 17.6359 128.593 17.4596 129.271C17.3802 129.598 17.3185 129.853 17.2744 130.047C17.2587 130.138 17.232 130.227 17.1951 130.312C17.1876 130.221 17.1876 130.129 17.1951 130.038C17.1951 129.844 17.2744 129.58 17.3362 129.254C17.4772 128.566 17.6095 127.491 17.9621 126.239C18.8674 122.563 20.1803 119 21.8765 115.615C23.0487 113.279 24.3894 111.03 25.8878 108.888C27.6365 106.438 29.573 104.127 31.6801 101.977C34.0072 99.6125 36.5157 97.4341 39.1827 95.4614C42.0683 93.3687 45.1099 91.5001 48.281 89.8719C54.4366 86.7734 61.0716 84.7376 67.9058 83.8505C70.878 83.4575 73.8738 83.269 76.8718 83.2862C79.4851 83.3255 82.0935 83.5228 84.683 83.8769C88.4335 84.3832 92.1268 85.2482 95.712 86.4601C96.9904 86.8568 97.9337 87.2976 98.5949 87.5356L99.3355 87.8442L99.5823 87.9588Z" fill="#263238"/>
<path d="M128.491 105.124C128.142 104.918 127.817 104.676 127.521 104.401C126.93 103.916 126.057 103.219 124.964 102.373C119.304 97.9368 113.183 94.1238 106.706 91.0001C105.471 90.3918 104.458 89.9246 103.752 89.5984C103.381 89.4481 103.024 89.2652 102.686 89.0518C103.076 89.1416 103.457 89.2686 103.823 89.4309C104.546 89.7042 105.586 90.1362 106.847 90.7004C110.134 92.1932 113.32 93.8983 116.386 95.805C119.462 97.7107 122.407 99.8195 125.202 102.117C126.269 102.999 127.115 103.74 127.679 104.268C127.976 104.527 128.248 104.814 128.491 105.124Z" fill="#263238"/>
<path d="M514.084 110.793C514.084 110.793 483.227 277.656 513.052 379.475H543.909C543.909 379.475 519.224 260.006 522.362 184.522L525.501 109.029L514.084 110.793Z" fill="#263238"/>
<path d="M522.891 221.568C522.664 221.757 522.411 221.914 522.142 222.036C521.639 222.318 520.899 222.697 519.973 223.129C517.548 224.242 515.039 225.164 512.471 225.888C509.903 226.616 507.283 227.141 504.633 227.457C503.619 227.581 502.79 227.643 502.217 227.669C501.925 227.712 501.628 227.712 501.336 227.669C501.336 227.599 502.588 227.466 504.598 227.149C507.214 226.733 509.804 226.168 512.356 225.456C514.904 224.722 517.406 223.839 519.85 222.811C521.719 222.044 522.865 221.507 522.891 221.568Z" fill="#FFC100"/>
<path d="M523.729 234.104C523.484 234.287 523.218 234.438 522.935 234.554C522.406 234.827 521.631 235.189 520.67 235.612C518.142 236.695 515.554 237.634 512.92 238.424C510.285 239.211 507.606 239.844 504.898 240.32C503.857 240.496 503.011 240.62 502.42 240.681C502.13 240.736 501.834 240.757 501.539 240.743C502.636 240.438 503.748 240.191 504.871 240.003C506.925 239.562 509.746 238.9 512.806 237.984C515.865 237.067 518.607 236.07 520.564 235.339C521.596 234.87 522.652 234.458 523.729 234.104Z" fill="#FFC100"/>
<path d="M523.279 209.534C523.149 210.017 522.981 210.489 522.777 210.945C522.433 211.826 521.895 213.122 521.154 214.674C517.328 222.805 512.191 230.252 505.946 236.714C504.756 237.949 503.751 238.919 503.037 239.553C502.68 239.902 502.3 240.226 501.9 240.523C502.202 240.127 502.541 239.761 502.914 239.43C503.593 238.751 504.554 237.755 505.717 236.494C511.786 229.946 516.887 222.562 520.863 214.568C521.622 213.034 522.221 211.782 522.627 210.91C522.806 210.434 523.024 209.974 523.279 209.534Z" fill="#FFC100"/>
<path d="M525.439 234.414C525.084 234.294 524.744 234.134 524.425 233.938C523.782 233.612 522.874 233.109 521.78 232.466C519.559 231.178 516.544 229.283 513.352 227C510.161 224.716 507.401 222.477 505.418 220.784C504.448 219.903 503.654 219.241 503.161 218.739C502.877 218.497 502.617 218.228 502.385 217.937C502.703 218.126 502.998 218.351 503.266 218.607L505.62 220.537C507.604 222.159 510.381 224.346 513.555 226.629C516.729 228.913 519.726 230.826 521.886 232.183L524.469 233.788C524.812 233.965 525.137 234.175 525.439 234.414Z" fill="#FFC100"/>
<path d="M502.579 217.09C502.579 217.09 502.499 217.478 501.917 217.769C501.569 217.933 501.181 217.997 500.798 217.954C500.301 217.89 499.817 217.754 499.361 217.548C498.188 217.068 497.051 216.506 495.958 215.864C495.341 215.503 494.706 215.097 494.062 214.648C493.725 214.421 493.404 214.17 493.101 213.898C492.916 213.737 492.779 213.526 492.706 213.291C492.633 213.056 492.626 212.806 492.687 212.567C492.776 212.341 492.922 212.141 493.11 211.987C493.298 211.832 493.523 211.729 493.762 211.686C494.194 211.618 494.635 211.667 495.041 211.827C495.748 212.096 496.433 212.423 497.086 212.805C498.192 213.446 499.214 214.222 500.128 215.115C500.74 215.714 501.298 216.366 501.794 217.063C501.99 217.313 502.151 217.589 502.27 217.883C502.2 217.883 501.477 216.79 499.907 215.353C498.985 214.515 497.971 213.785 496.883 213.176C496.243 212.818 495.577 212.508 494.891 212.25C494.56 212.121 494.202 212.082 493.851 212.135C493.691 212.162 493.54 212.23 493.414 212.332C493.287 212.434 493.189 212.566 493.128 212.717C493.09 212.877 493.099 213.045 493.152 213.201C493.205 213.356 493.3 213.494 493.427 213.599C493.703 213.854 493.997 214.086 494.309 214.295C494.935 214.745 495.552 215.177 496.152 215.521C497.223 216.175 498.333 216.764 499.475 217.284C499.822 217.503 500.21 217.648 500.615 217.709C501.02 217.769 501.434 217.745 501.829 217.637C502.116 217.511 502.372 217.324 502.579 217.09Z" fill="#FFC100"/>
<path d="M501.556 217.821C501.31 217.627 501.095 217.395 500.921 217.134C500.387 216.467 499.921 215.75 499.528 214.991C498.943 213.874 498.496 212.69 498.197 211.465C498.016 210.735 497.892 209.992 497.827 209.243C497.786 208.842 497.768 208.439 497.774 208.035C497.779 207.575 497.94 207.13 498.232 206.775C498.327 206.673 498.444 206.596 498.574 206.548C498.705 206.501 498.844 206.485 498.982 206.501C499.11 206.525 499.232 206.573 499.341 206.645C499.45 206.716 499.544 206.808 499.617 206.916C499.831 207.267 500.003 207.643 500.128 208.035C500.404 208.77 500.642 209.475 500.842 210.151C501.199 211.358 501.493 212.582 501.724 213.819C501.926 214.877 502.05 215.741 502.111 216.331C502.15 216.642 502.15 216.956 502.111 217.266C502.041 217.266 501.847 215.961 501.362 213.889C501.115 212.849 500.789 211.624 500.357 210.284C500.14 209.614 499.893 208.917 499.617 208.194C499.506 207.843 499.355 207.506 499.167 207.189C499.136 207.128 499.091 207.076 499.036 207.036C498.98 206.996 498.916 206.971 498.848 206.961C498.781 206.952 498.712 206.959 498.648 206.981C498.583 207.004 498.526 207.042 498.479 207.092C498.266 207.371 498.145 207.711 498.135 208.062C498.135 208.423 498.135 208.829 498.188 209.199C498.248 209.929 498.357 210.653 498.514 211.368C498.785 212.586 499.193 213.769 499.731 214.894C500.745 216.763 501.627 217.769 501.556 217.821Z" fill="#FFC100"/>
<path d="M426.636 116.312C433.504 97.8861 449.611 82.6165 468.954 78.9489C488.297 75.2814 509.949 84.5825 518.783 102.153L516.861 102.664C502.108 112.104 485.091 117.411 467.587 118.031L470.99 110.467C457.062 116.592 441.676 118.62 426.636 116.312Z" fill="#455A64"/>
<path d="M523.993 106.253C524.522 93.161 532.421 80.8183 543.486 73.7654C554.55 66.7125 568.4 64.5966 581.395 66.7125C594.39 68.8283 606.424 75.0614 616.66 83.2516C617.013 83.5337 617.401 83.8952 617.356 84.336C617.312 84.7768 616.792 85.103 616.343 85.297L603.259 90.9481C599.733 92.4645 596.136 93.9897 592.319 94.2983C588.501 94.6068 584.384 93.4608 581.968 90.4633L585.751 97.093C567.488 105.149 547.057 106.868 527.705 101.977" fill="#455A64"/>
<path d="M525.033 100.487C539.651 92.6495 556.957 97.234 571.812 104.613C579.23 108.38 585.658 113.838 590.58 120.545C595.502 127.252 598.779 135.022 600.147 143.228C600.412 144.921 600.553 146.807 599.574 148.209C598.691 149.268 597.465 149.985 596.11 150.237C593.724 150.845 591.226 150.867 588.829 150.301C586.433 149.735 584.209 148.598 582.348 146.986C580.487 145.374 579.043 143.335 578.14 141.045C577.237 138.754 576.902 136.278 577.164 133.83C575.404 137.566 574.286 141.572 573.858 145.679L528.727 114.258C524.452 111.278 522.882 109.991 518.765 108.695L525.033 100.487Z" fill="#455A64"/>
<path d="M471.608 137.17C475.134 130.012 481.076 124.413 487.124 119.23C491.911 115.121 496.892 111.127 502.623 108.509C508.353 105.891 514.966 104.745 521.022 106.534L519.797 107.046C524.769 126.441 511.157 148.975 496.602 162.773C493.957 162.029 491.68 160.333 490.21 158.012C491.973 160.804 493.76 163.598 495.57 166.396C489.325 173.06 482.572 179.23 475.372 184.848C472.339 177.214 469.553 169.402 468.443 161.256C467.332 153.11 468.011 144.558 471.608 137.17Z" fill="#455A64"/>
<path d="M508.45 104.551L517.698 103.493C535.287 106.967 549.683 121.575 554.779 138.758C559.875 155.941 556.26 175.089 546.942 190.403C540.232 182.821 533.488 175.195 528.145 166.599C526.576 164.069 525.104 161.389 524.725 158.444C524.388 156.091 524.994 153.699 526.409 151.788C524.328 153.604 521.745 155.024 519.47 153.754C518.5 153.105 517.703 152.227 517.152 151.198C512.611 144.206 508.336 136.889 506.193 128.822C504.051 120.755 504.298 111.78 508.45 104.551Z" fill="#455A64"/>
<path d="M508.873 55.5949C512.583 39.1663 522.179 24.6646 535.851 14.8289C536.971 14.0266 538.355 13.2155 539.66 13.674C540.679 14.1809 541.462 15.0623 541.846 16.1337C548.979 30.6094 551.121 47.0387 547.938 62.8594C544.746 78.5258 533.162 100.037 521.022 110.467L514.154 106.332C505.964 91.7413 505.259 71.8608 508.873 55.5949Z" fill="#455A64"/>
<path d="M518.986 106.227C520.253 106.225 521.517 106.373 522.75 106.667C526.14 107.457 529.323 108.96 532.086 111.075C534.006 112.51 535.749 114.168 537.279 116.013C539.022 118.136 540.522 120.449 541.749 122.907C544.461 128.579 546.366 134.603 547.409 140.804C549.596 152.002 550.189 163.452 549.172 174.816C548.767 179.172 548.22 182.663 547.77 185.07C547.559 186.269 547.338 187.194 547.215 187.82C547.145 188.114 547.092 188.352 547.056 188.534C547.012 188.693 546.986 188.781 546.986 188.772C546.976 188.69 546.976 188.608 546.986 188.526L547.1 187.803C547.206 187.168 547.391 186.242 547.577 185.034C547.964 182.628 548.458 179.136 548.828 174.79C549.762 163.459 549.142 152.054 546.986 140.892C545.95 134.733 544.069 128.746 541.396 123.101C540.185 120.661 538.707 118.364 536.988 116.251C535.489 114.419 533.782 112.768 531.901 111.331C529.184 109.223 526.059 107.701 522.724 106.861C522.133 106.711 521.604 106.606 521.137 106.535C520.669 106.465 520.255 106.394 519.964 106.368L519.241 106.288C519.154 106.276 519.069 106.256 518.986 106.227Z" fill="#263238"/>
<path d="M516.861 102.665C517.113 102.668 517.363 102.694 517.61 102.744C518.095 102.833 518.827 102.894 519.744 103.106C522.352 103.641 524.896 104.451 527.334 105.521C529.019 106.257 530.653 107.102 532.227 108.052C534.021 109.163 535.736 110.397 537.358 111.746C541.067 114.862 544.304 118.5 546.968 122.546C549.664 126.558 551.925 130.846 553.712 135.338C554.479 137.304 555.127 139.315 555.652 141.359C556.087 143.144 556.408 144.955 556.613 146.781C556.919 149.417 556.919 152.08 556.613 154.716C556.525 155.659 556.34 156.364 556.26 156.858C556.225 157.106 556.172 157.35 556.102 157.59C556.103 157.338 556.127 157.088 556.172 156.84C556.216 156.347 556.375 155.633 556.437 154.698C556.688 152.057 556.646 149.396 556.313 146.764C556.088 144.952 555.753 143.156 555.308 141.386C554.771 139.363 554.117 137.373 553.351 135.426C551.546 130.976 549.286 126.725 546.607 122.739C543.971 118.727 540.774 115.114 537.112 112.01C535.513 110.663 533.822 109.429 532.051 108.316C530.499 107.361 528.888 106.504 527.229 105.751C524.818 104.668 522.308 103.821 519.735 103.22C518.853 102.982 518.104 102.885 517.619 102.771C517.364 102.752 517.111 102.717 516.861 102.665Z" fill="#263238"/>
<path d="M507.534 110.528C507.495 110.998 507.418 111.464 507.304 111.921C507.207 112.371 507.102 112.909 507.022 113.543C506.943 114.178 506.793 114.901 506.74 115.712C506.687 116.523 506.573 117.387 506.555 118.357C506.537 119.327 506.555 120.323 506.555 121.39C506.711 126.023 507.644 130.598 509.314 134.923C509.72 135.91 510.081 136.853 510.513 137.7C510.945 138.546 511.325 139.34 511.712 140.054C512.1 140.768 512.488 141.376 512.814 141.932C513.141 142.487 513.449 142.945 513.696 143.316C513.977 143.692 514.228 144.09 514.445 144.506C514.122 144.169 513.828 143.806 513.564 143.421C513.22 142.989 512.9 142.539 512.603 142.073C512.25 141.526 511.818 140.927 511.43 140.212C511.042 139.498 510.549 138.731 510.17 137.867C509.791 137.003 509.341 136.104 508.918 135.073C508.064 132.896 507.395 130.652 506.916 128.363C506.467 126.067 506.204 123.738 506.132 121.399C506.132 120.323 506.132 119.3 506.194 118.339C506.255 117.378 506.343 116.497 506.44 115.695C506.537 114.892 506.687 114.169 506.793 113.526C506.899 112.882 507.04 112.353 507.154 111.912C507.236 111.44 507.363 110.976 507.534 110.528Z" fill="#263238"/>
<path d="M476.818 183.288C476.818 183.288 476.818 183.226 476.747 183.094L476.562 182.512C476.421 182.001 476.157 181.252 475.927 180.264C475.222 177.483 474.721 174.655 474.429 171.801C473.433 162.342 474.609 152.78 477.867 143.845C479.689 138.95 482.111 134.301 485.079 130.003C487.498 126.495 490.272 123.245 493.357 120.305C495.424 118.317 497.637 116.487 499.978 114.831C500.798 114.222 501.477 113.825 501.917 113.526L502.438 113.2L502.614 113.103C502.614 113.103 502.57 113.155 502.455 113.244L501.97 113.605C501.547 113.922 500.886 114.346 500.084 114.972C497.797 116.683 495.624 118.542 493.577 120.535C485.793 128.151 480.098 137.641 477.038 148.093C473.978 158.545 473.656 169.608 476.104 180.22C476.306 181.208 476.536 181.983 476.65 182.486C476.703 182.715 476.756 182.909 476.791 183.077C476.813 183.145 476.822 183.217 476.818 183.288Z" fill="#263238"/>
<path d="M428.312 115.112C428.312 115.112 428.312 115.033 428.444 114.892L428.893 114.284C429.299 113.764 429.854 112.961 430.657 111.992C432.874 109.207 435.255 106.557 437.789 104.057C439.385 102.47 441.227 100.821 443.255 99.1199C445.436 97.3315 447.718 95.6685 450.088 94.1388C455.508 90.6005 461.461 87.9544 467.72 86.3012C470.98 85.5039 474.311 85.0285 477.664 84.8818C480.789 84.7651 483.917 84.9393 487.01 85.402C492.264 86.1895 497.333 87.9219 501.971 90.5154C503.741 91.5077 505.428 92.6429 507.014 93.9096C507.701 94.4826 508.354 95.0028 508.918 95.5229L510.408 97.0041C510.811 97.3873 511.185 97.7998 511.527 98.2383L512.312 99.1817L512.779 99.7723C512.885 99.9046 512.938 99.9751 512.929 99.9839L512.744 99.7988L512.242 99.2434C512.012 98.9877 511.739 98.688 511.431 98.3618C511.072 97.9377 510.686 97.5372 510.276 97.1628C509.826 96.7219 509.323 96.2811 508.768 95.7169C508.213 95.1527 507.543 94.7119 506.855 94.1476C505.265 92.9104 503.578 91.8019 501.812 90.8327C497.197 88.3149 492.169 86.6429 486.966 85.8957C483.902 85.442 480.803 85.2767 477.709 85.402C474.388 85.5545 471.09 86.0268 467.861 86.8126C461.641 88.454 455.719 91.0695 450.317 94.562C447.954 96.0764 445.676 97.7187 443.493 99.4814C441.465 101.174 439.614 102.796 438.018 104.366C435.473 106.832 433.062 109.433 430.798 112.159C429.978 113.111 429.396 113.922 428.964 114.398L428.488 114.98L428.312 115.112Z" fill="#263238"/>
<path d="M539.404 12.9336C539.378 13.0098 539.346 13.0836 539.307 13.154L538.998 13.7711L537.773 16.1074C537.226 17.1213 536.574 18.3644 535.86 19.8367C535.146 21.309 534.282 22.94 533.444 24.8178C533.021 25.7523 532.563 26.7221 532.095 27.7448C531.628 28.7675 531.214 29.843 530.711 30.9451C529.733 33.1579 528.824 35.5647 527.828 38.0862C525.924 43.1731 524.02 48.8243 522.327 54.8369C520.634 60.8495 519.391 66.7123 518.404 72.0461C517.954 74.691 517.522 77.2565 517.196 79.6545C517.037 80.8446 516.852 81.9996 516.729 83.1104C516.605 84.2213 516.491 85.2968 516.385 86.3195C516.129 88.356 516.023 90.2074 515.882 91.8296C515.741 93.4518 515.662 94.8624 515.6 96.0085C515.539 97.1546 515.486 98.0098 515.45 98.6533C515.45 98.9354 515.433 99.1647 515.397 99.341C515.407 99.4201 515.407 99.5 515.397 99.579C515.388 99.5 515.388 99.42 515.397 99.341V98.6533C515.397 98.0098 515.442 97.1281 515.468 96.0085C515.494 94.8888 515.547 93.4518 515.671 91.8208C515.794 90.1898 515.874 88.3384 516.103 86.2931C516.209 85.2704 516.314 84.1948 516.42 83.084C516.526 81.9731 516.711 80.8094 516.861 79.6104C517.152 77.2124 517.593 74.6645 518.033 71.9756C518.994 66.6241 520.264 60.779 521.93 54.7223C523.596 48.6656 525.545 43.0144 527.476 37.9716C528.481 35.4501 529.415 33.0345 530.411 30.8304C530.896 29.7284 531.346 28.644 531.822 27.6302L533.197 24.712C534.079 22.843 534.961 21.1855 535.675 19.7485C536.389 18.3115 537.094 17.0596 537.658 16.0633L538.901 13.7006L539.254 13.1099C539.296 13.0448 539.346 12.9855 539.404 12.9336Z" fill="#263238"/>
<path d="M516.314 101.378C516.314 101.378 516.367 101.29 516.491 101.148L517.029 100.496C517.513 99.9407 518.183 99.0678 519.162 98.0452C521.86 95.1129 524.791 92.4034 527.925 89.9431C530.087 88.2352 532.335 86.6402 534.661 85.1647C537.336 83.4833 540.106 81.9585 542.957 80.5979C556.111 74.2905 570.794 71.8769 585.275 73.642C588.414 74.0113 591.528 74.5648 594.602 75.2994C597.485 76.0312 600.139 76.807 602.537 77.671C606.291 79.0143 609.932 80.6564 613.425 82.5816C614.677 83.2252 615.585 83.8423 616.228 84.2126L616.942 84.6534C617.11 84.7592 617.189 84.8121 617.18 84.8209L616.925 84.6975L616.184 84.2919C615.523 83.9481 614.597 83.3574 613.337 82.7403C609.81 80.8766 606.147 79.285 602.378 77.9795C599.788 77.0772 597.155 76.3062 594.488 75.6697C591.425 74.9596 588.326 74.4209 585.204 74.0563C570.799 72.3453 556.204 74.7478 543.107 80.9859C540.264 82.3306 537.497 83.8317 534.82 85.4821C532.333 87.0778 530.068 88.6383 528.093 90.1988C524.958 92.6171 522.011 95.2696 519.277 98.1333C518.28 99.1296 517.593 99.9847 517.081 100.523L516.508 101.14C516.394 101.316 516.323 101.387 516.314 101.378Z" fill="#263238"/>
<path d="M551.756 70.0098C551.624 70.1097 551.478 70.1899 551.324 70.2478L550.054 70.8649C548.943 71.3939 547.339 72.1609 545.39 73.1571C540.299 75.7476 535.368 78.6416 530.623 81.8235C527.987 83.529 525.471 85.4143 523.094 87.4658C521.154 89.1274 519.475 91.071 518.113 93.2316C517.202 94.694 516.546 96.3009 516.173 97.9835C516.086 98.4296 516.021 98.8798 515.98 99.3324C515.97 99.4999 515.941 99.6657 515.891 99.8261C515.868 99.6623 515.868 99.4961 515.891 99.3324C515.903 98.856 515.953 98.3813 516.041 97.913C516.351 96.1898 516.972 94.5377 517.875 93.0376C519.218 90.8163 520.898 88.8175 522.856 87.1132C525.236 85.0318 527.761 83.1227 530.412 81.4003C535.154 78.2261 540.109 75.3806 545.24 72.8838C547.224 71.9229 548.846 71.2 549.975 70.7151L551.288 70.1861C551.437 70.1092 551.593 70.05 551.756 70.0098Z" fill="#263238"/>
<path d="M599.574 148.209C599.523 148.135 599.481 148.055 599.451 147.971L599.133 147.266C598.851 146.648 598.499 145.714 597.935 144.559C596.4 141.258 594.633 138.07 592.645 135.02C589.717 130.499 586.302 126.313 582.462 122.536C580.184 120.318 577.779 118.234 575.259 116.294C572.536 114.238 569.689 112.351 566.734 110.643C561.007 107.366 554.883 104.838 548.511 103.123C545.732 102.386 542.916 101.797 540.074 101.36C537.429 100.981 534.899 100.69 532.598 100.575C528.97 100.36 525.332 100.398 521.71 100.69C520.431 100.769 519.435 100.919 518.765 100.972L517.989 101.042C517.902 101.056 517.813 101.056 517.725 101.042L517.989 100.989L518.748 100.875C519.426 100.787 520.414 100.602 521.701 100.505C525.327 100.144 528.976 100.056 532.615 100.24C534.925 100.337 537.447 100.61 540.136 100.972C542.995 101.409 545.829 101.998 548.626 102.735C555.041 104.433 561.206 106.964 566.963 110.264C569.935 111.984 572.797 113.886 575.533 115.959C578.067 117.907 580.478 120.009 582.753 122.254C586.603 126.062 590.013 130.291 592.918 134.861C594.88 137.935 596.598 141.156 598.058 144.497C598.604 145.67 598.94 146.622 599.186 147.248L599.46 147.971C599.505 148.047 599.543 148.126 599.574 148.209Z" fill="#263238"/>
<path d="M517.743 100.875L517.99 100.76L518.73 100.452C519.391 100.214 520.335 99.7728 521.613 99.3761C525.198 98.1642 528.892 97.2992 532.642 96.7929C535.232 96.4476 537.84 96.2503 540.453 96.2023C543.454 96.185 546.453 96.3735 549.428 96.7665C556.26 97.664 562.893 99.6993 569.053 102.788C572.22 104.418 575.259 106.287 578.142 108.377C580.811 110.348 583.32 112.526 585.645 114.893C587.735 117.046 589.656 119.357 591.393 121.804C592.894 123.948 594.234 126.199 595.404 128.54C597.103 131.908 598.416 135.457 599.319 139.119C599.671 140.415 599.804 141.447 599.954 142.135L600.086 142.928C600.099 143.016 600.099 143.105 600.086 143.193C600.048 143.111 600.021 143.025 600.006 142.937C600.006 142.734 599.901 142.478 599.821 142.152C599.645 141.473 599.495 140.442 599.116 139.164C598.146 135.525 596.793 131.999 595.078 128.646C593.897 126.333 592.55 124.109 591.049 121.99C589.309 119.57 587.39 117.283 585.31 115.148C582.989 112.812 580.493 110.657 577.843 108.704C574.997 106.646 572 104.807 568.877 103.202C562.764 100.128 556.182 98.0931 549.402 97.1809C546.447 96.7852 543.469 96.5849 540.488 96.5814C537.891 96.6138 535.298 96.7933 532.721 97.1191C528.985 97.5919 525.299 98.4034 521.71 99.5436C520.423 99.9139 519.471 100.328 518.801 100.54L518.042 100.804L517.743 100.875Z" fill="#263238"/>
<path d="M488.861 118.04C489.124 117.716 489.419 117.421 489.742 117.158C490.307 116.629 491.144 115.889 492.211 115.007C497.786 110.41 503.946 106.574 510.531 103.599C511.792 103.026 512.832 102.594 513.555 102.329C513.92 102.162 514.301 102.032 514.692 101.941C514.355 102.157 513.998 102.34 513.626 102.488C512.92 102.814 511.915 103.29 510.672 103.89C507.439 105.454 504.29 107.188 501.239 109.083C498.196 110.987 495.254 113.047 492.423 115.254C491.338 116.135 490.465 116.797 489.866 117.29C489.562 117.58 489.225 117.831 488.861 118.04Z" fill="#263238"/>
</svg>
