<svg width="409" height="514" viewBox="0 0 409 514" fill="none" xmlns="http://www.w3.org/2000/svg">
<path d="M390.334 408.334L390.427 397.428L254.701 364.444L18.3598 443.526V454.884C18.3498 455.431 18.5335 455.963 18.8785 456.387C19.2922 456.872 19.8301 457.235 20.4346 457.438L153.302 512.274C154.389 512.698 155.523 512.988 156.68 513.138C159.262 513.506 161.887 513.439 164.447 512.939C165.619 512.721 166.761 512.368 167.852 511.888L388.751 410.994C389.21 410.833 389.603 410.524 389.869 410.117C390.231 409.597 390.396 408.965 390.334 408.334Z" fill="white"/>
<mask id="mask0_463_1965" style="mask-type:luminance" maskUnits="userSpaceOnUse" x="18" y="364" width="373" height="150">
<path d="M390.334 408.334L390.427 397.428L254.701 364.444L18.3598 443.526V454.884C18.3498 455.431 18.5335 455.963 18.8785 456.387C19.2922 456.872 19.8301 457.235 20.4346 457.438L153.302 512.274C154.389 512.698 155.523 512.988 156.68 513.138C159.262 513.506 161.887 513.439 164.447 512.939C165.619 512.721 166.761 512.368 167.852 511.888L388.751 410.994C389.21 410.833 389.603 410.524 389.869 410.117C390.231 409.597 390.396 408.965 390.334 408.334Z" fill="white"/>
</mask>
<g mask="url(#mask0_463_1965)">
<path opacity="0.2" d="M389.869 410.143C390.228 409.627 390.393 409 390.334 408.374L390.428 397.468L254.701 364.444L163.25 395.034V513.085C163.649 513.085 164.062 512.979 164.447 512.899C165.619 512.681 166.761 512.328 167.852 511.848L388.752 410.994C389.207 410.84 389.599 410.541 389.869 410.143Z" fill="black"/>
<path opacity="0.2" d="M159.593 513.577V495.263H154.964V513.005C156.466 513.442 158.029 513.635 159.593 513.577Z" fill="black"/>
</g>
<path d="M390.334 408.334L390.427 397.428L254.701 364.444L18.3598 443.526V454.884C18.3498 455.431 18.5335 455.963 18.8785 456.387C19.2922 456.872 19.8301 457.235 20.4346 457.438L153.302 512.274C154.389 512.698 155.523 512.988 156.68 513.138C159.262 513.506 161.887 513.439 164.447 512.939C165.619 512.721 166.761 512.368 167.852 511.888L388.751 410.994C389.21 410.833 389.603 410.524 389.869 410.117C390.231 409.597 390.396 408.965 390.334 408.334Z" stroke="#263238" stroke-miterlimit="10"/>
<path d="M320.894 383.875L303.511 379.473C303.254 379.406 302.991 379.361 302.726 379.34C302.447 379.34 302.154 379.34 301.875 379.34C301.608 379.348 301.342 379.37 301.077 379.406C300.856 379.441 300.638 379.494 300.425 379.566C300.278 379.611 300.145 379.693 300.04 379.805C300.019 379.844 300.008 379.888 300.008 379.932C300.008 379.976 300.019 380.019 300.04 380.058C300.102 380.171 300.201 380.26 300.319 380.311C300.502 380.411 300.7 380.482 300.904 380.524L318.287 384.966C318.555 385.025 318.826 385.069 319.099 385.099H319.963C320.235 385.087 320.506 385.06 320.774 385.019C320.996 384.988 321.215 384.934 321.426 384.859C321.567 384.808 321.694 384.727 321.799 384.62C321.823 384.58 321.836 384.534 321.836 384.487C321.836 384.44 321.823 384.394 321.799 384.354C321.728 384.24 321.626 384.147 321.506 384.088C321.314 383.996 321.114 383.925 320.907 383.875" fill="white"/>
<path d="M371.821 398.891L342.494 391.416H337.693C337.161 391.416 336.642 391.416 336.123 391.416C335.605 391.416 335.086 391.35 334.594 391.283C334.102 391.217 333.596 391.15 333.118 391.07C332.639 390.991 332.2 390.884 331.788 390.778L280.649 377.651L279.612 377.331C279.292 377.212 279.013 377.092 278.76 376.972C278.538 376.856 278.324 376.723 278.122 376.573C277.969 376.457 277.835 376.318 277.723 376.161L276.699 374.671L250.445 368.021L50.5059 436.929L176.696 485.248L371.821 398.891Z" fill="#7E57C2" stroke="white" stroke-width="3" stroke-miterlimit="10"/>
<path d="M390.813 396.537C390.484 396.134 390.065 395.815 389.589 395.606C388.864 395.253 388.101 394.985 387.315 394.808L259.249 362.888C258.444 362.695 257.626 362.557 256.802 362.476C255.917 362.398 255.029 362.367 254.142 362.383C253.278 362.393 252.416 362.46 251.562 362.582C250.821 362.682 250.092 362.846 249.38 363.074L21.4184 440.401C20.5772 440.668 19.7763 441.048 19.0377 441.531C18.5373 441.821 18.138 442.257 17.8939 442.781C17.8083 442.981 17.778 443.2 17.8061 443.415C17.8341 443.63 17.9196 443.834 18.0535 444.005C18.4596 444.495 18.9936 444.864 19.5963 445.069L153.315 499.213C154.401 499.642 155.535 499.936 156.693 500.091C159.275 500.459 161.9 500.392 164.46 499.891C165.632 499.673 166.774 499.321 167.865 498.841L389.802 398.346C390.263 398.176 390.659 397.864 390.932 397.455C390.997 397.305 391.02 397.141 390.999 396.98C390.978 396.818 390.913 396.665 390.813 396.537ZM176.683 485.248L50.5055 436.929L250.431 367.916L276.685 374.566L277.709 376.055C277.821 376.212 277.956 376.351 278.108 376.467C278.31 376.617 278.524 376.75 278.747 376.866C279 376.986 279.279 377.106 279.598 377.226L280.635 377.545L331.747 390.725C332.173 390.831 332.625 390.938 333.077 391.018C333.53 391.097 334.048 391.177 334.554 391.23C335.059 391.284 335.564 391.337 336.083 391.363C336.602 391.39 337.121 391.363 337.653 391.363H342.454L371.78 398.838L176.683 485.248ZM300.027 379.766C300.132 379.654 300.265 379.571 300.413 379.526C300.625 379.455 300.843 379.401 301.064 379.367C301.329 379.33 301.595 379.308 301.862 379.3C302.142 379.3 302.434 379.3 302.713 379.3C302.978 379.322 303.241 379.366 303.498 379.433L320.881 383.836C321.088 383.886 321.288 383.957 321.48 384.048C321.6 384.108 321.702 384.2 321.772 384.314C321.797 384.354 321.81 384.4 321.81 384.447C321.81 384.494 321.797 384.541 321.772 384.58C321.668 384.687 321.54 384.769 321.4 384.82C321.189 384.895 320.97 384.948 320.748 384.979C320.479 385.021 320.209 385.047 319.937 385.059H319.072C318.8 385.03 318.529 384.986 318.261 384.926L300.878 380.484C300.673 380.443 300.476 380.371 300.293 380.271C300.174 380.22 300.076 380.131 300.014 380.019C299.997 379.978 299.99 379.933 299.995 379.889C299.999 379.845 300.015 379.802 300.04 379.766H300.027ZM106.538 463.742C106.227 463.992 105.876 464.19 105.501 464.327C105.014 464.509 104.511 464.642 103.998 464.726C103.45 464.831 102.894 464.888 102.336 464.899C101.794 464.914 101.251 464.887 100.713 464.819C100.258 464.752 99.8126 464.636 99.383 464.474C99.0586 464.357 98.7635 464.171 98.5185 463.928C98.4398 463.846 98.3799 463.747 98.3432 463.639C98.3064 463.531 98.2936 463.417 98.3057 463.303C98.3712 463.045 98.5268 462.818 98.7446 462.665C99.053 462.41 99.4043 462.212 99.782 462.08C100.269 461.898 100.772 461.764 101.285 461.681C101.83 461.587 102.381 461.533 102.934 461.521C103.472 461.507 104.01 461.533 104.543 461.601C104.997 461.664 105.443 461.776 105.873 461.933C106.198 462.042 106.494 462.224 106.738 462.465C106.823 462.544 106.888 462.641 106.928 462.75C106.967 462.859 106.979 462.976 106.964 463.09C106.907 463.353 106.756 463.585 106.538 463.742Z" fill="#263238"/>
<path d="M105.86 461.934C105.43 461.776 104.984 461.664 104.53 461.601C103.997 461.534 103.459 461.507 102.921 461.521C102.368 461.534 101.817 461.587 101.272 461.681C100.759 461.765 100.256 461.898 99.7688 462.08C99.3911 462.212 99.0398 462.41 98.7314 462.665C98.5136 462.819 98.358 463.045 98.2925 463.303C98.2804 463.417 98.2932 463.532 98.3299 463.639C98.3667 463.747 98.4265 463.846 98.5053 463.929C98.7503 464.171 99.0454 464.357 99.3698 464.474C99.7994 464.637 100.245 464.753 100.7 464.82C101.238 464.888 101.78 464.914 102.322 464.899C102.88 464.889 103.437 464.831 103.985 464.727C104.498 464.643 105.001 464.509 105.488 464.328C105.863 464.19 106.213 463.992 106.525 463.742C106.737 463.583 106.884 463.351 106.938 463.091C106.953 462.976 106.94 462.859 106.901 462.75C106.862 462.642 106.797 462.544 106.711 462.466C106.468 462.225 106.172 462.043 105.847 461.934" fill="white"/>
<path d="M61.4775 404.265L65.2813 410.702" stroke="#263238" stroke-miterlimit="10"/>
<path d="M5.59082 309.741L57.1815 396.989" stroke="#263238" stroke-miterlimit="10"/>
<path d="M105.114 385.618L107.282 390.805" stroke="#263238" stroke-miterlimit="10"/>
<path d="M90.3389 350.267L102.695 379.819" stroke="#263238" stroke-miterlimit="10"/>
<path d="M347.866 304.847L320.681 371.639" stroke="#263238" stroke-miterlimit="10"/>
<path d="M354.583 288.368L351.218 296.601" stroke="#263238" stroke-miterlimit="10"/>
<path d="M369.665 370.27L363.733 376.8" stroke="#263238" stroke-miterlimit="10"/>
<path d="M407.942 328.162L375.597 363.74" stroke="#263238" stroke-miterlimit="10"/>
<path d="M81.4932 394.489L103.598 437.222" stroke="#263238" stroke-miterlimit="10"/>
<path d="M352.68 367.955L328.354 401.112" stroke="#263238" stroke-miterlimit="10"/>
<path d="M197.191 367.955L203.083 397.428" stroke="#263238" stroke-miterlimit="10"/>
<path d="M90.3259 102.102C98.3176 102.102 104.796 95.6233 104.796 87.6315C104.796 79.6398 98.3176 73.1611 90.3259 73.1611C82.3341 73.1611 75.8555 79.6398 75.8555 87.6315C75.8555 95.6233 82.3341 102.102 90.3259 102.102Z" fill="white" stroke="white" stroke-width="0.5" stroke-miterlimit="10"/>
<path d="M95.1264 86.6465H85.6967C84.8113 86.6465 83.9622 86.9982 83.3362 87.6243C82.7101 88.2503 82.3584 89.0994 82.3584 89.9848V97.9648C84.6644 99.7613 87.5093 100.727 90.4324 100.705C93.3555 100.683 96.1856 99.6756 98.4647 97.8451V90.0513C98.4735 89.6073 98.3937 89.1661 98.2299 88.7533C98.0661 88.3406 97.8216 87.9647 97.5107 87.6476C97.1999 87.3306 96.8289 87.0787 96.4194 86.9068C96.01 86.7349 95.5704 86.6464 95.1264 86.6465Z" fill="#7E57C2"/>
<path d="M90.2456 85.1973C92.8973 85.1973 95.0469 83.0477 95.0469 80.396C95.0469 77.7443 92.8973 75.5947 90.2456 75.5947C87.594 75.5947 85.4443 77.7443 85.4443 80.396C85.4443 83.0477 87.594 85.1973 90.2456 85.1973Z" fill="#7E57C2"/>
<path d="M131.092 351.195C134.001 343.751 130.324 335.359 122.88 332.451C115.436 329.543 107.044 333.219 104.136 340.663C101.228 348.107 104.905 356.499 112.348 359.407C119.792 362.316 128.184 358.639 131.092 351.195Z" fill="white" stroke="white" stroke-width="0.5" stroke-miterlimit="10"/>
<path d="M122.418 344.96H112.975C112.094 344.96 111.248 345.31 110.624 345.934C110.001 346.557 109.65 347.403 109.65 348.285V356.198C111.954 357.994 114.797 358.959 117.718 358.937C120.639 358.915 123.466 357.908 125.743 356.079V348.285C125.743 347.403 125.393 346.557 124.77 345.934C124.146 345.31 123.3 344.96 122.418 344.96Z" fill="#7E57C2"/>
<path d="M117.538 343.496C118.487 343.496 119.416 343.215 120.205 342.687C120.995 342.159 121.61 341.41 121.973 340.532C122.337 339.655 122.432 338.69 122.247 337.758C122.061 336.827 121.604 335.971 120.933 335.3C120.261 334.628 119.406 334.171 118.474 333.986C117.543 333.801 116.578 333.896 115.7 334.259C114.823 334.622 114.073 335.238 113.545 336.027C113.018 336.817 112.736 337.745 112.736 338.695C112.736 339.325 112.861 339.95 113.102 340.532C113.343 341.115 113.697 341.644 114.143 342.09C114.588 342.536 115.118 342.889 115.7 343.131C116.283 343.372 116.907 343.496 117.538 343.496Z" fill="#7E57C2"/>
<path d="M306.597 306.596C363.04 250.153 363.04 158.641 306.597 102.199C250.154 45.7556 158.642 45.7556 102.199 102.199C45.756 158.641 45.756 250.153 102.199 306.596C158.642 363.039 250.154 363.039 306.597 306.596Z" fill="white"/>
<mask id="mask1_463_1965" style="mask-type:luminance" maskUnits="userSpaceOnUse" x="59" y="59" width="290" height="290">
<path d="M306.597 306.596C363.04 250.153 363.04 158.641 306.597 102.199C250.154 45.7556 158.642 45.7556 102.199 102.199C45.756 158.641 45.756 250.153 102.199 306.596C158.642 363.039 250.154 363.039 306.597 306.596Z" fill="white"/>
</mask>
<g mask="url(#mask1_463_1965)">
<path opacity="0.18" d="M306.597 306.596C363.04 250.153 363.04 158.641 306.597 102.199C250.154 45.7556 158.642 45.7556 102.199 102.199C45.756 158.641 45.756 250.153 102.199 306.596C158.642 363.039 250.154 363.039 306.597 306.596Z" fill="black"/>
<path opacity="0.86" d="M204.399 266.143C173.289 266.141 143.008 256.104 118.056 237.523C93.1038 218.941 74.8105 192.807 65.8931 163.002C59.4615 184.574 58.1576 207.35 62.0853 229.516C66.0131 251.681 75.0639 272.622 88.5165 290.671C101.969 308.719 119.451 323.376 139.57 333.473C159.689 343.57 181.889 348.828 204.399 348.828C226.91 348.828 249.109 343.57 269.228 333.473C289.347 323.376 306.829 308.719 320.282 290.671C333.735 272.622 342.785 251.681 346.713 229.516C350.641 207.35 349.337 184.574 342.906 163.002C333.986 192.806 315.692 218.939 290.741 237.52C265.789 256.101 235.509 266.139 204.399 266.143Z" fill="white"/>
<path d="M199.199 137.492L212.925 143.663L216.688 149.834L222.873 152.242L223.551 158.759L221.157 162.536L216.356 163.56L206.062 159.437V158.107L211.887 155.713L209.826 148.504L200.516 145.073L196.406 139.593L199.199 137.492ZM285.649 295.962L274.676 291.506L261.257 286.705H250.617L240.708 284.643L229.722 287.051L223.551 287.383H219.774L212.579 291.506L205.716 294.246L196.406 288.42L198.8 278.818L192.975 276.411H186.112L185.088 273.325L185.766 267.154L183.372 263.722L178.571 264.401L177.241 267.832L171.415 268.178L166.268 262.033L164.167 253.774L169.314 244.171L179.262 244.85L182.002 247.257H186.125L191.272 244.171L195.728 245.501L201.899 256.141L204.306 255.809L203.615 247.909L201.566 243.799L202.245 237.282L214.933 231.789L216.649 219.101L222.141 214.645L226.597 206.758L230.028 206.067L237.915 200.92L238.261 198.18L232.768 198.526L231.744 195.773H228.007L222.181 197.103L224.921 192.647L236.891 189.216L239.631 186.13L244.432 193.671L247.531 196.77L252.332 195.44L250.271 190.985L243.062 185.838L234.83 176.528L226.251 170.689L218.018 169.359L213.909 165.249L208.416 163.919L207.738 165.249L207.046 175.198L208.376 178.629L205.397 189.628L198.534 184.135L199.571 179.334L192.363 175.902L189.277 172.139L190.993 163.56L200.941 156.351L201.633 148.119L197.856 148.465L195.448 145.379L194.424 140.232L192.017 139.886L190.687 145.379L186.923 146.071L185.207 134.101L182.454 132.385L177.653 130.323L172.147 133.023L178.996 139.554L180.326 145.379L167.984 136.069L159.405 126.759L158.727 117.449L149.803 114.709L142.887 119.311C141.224 120.32 139.506 121.235 137.74 122.051C135.032 122.696 132.28 123.141 129.507 123.381L128.177 129.219L120.29 129.565L120.982 133.329L133.67 135.391L140.187 142.599V154.569L136.41 165.209L137.101 176.528L127.499 193.339L125.437 218.369L128.523 232.787L132.978 243.759L138.125 244.451L136.41 238.958L133.67 234.835L131.954 227.294L135.04 226.602L139.841 238.958L143.286 250.063V258.988L149.803 266.874L161.507 275.333L179.342 280.135L184.835 285.282L188.945 290.761L195.116 294.538L202.67 296.6L210.211 296.254C210.211 296.254 209.866 299.686 209.866 301.401C209.866 303.117 205.064 308.942 205.064 308.942L201.3 315.805L204.04 323.346L211.581 326.445L222.221 337.418L227.023 339.479V344.613L227.621 347.02C254.305 342.704 279.236 330.965 299.561 313.145L299.747 310.658L309.057 293.847L304.601 290.761L285.649 295.962ZM321.333 160.474L317.556 153.957L312.754 146.403L311.424 136.122L317.596 137.146L317.941 133.715L313.473 133.369L317.25 131.653L321.373 129.259V125.828L317.25 120.335L316.372 112.954C296.427 88.5545 269.06 71.3358 238.432 63.9154C207.804 56.4949 175.591 59.2786 146.691 71.8432L154.604 77.4425L149.803 83.627L143.286 84.957L142.594 94.267L139.854 95.2911L136.423 99.0683L136.769 105.24L142.594 105.931L140.227 111.743H146.052L156.001 99.055L157.038 93.5754L166.641 92.8838L169.035 88.7608L178.983 87.7367L180.02 81.9113L187.216 81.5655C187.216 81.5655 192.363 78.8257 193.4 78.8257C195.38 79.2525 197.327 79.8215 199.226 80.5281L204.373 84.6511H211.568L217.752 80.8739L225.639 81.5655C226.775 82.3034 228.07 82.7594 229.417 82.8955C231.132 82.8955 236.266 80.4882 236.266 80.4882L246.214 86.6727L250.337 89.7583V94.9054L255.485 95.5837L257.2 92.4981L261.656 94.5596L261.31 97.2994L251.016 100.053L256.854 107.594L269.197 114.456L274.344 121.319L281.898 121.998L283.614 118.566L286.354 117.888L277.43 111.025L271.897 110.413L276.352 109.083L272.229 103.258L278.068 102.912L285.609 107.022L287.325 115.254L291.102 119.723L294.188 129.672L301.729 135.151V146.47L309.629 151.617L309.283 155.394L308.246 159.849L310.307 166.021L310.999 169.119L316.824 170.144L319.577 164.305L321.333 160.474ZM325.788 125.894V127.863L324.073 133.342L325.097 138.144L328.874 139.474V145.991L324.751 144.275L323.767 162.868L319.657 170.423L322.397 180.025L326.852 184.135V202.662L331.308 217.066L336.122 228.052L344.009 230.1L346.749 223.237L347.866 222.373C348.609 216.412 348.982 210.411 348.984 204.404C349.011 176.548 340.948 149.283 325.775 125.921L325.788 125.894ZM246.534 123.713L223.924 113.765L213.975 114.111L211.568 120.628L207.458 116.172L199.917 117.888L199.226 129.206L205.397 133.662L209.852 127.145L214.999 132.292L225.639 141.602L227.701 151.55L236.612 162.868L251.016 160.474L250.683 155.327L247.598 149.489L246.906 135.776L250.337 129.938L246.534 123.713ZM265.061 131.268L259.913 129.938L255.458 133.715L257.852 143.663H262.321L265.061 131.268ZM296.981 137.785L285.303 131.693L282.896 127.584L280.156 128.608L282.55 135.47L284.612 144.395L289.759 146.443L290.783 145.113L287.697 139.966L296.621 143.397L296.981 137.785ZM196.818 261.608L195.488 262.938L205.782 266.023L209.892 270.825L216.422 271.516L218.816 267.739L210.93 266.409L196.818 261.608ZM227.408 268.125L220.2 270.186L221.237 272.926H230.148L231.864 270.186L228.778 270.532L227.408 268.125Z" fill="#7E57C2"/>
<mask id="mask2_463_1965" style="mask-type:luminance" maskUnits="userSpaceOnUse" x="120" y="59" width="229" height="289">
<path d="M199.199 137.492L212.925 143.663L216.688 149.834L222.873 152.242L223.551 158.759L221.157 162.536L216.356 163.56L206.062 159.437V158.107L211.887 155.713L209.826 148.504L200.516 145.073L196.406 139.593L199.199 137.492ZM285.649 295.962L274.676 291.506L261.257 286.705H250.617L240.708 284.643L229.722 287.051L223.551 287.383H219.774L212.579 291.506L205.716 294.246L196.406 288.42L198.8 278.818L192.975 276.411H186.112L185.088 273.325L185.766 267.154L183.372 263.722L178.571 264.401L177.241 267.832L171.415 268.178L166.268 262.033L164.167 253.774L169.314 244.171L179.262 244.85L182.002 247.257H186.125L191.272 244.171L195.728 245.501L201.899 256.141L204.306 255.809L203.615 247.909L201.566 243.799L202.245 237.282L214.933 231.789L216.649 219.101L222.141 214.645L226.597 206.758L230.028 206.067L237.915 200.92L238.261 198.18L232.768 198.526L231.744 195.773H228.007L222.181 197.103L224.921 192.647L236.891 189.216L239.631 186.13L244.432 193.671L247.531 196.77L252.332 195.44L250.271 190.985L243.062 185.838L234.83 176.528L226.251 170.689L218.018 169.359L213.909 165.249L208.416 163.919L207.738 165.249L207.046 175.198L208.376 178.629L205.397 189.628L198.534 184.135L199.571 179.334L192.363 175.902L189.277 172.139L190.993 163.56L200.941 156.351L201.633 148.119L197.856 148.465L195.448 145.379L194.424 140.232L192.017 139.886L190.687 145.379L186.923 146.071L185.207 134.101L182.454 132.385L177.653 130.323L172.147 133.023L178.996 139.554L180.326 145.379L167.984 136.069L159.405 126.759L158.727 117.449L149.803 114.709L142.887 119.311C141.224 120.32 139.506 121.235 137.74 122.051C135.032 122.696 132.28 123.141 129.507 123.381L128.177 129.219L120.29 129.565L120.982 133.329L133.67 135.391L140.187 142.599V154.569L136.41 165.209L137.101 176.528L127.499 193.339L125.437 218.369L128.523 232.787L132.978 243.759L138.125 244.451L136.41 238.958L133.67 234.835L131.954 227.294L135.04 226.602L139.841 238.958L143.286 250.063V258.988L149.803 266.874L161.507 275.333L179.342 280.135L184.835 285.282L188.945 290.761L195.116 294.538L202.67 296.6L210.211 296.254C210.211 296.254 209.866 299.686 209.866 301.401C209.866 303.117 205.064 308.942 205.064 308.942L201.3 315.805L204.04 323.346L211.581 326.445L222.221 337.418L227.023 339.479V344.613L227.621 347.02C254.305 342.704 279.236 330.965 299.561 313.145L299.747 310.658L309.057 293.847L304.601 290.761L285.649 295.962ZM321.333 160.474L317.556 153.957L312.754 146.403L311.424 136.122L317.596 137.146L317.941 133.715L313.473 133.369L317.25 131.653L321.373 129.259V125.828L317.25 120.335L316.372 112.954C296.427 88.5545 269.06 71.3358 238.432 63.9154C207.804 56.4949 175.591 59.2786 146.691 71.8432L154.604 77.4425L149.803 83.627L143.286 84.957L142.594 94.267L139.854 95.2911L136.423 99.0683L136.769 105.24L142.594 105.931L140.227 111.743H146.052L156.001 99.055L157.038 93.5754L166.641 92.8838L169.035 88.7608L178.983 87.7367L180.02 81.9113L187.216 81.5655C187.216 81.5655 192.363 78.8257 193.4 78.8257C195.38 79.2525 197.327 79.8215 199.226 80.5281L204.373 84.6511H211.568L217.752 80.8739L225.639 81.5655C226.775 82.3034 228.07 82.7594 229.417 82.8955C231.132 82.8955 236.266 80.4882 236.266 80.4882L246.214 86.6727L250.337 89.7583V94.9054L255.485 95.5837L257.2 92.4981L261.656 94.5596L261.31 97.2994L251.016 100.053L256.854 107.594L269.197 114.456L274.344 121.319L281.898 121.998L283.614 118.566L286.354 117.888L277.43 111.025L271.897 110.413L276.352 109.083L272.229 103.258L278.068 102.912L285.609 107.022L287.325 115.254L291.102 119.723L294.188 129.672L301.729 135.151V146.47L309.629 151.617L309.283 155.394L308.246 159.849L310.307 166.021L310.999 169.119L316.824 170.144L319.577 164.305L321.333 160.474ZM325.788 125.894V127.863L324.073 133.342L325.097 138.144L328.874 139.474V145.991L324.751 144.275L323.767 162.868L319.657 170.423L322.397 180.025L326.852 184.135V202.662L331.308 217.066L336.122 228.052L344.009 230.1L346.749 223.237L347.866 222.373C348.609 216.412 348.982 210.411 348.984 204.404C349.011 176.548 340.948 149.283 325.775 125.921L325.788 125.894ZM246.534 123.713L223.924 113.765L213.975 114.111L211.568 120.628L207.458 116.172L199.917 117.888L199.226 129.206L205.397 133.662L209.852 127.145L214.999 132.292L225.639 141.602L227.701 151.55L236.612 162.868L251.016 160.474L250.683 155.327L247.598 149.489L246.906 135.776L250.337 129.938L246.534 123.713ZM265.061 131.268L259.913 129.938L255.458 133.715L257.852 143.663H262.321L265.061 131.268ZM296.981 137.785L285.303 131.693L282.896 127.584L280.156 128.608L282.55 135.47L284.612 144.395L289.759 146.443L290.783 145.113L287.697 139.966L296.621 143.397L296.981 137.785ZM196.818 261.608L195.488 262.938L205.782 266.023L209.892 270.825L216.422 271.516L218.816 267.739L210.93 266.409L196.818 261.608ZM227.408 268.125L220.2 270.186L221.237 272.926H230.148L231.864 270.186L228.778 270.532L227.408 268.125Z" fill="white"/>
</mask>
<g mask="url(#mask2_463_1965)">
<path opacity="0.65" d="M204.399 266.142C173.289 266.14 143.008 256.103 118.056 237.522C93.1038 218.94 74.8105 192.806 65.8931 163.001C59.4615 184.573 58.1576 207.349 62.0853 229.515C66.0131 251.68 75.0639 272.621 88.5165 290.67C101.969 308.718 119.451 323.375 139.57 333.472C159.689 343.569 181.889 348.827 204.399 348.827C226.91 348.827 249.109 343.569 269.228 333.472C289.347 323.375 306.829 308.718 320.282 290.67C333.735 272.621 342.785 251.68 346.713 229.515C350.641 207.349 349.337 184.573 342.906 163.001C333.986 192.805 315.692 218.938 290.741 237.519C265.789 256.1 235.509 266.138 204.399 266.142Z" fill="white"/>
</g>
<path d="M199.199 137.492L212.925 143.663L216.688 149.834L222.873 152.242L223.551 158.759L221.157 162.536L216.356 163.56L206.062 159.437V158.107L211.887 155.713L209.826 148.504L200.516 145.073L196.406 139.593L199.199 137.492ZM285.649 295.962L274.676 291.506L261.257 286.705H250.617L240.708 284.643L229.722 287.051L223.551 287.383H219.774L212.579 291.506L205.716 294.246L196.406 288.42L198.8 278.818L192.975 276.411H186.112L185.088 273.325L185.766 267.154L183.372 263.722L178.571 264.401L177.241 267.832L171.415 268.178L166.268 262.033L164.167 253.774L169.314 244.171L179.262 244.85L182.002 247.257H186.125L191.272 244.171L195.728 245.501L201.899 256.141L204.306 255.809L203.615 247.909L201.566 243.799L202.245 237.282L214.933 231.789L216.649 219.101L222.141 214.645L226.597 206.758L230.028 206.067L237.915 200.92L238.261 198.18L232.768 198.526L231.744 195.773H228.007L222.181 197.103L224.921 192.647L236.891 189.216L239.631 186.13L244.432 193.671L247.531 196.77L252.332 195.44L250.271 190.985L243.062 185.838L234.83 176.528L226.251 170.689L218.018 169.359L213.909 165.249L208.416 163.919L207.738 165.249L207.046 175.198L208.376 178.629L205.397 189.628L198.534 184.135L199.571 179.334L192.363 175.902L189.277 172.139L190.993 163.56L200.941 156.351L201.633 148.119L197.856 148.465L195.448 145.379L194.424 140.232L192.017 139.886L190.687 145.379L186.923 146.071L185.207 134.101L182.454 132.385L177.653 130.323L172.147 133.023L178.996 139.554L180.326 145.379L167.984 136.069L159.405 126.759L158.727 117.449L149.803 114.709L142.887 119.311C141.224 120.32 139.506 121.235 137.74 122.051C135.032 122.696 132.28 123.141 129.507 123.381L128.177 129.219L120.29 129.565L120.982 133.329L133.67 135.391L140.187 142.599V154.569L136.41 165.209L137.101 176.528L127.499 193.339L125.437 218.369L128.523 232.787L132.978 243.759L138.125 244.451L136.41 238.958L133.67 234.835L131.954 227.294L135.04 226.602L139.841 238.958L143.286 250.063V258.988L149.803 266.874L161.507 275.333L179.342 280.135L184.835 285.282L188.945 290.761L195.116 294.538L202.67 296.6L210.211 296.254C210.211 296.254 209.866 299.686 209.866 301.401C209.866 303.117 205.064 308.942 205.064 308.942L201.3 315.805L204.04 323.346L211.581 326.445L222.221 337.418L227.023 339.479V344.613L227.621 347.02C254.305 342.704 279.236 330.965 299.561 313.145L299.747 310.658L309.057 293.847L304.601 290.761L285.649 295.962ZM321.333 160.474L317.556 153.957L312.754 146.403L311.424 136.122L317.596 137.146L317.941 133.715L313.473 133.369L317.25 131.653L321.373 129.259V125.828L317.25 120.335L316.372 112.954C296.427 88.5545 269.06 71.3358 238.432 63.9154C207.804 56.4949 175.591 59.2786 146.691 71.8432L154.604 77.4425L149.803 83.627L143.286 84.957L142.594 94.267L139.854 95.2911L136.423 99.0683L136.769 105.24L142.594 105.931L140.227 111.743H146.052L156.001 99.055L157.038 93.5754L166.641 92.8838L169.035 88.7608L178.983 87.7367L180.02 81.9113L187.216 81.5655C187.216 81.5655 192.363 78.8257 193.4 78.8257C195.38 79.2525 197.327 79.8215 199.226 80.5281L204.373 84.6511H211.568L217.752 80.8739L225.639 81.5655C226.775 82.3034 228.07 82.7594 229.417 82.8955C231.132 82.8955 236.266 80.4882 236.266 80.4882L246.214 86.6727L250.337 89.7583V94.9054L255.485 95.5837L257.2 92.4981L261.656 94.5596L261.31 97.2994L251.016 100.053L256.854 107.594L269.197 114.456L274.344 121.319L281.898 121.998L283.614 118.566L286.354 117.888L277.43 111.025L271.897 110.413L276.352 109.083L272.229 103.258L278.068 102.912L285.609 107.022L287.325 115.254L291.102 119.723L294.188 129.672L301.729 135.151V146.47L309.629 151.617L309.283 155.394L308.246 159.849L310.307 166.021L310.999 169.119L316.824 170.144L319.577 164.305L321.333 160.474ZM325.788 125.894V127.863L324.073 133.342L325.097 138.144L328.874 139.474V145.991L324.751 144.275L323.767 162.868L319.657 170.423L322.397 180.025L326.852 184.135V202.662L331.308 217.066L336.122 228.052L344.009 230.1L346.749 223.237L347.866 222.373C348.609 216.412 348.982 210.411 348.984 204.404C349.011 176.548 340.948 149.283 325.775 125.921L325.788 125.894ZM246.534 123.713L223.924 113.765L213.975 114.111L211.568 120.628L207.458 116.172L199.917 117.888L199.226 129.206L205.397 133.662L209.852 127.145L214.999 132.292L225.639 141.602L227.701 151.55L236.612 162.868L251.016 160.474L250.683 155.327L247.598 149.489L246.906 135.776L250.337 129.938L246.534 123.713ZM265.061 131.268L259.913 129.938L255.458 133.715L257.852 143.663H262.321L265.061 131.268ZM296.981 137.785L285.303 131.693L282.896 127.584L280.156 128.608L282.55 135.47L284.612 144.395L289.759 146.443L290.783 145.113L287.697 139.966L296.621 143.397L296.981 137.785ZM196.818 261.608L195.488 262.938L205.782 266.023L209.892 270.825L216.422 271.516L218.816 267.739L210.93 266.409L196.818 261.608ZM227.408 268.125L220.2 270.186L221.237 272.926H230.148L231.864 270.186L228.778 270.532L227.408 268.125Z" stroke="#263238" stroke-miterlimit="10"/>
</g>
<path d="M306.597 306.596C363.04 250.153 363.04 158.641 306.597 102.199C250.154 45.7556 158.642 45.7556 102.199 102.199C45.756 158.641 45.756 250.153 102.199 306.596C158.642 363.039 250.154 363.039 306.597 306.596Z" stroke="#263238" stroke-miterlimit="10"/>
<path d="M385.459 145.416C393.347 144.132 398.7 136.696 397.415 128.808C396.13 120.92 388.695 115.567 380.807 116.852C372.919 118.136 367.566 125.572 368.85 133.46C370.135 141.348 377.571 146.701 385.459 145.416Z" fill="white" stroke="white" stroke-width="0.5" stroke-miterlimit="10"/>
<path d="M387.926 130.165H378.483C378.045 130.165 377.612 130.251 377.208 130.419C376.803 130.587 376.436 130.833 376.127 131.144C375.818 131.454 375.574 131.822 375.407 132.227C375.241 132.632 375.156 133.066 375.158 133.503V141.417C377.462 143.212 380.305 144.177 383.226 144.156C386.146 144.134 388.974 143.127 391.251 141.297V133.503C391.253 133.066 391.168 132.632 391.002 132.227C390.836 131.822 390.591 131.454 390.282 131.144C389.973 130.833 389.606 130.587 389.202 130.419C388.797 130.251 388.364 130.165 387.926 130.165Z" fill="#7E57C2"/>
<path d="M383.045 128.701C383.995 128.701 384.923 128.42 385.713 127.892C386.502 127.364 387.118 126.615 387.481 125.737C387.845 124.86 387.94 123.895 387.754 122.963C387.569 122.032 387.112 121.176 386.44 120.505C385.769 119.833 384.913 119.376 383.982 119.191C383.051 119.006 382.085 119.101 381.208 119.464C380.331 119.828 379.581 120.443 379.053 121.232C378.526 122.022 378.244 122.95 378.244 123.9C378.244 124.53 378.368 125.155 378.61 125.737C378.851 126.32 379.205 126.849 379.65 127.295C380.096 127.741 380.626 128.094 381.208 128.336C381.791 128.577 382.415 128.701 383.045 128.701Z" fill="#7E57C2"/>
<path d="M281.154 87.5385C289.146 87.5385 295.624 81.0598 295.624 73.0681C295.624 65.0763 289.146 58.5977 281.154 58.5977C273.162 58.5977 266.684 65.0763 266.684 73.0681C266.684 81.0598 273.162 87.5385 281.154 87.5385Z" fill="white" stroke="white" stroke-width="0.5" stroke-miterlimit="10"/>
<path d="M285.942 72.0834H276.513C275.637 72.0974 274.801 72.4553 274.186 73.0798C273.572 73.7044 273.227 74.5455 273.228 75.4217V83.4017C275.534 85.1982 278.378 86.1637 281.302 86.142C284.225 86.1203 287.055 85.1126 289.334 83.282V75.4217C289.334 74.9788 289.246 74.5403 289.075 74.1318C288.904 73.7233 288.653 73.3529 288.337 73.0422C288.022 72.7315 287.647 72.4867 287.236 72.3221C286.825 72.1575 286.385 72.0764 285.942 72.0834Z" fill="#7E57C2"/>
<path d="M281.061 70.6202C283.713 70.6202 285.862 68.4706 285.862 65.8189C285.862 63.1672 283.713 61.0176 281.061 61.0176C278.409 61.0176 276.26 63.1672 276.26 65.8189C276.26 68.4706 278.409 70.6202 281.061 70.6202Z" fill="#7E57C2"/>
<path d="M21.695 175.356C29.5828 174.071 34.9358 166.635 33.6512 158.747C32.3666 150.86 24.9308 145.507 17.043 146.791C9.15511 148.076 3.80213 155.512 5.08675 163.399C6.37137 171.287 13.8071 176.64 21.695 175.356Z" fill="white" stroke="white" stroke-width="0.5" stroke-miterlimit="10"/>
<path d="M24.1713 160.089H14.7283C14.2906 160.089 13.8571 160.175 13.4528 160.343C13.0486 160.511 12.6814 160.757 12.3725 161.067C12.0636 161.378 11.8189 161.746 11.6526 162.151C11.4863 162.556 11.4016 162.989 11.4033 163.427V171.341C13.7073 173.136 16.5499 174.101 19.4707 174.079C22.3915 174.058 25.2194 173.05 27.4963 171.221V163.427C27.4981 162.989 27.4134 162.556 27.2471 162.151C27.0808 161.746 26.8361 161.378 26.5272 161.067C26.2183 160.757 25.8511 160.511 25.4468 160.343C25.0426 160.175 24.6091 160.089 24.1713 160.089Z" fill="#7E57C2"/>
<path d="M19.2906 158.627C20.2402 158.627 21.1684 158.345 21.958 157.818C22.7476 157.29 23.363 156.54 23.7264 155.663C24.0898 154.786 24.1849 153.82 23.9996 152.889C23.8143 151.958 23.3571 151.102 22.6856 150.431C22.0141 149.759 21.1586 149.302 20.2272 149.117C19.2959 148.931 18.3305 149.026 17.4532 149.39C16.5759 149.753 15.826 150.369 15.2984 151.158C14.7709 151.948 14.4893 152.876 14.4893 153.826C14.4893 155.099 14.9951 156.32 15.8955 157.221C16.7959 158.121 18.0172 158.627 19.2906 158.627Z" fill="#7E57C2"/>
<path d="M31.0182 266.452C38.9061 265.168 44.2591 257.732 42.9744 249.844C41.6898 241.956 34.2541 236.603 26.3662 237.888C18.4784 239.172 13.1254 246.608 14.41 254.496C15.6946 262.384 23.1304 267.737 31.0182 266.452Z" fill="white" stroke="white" stroke-width="0.5" stroke-miterlimit="10"/>
<path d="M33.4819 251.194H24.0389C23.6011 251.194 23.1677 251.281 22.7634 251.449C22.3591 251.617 21.992 251.863 21.6831 252.173C21.3741 252.483 21.1295 252.851 20.9632 253.256C20.7969 253.661 20.7121 254.095 20.7139 254.533V262.446C23.0178 264.242 25.8604 265.207 28.7812 265.185C31.702 265.163 34.5299 264.156 36.8069 262.326V254.533C36.8087 254.095 36.7239 253.661 36.5576 253.256C36.3913 252.851 36.1467 252.483 35.8377 252.173C35.5288 251.863 35.1617 251.617 34.7574 251.449C34.3531 251.281 33.9197 251.194 33.4819 251.194Z" fill="#7E57C2"/>
<path d="M28.6001 249.732C29.5497 249.732 30.478 249.45 31.2676 248.922C32.0572 248.395 32.6726 247.645 33.036 246.768C33.3994 245.89 33.4944 244.925 33.3092 243.994C33.1239 243.062 32.6666 242.207 31.9952 241.535C31.3237 240.864 30.4682 240.406 29.5368 240.221C28.6055 240.036 27.6401 240.131 26.7628 240.494C25.8854 240.858 25.1356 241.473 24.608 242.263C24.0804 243.052 23.7988 243.981 23.7988 244.93C23.7988 246.204 24.3047 247.425 25.2051 248.325C26.1055 249.226 27.3267 249.732 28.6001 249.732Z" fill="#7E57C2"/>
<path d="M101.157 184.315C104.084 176.879 100.43 168.478 92.9933 165.55C85.5571 162.622 77.1555 166.277 74.2278 173.713C71.3001 181.149 74.955 189.551 82.3912 192.479C89.8274 195.407 98.229 191.752 101.157 184.315Z" fill="white" stroke="white" stroke-width="0.5" stroke-miterlimit="10"/>
<path d="M92.4932 178.045H83.0369C82.1551 178.045 81.3094 178.395 80.6858 179.019C80.0622 179.642 79.7119 180.488 79.7119 181.37V189.35C82.0158 191.145 84.8584 192.11 87.7792 192.089C90.7 192.067 93.528 191.06 95.8049 189.23V181.436C95.8137 180.995 95.7347 180.557 95.5724 180.147C95.4101 179.736 95.1678 179.363 94.8595 179.047C94.5513 178.731 94.1833 178.48 93.7771 178.308C93.3708 178.136 92.9344 178.047 92.4932 178.045Z" fill="#7E57C2"/>
<path d="M87.6128 176.581C88.5624 176.581 89.4907 176.3 90.2803 175.772C91.0698 175.244 91.6852 174.495 92.0486 173.617C92.412 172.74 92.5071 171.774 92.3219 170.843C92.1366 169.912 91.6793 169.056 91.0079 168.385C90.3364 167.713 89.4809 167.256 88.5495 167.071C87.6181 166.886 86.6528 166.981 85.7754 167.344C84.8981 167.707 84.1483 168.323 83.6207 169.112C83.0931 169.902 82.8115 170.83 82.8115 171.78C82.8115 172.41 82.9357 173.035 83.177 173.617C83.4183 174.2 83.7719 174.729 84.2178 175.175C84.6636 175.621 85.1929 175.974 85.7754 176.216C86.358 176.457 86.9823 176.581 87.6128 176.581Z" fill="#7E57C2"/>
<path d="M183.146 335.463C191.138 335.463 197.617 328.985 197.617 320.993C197.617 313.001 191.138 306.522 183.146 306.522C175.154 306.522 168.676 313.001 168.676 320.993C168.676 328.985 175.154 335.463 183.146 335.463Z" fill="white" stroke="white" stroke-width="0.5" stroke-miterlimit="10"/>
<path d="M187.948 320.022H178.518C177.633 320.022 176.784 320.374 176.157 321C175.531 321.626 175.18 322.475 175.18 323.361V331.274C177.486 333.071 180.331 334.036 183.254 334.015C186.177 333.993 189.007 332.985 191.286 331.155V323.361C191.286 322.475 190.934 321.626 190.308 321C189.682 320.374 188.833 320.022 187.948 320.022Z" fill="#7E57C2"/>
<path d="M183.066 318.559C185.718 318.559 187.867 316.409 187.867 313.757C187.867 311.106 185.718 308.956 183.066 308.956C180.414 308.956 178.265 311.106 178.265 313.757C178.265 316.409 180.414 318.559 183.066 318.559Z" fill="#7E57C2"/>
<path d="M287.192 363.287C295.184 363.287 301.662 356.808 301.662 348.816C301.662 340.824 295.184 334.346 287.192 334.346C279.2 334.346 272.722 340.824 272.722 348.816C272.722 356.808 279.2 363.287 287.192 363.287Z" fill="white" stroke="white" stroke-width="0.5" stroke-miterlimit="10"/>
<path d="M291.98 347.846H282.537C281.653 347.846 280.806 348.196 280.181 348.819C279.555 349.442 279.202 350.288 279.198 351.171V359.151C281.504 360.947 284.349 361.913 287.272 361.891C290.195 361.869 293.026 360.862 295.305 359.031V351.144C295.298 350.267 294.944 349.428 294.321 348.81C293.699 348.192 292.857 347.846 291.98 347.846Z" fill="#7E57C2"/>
<path d="M287.099 346.382C289.751 346.382 291.9 344.232 291.9 341.581C291.9 338.929 289.751 336.779 287.099 336.779C284.447 336.779 282.298 338.929 282.298 341.581C282.298 344.232 284.447 346.382 287.099 346.382Z" fill="#7E57C2"/>
<path d="M373.931 270.454C376.688 262.953 372.842 254.637 365.341 251.88C357.84 249.123 349.524 252.969 346.767 260.471C344.01 267.972 347.856 276.288 355.358 279.045C362.859 281.802 371.175 277.956 373.931 270.454Z" fill="white" stroke="white" stroke-width="0.5" stroke-miterlimit="10"/>
<path d="M365.144 264.494H355.687C354.805 264.494 353.96 264.844 353.336 265.468C352.713 266.092 352.362 266.937 352.362 267.819V275.799C354.666 277.595 357.509 278.56 360.43 278.538C363.35 278.516 366.178 277.509 368.455 275.679V267.886C368.464 267.445 368.385 267.006 368.223 266.596C368.06 266.186 367.818 265.812 367.51 265.496C367.202 265.18 366.834 264.929 366.427 264.757C366.021 264.585 365.585 264.496 365.144 264.494Z" fill="#7E57C2"/>
<path d="M360.262 263.031C361.212 263.031 362.14 262.75 362.93 262.222C363.719 261.695 364.335 260.945 364.698 260.067C365.061 259.19 365.157 258.225 364.971 257.293C364.786 256.362 364.329 255.506 363.657 254.835C362.986 254.164 362.13 253.706 361.199 253.521C360.268 253.336 359.302 253.431 358.425 253.794C357.548 254.158 356.798 254.773 356.27 255.563C355.743 256.352 355.461 257.28 355.461 258.23C355.461 259.503 355.967 260.725 356.867 261.625C357.768 262.525 358.989 263.031 360.262 263.031Z" fill="#7E57C2"/>
<path d="M331.561 135.206C351.99 151.764 364.106 172.446 364.106 194.763C364.106 249.293 292.06 293.529 203.176 293.529C114.292 293.529 42.2461 249.306 42.2461 194.763C42.2461 170.903 56.0382 149.024 78.994 131.947" stroke="white" stroke-width="0.5" stroke-miterlimit="10"/>
<path d="M110.968 94.1213C125.451 70.3808 145.814 54.5538 169.94 51.0293C226.625 42.8631 282.631 106.184 295.053 192.461C307.475 278.739 271.605 355.293 214.934 363.46C189.132 367.17 163.463 356.078 141.983 334.745" stroke="white" stroke-width="0.5" stroke-miterlimit="10"/>
<path d="M328.614 303.441C347.45 272.607 300.893 209.843 224.626 163.253C148.359 116.663 71.2635 103.89 52.4276 134.724C33.5918 165.558 80.1486 228.322 156.415 274.912C232.682 321.502 309.778 334.275 328.614 303.441Z" stroke="white" stroke-width="0.5" stroke-miterlimit="10"/>
<path d="M236.474 267.666C314.74 219.855 362.918 156.1 344.082 125.266C325.247 94.4323 246.53 108.195 168.263 156.007C89.9972 203.818 41.8193 267.573 60.6551 298.407C79.491 329.241 158.208 315.478 236.474 267.666Z" stroke="white" stroke-width="0.5" stroke-miterlimit="10"/>
<path d="M270.661 113.074C270.661 112.548 270.505 112.034 270.213 111.596C269.92 111.159 269.505 110.818 269.019 110.617C268.533 110.415 267.998 110.363 267.482 110.465C266.966 110.568 266.492 110.821 266.12 111.193C265.748 111.565 265.495 112.039 265.392 112.555C265.289 113.071 265.342 113.606 265.543 114.092C265.745 114.578 266.086 114.993 266.523 115.286C266.96 115.578 267.475 115.734 268.001 115.734C268.706 115.734 269.383 115.454 269.882 114.955C270.381 114.456 270.661 113.78 270.661 113.074Z" fill="white" stroke="white" stroke-width="0.5" stroke-miterlimit="10"/>
<path d="M299.921 221.961C299.921 221.435 299.765 220.92 299.472 220.483C299.18 220.046 298.765 219.705 298.279 219.503C297.792 219.302 297.258 219.249 296.742 219.352C296.226 219.455 295.752 219.708 295.38 220.08C295.008 220.452 294.754 220.926 294.652 221.442C294.549 221.958 294.602 222.493 294.803 222.979C295.004 223.465 295.345 223.88 295.783 224.172C296.22 224.465 296.735 224.621 297.261 224.621C297.966 224.621 298.643 224.341 299.142 223.842C299.64 223.343 299.921 222.666 299.921 221.961Z" fill="white" stroke="white" stroke-width="0.5" stroke-miterlimit="10"/>
<path d="M294.069 277.276C294.069 276.75 293.913 276.236 293.621 275.798C293.328 275.361 292.913 275.02 292.427 274.819C291.941 274.617 291.406 274.565 290.89 274.667C290.374 274.77 289.9 275.023 289.528 275.395C289.156 275.767 288.903 276.241 288.8 276.757C288.698 277.273 288.75 277.808 288.951 278.294C289.153 278.78 289.494 279.196 289.931 279.488C290.369 279.78 290.883 279.936 291.409 279.936C292.115 279.936 292.791 279.656 293.29 279.157C293.789 278.658 294.069 277.982 294.069 277.276Z" fill="white" stroke="white" stroke-width="0.5" stroke-miterlimit="10"/>
<path d="M277.097 319.41C277.097 318.884 276.941 318.37 276.649 317.932C276.357 317.495 275.941 317.154 275.455 316.952C274.969 316.751 274.434 316.698 273.918 316.801C273.402 316.904 272.928 317.157 272.556 317.529C272.184 317.901 271.931 318.375 271.828 318.891C271.726 319.407 271.779 319.942 271.98 320.428C272.181 320.914 272.522 321.329 272.96 321.622C273.397 321.914 273.911 322.07 274.437 322.07C275.143 322.07 275.819 321.79 276.318 321.291C276.817 320.792 277.097 320.115 277.097 319.41Z" fill="white" stroke="white" stroke-width="0.5" stroke-miterlimit="10"/>
<path d="M327.757 259.374C327.757 258.848 327.601 258.333 327.308 257.896C327.016 257.459 326.601 257.118 326.114 256.916C325.628 256.715 325.094 256.662 324.578 256.765C324.062 256.868 323.588 257.121 323.216 257.493C322.844 257.865 322.59 258.339 322.488 258.855C322.385 259.371 322.438 259.906 322.639 260.392C322.84 260.878 323.181 261.293 323.619 261.586C324.056 261.878 324.57 262.034 325.097 262.034C325.802 262.034 326.479 261.754 326.977 261.255C327.476 260.756 327.757 260.079 327.757 259.374Z" fill="white" stroke="white" stroke-width="0.5" stroke-miterlimit="10"/>
<path d="M191.059 292.784C191.059 292.258 190.903 291.744 190.611 291.306C190.319 290.869 189.903 290.528 189.417 290.327C188.931 290.125 188.396 290.072 187.88 290.175C187.364 290.278 186.89 290.531 186.518 290.903C186.146 291.275 185.893 291.749 185.79 292.265C185.688 292.781 185.74 293.316 185.942 293.802C186.143 294.288 186.484 294.703 186.921 294.996C187.359 295.288 187.873 295.444 188.399 295.444C189.105 295.444 189.781 295.164 190.28 294.665C190.779 294.166 191.059 293.49 191.059 292.784Z" fill="white" stroke="white" stroke-width="0.5" stroke-miterlimit="10"/>
<path d="M69.9108 248.601C69.9108 248.075 69.7548 247.561 69.4625 247.124C69.1702 246.686 68.7548 246.345 68.2688 246.144C67.7827 245.943 67.2479 245.89 66.7319 245.993C66.2159 246.095 65.7419 246.348 65.3699 246.72C64.9979 247.092 64.7446 247.566 64.6419 248.082C64.5393 248.598 64.592 249.133 64.7933 249.619C64.9946 250.105 65.3356 250.521 65.773 250.813C66.2104 251.105 66.7247 251.261 67.2508 251.261C67.9563 251.261 68.6329 250.981 69.1317 250.482C69.6306 249.983 69.9108 249.307 69.9108 248.601Z" fill="white" stroke="white" stroke-width="0.5" stroke-miterlimit="10"/>
<path d="M90.3923 221.084C90.3923 220.558 90.2362 220.043 89.944 219.606C89.6517 219.169 89.2362 218.828 88.7502 218.626C88.2641 218.425 87.7293 218.372 87.2133 218.475C86.6973 218.578 86.2234 218.831 85.8514 219.203C85.4793 219.575 85.226 220.049 85.1234 220.565C85.0207 221.081 85.0734 221.616 85.2747 222.102C85.4761 222.588 85.817 223.003 86.2544 223.296C86.6919 223.588 87.2062 223.744 87.7323 223.744C88.4377 223.744 89.1143 223.464 89.6132 222.965C90.112 222.466 90.3923 221.789 90.3923 221.084Z" fill="white" stroke="white" stroke-width="0.5" stroke-miterlimit="10"/>
<path d="M191.352 144.129C191.352 143.603 191.196 143.088 190.904 142.651C190.612 142.214 190.196 141.873 189.71 141.671C189.224 141.47 188.689 141.417 188.173 141.52C187.657 141.622 187.183 141.876 186.811 142.248C186.439 142.62 186.186 143.094 186.083 143.61C185.981 144.126 186.033 144.661 186.235 145.147C186.436 145.633 186.777 146.048 187.214 146.34C187.652 146.633 188.166 146.789 188.692 146.789C189.398 146.789 190.074 146.509 190.573 146.01C191.072 145.511 191.352 144.834 191.352 144.129Z" fill="white" stroke="white" stroke-width="0.5" stroke-miterlimit="10"/>
<path d="M349.37 150.859C349.37 150.333 349.214 149.819 348.922 149.381C348.629 148.944 348.214 148.603 347.728 148.402C347.242 148.2 346.707 148.148 346.191 148.25C345.675 148.353 345.201 148.606 344.829 148.978C344.457 149.35 344.204 149.824 344.101 150.34C343.998 150.856 344.051 151.391 344.252 151.877C344.454 152.363 344.795 152.779 345.232 153.071C345.669 153.363 346.184 153.519 346.71 153.519C347.415 153.519 348.092 153.239 348.591 152.74C349.09 152.241 349.37 151.565 349.37 150.859Z" fill="white" stroke="white" stroke-width="0.5" stroke-miterlimit="10"/>
<path d="M53.2321 163.734C53.2321 163.208 53.0761 162.694 52.7838 162.256C52.4915 161.819 52.0761 161.478 51.59 161.277C51.104 161.075 50.5691 161.023 50.0532 161.125C49.5372 161.228 49.0632 161.481 48.6912 161.853C48.3192 162.225 48.0659 162.699 47.9632 163.215C47.8606 163.731 47.9133 164.266 48.1146 164.752C48.3159 165.238 48.6569 165.654 49.0943 165.946C49.5317 166.238 50.046 166.394 50.5721 166.394C51.2776 166.394 51.9542 166.114 52.453 165.615C52.9519 165.116 53.2321 164.44 53.2321 163.734Z" fill="white" stroke="white" stroke-width="0.5" stroke-miterlimit="10"/>
<path d="M349.343 149.808L370.25 138.557" stroke="white" stroke-width="0.5" stroke-miterlimit="10"/>
<path d="M47.9654 163.734L33.8408 161.074" stroke="white" stroke-width="0.5" stroke-miterlimit="10"/>
<path d="M87.7588 218.45V193.486" stroke="white" stroke-width="0.5" stroke-miterlimit="10"/>
<path d="M64.6432 248.601L43.1504 252.178" stroke="white" stroke-width="0.5" stroke-miterlimit="10"/>
<path d="M187.828 295.377L185.859 306.948" stroke="white" stroke-width="0.5" stroke-miterlimit="10"/>
<path d="M275.462 321.95L281.62 335.357" stroke="white" stroke-width="0.5" stroke-miterlimit="10"/>
<path d="M327.718 259.428L345.593 263.258" stroke="white" stroke-width="0.5" stroke-miterlimit="10"/>
<path d="M289.307 275.347L271.95 258.643" stroke="white" stroke-width="0.5" stroke-miterlimit="10"/>
<path d="M269.091 110.706L277.004 87.1787" stroke="white" stroke-width="0.5" stroke-miterlimit="10"/>
<path d="M100.833 98.3779L104.185 100.892" stroke="white" stroke-width="0.5" stroke-miterlimit="10"/>
<path d="M126.396 334.266L130.159 329.238" stroke="white" stroke-width="0.5" stroke-miterlimit="10"/>
<path d="M274.803 253.934C277.62 246.455 273.841 238.109 266.362 235.292C258.883 232.475 250.537 236.254 247.72 243.733C244.903 251.212 248.682 259.558 256.161 262.375C263.64 265.192 271.986 261.413 274.803 253.934Z" fill="white" stroke="white" stroke-width="0.5" stroke-miterlimit="10"/>
<path d="M266.058 247.869H256.615C255.733 247.869 254.887 248.219 254.264 248.843C253.64 249.467 253.29 250.312 253.29 251.194V259.174C255.594 260.97 258.437 261.935 261.357 261.913C264.278 261.891 267.106 260.884 269.383 259.054V251.261C269.392 250.818 269.312 250.379 269.149 249.968C268.986 249.557 268.743 249.182 268.433 248.866C268.123 248.551 267.754 248.3 267.346 248.128C266.938 247.957 266.5 247.869 266.058 247.869Z" fill="#7E57C2"/>
<path d="M261.177 246.406C262.127 246.406 263.055 246.125 263.845 245.597C264.634 245.07 265.25 244.32 265.613 243.442C265.977 242.565 266.072 241.6 265.886 240.668C265.701 239.737 265.244 238.881 264.572 238.21C263.901 237.539 263.045 237.081 262.114 236.896C261.183 236.711 260.217 236.806 259.34 237.169C258.463 237.533 257.713 238.148 257.185 238.938C256.658 239.727 256.376 240.655 256.376 241.605C256.376 242.878 256.882 244.1 257.782 245C258.683 245.9 259.904 246.406 261.177 246.406Z" fill="#7E57C2"/>
<path d="M307.411 185.425C310.209 177.939 306.408 169.603 298.922 166.805C291.436 164.008 283.099 167.809 280.302 175.295C277.504 182.781 281.305 191.117 288.791 193.915C296.277 196.712 304.614 192.911 307.411 185.425Z" fill="white" stroke="white" stroke-width="0.5" stroke-miterlimit="10"/>
<path d="M298.644 179.375H289.187C288.305 179.375 287.46 179.725 286.836 180.349C286.213 180.972 285.862 181.818 285.862 182.7V190.68C288.166 192.475 291.009 193.44 293.93 193.419C296.85 193.397 299.678 192.39 301.955 190.56V182.766C301.964 182.325 301.885 181.887 301.723 181.477C301.56 181.066 301.318 180.693 301.01 180.377C300.702 180.061 300.334 179.81 299.927 179.638C299.521 179.466 299.085 179.377 298.644 179.375Z" fill="#7E57C2"/>
<path d="M293.762 177.911C294.712 177.911 295.64 177.63 296.43 177.102C297.219 176.574 297.835 175.825 298.198 174.947C298.561 174.07 298.657 173.105 298.471 172.173C298.286 171.242 297.829 170.386 297.157 169.715C296.486 169.043 295.63 168.586 294.699 168.401C293.768 168.216 292.802 168.311 291.925 168.674C291.048 169.037 290.298 169.653 289.77 170.442C289.243 171.232 288.961 172.16 288.961 173.11C288.961 174.383 289.467 175.605 290.367 176.505C291.268 177.405 292.489 177.911 293.762 177.911Z" fill="#7E57C2"/>
</svg>
