<svg width="37" height="37" viewBox="0 0 37 37" fill="none" xmlns="http://www.w3.org/2000/svg">
<path d="M27.026 0H9.95693C7.31706 0.0028239 4.78611 1.05276 2.91944 2.91944C1.05276 4.78611 0.0028239 7.31706 0 9.95693V27.026C0.0028239 29.6658 1.05276 32.1968 2.91944 34.0635C4.78611 35.9301 7.31706 36.9801 9.95693 36.9829H27.026C29.6658 36.9801 32.1968 35.9301 34.0635 34.0635C35.9301 32.1968 36.9801 29.6658 36.9829 27.026V9.95693C36.9801 7.31706 35.9301 4.78611 34.0635 2.91944C32.1968 1.05276 29.6658 0.0028239 27.026 0ZM18.4914 27.026C16.8035 27.026 15.1534 26.5254 13.7499 25.5876C12.3464 24.6499 11.2525 23.3169 10.6066 21.7575C9.96063 20.198 9.79162 18.482 10.1209 16.8264C10.4502 15.1709 11.2631 13.6502 12.4566 12.4566C13.6502 11.2631 15.1709 10.4502 16.8264 10.1209C18.482 9.79162 20.198 9.96063 21.7575 10.6066C23.3169 11.2525 24.6499 12.3464 25.5876 13.7499C26.5254 15.1534 27.026 16.8035 27.026 18.4914C27.0236 20.7542 26.1237 22.9236 24.5237 24.5237C22.9236 26.1237 20.7542 27.0236 18.4914 27.026ZM29.1596 9.95693C28.7376 9.95693 28.3251 9.8318 27.9742 9.59735C27.6233 9.36291 27.3499 9.02968 27.1884 8.63981C27.0269 8.24994 26.9846 7.82094 27.067 7.40705C27.1493 6.99317 27.3525 6.613 27.6509 6.3146C27.9493 6.01621 28.3295 5.813 28.7433 5.73067C29.1572 5.64835 29.5862 5.6906 29.9761 5.85209C30.366 6.01358 30.6992 6.28705 30.9336 6.63792C31.1681 6.9888 31.2932 7.40131 31.2932 7.82331C31.2932 8.38918 31.0684 8.93188 30.6683 9.33201C30.2682 9.73214 29.7255 9.95693 29.1596 9.95693ZM24.1811 18.4914C24.1811 19.6168 23.8474 20.7168 23.2222 21.6525C22.5971 22.5881 21.7084 23.3174 20.6688 23.748C19.6291 24.1787 18.4851 24.2913 17.3814 24.0718C16.2778 23.8523 15.264 23.3104 14.4682 22.5147C13.6725 21.7189 13.1306 20.7051 12.9111 19.6014C12.6916 18.4978 12.8042 17.3538 13.2349 16.3141C13.6655 15.2745 14.3948 14.3858 15.3304 13.7607C16.2661 13.1355 17.3661 12.8018 18.4914 12.8018C20.0004 12.8018 21.4476 13.4012 22.5147 14.4682C23.5817 15.5353 24.1811 16.9825 24.1811 18.4914Z" fill="black"/>
</svg>
