<svg width="35" height="35" viewBox="0 0 35 35" fill="none" xmlns="http://www.w3.org/2000/svg">
<path d="M29.0837 29.0913H24.0294V21.1694C24.0294 19.2804 23.9915 16.849 21.3932 16.849C18.7589 16.849 18.3568 18.9049 18.3568 21.0309V29.0913H13.3006V12.8018H18.1558V15.0207H18.2221C18.9011 13.7425 20.5511 12.3902 23.0166 12.3902C28.1373 12.3902 29.0856 15.7623 29.0856 20.149V29.0913H29.0837ZM7.59192 10.5733C7.20608 10.5738 6.82393 10.4982 6.46739 10.3507C6.11084 10.2032 5.78691 9.98678 5.51416 9.71386C5.24142 9.44094 5.02522 9.11687 4.87797 8.76023C4.73072 8.40359 4.6553 8.02139 4.65605 7.63555C4.65643 7.05488 4.82898 6.48738 5.15189 6.00478C5.4748 5.52219 5.93356 5.14619 6.47017 4.92432C7.00677 4.70246 7.59711 4.6447 8.16654 4.75835C8.73597 4.872 9.25892 5.15195 9.66924 5.56281C10.0796 5.97366 10.3588 6.49697 10.4718 7.06654C10.5847 7.63612 10.5261 8.22639 10.3036 8.7627C10.081 9.29902 9.70444 9.7573 9.22143 10.0796C8.73842 10.4019 8.17258 10.5737 7.59192 10.5733ZM10.1257 29.0913H5.05623V12.8018H10.1276V29.0913H10.1257ZM31.6156 0H2.52053C1.12466 0 0 1.1 0 2.45984V31.6782C0 33.0381 1.12656 34.1381 2.51863 34.1381H31.608C33.0001 34.1381 34.1381 33.0381 34.1381 31.6782V2.45984C34.1381 1.1 33.0001 0 31.608 0H31.6156Z" fill="black"/>
</svg>
