<svg width="43" height="46" viewBox="0 0 43 46" fill="none" xmlns="http://www.w3.org/2000/svg">
<path d="M42.532 22.6376C42.5313 24.7278 42.2611 26.8081 41.729 28.8202L41.6114 29.2428C41.0269 31.2817 40.1733 33.2219 39.0763 35.0056C38.956 35.2021 38.8301 35.3956 38.7042 35.601C38.1241 36.4838 37.4854 37.3214 36.793 38.1073C36.4712 38.4734 36.141 38.8247 35.7969 39.167C35.0575 39.9029 34.2702 40.5823 33.4408 41.2001C33.2589 41.334 33.0771 41.468 32.8812 41.596C31.2045 42.763 29.3805 43.671 27.464 44.2928H27.0666V44.4178C23.2667 45.5611 19.2431 45.5611 15.4431 44.4178V44.2928H15.0542C13.1388 43.6701 11.3159 42.7621 9.63976 41.596C9.45508 41.468 9.2732 41.334 9.08012 41.2001C8.25021 40.583 7.46285 39.9036 6.72408 39.167C6.3799 38.8247 6.04972 38.4734 5.72794 38.1073C5.03552 37.3214 4.39684 36.4838 3.8168 35.601C3.68808 35.4075 3.56497 35.214 3.44465 35.0056C2.34764 33.2219 1.49409 31.2817 0.909519 29.2428L0.791998 28.8202C0.260011 26.8083 -0.00649852 24.7276 0.000120311 22.6376H15.4543V25.7304H3.82799V26.0281C3.98866 26.9806 4.21976 27.9182 4.51914 28.8321H12.547V31.9248H5.83147C6.10766 32.4466 6.40838 32.9533 6.73248 33.4429C7.5627 34.7119 8.53838 35.8658 9.63695 36.878C10.1092 37.3159 10.6033 37.7262 11.1172 38.1073C11.5761 38.4496 12.0546 38.7711 12.5442 39.0658C13.4712 39.6255 14.4443 40.0938 15.4515 40.4648C16.3114 40.7806 17.1925 41.0263 18.0874 41.2001L18.3672 41.2507C20.2927 41.5841 22.2562 41.5841 24.1817 41.2507L24.4616 41.2001C25.3564 41.0263 26.2376 40.7806 27.0974 40.4648C28.1044 40.0933 29.0775 39.625 30.0047 39.0658C30.4944 38.7681 30.9701 38.4496 31.4318 38.1073C31.9435 37.7215 32.4357 37.3071 32.9064 36.8661C33.5285 36.2891 34.1128 35.6675 34.6552 35.0056C35.0668 34.5033 35.4526 33.9777 35.8109 33.431C36.1327 32.9428 36.4349 32.4338 36.7119 31.9129H29.9963V28.8202H38.0242C38.321 27.9055 38.552 26.9681 38.7153 26.0161V25.7185H27.0778V22.6376H38.9868C38.9868 21.6017 38.9082 20.5674 38.7517 19.5449H0.195994C0.331729 18.5014 0.534605 17.4691 0.803193 16.4551L0.920714 16.0324C1.50528 13.9936 2.35883 12.0534 3.45584 10.2696C3.57616 10.0732 3.69928 9.8797 3.82799 9.67431C4.40804 8.79145 5.04672 7.95386 5.73913 7.16796C6.06092 6.80183 6.3911 6.45059 6.73527 6.10827C7.47404 5.37169 8.2614 4.69227 9.09132 4.07522C9.2732 3.94127 9.45508 3.80732 9.65095 3.67932C11.3271 2.51318 13.15 1.60523 15.0654 0.982471L15.4655 0.857447C19.2655 -0.285816 23.289 -0.285816 27.089 0.857447L27.4864 0.982471C29.4045 1.60779 31.2294 2.51982 32.9064 3.69123C33.0911 3.81923 33.2729 3.95317 33.466 4.08712C34.2954 4.70492 35.0827 5.38431 35.8221 6.12018C36.1662 6.4625 36.4964 6.81374 36.8182 7.17987C37.5106 7.96577 38.1493 8.80335 38.7293 9.68621C38.8553 9.87969 38.9812 10.0732 39.1015 10.2815H34.6412C34.1037 9.61612 33.5241 8.99057 32.9064 8.40923C32.4336 7.97205 31.9395 7.5617 31.4262 7.17987C30.9645 6.83756 30.4888 6.51608 29.9991 6.22139C29.0719 5.6622 28.0988 5.19392 27.0918 4.82236C26.232 4.50663 25.3508 4.26084 24.456 4.08712L24.1761 4.03652C22.2506 3.70315 20.2871 3.70315 18.3616 4.03652L18.0818 4.08712C17.1869 4.26084 16.3058 4.50663 15.4459 4.82236C14.4387 5.19336 13.4656 5.66165 12.5386 6.22139C12.049 6.51905 11.5705 6.83756 11.1116 7.17987C10.5977 7.56096 10.1036 7.97135 9.63136 8.40923C8.53279 9.42142 7.55711 10.5753 6.72688 11.8443C6.40278 12.3339 6.10207 12.8406 5.82587 13.3624C5.29971 14.3485 4.85949 15.3837 4.51074 16.4551H41.7262C42.2592 18.4671 42.5304 20.5473 42.532 22.6376Z" fill="#7F0799"/>
</svg>
