<svg width="310" height="310" viewBox="0 0 310 310" fill="none" xmlns="http://www.w3.org/2000/svg">
<g filter="url(#filter0_d_284_17)">
<path d="M5 150C5 119.379 14.694 89.544 32.6925 64.7711C50.6911 39.9982 76.0702 21.5592 105.193 12.0968L136.558 108.629C127.821 111.468 120.207 116.999 114.808 124.431C109.408 131.863 106.5 140.814 106.5 150L5 150Z" fill="#D38200"/>
</g>
<g filter="url(#filter1_d_284_17)">
<path d="M30.2029 231.692C12.9511 206.394 4.15127 176.283 5.0645 145.676L106.519 148.703C106.245 157.885 108.885 166.918 114.061 174.508L30.2029 231.692Z" fill="#7E57C2"/>
</g>
<g filter="url(#filter2_d_284_17)">
<path d="M104.025 12.4815C125.727 5.22624 148.838 3.21015 171.468 6.59809C194.099 9.98603 215.606 18.6818 234.232 31.9744C252.857 45.2671 268.073 62.7791 278.633 83.0788C289.194 103.379 294.801 125.889 294.995 148.771L193.498 149.631C193.44 142.767 191.758 136.014 188.59 129.924C185.422 123.834 180.857 118.58 175.269 114.592C169.682 110.605 163.23 107.996 156.441 106.979C149.651 105.963 142.718 106.568 136.208 108.744L104.025 12.4815Z" fill="#FFF176"/>
</g>
<g filter="url(#filter3_d_284_17)">
<path d="M295 150C295 180.621 285.306 210.456 267.307 235.229C249.309 260.002 223.93 278.441 194.807 287.903C165.685 297.366 134.315 297.366 105.193 287.903C76.0702 278.441 50.6911 260.002 32.6925 235.229L114.808 175.569C120.207 183.001 127.821 188.532 136.558 191.371C145.294 194.21 154.706 194.21 163.442 191.371C172.179 188.532 179.793 183.001 185.192 175.569C190.592 168.137 193.5 159.186 193.5 150H295Z" fill="#FF0799"/>
</g>
<g filter="url(#filter4_b_284_17)">
<rect x="74" y="252" width="76" height="52" rx="15" fill="#F3F3F3" fill-opacity="0.67"/>
<rect x="73.5" y="251.5" width="77" height="53" rx="15.5" stroke="white"/>
</g>
<path d="M90.416 290V285.84H79.376V282.576L89.872 267.6H94.512V282.288H97.456V285.84H94.512V290H90.416ZM83.76 282.288H90.672V272.112L83.76 282.288ZM109.86 290.384C107.791 290.384 106.02 289.904 104.548 288.944C103.076 287.963 101.935 286.608 101.124 284.88C100.335 283.131 99.94 281.104 99.94 278.8C99.94 276.517 100.335 274.501 101.124 272.752C101.935 271.003 103.076 269.648 104.548 268.688C106.02 267.707 107.791 267.216 109.86 267.216C111.929 267.216 113.7 267.707 115.172 268.688C116.644 269.648 117.775 271.003 118.564 272.752C119.375 274.501 119.78 276.517 119.78 278.8C119.78 281.104 119.375 283.131 118.564 284.88C117.775 286.608 116.644 287.963 115.172 288.944C113.7 289.904 111.929 290.384 109.86 290.384ZM109.86 286.704C111.545 286.704 112.921 286 113.988 284.592C115.055 283.184 115.588 281.253 115.588 278.8C115.588 276.347 115.055 274.416 113.988 273.008C112.921 271.6 111.545 270.896 109.86 270.896C108.153 270.896 106.767 271.6 105.7 273.008C104.655 274.416 104.132 276.347 104.132 278.8C104.132 281.253 104.655 283.184 105.7 284.592C106.767 286 108.153 286.704 109.86 286.704ZM128.003 278.608C126.979 278.608 126.051 278.384 125.219 277.936C124.387 277.467 123.725 276.805 123.235 275.952C122.744 275.099 122.499 274.085 122.499 272.912C122.499 271.739 122.744 270.725 123.235 269.872C123.725 269.019 124.387 268.368 125.219 267.92C126.051 267.451 126.989 267.216 128.035 267.216C129.059 267.216 129.976 267.451 130.787 267.92C131.619 268.368 132.28 269.019 132.771 269.872C133.261 270.725 133.507 271.739 133.507 272.912C133.507 274.085 133.261 275.099 132.771 275.952C132.28 276.805 131.619 277.467 130.787 277.936C129.955 278.384 129.027 278.608 128.003 278.608ZM126.787 290L139.427 267.6H143.427L130.787 290H126.787ZM128.003 275.76C128.621 275.76 129.155 275.525 129.603 275.056C130.051 274.565 130.275 273.851 130.275 272.912C130.275 271.973 130.051 271.259 129.603 270.768C129.176 270.277 128.643 270.032 128.003 270.032C127.363 270.032 126.819 270.277 126.371 270.768C125.944 271.259 125.731 271.973 125.731 272.912C125.731 273.851 125.944 274.565 126.371 275.056C126.819 275.525 127.363 275.76 128.003 275.76ZM142.339 290.384C141.315 290.384 140.387 290.16 139.555 289.712C138.723 289.243 138.061 288.581 137.571 287.728C137.08 286.875 136.835 285.861 136.835 284.688C136.835 283.515 137.08 282.512 137.571 281.68C138.061 280.827 138.723 280.176 139.555 279.728C140.387 279.259 141.325 279.024 142.371 279.024C143.395 279.024 144.312 279.259 145.123 279.728C145.955 280.176 146.616 280.827 147.107 281.68C147.597 282.512 147.843 283.515 147.843 284.688C147.843 285.861 147.597 286.875 147.107 287.728C146.616 288.581 145.955 289.243 145.123 289.712C144.312 290.16 143.384 290.384 142.339 290.384ZM142.339 287.536C142.979 287.536 143.512 287.301 143.939 286.832C144.387 286.341 144.611 285.627 144.611 284.688C144.611 283.749 144.387 283.035 143.939 282.544C143.512 282.053 142.979 281.808 142.339 281.808C141.699 281.808 141.155 282.053 140.707 282.544C140.28 283.035 140.067 283.749 140.067 284.688C140.067 285.627 140.28 286.341 140.707 286.832C141.155 287.301 141.699 287.536 142.339 287.536Z" fill="#FF0799"/>
<g filter="url(#filter5_b_284_17)">
<rect x="215" y="52" width="76" height="52" rx="15" fill="#F3F3F3" fill-opacity="0.67"/>
<rect x="214.5" y="51.5" width="77" height="53" rx="15.5" stroke="white"/>
</g>
<path d="M224.504 84.384C223.032 84.384 221.699 84.128 220.504 83.616C219.309 83.0827 218.349 82.272 217.624 81.184C216.899 80.096 216.515 78.7307 216.472 77.088H220.504C220.525 78.176 220.877 79.0933 221.56 79.84C222.264 80.5653 223.245 80.928 224.504 80.928C225.699 80.928 226.616 80.5973 227.256 79.936C227.896 79.2747 228.216 78.4427 228.216 77.44C228.216 76.2667 227.789 75.3813 226.936 74.784C226.104 74.1653 225.027 73.856 223.704 73.856H222.04V70.496H223.736C224.824 70.496 225.731 70.24 226.456 69.728C227.181 69.216 227.544 68.4587 227.544 67.456C227.544 66.624 227.267 65.9627 226.712 65.472C226.179 64.96 225.432 64.704 224.472 64.704C223.427 64.704 222.605 65.0133 222.008 65.632C221.432 66.2507 221.112 67.008 221.048 67.904H217.048C217.133 65.8347 217.848 64.2027 219.192 63.008C220.557 61.8133 222.317 61.216 224.472 61.216C226.008 61.216 227.299 61.4933 228.344 62.048C229.411 62.5813 230.211 63.296 230.744 64.192C231.299 65.088 231.576 66.08 231.576 67.168C231.576 68.4267 231.224 69.4933 230.52 70.368C229.837 71.2213 228.984 71.7973 227.96 72.096C229.219 72.352 230.243 72.9707 231.032 73.952C231.821 74.912 232.216 76.128 232.216 77.6C232.216 78.8373 231.917 79.968 231.32 80.992C230.723 82.016 229.848 82.8373 228.696 83.456C227.565 84.0747 226.168 84.384 224.504 84.384ZM245.423 84.384C243.353 84.384 241.583 83.904 240.111 82.944C238.639 81.9627 237.497 80.608 236.687 78.88C235.897 77.1307 235.503 75.104 235.503 72.8C235.503 70.5173 235.897 68.5013 236.687 66.752C237.497 65.0027 238.639 63.648 240.111 62.688C241.583 61.7067 243.353 61.216 245.423 61.216C247.492 61.216 249.263 61.7067 250.735 62.688C252.207 63.648 253.337 65.0027 254.127 66.752C254.937 68.5013 255.343 70.5173 255.343 72.8C255.343 75.104 254.937 77.1307 254.127 78.88C253.337 80.608 252.207 81.9627 250.735 82.944C249.263 83.904 247.492 84.384 245.423 84.384ZM245.423 80.704C247.108 80.704 248.484 80 249.551 78.592C250.617 77.184 251.151 75.2533 251.151 72.8C251.151 70.3467 250.617 68.416 249.551 67.008C248.484 65.6 247.108 64.896 245.423 64.896C243.716 64.896 242.329 65.6 241.263 67.008C240.217 68.416 239.695 70.3467 239.695 72.8C239.695 75.2533 240.217 77.184 241.263 78.592C242.329 80 243.716 80.704 245.423 80.704ZM263.565 72.608C262.541 72.608 261.613 72.384 260.781 71.936C259.949 71.4667 259.288 70.8053 258.797 69.952C258.307 69.0987 258.061 68.0853 258.061 66.912C258.061 65.7387 258.307 64.7253 258.797 63.872C259.288 63.0187 259.949 62.368 260.781 61.92C261.613 61.4507 262.552 61.216 263.597 61.216C264.621 61.216 265.539 61.4507 266.349 61.92C267.181 62.368 267.843 63.0187 268.333 63.872C268.824 64.7253 269.069 65.7387 269.069 66.912C269.069 68.0853 268.824 69.0987 268.333 69.952C267.843 70.8053 267.181 71.4667 266.349 71.936C265.517 72.384 264.589 72.608 263.565 72.608ZM262.349 84L274.989 61.6H278.989L266.349 84H262.349ZM263.565 69.76C264.184 69.76 264.717 69.5253 265.165 69.056C265.613 68.5653 265.837 67.8507 265.837 66.912C265.837 65.9733 265.613 65.2587 265.165 64.768C264.739 64.2773 264.205 64.032 263.565 64.032C262.925 64.032 262.381 64.2773 261.933 64.768C261.507 65.2587 261.293 65.9733 261.293 66.912C261.293 67.8507 261.507 68.5653 261.933 69.056C262.381 69.5253 262.925 69.76 263.565 69.76ZM277.901 84.384C276.877 84.384 275.949 84.16 275.117 83.712C274.285 83.2427 273.624 82.5813 273.133 81.728C272.643 80.8747 272.397 79.8613 272.397 78.688C272.397 77.5147 272.643 76.512 273.133 75.68C273.624 74.8267 274.285 74.176 275.117 73.728C275.949 73.2587 276.888 73.024 277.933 73.024C278.957 73.024 279.875 73.2587 280.685 73.728C281.517 74.176 282.179 74.8267 282.669 75.68C283.16 76.512 283.405 77.5147 283.405 78.688C283.405 79.8613 283.16 80.8747 282.669 81.728C282.179 82.5813 281.517 83.2427 280.685 83.712C279.875 84.16 278.947 84.384 277.901 84.384ZM277.901 81.536C278.541 81.536 279.075 81.3013 279.501 80.832C279.949 80.3413 280.173 79.6267 280.173 78.688C280.173 77.7493 279.949 77.0347 279.501 76.544C279.075 76.0533 278.541 75.808 277.901 75.808C277.261 75.808 276.717 76.0533 276.269 76.544C275.843 77.0347 275.629 77.7493 275.629 78.688C275.629 79.6267 275.843 80.3413 276.269 80.832C276.717 81.3013 277.261 81.536 277.901 81.536Z" fill="#FFF176"/>
<defs>
<filter id="filter0_d_284_17" x="0" y="7.09668" width="151.558" height="157.903" filterUnits="userSpaceOnUse" color-interpolation-filters="sRGB">
<feFlood flood-opacity="0" result="BackgroundImageFix"/>
<feColorMatrix in="SourceAlpha" type="matrix" values="0 0 0 0 0 0 0 0 0 0 0 0 0 0 0 0 0 0 127 0" result="hardAlpha"/>
<feOffset dx="5" dy="5"/>
<feGaussianBlur stdDeviation="5"/>
<feComposite in2="hardAlpha" operator="out"/>
<feColorMatrix type="matrix" values="0 0 0 0 0 0 0 0 0 0 0 0 0 0 0 0 0 0 0.25 0"/>
<feBlend mode="normal" in2="BackgroundImageFix" result="effect1_dropShadow_284_17"/>
<feBlend mode="normal" in="SourceGraphic" in2="effect1_dropShadow_284_17" result="shape"/>
</filter>
<filter id="filter1_d_284_17" x="-3.05176e-05" y="140.676" width="129.061" height="106.017" filterUnits="userSpaceOnUse" color-interpolation-filters="sRGB">
<feFlood flood-opacity="0" result="BackgroundImageFix"/>
<feColorMatrix in="SourceAlpha" type="matrix" values="0 0 0 0 0 0 0 0 0 0 0 0 0 0 0 0 0 0 127 0" result="hardAlpha"/>
<feOffset dx="5" dy="5"/>
<feGaussianBlur stdDeviation="5"/>
<feComposite in2="hardAlpha" operator="out"/>
<feColorMatrix type="matrix" values="0 0 0 0 0 0 0 0 0 0 0 0 0 0 0 0 0 0 0.25 0"/>
<feBlend mode="normal" in2="BackgroundImageFix" result="effect1_dropShadow_284_17"/>
<feBlend mode="normal" in="SourceGraphic" in2="effect1_dropShadow_284_17" result="shape"/>
</filter>
<filter id="filter2_d_284_17" x="99.0254" y="0" width="210.969" height="164.631" filterUnits="userSpaceOnUse" color-interpolation-filters="sRGB">
<feFlood flood-opacity="0" result="BackgroundImageFix"/>
<feColorMatrix in="SourceAlpha" type="matrix" values="0 0 0 0 0 0 0 0 0 0 0 0 0 0 0 0 0 0 127 0" result="hardAlpha"/>
<feOffset dx="5" dy="5"/>
<feGaussianBlur stdDeviation="5"/>
<feComposite in2="hardAlpha" operator="out"/>
<feColorMatrix type="matrix" values="0 0 0 0 0 0 0 0 0 0 0 0 0 0 0 0 0 0 0.25 0"/>
<feBlend mode="normal" in2="BackgroundImageFix" result="effect1_dropShadow_284_17"/>
<feBlend mode="normal" in="SourceGraphic" in2="effect1_dropShadow_284_17" result="shape"/>
</filter>
<filter id="filter3_d_284_17" x="27.6925" y="145" width="282.307" height="165" filterUnits="userSpaceOnUse" color-interpolation-filters="sRGB">
<feFlood flood-opacity="0" result="BackgroundImageFix"/>
<feColorMatrix in="SourceAlpha" type="matrix" values="0 0 0 0 0 0 0 0 0 0 0 0 0 0 0 0 0 0 127 0" result="hardAlpha"/>
<feOffset dx="5" dy="5"/>
<feGaussianBlur stdDeviation="5"/>
<feComposite in2="hardAlpha" operator="out"/>
<feColorMatrix type="matrix" values="0 0 0 0 0 0 0 0 0 0 0 0 0 0 0 0 0 0 0.25 0"/>
<feBlend mode="normal" in2="BackgroundImageFix" result="effect1_dropShadow_284_17"/>
<feBlend mode="normal" in="SourceGraphic" in2="effect1_dropShadow_284_17" result="shape"/>
</filter>
<filter id="filter4_b_284_17" x="33" y="211" width="158" height="134" filterUnits="userSpaceOnUse" color-interpolation-filters="sRGB">
<feFlood flood-opacity="0" result="BackgroundImageFix"/>
<feGaussianBlur in="BackgroundImageFix" stdDeviation="20"/>
<feComposite in2="SourceAlpha" operator="in" result="effect1_backgroundBlur_284_17"/>
<feBlend mode="normal" in="SourceGraphic" in2="effect1_backgroundBlur_284_17" result="shape"/>
</filter>
<filter id="filter5_b_284_17" x="174" y="11" width="158" height="134" filterUnits="userSpaceOnUse" color-interpolation-filters="sRGB">
<feFlood flood-opacity="0" result="BackgroundImageFix"/>
<feGaussianBlur in="BackgroundImageFix" stdDeviation="20"/>
<feComposite in2="SourceAlpha" operator="in" result="effect1_backgroundBlur_284_17"/>
<feBlend mode="normal" in="SourceGraphic" in2="effect1_backgroundBlur_284_17" result="shape"/>
</filter>
</defs>
</svg>
