<svg width="237" height="237" viewBox="0 0 237 237" fill="none" xmlns="http://www.w3.org/2000/svg">
<path d="M236.552 118.5C236.568 129.409 235.068 140.267 232.094 150.762L231.441 152.968C228.196 163.607 223.458 173.732 217.368 183.04C216.701 184.065 216.002 185.075 215.303 186.147C212.083 190.754 208.537 195.125 204.693 199.226C202.907 201.136 201.074 202.969 199.164 204.756C195.063 208.599 190.692 212.145 186.085 215.365C185.075 216.064 184.065 216.763 182.978 217.431C173.67 223.52 163.545 228.259 152.906 231.504H150.7V232.156C129.606 238.122 107.27 238.122 86.1755 232.156V231.504H83.9698C73.3758 228.227 63.2985 223.468 54.0375 217.368C53.0123 216.701 52.0026 216.002 50.9308 215.303C46.3238 212.083 41.953 208.537 37.8519 204.693C35.9414 202.907 34.1084 201.074 32.3221 199.164C28.4784 195.063 24.933 190.692 21.713 186.085C21.014 185.075 20.315 184.065 19.6471 182.978C13.5574 173.67 8.81913 163.545 5.57408 152.906L4.92168 150.7C1.94796 140.225 0.442417 129.389 0.448136 118.5H86.2377V134.639H21.6975V136.192C22.604 141.16 23.8866 146.051 25.5342 150.824H70.0987V166.963H32.8192C34.3725 169.682 36.0346 172.338 37.8209 174.885C39.8095 177.738 41.951 180.481 44.2361 183.102C47.2751 186.542 50.5501 189.765 54.0375 192.748C56.6588 195.033 59.4018 197.175 62.2545 199.164C64.8019 200.95 67.4581 202.628 70.1764 204.165C75.322 207.086 80.7242 209.53 86.3153 211.466C91.0886 213.113 95.98 214.396 100.948 215.303L102.501 215.567C113.19 217.306 124.09 217.306 134.779 215.567L136.332 215.303C141.3 214.396 146.191 213.113 150.964 211.466C156.555 209.53 161.958 207.086 167.103 204.165C169.821 202.612 172.478 200.95 175.025 199.164C177.878 197.175 180.621 195.033 183.242 192.748C186.7 189.742 189.943 186.498 192.95 183.04C195.235 180.419 197.377 177.676 199.366 174.823C201.152 172.276 202.829 169.62 204.367 166.901H167.088V150.762H211.652C213.3 145.989 214.582 141.098 215.489 136.13V134.577H150.762V118.5H216.871C216.872 113.094 216.435 107.697 215.567 102.361H1.53545C2.28894 96.9159 3.41516 91.5287 4.90615 86.2377L5.55854 84.032C8.8104 73.4197 13.5484 63.3214 19.6316 54.0375C20.2995 53.0123 20.9985 52.0027 21.6975 50.9309C24.9174 46.3238 28.4629 41.953 32.3066 37.852C34.0929 35.9414 35.9258 34.1085 37.8364 32.3222C41.9375 28.4784 46.3083 24.933 50.9153 21.713C51.925 21.014 52.9346 20.315 54.0219 19.6471C63.3299 13.5574 73.4549 8.81915 84.0941 5.5741L86.2998 4.9217C107.394 -1.04421 129.73 -1.04421 150.824 4.9217L153.03 5.5741C163.669 8.81915 173.794 13.5574 183.102 19.6471C184.128 20.315 185.137 21.014 186.209 21.713C190.816 24.933 195.187 28.4784 199.288 32.3222C201.198 34.1085 203.031 35.9414 204.818 37.852C208.661 41.953 212.207 46.3238 215.427 50.9309C216.126 51.9405 216.825 52.9502 217.493 54.0375H192.748C189.742 50.5801 186.498 47.3362 183.04 44.3293C180.419 42.0443 177.676 39.9027 174.823 37.9141C172.276 36.1278 169.62 34.4502 166.901 32.9124C161.756 29.9916 156.353 27.5478 150.762 25.6118C145.989 23.9643 141.098 22.6817 136.13 21.7752L134.577 21.5111C123.888 19.7715 112.988 19.7715 102.299 21.5111L100.746 21.7752C95.7781 22.6817 90.8866 23.9643 86.1134 25.6118C80.5223 27.5478 75.1201 29.9916 69.9745 32.9124C67.2562 34.4657 64.6 36.1278 62.0526 37.9141C59.2707 39.8834 56.5953 41.9989 54.0375 44.2516C50.5507 47.2807 47.2807 50.5507 44.2516 54.0375C41.9666 56.6588 39.8251 59.4018 37.8364 62.2545C36.0501 64.802 34.3725 67.4581 32.8347 70.1764C29.9139 75.322 27.4701 80.7242 25.5342 86.3154H232.125C235.099 96.8109 236.599 107.669 236.583 118.578L236.552 118.5Z" fill="#7F0799"/>
</svg>
