<svg width="439" height="411" viewBox="0 0 439 411" fill="none" xmlns="http://www.w3.org/2000/svg">
<path d="M221.079 410.257C326.873 410.257 412.635 405.84 412.635 400.392C412.635 394.943 326.873 390.526 221.079 390.526C115.286 390.526 29.5234 394.943 29.5234 400.392C29.5234 405.84 115.286 410.257 221.079 410.257Z" fill="#263238"/>
<path d="M108.276 225.47H344.887C346.28 225.47 347.615 226.023 348.6 227.008C349.585 227.992 350.138 229.328 350.138 230.721V382.619H103.013V230.721C103.013 230.03 103.149 229.346 103.413 228.708C103.678 228.071 104.066 227.491 104.555 227.003C105.044 226.516 105.624 226.129 106.263 225.866C106.901 225.603 107.585 225.468 108.276 225.47Z" fill="#070807" stroke="#263238" stroke-linecap="round" stroke-linejoin="round"/>
<path d="M120.969 237.392H332.194C332.884 237.392 333.567 237.527 334.204 237.791C334.841 238.055 335.42 238.442 335.907 238.93C336.395 239.417 336.782 239.996 337.046 240.633C337.309 241.27 337.445 241.953 337.445 242.643V384.737H115.705V242.655C115.704 241.963 115.839 241.278 116.103 240.639C116.367 239.999 116.754 239.419 117.243 238.93C117.732 238.441 118.313 238.053 118.953 237.789C119.592 237.525 120.277 237.39 120.969 237.392Z" fill="#263238" stroke="#263238" stroke-linecap="round" stroke-linejoin="round"/>
<path d="M348.021 395.312H94.1385C82.4493 395.312 72.9756 388.237 72.9756 379.51H369.184C369.184 388.237 359.71 395.312 348.021 395.312Z" fill="#070807" stroke="#263238" stroke-linecap="round" stroke-linejoin="round"/>
<path d="M225.523 80.7686C209.219 96.2766 167.517 111.944 118.888 145.175C118.888 145.175 121.923 257.465 225.523 318.849V80.7686Z" fill="#070807" stroke="#263238" stroke-linecap="round" stroke-linejoin="round"/>
<path d="M225.523 80.7686C241.814 96.2766 283.528 111.944 332.158 145.175C332.158 145.175 329.122 257.465 225.523 318.849V80.7686Z" fill="#263238" stroke="#263238" stroke-linecap="round" stroke-linejoin="round"/>
<path d="M225.523 90.3281C205.853 104.269 171.765 117.562 126.709 148.346C126.709 148.346 129.524 252.386 225.523 309.289C321.521 252.41 324.336 148.346 324.336 148.346C279.268 117.574 245.339 104.269 225.523 90.3281Z" fill="#263238" stroke="#263238" stroke-linecap="round" stroke-linejoin="round"/>
<path d="M307.494 137.293C238.754 158.101 186.318 218.505 162.474 250.366C178.876 274.427 200.409 294.551 225.523 309.289C321.521 252.41 324.336 148.346 324.336 148.346C318.534 144.396 312.92 140.712 307.494 137.293Z" fill="#070807" stroke="#263238" stroke-linecap="round" stroke-linejoin="round"/>
<path d="M262.953 195.237H189.255C187.632 195.237 186.076 194.593 184.928 193.445C183.78 192.297 183.135 190.741 183.135 189.117V154.429C183.326 143.165 187.934 132.427 195.967 124.529C203.999 116.63 214.814 112.204 226.08 112.204C237.345 112.204 248.16 116.63 256.192 124.529C264.225 132.427 268.833 143.165 269.024 154.429V189.117C269.024 190.732 268.386 192.281 267.248 193.428C266.111 194.574 264.567 195.224 262.953 195.237ZM195.424 182.997H256.833V154.429C256.672 146.392 253.367 138.738 247.626 133.111C241.885 127.484 234.167 124.332 226.129 124.332C218.09 124.332 210.372 127.484 204.631 133.111C198.89 138.738 195.585 146.392 195.424 154.429V182.997Z" fill="white" stroke="#263238" stroke-linecap="round" stroke-linejoin="round"/>
<path d="M272.402 178.518H178.643V257.747H272.402V178.518Z" fill="white" stroke="#263238" stroke-linecap="round" stroke-linejoin="round"/>
<path d="M235.266 211.418C235.266 209.614 234.787 207.841 233.88 206.282C232.972 204.723 231.667 203.432 230.098 202.541C228.529 201.65 226.751 201.191 224.947 201.211C223.143 201.23 221.376 201.728 219.826 202.652C218.277 203.577 217 204.896 216.126 206.474C215.253 208.053 214.813 209.835 214.852 211.639C214.891 213.443 215.407 215.204 216.349 216.744C217.29 218.283 218.622 219.545 220.21 220.402L218.497 238.395H231.618L229.905 220.402C231.527 219.53 232.883 218.233 233.827 216.651C234.771 215.069 235.268 213.26 235.266 211.418Z" fill="#263238" stroke="#263238" stroke-linecap="round" stroke-linejoin="round"/>
<path d="M410.249 196.02L410.102 194.184" stroke="#263238" stroke-linecap="round" stroke-linejoin="round"/>
<path d="M409.747 190.524C404.9 144.646 383.503 102.106 349.559 70.8638C315.615 39.6215 271.45 21.8178 225.328 20.784C179.206 19.7502 134.288 35.5573 98.9783 65.2474C63.6686 94.9375 40.3867 136.476 33.4893 182.091C32.967 185.567 32.559 189.056 32.2653 192.556" stroke="#263238" stroke-linecap="round" stroke-linejoin="round" stroke-dasharray="3.01 3.01"/>
<path d="M32.0448 194.367L31.8979 196.191" stroke="#263238" stroke-linecap="round" stroke-linejoin="round"/>
<path d="M74.1872 164.122L85.0319 119.997H52.1307L74.1872 164.122Z" fill="#263238" stroke="#263238" stroke-linecap="round" stroke-linejoin="round"/>
<path d="M74.1872 164.122L76.5985 121.674H55.6559L74.1872 164.122Z" fill="#070807" stroke="#263238" stroke-linecap="round" stroke-linejoin="round"/>
<path d="M74.1872 164.122L71.9473 118.369H51.0046L74.1872 164.122Z" fill="#070807" stroke="#263238" stroke-linecap="round" stroke-linejoin="round"/>
<path d="M35.0927 116.252L29.6948 110.145H1.27356L14.6029 164.123H74.1872L64.738 116.252H35.0927Z" fill="#263238" stroke="#263238" stroke-linecap="round" stroke-linejoin="round"/>
<path d="M137.431 32.7139H66.4516C63.9706 32.7139 61.9595 34.725 61.9595 37.2059V75.5539C61.9595 78.0348 63.9706 80.0459 66.4516 80.0459H137.431C139.912 80.0459 141.923 78.0348 141.923 75.5539V37.2059C141.923 34.725 139.912 32.7139 137.431 32.7139Z" fill="#263238" stroke="#263238" stroke-linecap="round" stroke-linejoin="round"/>
<path d="M141.923 41.6855H61.9595V58.8215H141.923V41.6855Z" fill="#070807" stroke="#263238" stroke-linecap="round" stroke-linejoin="round"/>
<path d="M125.044 72.4812C125.044 71.8203 124.848 71.1742 124.481 70.6247C124.114 70.0752 123.592 69.6469 122.982 69.394C122.371 69.1411 121.699 69.0749 121.051 69.2039C120.403 69.3328 119.807 69.651 119.34 70.1184C118.873 70.5857 118.554 71.1811 118.426 71.8293C118.297 72.4775 118.363 73.1493 118.616 73.7599C118.869 74.3705 119.297 74.8924 119.846 75.2596C120.396 75.6267 121.042 75.8227 121.703 75.8227C122.589 75.8227 123.439 75.4707 124.066 74.844C124.692 74.2173 125.044 73.3674 125.044 72.4812Z" fill="white" stroke="#263238" stroke-linecap="round" stroke-linejoin="round"/>
<path d="M134.335 72.4812C134.335 71.8203 134.139 71.1742 133.771 70.6247C133.404 70.0752 132.882 69.6469 132.272 69.394C131.661 69.1411 130.989 69.0749 130.341 69.2039C129.693 69.3328 129.098 69.651 128.63 70.1184C128.163 70.5857 127.845 71.1811 127.716 71.8293C127.587 72.4775 127.653 73.1493 127.906 73.7599C128.159 74.3705 128.587 74.8924 129.137 75.2596C129.686 75.6267 130.332 75.8227 130.993 75.8227C131.879 75.8227 132.729 75.4707 133.356 74.844C133.983 74.2173 134.335 73.3674 134.335 72.4812Z" fill="white" stroke="#263238" stroke-linecap="round" stroke-linejoin="round"/>
<path d="M270.125 1H184.494V56.5206H270.125V1Z" fill="#070807" stroke="#263238" stroke-linecap="round" stroke-linejoin="round"/>
<path d="M266.245 4.52539H188.668V52.5429H266.245V4.52539Z" fill="#263238" stroke="#263238" stroke-linecap="round" stroke-linejoin="round"/>
<path d="M211.361 38.014C211.361 32.7752 207.102 23.7666 201.863 23.7666C196.624 23.7666 192.352 32.7752 192.352 38.014C192.352 43.2527 196.612 44.5501 201.863 44.5501C207.114 44.5501 211.361 43.216 211.361 38.014Z" fill="white" stroke="#263238" stroke-linecap="round" stroke-linejoin="round"/>
<path d="M201.863 25.5049C205.473 25.5049 208.399 22.5786 208.399 18.9688C208.399 15.359 205.473 12.4326 201.863 12.4326C198.253 12.4326 195.327 15.359 195.327 18.9688C195.327 22.5786 198.253 25.5049 201.863 25.5049Z" fill="white" stroke="#263238" stroke-linecap="round" stroke-linejoin="round"/>
<path d="M220.859 13.668H236.685" stroke="white" stroke-width="2" stroke-linecap="round" stroke-linejoin="round"/>
<path d="M220.859 20.5225H236.685" stroke="white" stroke-width="2" stroke-linecap="round" stroke-linejoin="round"/>
<path d="M220.859 32.665H257.787" stroke="white" stroke-width="2" stroke-linecap="round" stroke-linejoin="round"/>
<path d="M220.859 41.6367H257.787" stroke="white" stroke-width="2" stroke-linecap="round" stroke-linejoin="round"/>
<path d="M387.311 32.7139H323.626C319.685 32.7139 316.49 35.9087 316.49 39.8498V72.9957C316.49 76.9368 319.685 80.1316 323.626 80.1316H387.311C391.252 80.1316 394.447 76.9368 394.447 72.9957V39.8498C394.447 35.9087 391.252 32.7139 387.311 32.7139Z" fill="#263238" stroke="#263238" stroke-width="2" stroke-linecap="round" stroke-linejoin="round"/>
<path d="M358.584 55.2355L394.447 37.0958V36.2635C394.447 35.3221 394.073 34.4192 393.407 33.7535C392.741 33.0878 391.839 32.7139 390.897 32.7139H320.052C319.109 32.7139 318.205 33.0875 317.538 33.7528C316.87 34.4181 316.493 35.3209 316.49 36.2635V37.2549L351.705 55.3211C352.778 55.845 353.96 56.11 355.154 56.0952C356.349 56.0803 357.523 55.7859 358.584 55.2355Z" fill="#070807" stroke="#263238" stroke-width="2" stroke-linecap="round" stroke-linejoin="round"/>
<path d="M433.749 115.383H364.875C362.137 115.383 359.918 117.602 359.918 120.34V150.193C359.918 152.931 362.137 155.151 364.875 155.151H433.749C436.487 155.151 438.707 152.931 438.707 150.193V120.34C438.707 117.602 436.487 115.383 433.749 115.383Z" fill="#263238"/>
<path d="M359.93 144.746V166.105L371.84 152.396" fill="#263238"/>
<path d="M387.397 135.995C387.399 135.185 387.161 134.393 386.713 133.719C386.264 133.045 385.626 132.519 384.878 132.208C384.131 131.897 383.308 131.815 382.514 131.972C381.72 132.13 380.99 132.519 380.418 133.092C379.845 133.664 379.456 134.394 379.298 135.188C379.141 135.982 379.223 136.805 379.534 137.553C379.845 138.3 380.371 138.939 381.045 139.387C381.719 139.835 382.511 140.073 383.321 140.071C384.401 140.068 385.435 139.637 386.199 138.873C386.963 138.11 387.393 137.075 387.397 135.995Z" fill="#070807"/>
<path d="M404.887 135.995C404.89 135.185 404.652 134.393 404.204 133.719C403.755 133.045 403.117 132.519 402.369 132.208C401.622 131.897 400.799 131.815 400.005 131.972C399.211 132.13 398.481 132.519 397.909 133.092C397.336 133.664 396.946 134.394 396.789 135.188C396.632 135.982 396.714 136.805 397.025 137.553C397.336 138.3 397.862 138.939 398.536 139.387C399.21 139.835 400.002 140.073 400.812 140.071C401.892 140.068 402.926 139.637 403.69 138.873C404.454 138.11 404.884 137.075 404.887 135.995Z" fill="#070807"/>
<path d="M422.391 135.995C422.393 135.186 422.155 134.394 421.708 133.72C421.26 133.046 420.622 132.521 419.875 132.209C419.129 131.898 418.306 131.815 417.512 131.972C416.719 132.128 415.989 132.516 415.416 133.088C414.843 133.659 414.453 134.387 414.294 135.181C414.135 135.974 414.215 136.797 414.524 137.544C414.833 138.292 415.357 138.931 416.03 139.381C416.703 139.831 417.493 140.071 418.303 140.071C419.384 140.068 420.42 139.638 421.185 138.874C421.951 138.111 422.384 137.076 422.391 135.995Z" fill="#070807"/>
<path d="M73.7711 214.601C73.5798 214.35 73.3335 214.147 73.0512 214.007C72.7689 213.867 72.4583 213.794 72.1432 213.793H19.2664L17.2345 207.673C17.0965 207.266 16.8345 206.913 16.4855 206.662C16.1365 206.412 15.7178 206.278 15.2884 206.277H1.89779C1.38141 206.317 0.899105 206.551 0.547276 206.931C0.195446 207.311 0 207.81 0 208.328C0 208.845 0.195446 209.344 0.547276 209.724C0.899105 210.104 1.38141 210.338 1.89779 210.378H13.8073L26.7205 249.117C26.857 249.525 27.1185 249.879 27.4679 250.13C27.8173 250.38 28.2368 250.514 28.6667 250.513H29.4133C28.6779 251.646 28.2868 252.968 28.2872 254.319C28.2807 255.422 28.5319 256.51 29.0207 257.498C29.5096 258.486 30.2225 259.346 31.1027 260.01C31.9829 260.674 33.006 261.122 34.0904 261.321C35.1747 261.519 36.2904 261.461 37.3484 261.151C38.4064 260.842 39.3774 260.289 40.184 259.538C40.9906 258.786 41.6104 257.857 41.9941 256.824C42.3778 255.79 42.5147 254.681 42.3939 253.586C42.2731 252.49 41.898 251.438 41.2984 250.513H51.0904C50.355 251.646 49.9638 252.968 49.9643 254.319C49.9246 255.272 50.0781 256.224 50.4154 257.116C50.7528 258.008 51.267 258.823 51.9273 259.511C52.5876 260.199 53.3803 260.747 54.2577 261.121C55.1351 261.495 56.079 261.688 57.0329 261.688C57.9867 261.688 58.9307 261.495 59.8081 261.121C60.6855 260.747 61.4781 260.199 62.1384 259.511C62.7987 258.823 63.313 258.008 63.6503 257.116C63.9877 256.224 64.1411 255.272 64.1015 254.319C64.1019 252.968 63.7108 251.646 62.9754 250.513H64.5544C64.8369 250.535 65.1209 250.498 65.3886 250.405C65.6562 250.311 65.9018 250.164 66.1097 249.972C66.3177 249.779 66.4837 249.546 66.5971 249.286C66.7106 249.026 66.7692 248.746 66.7692 248.462C66.7692 248.179 66.7106 247.899 66.5971 247.639C66.4837 247.379 66.3177 247.146 66.1097 246.953C65.9018 246.761 65.6562 246.614 65.3886 246.52C65.1209 246.427 64.8369 246.39 64.5544 246.412H30.1355L27.8711 239.644H66.2802C66.7314 239.643 67.1701 239.494 67.5284 239.22C67.8867 238.946 68.1449 238.561 68.2631 238.126L74.1138 216.388C74.1995 216.084 74.2132 215.764 74.1537 215.454C74.0942 215.143 73.9632 214.851 73.7711 214.601ZM35.3497 257.281C34.7639 257.281 34.1912 257.108 33.7041 256.782C33.217 256.457 32.8373 255.994 32.6131 255.453C32.3889 254.912 32.3302 254.316 32.4445 253.741C32.5588 253.167 32.841 252.639 33.2552 252.225C33.6695 251.811 34.1973 251.528 34.7718 251.414C35.3464 251.3 35.942 251.359 36.4833 251.583C37.0245 251.807 37.4871 252.187 37.8126 252.674C38.1381 253.161 38.3118 253.733 38.3118 254.319C38.3086 255.104 37.9955 255.855 37.4407 256.41C36.8859 256.965 36.1343 257.278 35.3497 257.281ZM57.1002 257.281C56.5143 257.281 55.9417 257.108 55.4545 256.782C54.9674 256.457 54.5878 255.994 54.3636 255.453C54.1394 254.912 54.0807 254.316 54.195 253.741C54.3093 253.167 54.5914 252.639 55.0057 252.225C55.4199 251.811 55.9477 251.528 56.5223 251.414C57.0969 251.3 57.6925 251.359 58.2337 251.583C58.775 251.807 59.2376 252.187 59.5631 252.674C59.8886 253.161 60.0623 253.733 60.0623 254.319C60.0607 254.711 59.9817 255.098 59.83 255.459C59.6783 255.821 59.4568 256.148 59.1781 256.423C58.8995 256.698 58.5693 256.916 58.2064 257.063C57.8435 257.211 57.4551 257.285 57.0635 257.281H57.1002ZM62.5715 235.543H54.9704V217.942H62.5715V235.543ZM43.2568 217.942H50.8578V235.58H43.2568V217.942ZM39.1564 235.58H31.5553V217.942H39.1564V235.58ZM20.6372 217.942H27.4427V235.58H26.5247L20.6372 217.942ZM66.6719 228.322V217.942H69.4626L66.6719 228.322Z" fill="#263238"/>
<path d="M407.311 204.686C401.459 204.683 395.737 206.416 390.871 209.666C386.004 212.916 382.21 217.536 379.969 222.943C377.728 228.349 377.142 234.298 378.283 240.038C379.424 245.778 382.242 251.051 386.38 255.189C390.518 259.327 395.79 262.145 401.53 263.286C407.27 264.427 413.22 263.84 418.626 261.599C424.032 259.359 428.652 255.565 431.902 250.698C435.152 245.831 436.885 240.11 436.883 234.257C436.873 226.417 433.755 218.901 428.211 213.358C422.667 207.814 415.151 204.695 407.311 204.686ZM407.311 208.358C409.759 208.358 412.427 211.564 414.312 216.926H400.31C402.232 211.564 404.826 208.358 407.311 208.358ZM415.377 220.598C416.276 224.465 416.773 228.415 416.858 232.385H397.752C397.837 228.415 398.334 224.465 399.233 220.598H415.377ZM416.92 236.093C416.819 240.718 416.136 245.311 414.888 249.765H399.784C398.56 245.325 397.898 240.748 397.813 236.142L416.92 236.093ZM394.129 232.421H381.485C381.782 228.241 383.093 224.195 385.304 220.634H395.438C394.608 224.511 394.149 228.458 394.067 232.421H394.129ZM394.129 236.093C394.19 240.702 394.777 245.29 395.879 249.765H386.564C383.595 245.808 381.832 241.078 381.485 236.142L394.129 236.093ZM397.03 253.437C397.75 255.444 398.712 257.355 399.894 259.129C396.176 258.006 392.758 256.061 389.894 253.437H397.03ZM401.008 253.437H413.603C411.803 257.721 409.49 260.218 407.311 260.218C405.132 260.218 402.819 257.672 401.008 253.437ZM417.581 253.437H424.716C421.852 256.061 418.435 258.006 414.716 259.129C415.899 257.355 416.86 255.444 417.581 253.437ZM418.731 249.765C419.876 245.295 420.5 240.707 420.592 236.093H433.174C432.822 241.051 431.041 245.8 428.046 249.765H418.731ZM420.592 232.421C420.511 228.458 420.052 224.511 419.221 220.634H429.355C431.566 224.195 432.877 228.241 433.174 232.421H420.592ZM426.589 216.962H418.254C417.464 214.3 416.289 211.768 414.765 209.447C419.303 210.83 423.375 213.429 426.54 216.962H426.589ZM399.943 209.447C398.418 211.766 397.247 214.299 396.467 216.962H388.119C391.284 213.429 395.356 210.83 399.894 209.447H399.943Z" fill="#263238"/>
</svg>
