<svg width="40" height="40" viewBox="0 0 40 40" fill="none" xmlns="http://www.w3.org/2000/svg">
<path d="M19.9139 -0.000976562C8.91679 -0.000976562 0 8.91581 0 19.9129C0 30.91 8.91679 39.8268 19.9139 39.8268C30.9109 39.8268 39.8277 30.91 39.8277 19.9129C39.8277 8.91581 30.9109 -0.000976562 19.9139 -0.000976562ZM29.4841 15.01C29.4974 15.2189 29.4974 15.4367 29.4974 15.6501C29.4974 22.1754 24.5278 29.692 15.4466 29.692C12.6462 29.692 10.0503 28.8786 7.86331 27.4784C8.26337 27.5228 8.64564 27.5406 9.05459 27.5406C11.366 27.5406 13.4908 26.7583 15.1843 25.4337C13.0151 25.3892 11.1927 23.9668 10.5704 22.011C11.3305 22.1221 12.015 22.1221 12.7973 21.9221C11.6804 21.6951 10.6765 21.0885 9.95612 20.2053C9.23576 19.3221 8.84339 18.2167 8.84567 17.0769V17.0147C9.49909 17.3837 10.2681 17.6104 11.0726 17.6415C10.3963 17.1907 9.84162 16.58 9.4578 15.8636C9.07399 15.1471 8.87289 14.347 8.87234 13.5342C8.87234 12.6141 9.11237 11.774 9.54354 11.045C10.7833 12.5711 12.3303 13.8193 14.084 14.7085C15.8377 15.5976 17.7589 16.1077 19.7227 16.2057C19.0249 12.8497 21.5319 10.1338 24.5456 10.1338C25.968 10.1338 27.2482 10.7294 28.1506 11.6895C29.2663 11.4806 30.3331 11.0628 31.2843 10.5027C30.9154 11.6451 30.142 12.6097 29.1151 13.2186C30.1108 13.1119 31.071 12.8364 31.96 12.4496C31.2888 13.4364 30.4487 14.3121 29.4841 15.01Z" fill="black"/>
</svg>
