<svg width="765" height="373" viewBox="0 0 765 373" fill="none" xmlns="http://www.w3.org/2000/svg">
<rect width="765" height="373" fill="white"/>
<path d="M74.8428 65V44.7309H67.9167V41.2338H86.1487V44.7309H79.1886V65H74.8428ZM94.2963 65.4074C92.6667 65.4074 91.1954 65.034 89.8826 64.287C88.5925 63.5401 87.5626 62.5102 86.793 61.1974C86.0461 59.862 85.6726 58.3228 85.6726 56.58C85.6726 54.8371 86.0574 53.3093 86.827 51.9965C87.5965 50.6611 88.6264 49.6199 89.9166 48.873C91.2294 48.126 92.7006 47.7526 94.3303 47.7526C95.9373 47.7526 97.3859 48.126 98.6761 48.873C99.9889 49.6199 101.019 50.6611 101.766 51.9965C102.535 53.3093 102.92 54.8371 102.92 56.58C102.92 58.3228 102.535 59.862 101.766 61.1974C101.019 62.5102 99.9889 63.5401 98.6761 64.287C97.3633 65.034 95.9034 65.4074 94.2963 65.4074ZM94.2963 61.6388C95.4281 61.6388 96.4127 61.22 97.2501 60.3826C98.0876 59.5225 98.5063 58.2549 98.5063 56.58C98.5063 54.905 98.0876 53.6488 97.2501 52.8114C96.4127 51.9512 95.4394 51.5212 94.3303 51.5212C93.1759 51.5212 92.18 51.9512 91.3425 52.8114C90.5277 53.6488 90.1203 54.905 90.1203 56.58C90.1203 58.2549 90.5277 59.5225 91.3425 60.3826C92.18 61.22 93.1646 61.6388 94.2963 61.6388ZM113.646 65C111.88 65 110.466 64.5699 109.402 63.7098C108.338 62.8497 107.806 61.3219 107.806 59.1264V51.7928H104.92V48.16H107.806L108.315 43.6444H112.152V48.16H116.702V51.7928H112.152V59.1603C112.152 59.9752 112.322 60.541 112.661 60.8579C113.023 61.1521 113.635 61.2993 114.495 61.2993H116.6V65H113.646ZM126.238 65.4074C124.79 65.4074 123.602 65.1811 122.674 64.7284C121.746 64.2531 121.055 63.6306 120.603 62.861C120.15 62.0915 119.923 61.2427 119.923 60.3147C119.923 58.7529 120.535 57.4854 121.757 56.5121C122.979 55.5388 124.813 55.0522 127.257 55.0522H131.535V54.6447C131.535 53.4904 131.207 52.6416 130.55 52.0984C129.894 51.5551 129.079 51.2835 128.106 51.2835C127.223 51.2835 126.454 51.4986 125.797 51.9286C125.141 52.336 124.733 52.9472 124.575 53.762H120.331C120.444 52.5397 120.851 51.4759 121.553 50.5705C122.277 49.6652 123.205 48.9748 124.337 48.4995C125.469 48.0015 126.736 47.7526 128.14 47.7526C130.539 47.7526 132.429 48.3524 133.81 49.552C135.19 50.7516 135.881 52.4492 135.881 54.6447V65H132.18L131.773 62.2839C131.275 63.1892 130.573 63.9362 129.668 64.5247C128.785 65.1132 127.642 65.4074 126.238 65.4074ZM127.223 62.0123C128.468 62.0123 129.43 61.6048 130.109 60.79C130.811 59.9752 131.252 58.9679 131.433 57.7683H127.732C126.578 57.7683 125.752 57.9833 125.254 58.4134C124.756 58.8208 124.507 59.3301 124.507 59.9412C124.507 60.5976 124.756 61.1069 125.254 61.469C125.752 61.8312 126.408 62.0123 127.223 62.0123ZM140.028 65V40.5548H144.374V65H140.028ZM157.006 65V41.2338H161.352V65H157.006ZM165.856 65V48.16H169.693L170.032 51.0119C170.553 50.016 171.3 49.2238 172.273 48.6353C173.269 48.0468 174.435 47.7526 175.77 47.7526C177.853 47.7526 179.471 48.409 180.625 49.7218C181.78 51.0345 182.357 52.9585 182.357 55.4935V65H178.011V55.901C178.011 54.4523 177.717 53.3433 177.128 52.5737C176.54 51.8041 175.623 51.4193 174.378 51.4193C173.156 51.4193 172.149 51.8494 171.357 52.7095C170.587 53.5696 170.202 54.7692 170.202 56.3084V65H165.856ZM194.763 65.4074C193.043 65.4074 191.526 65.034 190.213 64.287C188.9 63.5401 187.859 62.4989 187.09 61.1635C186.343 59.828 185.969 58.3002 185.969 56.58C185.969 54.8598 186.343 53.3319 187.09 51.9965C187.859 50.6611 188.9 49.6199 190.213 48.873C191.526 48.126 193.043 47.7526 194.763 47.7526C196.913 47.7526 198.724 48.3184 200.195 49.4501C201.666 50.5592 202.606 52.0984 203.013 54.0676H198.43C198.203 53.2527 197.751 52.619 197.071 52.1663C196.415 51.6909 195.634 51.4533 194.729 51.4533C193.529 51.4533 192.511 51.906 191.673 52.8114C190.836 53.7167 190.417 54.9729 190.417 56.58C190.417 58.187 190.836 59.4432 191.673 60.3486C192.511 61.254 193.529 61.7067 194.729 61.7067C195.634 61.7067 196.415 61.4803 197.071 61.0277C197.751 60.575 198.203 59.9299 198.43 59.0924H203.013C202.606 60.9937 201.666 62.5215 200.195 63.6759C198.724 64.8302 196.913 65.4074 194.763 65.4074ZM214.951 65.4074C213.321 65.4074 211.85 65.034 210.537 64.287C209.247 63.5401 208.217 62.5102 207.447 61.1974C206.7 59.862 206.327 58.3228 206.327 56.58C206.327 54.8371 206.712 53.3093 207.481 51.9965C208.251 50.6611 209.281 49.6199 210.571 48.873C211.884 48.126 213.355 47.7526 214.985 47.7526C216.592 47.7526 218.04 48.126 219.331 48.873C220.643 49.6199 221.673 50.6611 222.42 51.9965C223.19 53.3093 223.574 54.8371 223.574 56.58C223.574 58.3228 223.19 59.862 222.42 61.1974C221.673 62.5102 220.643 63.5401 219.331 64.287C218.018 65.034 216.558 65.4074 214.951 65.4074ZM214.951 61.6388C216.082 61.6388 217.067 61.22 217.905 60.3826C218.742 59.5225 219.161 58.2549 219.161 56.58C219.161 54.905 218.742 53.6488 217.905 52.8114C217.067 51.9512 216.094 51.5212 214.985 51.5212C213.83 51.5212 212.834 51.9512 211.997 52.8114C211.182 53.6488 210.775 54.905 210.775 56.58C210.775 58.2549 211.182 59.5225 211.997 60.3826C212.834 61.22 213.819 61.6388 214.951 61.6388ZM227.46 65V48.16H231.297L231.67 50.4347C232.213 49.6199 232.926 48.9748 233.809 48.4995C234.714 48.0015 235.756 47.7526 236.933 47.7526C239.536 47.7526 241.38 48.7598 242.467 50.7743C243.078 49.8462 243.893 49.1106 244.911 48.5674C245.952 48.0242 247.084 47.7526 248.306 47.7526C250.502 47.7526 252.188 48.409 253.365 49.7218C254.542 51.0345 255.131 52.9585 255.131 55.4935V65H250.785V55.901C250.785 54.4523 250.502 53.3433 249.936 52.5737C249.393 51.8041 248.544 51.4193 247.39 51.4193C246.213 51.4193 245.262 51.8494 244.538 52.7095C243.836 53.5696 243.485 54.7692 243.485 56.3084V65H239.139V55.901C239.139 54.4523 238.857 53.3433 238.291 52.5737C237.725 51.8041 236.853 51.4193 235.676 51.4193C234.522 51.4193 233.583 51.8494 232.858 52.7095C232.157 53.5696 231.806 54.7692 231.806 56.3084V65H227.46ZM267.439 65.4074C265.741 65.4074 264.236 65.0453 262.923 64.321C261.611 63.5967 260.581 62.5781 259.834 61.2653C259.087 59.9525 258.713 58.436 258.713 56.7158C258.713 54.9729 259.076 53.4225 259.8 52.0644C260.547 50.7063 261.565 49.6538 262.855 48.9069C264.168 48.1373 265.707 47.7526 267.473 47.7526C269.125 47.7526 270.585 48.1147 271.853 48.839C273.12 49.5633 274.105 50.5592 274.806 51.8268C275.531 53.0716 275.893 54.4637 275.893 56.0028C275.893 56.2518 275.882 56.5121 275.859 56.7837C275.859 57.0553 275.848 57.3382 275.825 57.6325H263.025C263.116 58.9453 263.568 59.9752 264.383 60.7221C265.221 61.469 266.228 61.8425 267.405 61.8425C268.288 61.8425 269.023 61.6501 269.612 61.2653C270.223 60.8579 270.676 60.3373 270.97 59.7035H275.384C275.067 60.7674 274.535 61.7406 273.788 62.6234C273.064 63.4835 272.158 64.1625 271.072 64.6605C270.008 65.1584 268.797 65.4074 267.439 65.4074ZM267.473 51.2835C266.409 51.2835 265.47 51.5891 264.655 52.2002C263.84 52.7887 263.319 53.6941 263.093 54.9164H271.479C271.411 53.8073 271.004 52.9245 270.257 52.2681C269.51 51.6117 268.582 51.2835 267.473 51.2835Z" fill="#FFF176"/>
<path fill-rule="evenodd" clip-rule="evenodd" d="M94.2411 83.6211V96.8108H97.4075V80.1451H95.5267L91.5031 81.9307V84.2639L94.2411 83.6211ZM102.448 83.6211V96.8108H105.615V80.1451H103.734L99.7104 81.9307V84.2639L102.448 83.6211ZM111.656 96.4536C112.544 96.8822 113.6 97.0965 114.822 97.0965C115.997 97.0965 117.028 96.8346 117.917 96.3108C118.822 95.787 119.52 95.0728 120.012 94.1681C120.52 93.2634 120.774 92.2317 120.774 91.073C120.774 90.0572 120.568 89.1207 120.155 88.2636C119.742 87.3907 119.139 86.6923 118.346 86.1685C117.552 85.6289 116.56 85.3591 115.37 85.3591C114.624 85.3591 113.949 85.486 113.346 85.74C112.743 85.9781 112.267 86.2876 111.917 86.6685L112.679 82.8116H119.631V80.1451H110.394L108.965 89.6683H111.894C112.116 89.1445 112.489 88.7081 113.013 88.3589C113.536 88.0097 114.155 87.8351 114.87 87.8351C115.727 87.8351 116.433 88.1287 116.989 88.716C117.56 89.3033 117.846 90.0969 117.846 91.0968C117.846 92.065 117.56 92.8745 116.989 93.5252C116.433 94.176 115.711 94.5014 114.822 94.5014C113.997 94.5014 113.306 94.2792 112.751 93.8348C112.195 93.3745 111.846 92.8031 111.703 92.1206H108.727C108.807 93.0729 109.092 93.93 109.584 94.6918C110.092 95.4378 110.783 96.0251 111.656 96.4536ZM123.681 93.6443L122.324 99.5725H124.324L126.634 93.6443H123.681ZM137.888 96.406C138.746 96.8663 139.801 97.0965 141.055 97.0965C142.214 97.0965 143.229 96.8346 144.102 96.3108C144.991 95.787 145.674 95.0966 146.15 94.2395C146.642 93.3824 146.888 92.4539 146.888 91.4539C146.888 90.3588 146.634 89.4064 146.126 88.597C145.634 87.7875 144.983 87.1605 144.174 86.7161C143.364 86.2717 142.499 86.0495 141.579 86.0495C140.642 86.0495 139.793 86.2638 139.031 86.6923C138.269 87.1209 137.698 87.6605 137.317 88.3113C137.365 86.3114 137.714 84.8273 138.365 83.8591C139.015 82.8751 139.872 82.383 140.936 82.383C141.682 82.383 142.293 82.5814 142.769 82.9782C143.245 83.375 143.555 83.9385 143.698 84.6686H146.531C146.451 83.8274 146.19 83.0417 145.745 82.3116C145.301 81.5815 144.674 80.9942 143.864 80.5498C143.071 80.0895 142.102 79.8594 140.96 79.8594C139.563 79.8594 138.373 80.2403 137.388 81.0022C136.404 81.7482 135.65 82.8116 135.127 84.1925C134.603 85.5575 134.341 87.1685 134.341 89.0255C134.341 90.0254 134.452 91.0016 134.674 91.9539C134.912 92.9062 135.293 93.7713 135.817 94.549C136.341 95.3267 137.031 95.9457 137.888 96.406ZM143.079 93.6681C142.507 94.2077 141.777 94.4776 140.888 94.4776C139.984 94.4776 139.23 94.1998 138.626 93.6443C138.039 93.0888 137.746 92.3825 137.746 91.5254C137.746 90.9857 137.881 90.5016 138.15 90.0731C138.42 89.6286 138.785 89.2795 139.245 89.0255C139.722 88.7557 140.253 88.6208 140.841 88.6208C141.745 88.6208 142.491 88.8906 143.079 89.4302C143.666 89.9699 143.96 90.6841 143.96 91.573C143.96 92.4142 143.666 93.1126 143.079 93.6681ZM152.978 96.406C153.835 96.8663 154.89 97.0965 156.144 97.0965C157.303 97.0965 158.319 96.8346 159.192 96.3108C160.081 95.787 160.763 95.0966 161.239 94.2395C161.731 93.3824 161.977 92.4539 161.977 91.4539C161.977 90.3588 161.723 89.4064 161.215 88.597C160.723 87.7875 160.073 87.1605 159.263 86.7161C158.454 86.2717 157.589 86.0495 156.668 86.0495C155.732 86.0495 154.882 86.2638 154.121 86.6923C153.359 87.1209 152.787 87.6605 152.406 88.3113C152.454 86.3114 152.803 84.8273 153.454 83.8591C154.105 82.8751 154.962 82.383 156.025 82.383C156.771 82.383 157.382 82.5814 157.858 82.9782C158.335 83.375 158.644 83.9385 158.787 84.6686H161.62C161.541 83.8274 161.279 83.0417 160.834 82.3116C160.39 81.5815 159.763 80.9942 158.954 80.5498C158.16 80.0895 157.192 79.8594 156.049 79.8594C154.652 79.8594 153.462 80.2403 152.478 81.0022C151.494 81.7482 150.74 82.8116 150.216 84.1925C149.692 85.5575 149.43 87.1685 149.43 89.0255C149.43 90.0254 149.541 91.0016 149.764 91.9539C150.002 92.9062 150.383 93.7713 150.906 94.549C151.43 95.3267 152.121 95.9457 152.978 96.406ZM158.168 93.6681C157.597 94.2077 156.866 94.4776 155.978 94.4776C155.073 94.4776 154.319 94.1998 153.716 93.6443C153.129 93.0888 152.835 92.3825 152.835 91.5254C152.835 90.9857 152.97 90.5016 153.24 90.0731C153.509 89.6286 153.875 89.2795 154.335 89.0255C154.811 88.7557 155.343 88.6208 155.93 88.6208C156.835 88.6208 157.581 88.8906 158.168 89.4302C158.755 89.9699 159.049 90.6841 159.049 91.573C159.049 92.4142 158.755 93.1126 158.168 93.6681ZM172.591 93.7157V96.8108H175.638V93.7157H177.828V91.073H175.638V80.1451H172.186L164.377 91.2873V93.7157H172.591ZM172.781 91.073H167.639L172.781 83.502V91.073ZM180.081 96.4536C180.446 96.8028 180.907 96.9774 181.462 96.9774C182.018 96.9774 182.47 96.8028 182.819 96.4536C183.184 96.1045 183.367 95.6838 183.367 95.1918C183.367 94.6839 183.184 94.2554 182.819 93.9062C182.47 93.557 182.018 93.3824 181.462 93.3824C180.907 93.3824 180.446 93.557 180.081 93.9062C179.732 94.2554 179.558 94.6839 179.558 95.1918C179.558 95.6838 179.732 96.1045 180.081 96.4536ZM187.871 96.0251C188.966 96.7393 190.284 97.0965 191.823 97.0965C193.363 97.0965 194.68 96.7393 195.775 96.0251C196.871 95.295 197.712 94.2871 198.299 93.0015C198.902 91.7 199.204 90.1921 199.204 88.4779C199.204 86.7796 198.902 85.2797 198.299 83.9782C197.712 82.6767 196.871 81.6688 195.775 80.9545C194.68 80.2244 193.363 79.8594 191.823 79.8594C190.284 79.8594 188.966 80.2244 187.871 80.9545C186.776 81.6688 185.927 82.6767 185.324 83.9782C184.736 85.2797 184.443 86.7796 184.443 88.4779C184.443 90.1921 184.736 91.7 185.324 93.0015C185.927 94.2871 186.776 95.295 187.871 96.0251ZM194.895 92.7872C194.101 93.8348 193.077 94.3585 191.823 94.3585C190.554 94.3585 189.522 93.8348 188.728 92.7872C187.951 91.7396 187.562 90.3032 187.562 88.4779C187.562 86.6526 187.951 85.2162 188.728 84.1686C189.522 83.1211 190.554 82.5973 191.823 82.5973C193.077 82.5973 194.101 83.1211 194.895 84.1686C195.688 85.2162 196.085 86.6526 196.085 88.4779C196.085 90.3032 195.688 91.7396 194.895 92.7872ZM204.774 96.0251C205.869 96.7393 207.187 97.0965 208.726 97.0965C210.266 97.0965 211.583 96.7393 212.678 96.0251C213.774 95.295 214.615 94.2871 215.202 93.0015C215.805 91.7 216.107 90.1921 216.107 88.4779C216.107 86.7796 215.805 85.2797 215.202 83.9782C214.615 82.6767 213.774 81.6688 212.678 80.9545C211.583 80.2244 210.266 79.8594 208.726 79.8594C207.187 79.8594 205.869 80.2244 204.774 80.9545C203.679 81.6688 202.83 82.6767 202.227 83.9782C201.639 85.2797 201.346 86.7796 201.346 88.4779C201.346 90.1921 201.639 91.7 202.227 93.0015C202.83 94.2871 203.679 95.295 204.774 96.0251ZM211.797 92.7872C211.004 93.8348 209.98 94.3585 208.726 94.3585C207.456 94.3585 206.425 93.8348 205.631 92.7872C204.853 91.7396 204.465 90.3032 204.465 88.4779C204.465 86.6526 204.853 85.2162 205.631 84.1686C206.425 83.1211 207.456 82.5973 208.726 82.5973C209.98 82.5973 211.004 83.1211 211.797 84.1686C212.591 85.2162 212.988 86.6526 212.988 88.4779C212.988 90.3032 212.591 91.7396 211.797 92.7872ZM69.2236 87.9082V89.1555H67V91.5363H69.2236V96.811H72.271V91.5363H76.5768L80.1039 96.811H83.1514V91.5363H85.442V89.1555H83.1514V87.9082H85.442V85.5274H83.1514V80.1453H80.1039V85.5274H75.8628L72.271 80.1453H69.2236V85.5274H67V87.9082H69.2236ZM74.9847 89.1555H72.271V87.9082H74.1507L74.9847 89.1555ZM80.1039 91.8827L79.8728 91.5363H80.1039V91.8827ZM78.2839 89.1555H80.1039V87.9082H77.4516L78.2839 89.1555ZM72.271 85.5274H72.5586L72.271 85.0974V85.5274Z" fill="white"/>
<path d="M68.847 306.695V287.682H72.3236L81.2597 301.073V287.682H84.7364V306.695H81.2597L72.3236 293.332V306.695H68.847ZM94.8866 307.021C93.5286 307.021 92.3244 306.732 91.2742 306.152C90.2239 305.573 89.4 304.758 88.8025 303.708C88.2049 302.657 87.9062 301.444 87.9062 300.068C87.9062 298.674 88.1959 297.433 88.7753 296.347C89.3729 295.26 90.1877 294.418 91.2198 293.821C92.2701 293.205 93.5014 292.897 94.9138 292.897C96.2356 292.897 97.4036 293.187 98.4176 293.767C99.4316 294.346 100.219 295.143 100.781 296.157C101.36 297.153 101.65 298.266 101.65 299.498C101.65 299.697 101.641 299.905 101.623 300.122C101.623 300.34 101.614 300.566 101.595 300.801H91.3557C91.4281 301.852 91.7902 302.675 92.4421 303.273C93.1121 303.871 93.9179 304.169 94.8595 304.169C95.5657 304.169 96.1542 304.015 96.6249 303.708C97.1139 303.382 97.476 302.965 97.7114 302.458H101.242C100.989 303.309 100.563 304.088 99.9658 304.794C99.3864 305.482 98.662 306.025 97.7929 306.424C96.9418 306.822 95.9731 307.021 94.8866 307.021ZM94.9138 295.722C94.0627 295.722 93.3113 295.967 92.6594 296.455C92.0075 296.926 91.591 297.651 91.41 298.628H98.1188C98.0645 297.741 97.7386 297.035 97.141 296.51C96.5435 295.985 95.8011 295.722 94.9138 295.722ZM110.338 306.695C108.925 306.695 107.794 306.351 106.943 305.663C106.092 304.975 105.666 303.753 105.666 301.996V296.13H103.357V293.223H105.666L106.073 289.611H109.143V293.223H112.782V296.13H109.143V302.024C109.143 302.675 109.279 303.128 109.55 303.382C109.84 303.617 110.329 303.735 111.017 303.735H112.701V306.695H110.338ZM122.321 306.695V287.682H125.797V306.695H122.321ZM129.401 306.695V293.223H132.47L132.742 295.505C133.158 294.708 133.756 294.074 134.535 293.604C135.331 293.133 136.264 292.897 137.332 292.897C138.998 292.897 140.293 293.422 141.216 294.473C142.14 295.523 142.601 297.062 142.601 299.09V306.695H139.125V299.416C139.125 298.257 138.889 297.37 138.419 296.754C137.948 296.139 137.214 295.831 136.219 295.831C135.241 295.831 134.435 296.175 133.801 296.863C133.186 297.551 132.878 298.511 132.878 299.742V306.695H129.401ZM152.526 307.021C151.15 307.021 149.937 306.722 148.887 306.125C147.836 305.527 147.003 304.694 146.388 303.626C145.79 302.558 145.491 301.335 145.491 299.959C145.491 298.583 145.79 297.361 146.388 296.293C147.003 295.224 147.836 294.391 148.887 293.794C149.937 293.196 151.15 292.897 152.526 292.897C154.246 292.897 155.695 293.35 156.872 294.255C158.049 295.143 158.8 296.374 159.126 297.949H155.46C155.279 297.297 154.916 296.79 154.373 296.428C153.848 296.048 153.223 295.858 152.499 295.858C151.539 295.858 150.724 296.22 150.054 296.944C149.384 297.669 149.05 298.674 149.05 299.959C149.05 301.245 149.384 302.25 150.054 302.974C150.724 303.699 151.539 304.061 152.499 304.061C153.223 304.061 153.848 303.88 154.373 303.517C154.916 303.155 155.279 302.639 155.46 301.969H159.126C158.8 303.49 158.049 304.713 156.872 305.636C155.695 306.56 154.246 307.021 152.526 307.021ZM168.677 307.021C167.373 307.021 166.196 306.722 165.146 306.125C164.113 305.527 163.29 304.703 162.674 303.653C162.076 302.585 161.778 301.354 161.778 299.959C161.778 298.565 162.085 297.343 162.701 296.293C163.317 295.224 164.141 294.391 165.173 293.794C166.223 293.196 167.4 292.897 168.704 292.897C169.989 292.897 171.148 293.196 172.18 293.794C173.231 294.391 174.054 295.224 174.652 296.293C175.268 297.343 175.576 298.565 175.576 299.959C175.576 301.354 175.268 302.585 174.652 303.653C174.054 304.703 173.231 305.527 172.18 306.125C171.13 306.722 169.962 307.021 168.677 307.021ZM168.677 304.006C169.582 304.006 170.37 303.671 171.04 303.001C171.71 302.313 172.045 301.299 172.045 299.959C172.045 298.619 171.71 297.614 171.04 296.944C170.37 296.256 169.591 295.912 168.704 295.912C167.78 295.912 166.983 296.256 166.313 296.944C165.662 297.614 165.336 298.619 165.336 299.959C165.336 301.299 165.662 302.313 166.313 303.001C166.983 303.671 167.771 304.006 168.677 304.006ZM178.684 306.695V293.223H181.753L182.052 295.043C182.487 294.391 183.057 293.875 183.763 293.495C184.487 293.097 185.32 292.897 186.262 292.897C188.344 292.897 189.82 293.703 190.689 295.315C191.178 294.572 191.83 293.984 192.645 293.549C193.478 293.115 194.383 292.897 195.361 292.897C197.117 292.897 198.467 293.422 199.408 294.473C200.35 295.523 200.82 297.062 200.82 299.09V306.695H197.344V299.416C197.344 298.257 197.117 297.37 196.665 296.754C196.23 296.139 195.551 295.831 194.628 295.831C193.686 295.831 192.926 296.175 192.346 296.863C191.785 297.551 191.504 298.511 191.504 299.742V306.695H188.027V299.416C188.027 298.257 187.801 297.37 187.348 296.754C186.896 296.139 186.199 295.831 185.257 295.831C184.334 295.831 183.582 296.175 183.003 296.863C182.441 297.551 182.161 298.511 182.161 299.742V306.695H178.684ZM210.667 307.021C209.309 307.021 208.105 306.732 207.055 306.152C206.004 305.573 205.181 304.758 204.583 303.708C203.985 302.657 203.687 301.444 203.687 300.068C203.687 298.674 203.976 297.433 204.556 296.347C205.153 295.26 205.968 294.418 207 293.821C208.051 293.205 209.282 292.897 210.694 292.897C212.016 292.897 213.184 293.187 214.198 293.767C215.212 294.346 216 295.143 216.561 296.157C217.141 297.153 217.43 298.266 217.43 299.498C217.43 299.697 217.421 299.905 217.403 300.122C217.403 300.34 217.394 300.566 217.376 300.801H207.136C207.209 301.852 207.571 302.675 208.223 303.273C208.893 303.871 209.698 304.169 210.64 304.169C211.346 304.169 211.935 304.015 212.405 303.708C212.894 303.382 213.256 302.965 213.492 302.458H217.023C216.769 303.309 216.344 304.088 215.746 304.794C215.167 305.482 214.443 306.025 213.573 306.424C212.722 306.822 211.754 307.021 210.667 307.021ZM210.694 295.722C209.843 295.722 209.092 295.967 208.44 296.455C207.788 296.926 207.372 297.651 207.19 298.628H213.899C213.845 297.741 213.519 297.035 212.922 296.51C212.324 295.985 211.582 295.722 210.694 295.722Z" fill="#FFF176"/>
<path fill-rule="evenodd" clip-rule="evenodd" d="M144.377 334.363V337.458H147.425V334.363H149.615V331.72H147.425V320.793H143.972L136.163 331.935V334.363H144.377ZM144.568 331.72H139.425L144.568 324.149V331.72ZM155.106 337.053C155.963 337.514 157.018 337.744 158.272 337.744C159.431 337.744 160.447 337.482 161.32 336.958C162.209 336.434 162.891 335.744 163.367 334.887C163.859 334.03 164.105 333.101 164.105 332.101C164.105 331.006 163.851 330.054 163.343 329.244C162.851 328.435 162.201 327.808 161.391 327.364C160.582 326.919 159.717 326.697 158.796 326.697C157.86 326.697 157.01 326.911 156.249 327.34C155.487 327.768 154.915 328.308 154.534 328.959C154.582 326.959 154.931 325.475 155.582 324.507C156.233 323.523 157.09 323.03 158.153 323.03C158.899 323.03 159.51 323.229 159.986 323.626C160.463 324.023 160.772 324.586 160.915 325.316H163.748C163.669 324.475 163.407 323.689 162.962 322.959C162.518 322.229 161.891 321.642 161.082 321.197C160.288 320.737 159.32 320.507 158.177 320.507C156.78 320.507 155.59 320.888 154.606 321.65C153.622 322.396 152.868 323.459 152.344 324.84C151.82 326.205 151.558 327.816 151.558 329.673C151.558 330.673 151.669 331.649 151.892 332.601C152.13 333.554 152.511 334.419 153.034 335.196C153.558 335.974 154.249 336.593 155.106 337.053ZM160.296 334.316C159.725 334.855 158.994 335.125 158.106 335.125C157.201 335.125 156.447 334.847 155.844 334.292C155.257 333.736 154.963 333.03 154.963 332.173C154.963 331.633 155.098 331.149 155.368 330.721C155.637 330.276 156.003 329.927 156.463 329.673C156.939 329.403 157.471 329.268 158.058 329.268C158.963 329.268 159.709 329.538 160.296 330.078C160.883 330.617 161.177 331.332 161.177 332.22C161.177 333.062 160.883 333.76 160.296 334.316ZM167.171 334.292L165.814 340.22H167.814L170.124 334.292H167.171ZM177.879 335.244V337.458H189.354V334.958H182.14C182.886 334.355 183.656 333.704 184.45 333.006C185.243 332.292 185.981 331.53 186.664 330.721C187.346 329.911 187.894 329.07 188.307 328.197C188.735 327.324 188.949 326.427 188.949 325.507C188.949 324.03 188.473 322.832 187.521 321.912C186.584 320.975 185.267 320.507 183.569 320.507C182.521 320.507 181.577 320.713 180.736 321.126C179.894 321.523 179.22 322.134 178.712 322.959C178.204 323.769 177.934 324.784 177.902 326.007H180.855C180.855 325.197 181.077 324.507 181.521 323.935C181.966 323.364 182.624 323.078 183.497 323.078C184.354 323.078 184.965 323.34 185.331 323.864C185.711 324.388 185.902 324.991 185.902 325.673C185.902 326.403 185.672 327.157 185.212 327.935C184.767 328.697 184.164 329.483 183.402 330.292C182.656 331.101 181.799 331.919 180.831 332.744C179.878 333.57 178.894 334.403 177.879 335.244ZM194.98 337.053C195.837 337.514 196.892 337.744 198.146 337.744C199.305 337.744 200.321 337.482 201.194 336.958C202.082 336.434 202.765 335.744 203.241 334.887C203.733 334.03 203.979 333.101 203.979 332.101C203.979 331.006 203.725 330.054 203.217 329.244C202.725 328.435 202.075 327.808 201.265 327.364C200.456 326.919 199.591 326.697 198.67 326.697C197.734 326.697 196.884 326.911 196.123 327.34C195.361 327.768 194.789 328.308 194.408 328.959C194.456 326.959 194.805 325.475 195.456 324.507C196.107 323.523 196.964 323.03 198.027 323.03C198.773 323.03 199.384 323.229 199.86 323.626C200.337 324.023 200.646 324.586 200.789 325.316H203.622C203.543 324.475 203.281 323.689 202.836 322.959C202.392 322.229 201.765 321.642 200.956 321.197C200.162 320.737 199.194 320.507 198.051 320.507C196.654 320.507 195.464 320.888 194.48 321.65C193.496 322.396 192.742 323.459 192.218 324.84C191.694 326.205 191.432 327.816 191.432 329.673C191.432 330.673 191.543 331.649 191.766 332.601C192.004 333.554 192.385 334.419 192.908 335.196C193.432 335.974 194.123 336.593 194.98 337.053ZM200.17 334.316C199.598 334.855 198.868 335.125 197.98 335.125C197.075 335.125 196.321 334.847 195.718 334.292C195.131 333.736 194.837 333.03 194.837 332.173C194.837 331.633 194.972 331.149 195.242 330.721C195.511 330.276 195.876 329.927 196.337 329.673C196.813 329.403 197.345 329.268 197.932 329.268C198.837 329.268 199.583 329.538 200.17 330.078C200.757 330.617 201.051 331.332 201.051 332.22C201.051 333.062 200.757 333.76 200.17 334.316ZM209.318 337.101C210.207 337.53 211.263 337.744 212.485 337.744C213.659 337.744 214.691 337.482 215.58 336.958C216.485 336.434 217.183 335.72 217.675 334.816C218.183 333.911 218.437 332.879 218.437 331.72C218.437 330.705 218.231 329.768 217.818 328.911C217.405 328.038 216.802 327.34 216.008 326.816C215.215 326.276 214.223 326.007 213.032 326.007C212.286 326.007 211.612 326.133 211.009 326.387C210.406 326.626 209.929 326.935 209.58 327.316L210.342 323.459H217.294V320.793H208.057L206.628 330.316H209.556C209.779 329.792 210.152 329.356 210.675 329.006C211.199 328.657 211.818 328.483 212.532 328.483C213.39 328.483 214.096 328.776 214.651 329.363C215.223 329.951 215.508 330.744 215.508 331.744C215.508 332.712 215.223 333.522 214.651 334.173C214.096 334.823 213.374 335.149 212.485 335.149C211.659 335.149 210.969 334.927 210.414 334.482C209.858 334.022 209.509 333.451 209.366 332.768H206.39C206.469 333.72 206.755 334.577 207.247 335.339C207.755 336.085 208.445 336.673 209.318 337.101ZM221.13 337.101C221.495 337.45 221.955 337.625 222.511 337.625C223.066 337.625 223.519 337.45 223.868 337.101C224.233 336.752 224.416 336.331 224.416 335.839C224.416 335.331 224.233 334.903 223.868 334.554C223.519 334.204 223.066 334.03 222.511 334.03C221.955 334.03 221.495 334.204 221.13 334.554C220.781 334.903 220.606 335.331 220.606 335.839C220.606 336.331 220.781 336.752 221.13 337.101ZM229.367 337.053C230.224 337.514 231.279 337.744 232.533 337.744C233.692 337.744 234.708 337.482 235.581 336.958C236.469 336.434 237.152 335.744 237.628 334.887C238.12 334.03 238.366 333.101 238.366 332.101C238.366 331.006 238.112 330.054 237.604 329.244C237.112 328.435 236.461 327.808 235.652 327.364C234.843 326.919 233.978 326.697 233.057 326.697C232.12 326.697 231.271 326.911 230.509 327.34C229.748 327.768 229.176 328.308 228.795 328.959C228.843 326.959 229.192 325.475 229.843 324.507C230.494 323.523 231.351 323.03 232.414 323.03C233.16 323.03 233.771 323.229 234.247 323.626C234.723 324.023 235.033 324.586 235.176 325.316H238.009C237.93 324.475 237.668 323.689 237.223 322.959C236.779 322.229 236.152 321.642 235.343 321.197C234.549 320.737 233.581 320.507 232.438 320.507C231.041 320.507 229.851 320.888 228.867 321.65C227.883 322.396 227.129 323.459 226.605 324.84C226.081 326.205 225.819 327.816 225.819 329.673C225.819 330.673 225.93 331.649 226.153 332.601C226.391 333.554 226.772 334.419 227.295 335.196C227.819 335.974 228.51 336.593 229.367 337.053ZM234.557 334.316C233.985 334.855 233.255 335.125 232.366 335.125C231.462 335.125 230.708 334.847 230.105 334.292C229.517 333.736 229.224 333.03 229.224 332.173C229.224 331.633 229.359 331.149 229.629 330.721C229.898 330.276 230.263 329.927 230.724 329.673C231.2 329.403 231.732 329.268 232.319 329.268C233.224 329.268 233.97 329.538 234.557 330.078C235.144 330.617 235.438 331.332 235.438 332.22C235.438 333.062 235.144 333.76 234.557 334.316ZM244.242 336.673C245.337 337.387 246.654 337.744 248.194 337.744C249.733 337.744 251.051 337.387 252.146 336.673C253.241 335.942 254.082 334.935 254.67 333.649C255.273 332.347 255.574 330.84 255.574 329.125C255.574 327.427 255.273 325.927 254.67 324.626C254.082 323.324 253.241 322.316 252.146 321.602C251.051 320.872 249.733 320.507 248.194 320.507C246.654 320.507 245.337 320.872 244.242 321.602C243.147 322.316 242.297 323.324 241.694 324.626C241.107 325.927 240.813 327.427 240.813 329.125C240.813 330.84 241.107 332.347 241.694 333.649C242.297 334.935 243.147 335.942 244.242 336.673ZM251.265 333.435C250.472 334.482 249.448 335.006 248.194 335.006C246.924 335.006 245.892 334.482 245.099 333.435C244.321 332.387 243.932 330.951 243.932 329.125C243.932 327.3 244.321 325.864 245.099 324.816C245.892 323.769 246.924 323.245 248.194 323.245C249.448 323.245 250.472 323.769 251.265 324.816C252.059 325.864 252.456 327.3 252.456 329.125C252.456 330.951 252.059 332.387 251.265 333.435ZM119.224 328.556V329.803H117V332.184H119.224V337.458H122.271V332.184H126.577L130.104 337.458H133.151V332.184H135.442V329.803H133.151V328.556H135.442V326.175H133.151V320.793H130.104V326.175H125.863L122.271 320.793H119.224V326.175H117V328.556H119.224ZM124.985 329.803H122.271V328.556H124.151L124.985 329.803ZM130.104 332.53L129.873 332.184H130.104V332.53ZM128.284 329.803H130.104V328.556H127.452L128.284 329.803ZM122.271 326.175H122.559L122.271 325.745V326.175Z" fill="white"/>
<rect x="67" y="315" width="43.2884" height="26.3125" rx="6.79033" fill="#FF0799"/>
<path d="M68.847 148.82V129.807H81.2597V132.605H72.3236V137.82H80.4449V140.536H72.3236V146.023H81.2597V148.82H68.847ZM83.1915 148.82L88.0806 142.084L83.1915 135.348H86.9127L90.335 140.129L93.7301 135.348H97.4784L92.5622 142.084L97.4784 148.82H93.7301L90.335 144.04L86.9127 148.82H83.1915ZM99.6933 154.796V135.348H102.79L103.17 137.277C103.605 136.679 104.175 136.154 104.881 135.701C105.605 135.249 106.538 135.022 107.679 135.022C108.946 135.022 110.078 135.33 111.074 135.946C112.07 136.561 112.858 137.403 113.437 138.472C114.016 139.54 114.306 140.753 114.306 142.111C114.306 143.47 114.016 144.683 113.437 145.751C112.858 146.801 112.07 147.634 111.074 148.25C110.078 148.847 108.946 149.146 107.679 149.146C106.665 149.146 105.777 148.956 105.017 148.576C104.256 148.196 103.641 147.661 103.17 146.973V154.796H99.6933ZM106.945 146.104C108.05 146.104 108.964 145.733 109.689 144.991C110.413 144.248 110.775 143.288 110.775 142.111C110.775 140.934 110.413 139.966 109.689 139.205C108.964 138.445 108.05 138.064 106.945 138.064C105.823 138.064 104.899 138.445 104.175 139.205C103.469 139.948 103.116 140.907 103.116 142.084C103.116 143.261 103.469 144.23 104.175 144.991C104.899 145.733 105.823 146.104 106.945 146.104ZM123.958 149.146C122.6 149.146 121.396 148.857 120.345 148.277C119.295 147.698 118.471 146.883 117.874 145.833C117.276 144.782 116.977 143.569 116.977 142.193C116.977 140.799 117.267 139.558 117.846 138.472C118.444 137.385 119.259 136.543 120.291 135.946C121.341 135.33 122.573 135.022 123.985 135.022C125.307 135.022 126.475 135.312 127.489 135.892C128.503 136.471 129.29 137.268 129.852 138.282C130.431 139.278 130.721 140.391 130.721 141.623C130.721 141.822 130.712 142.03 130.694 142.247C130.694 142.465 130.685 142.691 130.667 142.926H120.427C120.499 143.977 120.861 144.8 121.513 145.398C122.183 145.996 122.989 146.294 123.931 146.294C124.637 146.294 125.225 146.14 125.696 145.833C126.185 145.507 126.547 145.09 126.783 144.583H130.313C130.06 145.434 129.634 146.213 129.037 146.919C128.457 147.607 127.733 148.15 126.864 148.549C126.013 148.947 125.044 149.146 123.958 149.146ZM123.985 137.847C123.134 137.847 122.382 138.092 121.731 138.58C121.079 139.051 120.662 139.776 120.481 140.753H127.19C127.136 139.866 126.81 139.16 126.212 138.635C125.615 138.11 124.872 137.847 123.985 137.847ZM133.645 148.82V135.348H136.714L136.986 137.63C137.402 136.833 138 136.199 138.778 135.729C139.575 135.258 140.508 135.022 141.576 135.022C143.242 135.022 144.537 135.547 145.46 136.598C146.384 137.648 146.845 139.187 146.845 141.215V148.82H143.369V141.541C143.369 140.382 143.133 139.495 142.663 138.879C142.192 138.264 141.458 137.956 140.462 137.956C139.485 137.956 138.679 138.3 138.045 138.988C137.429 139.676 137.122 140.636 137.122 141.867V148.82H133.645ZM155.738 149.146C154.543 149.146 153.493 148.956 152.587 148.576C151.682 148.177 150.958 147.634 150.414 146.946C149.871 146.258 149.545 145.461 149.437 144.556H152.94C153.049 145.081 153.339 145.534 153.81 145.914C154.298 146.276 154.923 146.457 155.684 146.457C156.444 146.457 156.996 146.303 157.34 145.996C157.703 145.688 157.884 145.335 157.884 144.936C157.884 144.357 157.63 143.967 157.123 143.768C156.616 143.551 155.91 143.343 155.005 143.144C154.425 143.017 153.837 142.863 153.239 142.682C152.642 142.501 152.089 142.274 151.582 142.003C151.093 141.713 150.695 141.351 150.387 140.916C150.079 140.464 149.925 139.911 149.925 139.26C149.925 138.064 150.396 137.059 151.338 136.245C152.298 135.43 153.638 135.022 155.358 135.022C156.951 135.022 158.219 135.394 159.16 136.136C160.12 136.878 160.69 137.901 160.871 139.205H157.585C157.386 138.209 156.634 137.711 155.331 137.711C154.679 137.711 154.172 137.838 153.81 138.092C153.465 138.345 153.293 138.662 153.293 139.042C153.293 139.441 153.556 139.757 154.081 139.993C154.606 140.228 155.303 140.446 156.173 140.645C157.114 140.862 157.974 141.106 158.753 141.378C159.55 141.632 160.183 142.021 160.654 142.546C161.125 143.053 161.36 143.786 161.36 144.746C161.378 145.579 161.161 146.331 160.709 147.001C160.256 147.67 159.604 148.196 158.753 148.576C157.902 148.956 156.897 149.146 155.738 149.146ZM170.986 149.146C169.628 149.146 168.424 148.857 167.374 148.277C166.323 147.698 165.5 146.883 164.902 145.833C164.304 144.782 164.006 143.569 164.006 142.193C164.006 140.799 164.295 139.558 164.875 138.472C165.472 137.385 166.287 136.543 167.319 135.946C168.37 135.33 169.601 135.022 171.013 135.022C172.335 135.022 173.503 135.312 174.517 135.892C175.531 136.471 176.319 137.268 176.88 138.282C177.46 139.278 177.749 140.391 177.749 141.623C177.749 141.822 177.74 142.03 177.722 142.247C177.722 142.465 177.713 142.691 177.695 142.926H167.455C167.528 143.977 167.89 144.8 168.542 145.398C169.212 145.996 170.017 146.294 170.959 146.294C171.665 146.294 172.254 146.14 172.724 145.833C173.213 145.507 173.575 145.09 173.811 144.583H177.342C177.088 145.434 176.663 146.213 176.065 146.919C175.486 147.607 174.762 148.15 173.892 148.549C173.041 148.947 172.073 149.146 170.986 149.146ZM171.013 137.847C170.162 137.847 169.411 138.092 168.759 138.58C168.107 139.051 167.691 139.776 167.509 140.753H174.218C174.164 139.866 173.838 139.16 173.24 138.635C172.643 138.11 171.901 137.847 171.013 137.847ZM186.241 149.146C185.046 149.146 183.996 148.956 183.091 148.576C182.185 148.177 181.461 147.634 180.918 146.946C180.375 146.258 180.049 145.461 179.94 144.556H183.444C183.552 145.081 183.842 145.534 184.313 145.914C184.802 146.276 185.427 146.457 186.187 146.457C186.948 146.457 187.5 146.303 187.844 145.996C188.206 145.688 188.387 145.335 188.387 144.936C188.387 144.357 188.134 143.967 187.627 143.768C187.12 143.551 186.413 143.343 185.508 143.144C184.929 143.017 184.34 142.863 183.743 142.682C183.145 142.501 182.593 142.274 182.086 142.003C181.597 141.713 181.198 141.351 180.891 140.916C180.583 140.464 180.429 139.911 180.429 139.26C180.429 138.064 180.9 137.059 181.841 136.245C182.801 135.43 184.141 135.022 185.861 135.022C187.455 135.022 188.722 135.394 189.664 136.136C190.623 136.878 191.194 137.901 191.375 139.205H188.088C187.889 138.209 187.138 137.711 185.834 137.711C185.182 137.711 184.675 137.838 184.313 138.092C183.969 138.345 183.797 138.662 183.797 139.042C183.797 139.441 184.059 139.757 184.585 139.993C185.11 140.228 185.807 140.446 186.676 140.645C187.618 140.862 188.478 141.106 189.256 141.378C190.053 141.632 190.687 142.021 191.158 142.546C191.628 143.053 191.864 143.786 191.864 144.746C191.882 145.579 191.665 146.331 191.212 147.001C190.759 147.67 190.107 148.196 189.256 148.576C188.405 148.956 187.4 149.146 186.241 149.146Z" fill="#FFF176"/>
<path d="M118.926 185.318V166.305H131.203V169.103H122.402V174.427H129.519V177.17H122.402V185.318H118.926ZM139.552 185.644C138.249 185.644 137.072 185.346 136.021 184.748C134.989 184.15 134.165 183.327 133.55 182.276C132.952 181.208 132.653 179.977 132.653 178.582C132.653 177.188 132.961 175.966 133.577 174.916C134.193 173.847 135.016 173.014 136.049 172.417C137.099 171.819 138.276 171.52 139.58 171.52C140.865 171.52 142.024 171.819 143.056 172.417C144.106 173.014 144.93 173.847 145.528 174.916C146.144 175.966 146.451 177.188 146.451 178.582C146.451 179.977 146.144 181.208 145.528 182.276C144.93 183.327 144.106 184.15 143.056 184.748C142.006 185.346 140.838 185.644 139.552 185.644ZM139.552 182.629C140.458 182.629 141.245 182.294 141.915 181.624C142.585 180.936 142.92 179.922 142.92 178.582C142.92 177.242 142.585 176.237 141.915 175.567C141.245 174.879 140.467 174.535 139.58 174.535C138.656 174.535 137.859 174.879 137.189 175.567C136.537 176.237 136.212 177.242 136.212 178.582C136.212 179.922 136.537 180.936 137.189 181.624C137.859 182.294 138.647 182.629 139.552 182.629ZM156.024 185.644C154.721 185.644 153.544 185.346 152.493 184.748C151.461 184.15 150.637 183.327 150.022 182.276C149.424 181.208 149.125 179.977 149.125 178.582C149.125 177.188 149.433 175.966 150.049 174.916C150.664 173.847 151.488 173.014 152.52 172.417C153.571 171.819 154.748 171.52 156.051 171.52C157.337 171.52 158.496 171.819 159.528 172.417C160.578 173.014 161.402 173.847 162 174.916C162.615 175.966 162.923 177.188 162.923 178.582C162.923 179.977 162.615 181.208 162 182.276C161.402 183.327 160.578 184.15 159.528 184.748C158.478 185.346 157.31 185.644 156.024 185.644ZM156.024 182.629C156.93 182.629 157.717 182.294 158.387 181.624C159.057 180.936 159.392 179.922 159.392 178.582C159.392 177.242 159.057 176.237 158.387 175.567C157.717 174.879 156.939 174.535 156.051 174.535C155.128 174.535 154.331 174.879 153.661 175.567C153.009 176.237 152.683 177.242 152.683 178.582C152.683 179.922 153.009 180.936 153.661 181.624C154.331 182.294 155.119 182.629 156.024 182.629ZM172.225 185.644C170.957 185.644 169.825 185.336 168.829 184.721C167.833 184.105 167.046 183.263 166.466 182.195C165.887 181.126 165.597 179.913 165.597 178.555C165.597 177.197 165.887 175.993 166.466 174.943C167.046 173.874 167.833 173.041 168.829 172.444C169.825 171.828 170.957 171.52 172.225 171.52C173.239 171.52 174.126 171.711 174.886 172.091C175.647 172.471 176.262 173.005 176.733 173.693V165.762H180.21V185.318H177.114L176.733 183.39C176.299 183.987 175.719 184.513 174.995 184.965C174.289 185.418 173.365 185.644 172.225 185.644ZM172.958 182.602C174.081 182.602 174.995 182.231 175.701 181.489C176.425 180.728 176.788 179.759 176.788 178.582C176.788 177.405 176.425 176.446 175.701 175.703C174.995 174.943 174.081 174.562 172.958 174.562C171.853 174.562 170.939 174.934 170.215 175.676C169.49 176.418 169.128 177.378 169.128 178.555C169.128 179.732 169.49 180.701 170.215 181.461C170.939 182.222 171.853 182.602 172.958 182.602Z" fill="white"/>
<path d="M123.353 215.875V199.66H117.812V196.862H132.398V199.66H126.83V215.875H123.353ZM133.565 215.875V202.403H136.662L136.988 204.929C137.477 204.06 138.138 203.372 138.971 202.865C139.822 202.34 140.818 202.077 141.958 202.077V205.744H140.98C140.22 205.744 139.541 205.862 138.943 206.097C138.346 206.332 137.875 206.74 137.531 207.319C137.205 207.899 137.042 208.704 137.042 209.737V215.875H133.565ZM148.979 216.201C147.82 216.201 146.87 216.02 146.127 215.658C145.385 215.277 144.832 214.779 144.47 214.164C144.108 213.548 143.927 212.869 143.927 212.127C143.927 210.877 144.416 209.863 145.394 209.085C146.372 208.306 147.838 207.917 149.794 207.917H153.216V207.591C153.216 206.667 152.954 205.988 152.429 205.554C151.903 205.119 151.252 204.902 150.473 204.902C149.767 204.902 149.151 205.074 148.626 205.418C148.101 205.744 147.775 206.233 147.648 206.885H144.253C144.344 205.907 144.669 205.056 145.231 204.331C145.81 203.607 146.553 203.055 147.458 202.675C148.363 202.276 149.377 202.077 150.5 202.077C152.42 202.077 153.931 202.557 155.036 203.517C156.141 204.476 156.693 205.834 156.693 207.591V215.875H153.732L153.406 213.702C153.008 214.426 152.447 215.024 151.722 215.495C151.016 215.966 150.102 216.201 148.979 216.201ZM149.767 213.485C150.763 213.485 151.532 213.159 152.075 212.507C152.637 211.855 152.99 211.049 153.135 210.09H150.174C149.251 210.09 148.59 210.262 148.191 210.606C147.793 210.932 147.594 211.339 147.594 211.828C147.594 212.353 147.793 212.761 148.191 213.05C148.59 213.34 149.115 213.485 149.767 213.485ZM160.011 215.875V202.403H163.08L163.351 204.685C163.768 203.888 164.365 203.254 165.144 202.783C165.941 202.312 166.873 202.077 167.942 202.077C169.608 202.077 170.902 202.602 171.826 203.652C172.749 204.703 173.211 206.242 173.211 208.27V215.875H169.734V208.596C169.734 207.437 169.499 206.55 169.028 205.934C168.557 205.318 167.824 205.01 166.828 205.01C165.85 205.01 165.045 205.355 164.411 206.043C163.795 206.731 163.487 207.69 163.487 208.922V215.875H160.011ZM182.104 216.201C180.908 216.201 179.858 216.011 178.953 215.631C178.048 215.232 177.323 214.689 176.78 214.001C176.237 213.313 175.911 212.516 175.802 211.611H179.306C179.415 212.136 179.704 212.588 180.175 212.969C180.664 213.331 181.289 213.512 182.049 213.512C182.81 213.512 183.362 213.358 183.706 213.05C184.068 212.742 184.249 212.389 184.249 211.991C184.249 211.411 183.996 211.022 183.489 210.823C182.982 210.606 182.276 210.397 181.37 210.198C180.791 210.072 180.202 209.918 179.605 209.737C179.007 209.555 178.455 209.329 177.948 209.058C177.459 208.768 177.061 208.406 176.753 207.971C176.445 207.518 176.291 206.966 176.291 206.314C176.291 205.119 176.762 204.114 177.703 203.299C178.663 202.484 180.003 202.077 181.723 202.077C183.317 202.077 184.584 202.448 185.526 203.191C186.486 203.933 187.056 204.956 187.237 206.26H183.951C183.751 205.264 183 204.766 181.696 204.766C181.044 204.766 180.537 204.893 180.175 205.146C179.831 205.4 179.659 205.717 179.659 206.097C179.659 206.495 179.922 206.812 180.447 207.048C180.972 207.283 181.669 207.5 182.538 207.699C183.48 207.917 184.34 208.161 185.119 208.433C185.915 208.686 186.549 209.076 187.02 209.601C187.491 210.108 187.726 210.841 187.726 211.801C187.744 212.634 187.527 213.385 187.074 214.055C186.621 214.725 185.97 215.25 185.119 215.631C184.267 216.011 183.262 216.201 182.104 216.201ZM190.806 221.85V202.403H193.902L194.282 204.331C194.717 203.734 195.287 203.209 195.994 202.756C196.718 202.303 197.65 202.077 198.791 202.077C200.059 202.077 201.191 202.385 202.186 203.001C203.182 203.616 203.97 204.458 204.549 205.527C205.129 206.595 205.419 207.808 205.419 209.166C205.419 210.524 205.129 211.737 204.549 212.806C203.97 213.856 203.182 214.689 202.186 215.305C201.191 215.902 200.059 216.201 198.791 216.201C197.777 216.201 196.89 216.011 196.129 215.631C195.369 215.25 194.753 214.716 194.282 214.028V221.85H190.806ZM198.058 213.159C199.162 213.159 200.077 212.788 200.801 212.045C201.526 211.303 201.888 210.343 201.888 209.166C201.888 207.989 201.526 207.02 200.801 206.26C200.077 205.499 199.162 205.119 198.058 205.119C196.935 205.119 196.012 205.499 195.287 206.26C194.581 207.002 194.228 207.962 194.228 209.139C194.228 210.316 194.581 211.285 195.287 212.045C196.012 212.788 196.935 213.159 198.058 213.159ZM214.989 216.201C213.685 216.201 212.508 215.902 211.458 215.305C210.426 214.707 209.602 213.883 208.986 212.833C208.389 211.765 208.09 210.533 208.09 209.139C208.09 207.745 208.398 206.522 209.013 205.472C209.629 204.404 210.453 203.571 211.485 202.973C212.535 202.376 213.712 202.077 215.016 202.077C216.302 202.077 217.46 202.376 218.493 202.973C219.543 203.571 220.367 204.404 220.964 205.472C221.58 206.522 221.888 207.745 221.888 209.139C221.888 210.533 221.58 211.765 220.964 212.833C220.367 213.883 219.543 214.707 218.493 215.305C217.442 215.902 216.274 216.201 214.989 216.201ZM214.989 213.186C215.894 213.186 216.682 212.851 217.352 212.181C218.022 211.493 218.357 210.479 218.357 209.139C218.357 207.799 218.022 206.794 217.352 206.124C216.682 205.436 215.903 205.092 215.016 205.092C214.092 205.092 213.296 205.436 212.626 206.124C211.974 206.794 211.648 207.799 211.648 209.139C211.648 210.479 211.974 211.493 212.626 212.181C213.296 212.851 214.083 213.186 214.989 213.186ZM224.996 215.875V202.403H228.093L228.419 204.929C228.907 204.06 229.568 203.372 230.401 202.865C231.252 202.34 232.248 202.077 233.389 202.077V205.744H232.411C231.651 205.744 230.972 205.862 230.374 206.097C229.777 206.332 229.306 206.74 228.962 207.319C228.636 207.899 228.473 208.704 228.473 209.737V215.875H224.996ZM241.768 215.875C240.356 215.875 239.224 215.531 238.373 214.843C237.522 214.155 237.096 212.933 237.096 211.176V205.309H234.787V202.403H237.096L237.504 198.791H240.573V202.403H244.212V205.309H240.573V211.203C240.573 211.855 240.709 212.308 240.98 212.561C241.27 212.797 241.759 212.914 242.447 212.914H244.131V215.875H241.768Z" fill="white"/>
<path d="M118.926 246.432V227.419H125.417C127.644 227.419 129.473 227.817 130.904 228.614C132.352 229.392 133.421 230.497 134.109 231.927C134.815 233.34 135.168 235.006 135.168 236.925C135.168 238.845 134.815 240.52 134.109 241.95C133.421 243.362 132.352 244.467 130.904 245.264C129.473 246.042 127.644 246.432 125.417 246.432H118.926ZM122.402 243.444H125.254C126.848 243.444 128.106 243.19 129.03 242.683C129.953 242.158 130.614 241.416 131.012 240.456C131.411 239.478 131.61 238.301 131.61 236.925C131.61 235.567 131.411 234.399 131.012 233.421C130.614 232.444 129.953 231.692 129.03 231.167C128.106 230.642 126.848 230.379 125.254 230.379H122.402V243.444ZM142.799 246.758C141.64 246.758 140.689 246.577 139.947 246.214C139.204 245.834 138.652 245.336 138.29 244.72C137.928 244.105 137.747 243.426 137.747 242.683C137.747 241.434 138.236 240.42 139.214 239.641C140.191 238.863 141.658 238.473 143.614 238.473H147.036V238.147C147.036 237.224 146.773 236.545 146.248 236.11C145.723 235.676 145.071 235.458 144.293 235.458C143.586 235.458 142.971 235.63 142.446 235.975C141.921 236.3 141.595 236.789 141.468 237.441H138.073C138.163 236.463 138.489 235.612 139.051 234.888C139.63 234.164 140.372 233.611 141.278 233.231C142.183 232.833 143.197 232.634 144.32 232.634C146.239 232.634 147.751 233.114 148.856 234.073C149.96 235.033 150.513 236.391 150.513 238.147V246.432H147.552L147.226 244.259C146.828 244.983 146.266 245.581 145.542 246.051C144.836 246.522 143.921 246.758 142.799 246.758ZM143.586 244.041C144.582 244.041 145.352 243.716 145.895 243.064C146.457 242.412 146.81 241.606 146.955 240.646H143.994C143.07 240.646 142.41 240.818 142.011 241.162C141.613 241.488 141.414 241.896 141.414 242.385C141.414 242.91 141.613 243.317 142.011 243.607C142.41 243.897 142.935 244.041 143.586 244.041ZM159.647 246.432C158.235 246.432 157.103 246.088 156.252 245.4C155.401 244.711 154.976 243.489 154.976 241.733V235.866H152.667V232.96H154.976L155.383 229.347H158.452V232.96H162.092V235.866H158.452V241.76C158.452 242.412 158.588 242.864 158.86 243.118C159.149 243.353 159.638 243.471 160.326 243.471H162.01V246.432H159.647ZM169.721 246.758C168.563 246.758 167.612 246.577 166.869 246.214C166.127 245.834 165.575 245.336 165.213 244.72C164.85 244.105 164.669 243.426 164.669 242.683C164.669 241.434 165.158 240.42 166.136 239.641C167.114 238.863 168.581 238.473 170.536 238.473H173.959V238.147C173.959 237.224 173.696 236.545 173.171 236.11C172.646 235.676 171.994 235.458 171.215 235.458C170.509 235.458 169.893 235.63 169.368 235.975C168.843 236.3 168.517 236.789 168.391 237.441H164.995C165.086 236.463 165.412 235.612 165.973 234.888C166.553 234.164 167.295 233.611 168.2 233.231C169.106 232.833 170.12 232.634 171.242 232.634C173.162 232.634 174.674 233.114 175.778 234.073C176.883 235.033 177.435 236.391 177.435 238.147V246.432H174.475L174.149 244.259C173.75 244.983 173.189 245.581 172.465 246.051C171.759 246.522 170.844 246.758 169.721 246.758ZM170.509 244.041C171.505 244.041 172.275 243.716 172.818 243.064C173.379 242.412 173.732 241.606 173.877 240.646H170.917C169.993 240.646 169.332 240.818 168.934 241.162C168.535 241.488 168.336 241.896 168.336 242.385C168.336 242.91 168.535 243.317 168.934 243.607C169.332 243.897 169.857 244.041 170.509 244.041Z" fill="white"/>
<rect x="67" y="163.411" width="43.2884" height="26.3125" rx="6.79033" fill="#FFF176"/>
<rect x="67" y="193.967" width="43.2884" height="26.3125" rx="6.79033" fill="#D38200"/>
<rect x="67" y="224.524" width="43.2884" height="26.3125" rx="6.79033" fill="#7E57C2"/>
<g filter="url(#filter0_d_463_625)">
<path d="M408 183C408 152.379 417.694 122.544 435.693 97.7711C453.691 72.9982 479.07 54.5592 508.193 45.0968L539.558 141.629C530.821 144.468 523.207 149.999 517.808 157.431C512.408 164.863 509.5 173.814 509.5 183L408 183Z" fill="#D38200"/>
</g>
<g filter="url(#filter1_d_463_625)">
<path d="M433.203 264.692C415.951 239.394 407.151 209.283 408.064 178.676L509.519 181.703C509.245 190.885 511.885 199.918 517.061 207.508L433.203 264.692Z" fill="#7E57C2"/>
</g>
<g filter="url(#filter2_d_463_625)">
<path d="M507.025 45.4815C528.727 38.2262 551.838 36.2102 574.468 39.5981C597.099 42.986 618.606 51.6818 637.232 64.9744C655.857 78.2671 671.073 95.7791 681.633 116.079C692.194 136.379 697.801 158.889 697.995 181.771L596.498 182.631C596.44 175.767 594.758 169.014 591.59 162.924C588.422 156.834 583.857 151.58 578.269 147.592C572.682 143.605 566.23 140.996 559.441 139.979C552.651 138.963 545.718 139.568 539.208 141.744L507.025 45.4815Z" fill="#FFF176"/>
</g>
<g filter="url(#filter3_d_463_625)">
<path d="M698 183C698 213.621 688.306 243.456 670.307 268.229C652.309 293.002 626.93 311.441 597.807 320.903C568.685 330.366 537.315 330.366 508.193 320.903C479.07 311.441 453.691 293.002 435.693 268.229L517.808 208.569C523.207 216.001 530.821 221.532 539.558 224.371C548.294 227.21 557.706 227.21 566.442 224.371C575.179 221.532 582.793 216.001 588.192 208.569C593.592 201.137 596.5 192.186 596.5 183H698Z" fill="#FF0799"/>
</g>
<g filter="url(#filter4_b_463_625)">
<rect x="477" y="285" width="76" height="52" rx="15" fill="#F3F3F3" fill-opacity="0.67"/>
<rect x="476.5" y="284.5" width="77" height="53" rx="15.5" stroke="white"/>
</g>
<path d="M493.416 323V318.84H482.376V315.576L492.872 300.6H497.512V315.288H500.456V318.84H497.512V323H493.416ZM486.76 315.288H493.672V305.112L486.76 315.288ZM512.86 323.384C510.791 323.384 509.02 322.904 507.548 321.944C506.076 320.963 504.935 319.608 504.124 317.88C503.335 316.131 502.94 314.104 502.94 311.8C502.94 309.517 503.335 307.501 504.124 305.752C504.935 304.003 506.076 302.648 507.548 301.688C509.02 300.707 510.791 300.216 512.86 300.216C514.929 300.216 516.7 300.707 518.172 301.688C519.644 302.648 520.775 304.003 521.564 305.752C522.375 307.501 522.78 309.517 522.78 311.8C522.78 314.104 522.375 316.131 521.564 317.88C520.775 319.608 519.644 320.963 518.172 321.944C516.7 322.904 514.929 323.384 512.86 323.384ZM512.86 319.704C514.545 319.704 515.921 319 516.988 317.592C518.055 316.184 518.588 314.253 518.588 311.8C518.588 309.347 518.055 307.416 516.988 306.008C515.921 304.6 514.545 303.896 512.86 303.896C511.153 303.896 509.767 304.6 508.7 306.008C507.655 307.416 507.132 309.347 507.132 311.8C507.132 314.253 507.655 316.184 508.7 317.592C509.767 319 511.153 319.704 512.86 319.704ZM531.003 311.608C529.979 311.608 529.051 311.384 528.219 310.936C527.387 310.467 526.725 309.805 526.235 308.952C525.744 308.099 525.499 307.085 525.499 305.912C525.499 304.739 525.744 303.725 526.235 302.872C526.725 302.019 527.387 301.368 528.219 300.92C529.051 300.451 529.989 300.216 531.035 300.216C532.059 300.216 532.976 300.451 533.787 300.92C534.619 301.368 535.28 302.019 535.771 302.872C536.261 303.725 536.507 304.739 536.507 305.912C536.507 307.085 536.261 308.099 535.771 308.952C535.28 309.805 534.619 310.467 533.787 310.936C532.955 311.384 532.027 311.608 531.003 311.608ZM529.787 323L542.427 300.6H546.427L533.787 323H529.787ZM531.003 308.76C531.621 308.76 532.155 308.525 532.603 308.056C533.051 307.565 533.275 306.851 533.275 305.912C533.275 304.973 533.051 304.259 532.603 303.768C532.176 303.277 531.643 303.032 531.003 303.032C530.363 303.032 529.819 303.277 529.371 303.768C528.944 304.259 528.731 304.973 528.731 305.912C528.731 306.851 528.944 307.565 529.371 308.056C529.819 308.525 530.363 308.76 531.003 308.76ZM545.339 323.384C544.315 323.384 543.387 323.16 542.555 322.712C541.723 322.243 541.061 321.581 540.571 320.728C540.08 319.875 539.835 318.861 539.835 317.688C539.835 316.515 540.08 315.512 540.571 314.68C541.061 313.827 541.723 313.176 542.555 312.728C543.387 312.259 544.325 312.024 545.371 312.024C546.395 312.024 547.312 312.259 548.123 312.728C548.955 313.176 549.616 313.827 550.107 314.68C550.597 315.512 550.843 316.515 550.843 317.688C550.843 318.861 550.597 319.875 550.107 320.728C549.616 321.581 548.955 322.243 548.123 322.712C547.312 323.16 546.384 323.384 545.339 323.384ZM545.339 320.536C545.979 320.536 546.512 320.301 546.939 319.832C547.387 319.341 547.611 318.627 547.611 317.688C547.611 316.749 547.387 316.035 546.939 315.544C546.512 315.053 545.979 314.808 545.339 314.808C544.699 314.808 544.155 315.053 543.707 315.544C543.28 316.035 543.067 316.749 543.067 317.688C543.067 318.627 543.28 319.341 543.707 319.832C544.155 320.301 544.699 320.536 545.339 320.536Z" fill="#FF0799"/>
<g filter="url(#filter5_b_463_625)">
<rect x="618" y="85" width="76" height="52" rx="15" fill="#F3F3F3" fill-opacity="0.67"/>
<rect x="617.5" y="84.5" width="77" height="53" rx="15.5" stroke="white"/>
</g>
<path d="M627.504 117.384C626.032 117.384 624.699 117.128 623.504 116.616C622.309 116.083 621.349 115.272 620.624 114.184C619.899 113.096 619.515 111.731 619.472 110.088H623.504C623.525 111.176 623.877 112.093 624.56 112.84C625.264 113.565 626.245 113.928 627.504 113.928C628.699 113.928 629.616 113.597 630.256 112.936C630.896 112.275 631.216 111.443 631.216 110.44C631.216 109.267 630.789 108.381 629.936 107.784C629.104 107.165 628.027 106.856 626.704 106.856H625.04V103.496H626.736C627.824 103.496 628.731 103.24 629.456 102.728C630.181 102.216 630.544 101.459 630.544 100.456C630.544 99.624 630.267 98.9627 629.712 98.472C629.179 97.96 628.432 97.704 627.472 97.704C626.427 97.704 625.605 98.0133 625.008 98.632C624.432 99.2507 624.112 100.008 624.048 100.904H620.048C620.133 98.8347 620.848 97.2027 622.192 96.008C623.557 94.8133 625.317 94.216 627.472 94.216C629.008 94.216 630.299 94.4933 631.344 95.048C632.411 95.5813 633.211 96.296 633.744 97.192C634.299 98.088 634.576 99.08 634.576 100.168C634.576 101.427 634.224 102.493 633.52 103.368C632.837 104.221 631.984 104.797 630.96 105.096C632.219 105.352 633.243 105.971 634.032 106.952C634.821 107.912 635.216 109.128 635.216 110.6C635.216 111.837 634.917 112.968 634.32 113.992C633.723 115.016 632.848 115.837 631.696 116.456C630.565 117.075 629.168 117.384 627.504 117.384ZM648.423 117.384C646.353 117.384 644.583 116.904 643.111 115.944C641.639 114.963 640.497 113.608 639.687 111.88C638.897 110.131 638.503 108.104 638.503 105.8C638.503 103.517 638.897 101.501 639.687 99.752C640.497 98.0027 641.639 96.648 643.111 95.688C644.583 94.7067 646.353 94.216 648.423 94.216C650.492 94.216 652.263 94.7067 653.735 95.688C655.207 96.648 656.337 98.0027 657.127 99.752C657.937 101.501 658.343 103.517 658.343 105.8C658.343 108.104 657.937 110.131 657.127 111.88C656.337 113.608 655.207 114.963 653.735 115.944C652.263 116.904 650.492 117.384 648.423 117.384ZM648.423 113.704C650.108 113.704 651.484 113 652.551 111.592C653.617 110.184 654.151 108.253 654.151 105.8C654.151 103.347 653.617 101.416 652.551 100.008C651.484 98.6 650.108 97.896 648.423 97.896C646.716 97.896 645.329 98.6 644.263 100.008C643.217 101.416 642.695 103.347 642.695 105.8C642.695 108.253 643.217 110.184 644.263 111.592C645.329 113 646.716 113.704 648.423 113.704ZM666.565 105.608C665.541 105.608 664.613 105.384 663.781 104.936C662.949 104.467 662.288 103.805 661.797 102.952C661.307 102.099 661.061 101.085 661.061 99.912C661.061 98.7387 661.307 97.7253 661.797 96.872C662.288 96.0187 662.949 95.368 663.781 94.92C664.613 94.4507 665.552 94.216 666.597 94.216C667.621 94.216 668.539 94.4507 669.349 94.92C670.181 95.368 670.843 96.0187 671.333 96.872C671.824 97.7253 672.069 98.7387 672.069 99.912C672.069 101.085 671.824 102.099 671.333 102.952C670.843 103.805 670.181 104.467 669.349 104.936C668.517 105.384 667.589 105.608 666.565 105.608ZM665.349 117L677.989 94.6H681.989L669.349 117H665.349ZM666.565 102.76C667.184 102.76 667.717 102.525 668.165 102.056C668.613 101.565 668.837 100.851 668.837 99.912C668.837 98.9733 668.613 98.2587 668.165 97.768C667.739 97.2773 667.205 97.032 666.565 97.032C665.925 97.032 665.381 97.2773 664.933 97.768C664.507 98.2587 664.293 98.9733 664.293 99.912C664.293 100.851 664.507 101.565 664.933 102.056C665.381 102.525 665.925 102.76 666.565 102.76ZM680.901 117.384C679.877 117.384 678.949 117.16 678.117 116.712C677.285 116.243 676.624 115.581 676.133 114.728C675.643 113.875 675.397 112.861 675.397 111.688C675.397 110.515 675.643 109.512 676.133 108.68C676.624 107.827 677.285 107.176 678.117 106.728C678.949 106.259 679.888 106.024 680.933 106.024C681.957 106.024 682.875 106.259 683.685 106.728C684.517 107.176 685.179 107.827 685.669 108.68C686.16 109.512 686.405 110.515 686.405 111.688C686.405 112.861 686.16 113.875 685.669 114.728C685.179 115.581 684.517 116.243 683.685 116.712C682.875 117.16 681.947 117.384 680.901 117.384ZM680.901 114.536C681.541 114.536 682.075 114.301 682.501 113.832C682.949 113.341 683.173 112.627 683.173 111.688C683.173 110.749 682.949 110.035 682.501 109.544C682.075 109.053 681.541 108.808 680.901 108.808C680.261 108.808 679.717 109.053 679.269 109.544C678.843 110.035 678.629 110.749 678.629 111.688C678.629 112.627 678.843 113.341 679.269 113.832C679.717 114.301 680.261 114.536 680.901 114.536Z" fill="#FFF176"/>
<defs>
<filter id="filter0_d_463_625" x="403" y="40.0967" width="151.558" height="157.903" filterUnits="userSpaceOnUse" color-interpolation-filters="sRGB">
<feFlood flood-opacity="0" result="BackgroundImageFix"/>
<feColorMatrix in="SourceAlpha" type="matrix" values="0 0 0 0 0 0 0 0 0 0 0 0 0 0 0 0 0 0 127 0" result="hardAlpha"/>
<feOffset dx="5" dy="5"/>
<feGaussianBlur stdDeviation="5"/>
<feComposite in2="hardAlpha" operator="out"/>
<feColorMatrix type="matrix" values="0 0 0 0 0 0 0 0 0 0 0 0 0 0 0 0 0 0 0.25 0"/>
<feBlend mode="normal" in2="BackgroundImageFix" result="effect1_dropShadow_463_625"/>
<feBlend mode="normal" in="SourceGraphic" in2="effect1_dropShadow_463_625" result="shape"/>
</filter>
<filter id="filter1_d_463_625" x="403" y="173.676" width="129.061" height="106.017" filterUnits="userSpaceOnUse" color-interpolation-filters="sRGB">
<feFlood flood-opacity="0" result="BackgroundImageFix"/>
<feColorMatrix in="SourceAlpha" type="matrix" values="0 0 0 0 0 0 0 0 0 0 0 0 0 0 0 0 0 0 127 0" result="hardAlpha"/>
<feOffset dx="5" dy="5"/>
<feGaussianBlur stdDeviation="5"/>
<feComposite in2="hardAlpha" operator="out"/>
<feColorMatrix type="matrix" values="0 0 0 0 0 0 0 0 0 0 0 0 0 0 0 0 0 0 0.25 0"/>
<feBlend mode="normal" in2="BackgroundImageFix" result="effect1_dropShadow_463_625"/>
<feBlend mode="normal" in="SourceGraphic" in2="effect1_dropShadow_463_625" result="shape"/>
</filter>
<filter id="filter2_d_463_625" x="502.025" y="33" width="210.969" height="164.632" filterUnits="userSpaceOnUse" color-interpolation-filters="sRGB">
<feFlood flood-opacity="0" result="BackgroundImageFix"/>
<feColorMatrix in="SourceAlpha" type="matrix" values="0 0 0 0 0 0 0 0 0 0 0 0 0 0 0 0 0 0 127 0" result="hardAlpha"/>
<feOffset dx="5" dy="5"/>
<feGaussianBlur stdDeviation="5"/>
<feComposite in2="hardAlpha" operator="out"/>
<feColorMatrix type="matrix" values="0 0 0 0 0 0 0 0 0 0 0 0 0 0 0 0 0 0 0.25 0"/>
<feBlend mode="normal" in2="BackgroundImageFix" result="effect1_dropShadow_463_625"/>
<feBlend mode="normal" in="SourceGraphic" in2="effect1_dropShadow_463_625" result="shape"/>
</filter>
<filter id="filter3_d_463_625" x="430.693" y="178" width="282.307" height="165" filterUnits="userSpaceOnUse" color-interpolation-filters="sRGB">
<feFlood flood-opacity="0" result="BackgroundImageFix"/>
<feColorMatrix in="SourceAlpha" type="matrix" values="0 0 0 0 0 0 0 0 0 0 0 0 0 0 0 0 0 0 127 0" result="hardAlpha"/>
<feOffset dx="5" dy="5"/>
<feGaussianBlur stdDeviation="5"/>
<feComposite in2="hardAlpha" operator="out"/>
<feColorMatrix type="matrix" values="0 0 0 0 0 0 0 0 0 0 0 0 0 0 0 0 0 0 0.25 0"/>
<feBlend mode="normal" in2="BackgroundImageFix" result="effect1_dropShadow_463_625"/>
<feBlend mode="normal" in="SourceGraphic" in2="effect1_dropShadow_463_625" result="shape"/>
</filter>
<filter id="filter4_b_463_625" x="436" y="244" width="158" height="134" filterUnits="userSpaceOnUse" color-interpolation-filters="sRGB">
<feFlood flood-opacity="0" result="BackgroundImageFix"/>
<feGaussianBlur in="BackgroundImageFix" stdDeviation="20"/>
<feComposite in2="SourceAlpha" operator="in" result="effect1_backgroundBlur_463_625"/>
<feBlend mode="normal" in="SourceGraphic" in2="effect1_backgroundBlur_463_625" result="shape"/>
</filter>
<filter id="filter5_b_463_625" x="577" y="44" width="158" height="134" filterUnits="userSpaceOnUse" color-interpolation-filters="sRGB">
<feFlood flood-opacity="0" result="BackgroundImageFix"/>
<feGaussianBlur in="BackgroundImageFix" stdDeviation="20"/>
<feComposite in2="SourceAlpha" operator="in" result="effect1_backgroundBlur_463_625"/>
<feBlend mode="normal" in="SourceGraphic" in2="effect1_backgroundBlur_463_625" result="shape"/>
</filter>
</defs>
</svg>
