<svg width="700" height="312" viewBox="0 0 700 312" fill="none" xmlns="http://www.w3.org/2000/svg">
<rect width="700" height="312" fill="white"/>
<rect x="47" y="55" width="606" height="202" rx="15" fill="white"/>
<path d="M231 156C231 199.63 195.63 235 152 235C108.37 235 73 199.63 73 156C73 112.37 108.37 77 152 77C195.63 77 231 112.37 231 156ZM102.279 156C102.279 183.46 124.54 205.721 152 205.721C179.46 205.721 201.721 183.46 201.721 156C201.721 128.54 179.46 106.279 152 106.279C124.54 106.279 102.279 128.54 102.279 156Z" fill="#CA78DC"/>
<path d="M231 156C231 171.625 226.367 186.899 217.686 199.89C209.005 212.882 196.667 223.007 182.232 228.986C167.797 234.966 151.912 236.53 136.588 233.482C121.263 230.434 107.187 222.91 96.1386 211.861C85.0902 200.813 77.5662 186.737 74.518 171.412C71.4697 156.088 73.0342 140.203 79.0135 125.768C84.9928 111.333 95.1185 98.9945 108.11 90.3139C121.101 81.6333 136.375 77 152 77L152 106.279C142.166 106.279 132.553 109.195 124.376 114.658C116.2 120.122 109.827 127.887 106.064 136.973C102.3 146.058 101.316 156.055 103.234 165.7C105.153 175.345 109.888 184.205 116.842 191.158C123.795 198.112 132.655 202.847 142.3 204.766C151.945 206.684 161.942 205.7 171.027 201.936C180.113 198.173 187.878 191.8 193.342 183.624C198.805 175.447 201.721 165.834 201.721 156H231Z" fill="#7F0799"/>
<path d="M307.28 135.48C305.227 135.48 303.413 135.133 301.84 134.44C300.267 133.72 299.027 132.707 298.12 131.4C297.213 130.067 296.747 128.453 296.72 126.56H302.12C302.173 127.867 302.64 128.973 303.52 129.88C304.427 130.76 305.667 131.2 307.24 131.2C308.6 131.2 309.68 130.88 310.48 130.24C311.28 129.573 311.68 128.693 311.68 127.6C311.68 126.453 311.32 125.56 310.6 124.92C309.907 124.28 308.973 123.76 307.8 123.36C306.627 122.96 305.373 122.533 304.04 122.08C301.88 121.333 300.227 120.373 299.08 119.2C297.96 118.027 297.4 116.467 297.4 114.52C297.373 112.867 297.76 111.453 298.56 110.28C299.387 109.08 300.507 108.16 301.92 107.52C303.333 106.853 304.96 106.52 306.8 106.52C308.667 106.52 310.307 106.853 311.72 107.52C313.16 108.187 314.28 109.12 315.08 110.32C315.907 111.52 316.347 112.947 316.4 114.6H310.92C310.893 113.613 310.507 112.747 309.76 112C309.04 111.227 308.027 110.84 306.72 110.84C305.6 110.813 304.653 111.093 303.88 111.68C303.133 112.24 302.76 113.067 302.76 114.16C302.76 115.093 303.053 115.84 303.64 116.4C304.227 116.933 305.027 117.387 306.04 117.76C307.053 118.133 308.213 118.533 309.52 118.96C310.907 119.44 312.173 120 313.32 120.64C314.467 121.28 315.387 122.133 316.08 123.2C316.773 124.24 317.12 125.587 317.12 127.24C317.12 128.707 316.747 130.067 316 131.32C315.253 132.573 314.147 133.587 312.68 134.36C311.213 135.107 309.413 135.48 307.28 135.48ZM331.187 135.48C329.161 135.48 327.374 135.04 325.827 134.16C324.281 133.28 323.054 132.053 322.147 130.48C321.267 128.907 320.827 127.107 320.827 125.08C320.827 123.053 321.267 121.253 322.147 119.68C323.054 118.107 324.281 116.88 325.827 116C327.374 115.12 329.161 114.68 331.187 114.68C333.721 114.68 335.854 115.347 337.587 116.68C339.321 117.987 340.427 119.8 340.907 122.12H335.507C335.241 121.16 334.707 120.413 333.907 119.88C333.134 119.32 332.214 119.04 331.147 119.04C329.734 119.04 328.534 119.573 327.547 120.64C326.561 121.707 326.067 123.187 326.067 125.08C326.067 126.973 326.561 128.453 327.547 129.52C328.534 130.587 329.734 131.12 331.147 131.12C332.214 131.12 333.134 130.853 333.907 130.32C334.707 129.787 335.241 129.027 335.507 128.04H340.907C340.427 130.28 339.321 132.08 337.587 133.44C335.854 134.8 333.721 135.48 331.187 135.48ZM345.452 135V106.2H350.572V118.2C351.238 117.107 352.132 116.253 353.252 115.64C354.398 115 355.705 114.68 357.172 114.68C359.625 114.68 361.518 115.453 362.852 117C364.212 118.547 364.892 120.813 364.892 123.8V135H359.812V124.28C359.812 122.573 359.465 121.267 358.772 120.36C358.105 119.453 357.038 119 355.572 119C354.132 119 352.932 119.507 351.972 120.52C351.038 121.533 350.572 122.947 350.572 124.76V135H345.452ZM379.308 135.48C377.388 135.48 375.654 135.04 374.108 134.16C372.588 133.28 371.374 132.067 370.468 130.52C369.588 128.947 369.148 127.133 369.148 125.08C369.148 123.027 369.601 121.227 370.508 119.68C371.414 118.107 372.628 116.88 374.148 116C375.694 115.12 377.428 114.68 379.348 114.68C381.241 114.68 382.948 115.12 384.468 116C386.014 116.88 387.228 118.107 388.108 119.68C389.014 121.227 389.468 123.027 389.468 125.08C389.468 127.133 389.014 128.947 388.108 130.52C387.228 132.067 386.014 133.28 384.468 134.16C382.921 135.04 381.201 135.48 379.308 135.48ZM379.308 131.04C380.641 131.04 381.801 130.547 382.788 129.56C383.774 128.547 384.268 127.053 384.268 125.08C384.268 123.107 383.774 121.627 382.788 120.64C381.801 119.627 380.654 119.12 379.348 119.12C377.988 119.12 376.814 119.627 375.828 120.64C374.868 121.627 374.388 123.107 374.388 125.08C374.388 127.053 374.868 128.547 375.828 129.56C376.814 130.547 377.974 131.04 379.308 131.04ZM403.565 135.48C401.645 135.48 399.912 135.04 398.365 134.16C396.845 133.28 395.632 132.067 394.725 130.52C393.845 128.947 393.405 127.133 393.405 125.08C393.405 123.027 393.859 121.227 394.765 119.68C395.672 118.107 396.885 116.88 398.405 116C399.952 115.12 401.685 114.68 403.605 114.68C405.499 114.68 407.205 115.12 408.725 116C410.272 116.88 411.485 118.107 412.365 119.68C413.272 121.227 413.725 123.027 413.725 125.08C413.725 127.133 413.272 128.947 412.365 130.52C411.485 132.067 410.272 133.28 408.725 134.16C407.179 135.04 405.459 135.48 403.565 135.48ZM403.565 131.04C404.899 131.04 406.059 130.547 407.045 129.56C408.032 128.547 408.525 127.053 408.525 125.08C408.525 123.107 408.032 121.627 407.045 120.64C406.059 119.627 404.912 119.12 403.605 119.12C402.245 119.12 401.072 119.627 400.085 120.64C399.125 121.627 398.645 123.107 398.645 125.08C398.645 127.053 399.125 128.547 400.085 129.56C401.072 130.547 402.232 131.04 403.565 131.04ZM418.303 135V106.2H423.423V135H418.303ZM438.306 135V107H456.386V111.12H443.426V118.96H453.906V123H443.426V135H438.306ZM468.803 135.48C466.803 135.48 465.029 135.053 463.483 134.2C461.936 133.347 460.723 132.147 459.843 130.6C458.963 129.053 458.523 127.267 458.523 125.24C458.523 123.187 458.949 121.36 459.803 119.76C460.683 118.16 461.883 116.92 463.403 116.04C464.949 115.133 466.763 114.68 468.843 114.68C470.789 114.68 472.509 115.107 474.003 115.96C475.496 116.813 476.656 117.987 477.483 119.48C478.336 120.947 478.763 122.587 478.763 124.4C478.763 124.693 478.749 125 478.723 125.32C478.723 125.64 478.709 125.973 478.683 126.32H463.603C463.709 127.867 464.243 129.08 465.203 129.96C466.189 130.84 467.376 131.28 468.763 131.28C469.803 131.28 470.669 131.053 471.363 130.6C472.083 130.12 472.616 129.507 472.963 128.76H478.163C477.789 130.013 477.163 131.16 476.283 132.2C475.429 133.213 474.363 134.013 473.083 134.6C471.829 135.187 470.403 135.48 468.803 135.48ZM468.843 118.84C467.589 118.84 466.483 119.2 465.523 119.92C464.563 120.613 463.949 121.68 463.683 123.12H473.563C473.483 121.813 473.003 120.773 472.123 120C471.243 119.227 470.149 118.84 468.843 118.84ZM492.709 135.48C490.709 135.48 488.935 135.053 487.389 134.2C485.842 133.347 484.629 132.147 483.749 130.6C482.869 129.053 482.429 127.267 482.429 125.24C482.429 123.187 482.855 121.36 483.709 119.76C484.589 118.16 485.789 116.92 487.309 116.04C488.855 115.133 490.669 114.68 492.749 114.68C494.695 114.68 496.415 115.107 497.909 115.96C499.402 116.813 500.562 117.987 501.389 119.48C502.242 120.947 502.669 122.587 502.669 124.4C502.669 124.693 502.655 125 502.629 125.32C502.629 125.64 502.615 125.973 502.589 126.32H487.509C487.615 127.867 488.149 129.08 489.109 129.96C490.095 130.84 491.282 131.28 492.669 131.28C493.709 131.28 494.575 131.053 495.269 130.6C495.989 130.12 496.522 129.507 496.869 128.76H502.069C501.695 130.013 501.069 131.16 500.189 132.2C499.335 133.213 498.269 134.013 496.989 134.6C495.735 135.187 494.309 135.48 492.709 135.48ZM492.749 118.84C491.495 118.84 490.389 119.2 489.429 119.92C488.469 120.613 487.855 121.68 487.589 123.12H497.469C497.389 121.813 496.909 120.773 496.029 120C495.149 119.227 494.055 118.84 492.749 118.84ZM515.175 135.48C513.415 135.48 511.868 135.2 510.535 134.64C509.202 134.053 508.135 133.253 507.335 132.24C506.535 131.227 506.055 130.053 505.895 128.72H511.055C511.215 129.493 511.642 130.16 512.335 130.72C513.055 131.253 513.975 131.52 515.095 131.52C516.215 131.52 517.028 131.293 517.535 130.84C518.068 130.387 518.335 129.867 518.335 129.28C518.335 128.427 517.962 127.853 517.215 127.56C516.468 127.24 515.428 126.933 514.095 126.64C513.242 126.453 512.375 126.227 511.495 125.96C510.615 125.693 509.802 125.36 509.055 124.96C508.335 124.533 507.748 124 507.295 123.36C506.842 122.693 506.615 121.88 506.615 120.92C506.615 119.16 507.308 117.68 508.695 116.48C510.108 115.28 512.082 114.68 514.615 114.68C516.962 114.68 518.828 115.227 520.215 116.32C521.628 117.413 522.468 118.92 522.735 120.84H517.895C517.602 119.373 516.495 118.64 514.575 118.64C513.615 118.64 512.868 118.827 512.335 119.2C511.828 119.573 511.575 120.04 511.575 120.6C511.575 121.187 511.962 121.653 512.735 122C513.508 122.347 514.535 122.667 515.815 122.96C517.202 123.28 518.468 123.64 519.615 124.04C520.788 124.413 521.722 124.987 522.415 125.76C523.108 126.507 523.455 127.587 523.455 129C523.482 130.227 523.162 131.333 522.495 132.32C521.828 133.307 520.868 134.08 519.615 134.64C518.362 135.2 516.882 135.48 515.175 135.48Z" fill="black"/>
<path d="M297.168 184L303.84 168.928H294.624V167.2H305.904V168.712L299.304 184H297.168ZM313.582 184.288C312.43 184.288 311.43 184.08 310.582 183.664C309.734 183.248 309.054 182.68 308.542 181.96C308.046 181.224 307.742 180.392 307.63 179.464H309.598C309.79 180.392 310.238 181.144 310.942 181.72C311.646 182.28 312.534 182.56 313.606 182.56C314.406 182.56 315.094 182.376 315.67 182.008C316.246 181.624 316.686 181.112 316.99 180.472C317.31 179.832 317.47 179.12 317.47 178.336C317.47 177.088 317.118 176.08 316.414 175.312C315.71 174.544 314.798 174.16 313.678 174.16C312.75 174.16 311.958 174.368 311.302 174.784C310.646 175.2 310.166 175.744 309.862 176.416H307.942L309.382 167.2H318.19V168.952H310.942L309.958 174.064C310.342 173.6 310.87 173.216 311.542 172.912C312.23 172.608 313.014 172.456 313.894 172.456C314.998 172.456 315.958 172.712 316.774 173.224C317.606 173.736 318.254 174.432 318.718 175.312C319.182 176.192 319.414 177.192 319.414 178.312C319.414 179.384 319.182 180.376 318.718 181.288C318.27 182.2 317.606 182.928 316.726 183.472C315.862 184.016 314.814 184.288 313.582 184.288ZM325.589 175C324.869 175 324.213 174.84 323.621 174.52C323.045 174.184 322.589 173.72 322.253 173.128C321.917 172.52 321.749 171.8 321.749 170.968C321.749 170.136 321.917 169.424 322.253 168.832C322.605 168.224 323.069 167.76 323.645 167.44C324.237 167.104 324.893 166.936 325.613 166.936C326.333 166.936 326.981 167.104 327.557 167.44C328.133 167.76 328.589 168.224 328.925 168.832C329.261 169.424 329.429 170.136 329.429 170.968C329.429 171.8 329.253 172.52 328.901 173.128C328.565 173.72 328.109 174.184 327.533 174.52C326.957 174.84 326.309 175 325.589 175ZM324.101 184L333.869 167.2H335.885L326.117 184H324.101ZM325.589 173.44C326.149 173.44 326.637 173.232 327.053 172.816C327.485 172.4 327.701 171.784 327.701 170.968C327.701 170.136 327.493 169.512 327.077 169.096C326.661 168.664 326.173 168.448 325.613 168.448C325.053 168.448 324.549 168.664 324.101 169.096C323.669 169.512 323.453 170.136 323.453 170.968C323.453 171.784 323.669 172.4 324.101 172.816C324.533 173.232 325.029 173.44 325.589 173.44ZM334.565 184.288C333.845 184.288 333.189 184.128 332.597 183.808C332.021 183.472 331.565 183.008 331.229 182.416C330.893 181.808 330.725 181.088 330.725 180.256C330.725 179.424 330.893 178.712 331.229 178.12C331.581 177.512 332.045 177.048 332.621 176.728C333.197 176.392 333.845 176.224 334.565 176.224C335.285 176.224 335.933 176.392 336.509 176.728C337.085 177.048 337.541 177.512 337.877 178.12C338.213 178.712 338.381 179.424 338.381 180.256C338.381 181.088 338.213 181.808 337.877 182.416C337.541 183.008 337.085 183.472 336.509 183.808C335.933 184.128 335.285 184.288 334.565 184.288ZM334.541 182.728C335.117 182.728 335.613 182.52 336.029 182.104C336.461 181.688 336.677 181.072 336.677 180.256C336.677 179.424 336.469 178.8 336.053 178.384C335.637 177.968 335.141 177.76 334.565 177.76C334.005 177.76 333.509 177.968 333.077 178.384C332.645 178.8 332.429 179.424 332.429 180.256C332.429 181.072 332.637 181.688 333.053 182.104C333.485 182.52 333.981 182.728 334.541 182.728ZM351.919 184.288C350.495 184.288 349.311 183.928 348.367 183.208C347.423 182.488 346.871 181.512 346.711 180.28H348.775C348.903 180.904 349.231 181.448 349.759 181.912C350.303 182.36 351.031 182.584 351.943 182.584C352.791 182.584 353.415 182.408 353.815 182.056C354.215 181.688 354.415 181.256 354.415 180.76C354.415 180.04 354.151 179.56 353.623 179.32C353.111 179.08 352.383 178.864 351.439 178.672C350.799 178.544 350.159 178.36 349.519 178.12C348.879 177.88 348.343 177.544 347.911 177.112C347.479 176.664 347.263 176.08 347.263 175.36C347.263 174.32 347.647 173.472 348.415 172.816C349.199 172.144 350.255 171.808 351.583 171.808C352.847 171.808 353.879 172.128 354.679 172.768C355.495 173.392 355.967 174.288 356.095 175.456H354.103C354.023 174.848 353.759 174.376 353.311 174.04C352.879 173.688 352.295 173.512 351.559 173.512C350.839 173.512 350.279 173.664 349.879 173.968C349.495 174.272 349.303 174.672 349.303 175.168C349.303 175.648 349.551 176.024 350.047 176.296C350.559 176.568 351.247 176.8 352.111 176.992C352.847 177.152 353.543 177.352 354.199 177.592C354.871 177.816 355.415 178.16 355.831 178.624C356.263 179.072 356.479 179.728 356.479 180.592C356.495 181.664 356.087 182.552 355.255 183.256C354.439 183.944 353.327 184.288 351.919 184.288ZM363.319 184.288C362.327 184.288 361.503 184.12 360.847 183.784C360.191 183.448 359.703 183 359.383 182.44C359.063 181.88 358.903 181.272 358.903 180.616C358.903 179.4 359.367 178.464 360.295 177.808C361.223 177.152 362.487 176.824 364.087 176.824H367.303V176.68C367.303 175.64 367.031 174.856 366.487 174.328C365.943 173.784 365.215 173.512 364.303 173.512C363.519 173.512 362.839 173.712 362.263 174.112C361.703 174.496 361.351 175.064 361.207 175.816H359.143C359.223 174.952 359.511 174.224 360.007 173.632C360.519 173.04 361.151 172.592 361.903 172.288C362.655 171.968 363.455 171.808 364.303 171.808C365.967 171.808 367.215 172.256 368.047 173.152C368.895 174.032 369.319 175.208 369.319 176.68V184H367.519L367.399 181.864C367.063 182.536 366.567 183.112 365.911 183.592C365.271 184.056 364.407 184.288 363.319 184.288ZM363.631 182.584C364.399 182.584 365.055 182.384 365.599 181.984C366.159 181.584 366.583 181.064 366.871 180.424C367.159 179.784 367.303 179.112 367.303 178.408V178.384H364.255C363.071 178.384 362.231 178.592 361.735 179.008C361.255 179.408 361.015 179.912 361.015 180.52C361.015 181.144 361.239 181.648 361.687 182.032C362.151 182.4 362.799 182.584 363.631 182.584ZM375.33 184L370.818 172.096H372.93L376.506 182.056L380.106 172.096H382.17L377.658 184H375.33ZM389.156 184.288C388.02 184.288 387.012 184.032 386.132 183.52C385.252 182.992 384.556 182.264 384.044 181.336C383.548 180.408 383.3 179.312 383.3 178.048C383.3 176.8 383.548 175.712 384.044 174.784C384.54 173.84 385.228 173.112 386.108 172.6C387.004 172.072 388.036 171.808 389.204 171.808C390.356 171.808 391.348 172.072 392.18 172.6C393.028 173.112 393.676 173.792 394.124 174.64C394.572 175.488 394.796 176.4 394.796 177.376C394.796 177.552 394.788 177.728 394.772 177.904C394.772 178.08 394.772 178.28 394.772 178.504H385.292C385.34 179.416 385.548 180.176 385.916 180.784C386.3 181.376 386.772 181.824 387.332 182.128C387.908 182.432 388.516 182.584 389.156 182.584C389.988 182.584 390.684 182.392 391.244 182.008C391.804 181.624 392.212 181.104 392.468 180.448H394.46C394.14 181.552 393.524 182.472 392.612 183.208C391.716 183.928 390.564 184.288 389.156 184.288ZM389.156 173.512C388.196 173.512 387.34 173.808 386.588 174.4C385.852 174.976 385.428 175.824 385.316 176.944H392.804C392.756 175.872 392.388 175.032 391.7 174.424C391.012 173.816 390.164 173.512 389.156 173.512ZM402.868 184.288C401.685 184.288 400.645 184.016 399.749 183.472C398.869 182.928 398.181 182.184 397.685 181.24C397.205 180.296 396.965 179.224 396.965 178.024C396.965 176.824 397.213 175.76 397.709 174.832C398.205 173.888 398.893 173.152 399.773 172.624C400.653 172.08 401.693 171.808 402.893 171.808C403.869 171.808 404.733 172.008 405.485 172.408C406.237 172.808 406.821 173.368 407.237 174.088V166.72H409.253V184H407.429L407.237 182.032C406.853 182.608 406.301 183.128 405.581 183.592C404.861 184.056 403.957 184.288 402.868 184.288ZM403.085 182.536C403.885 182.536 404.589 182.352 405.197 181.984C405.821 181.6 406.301 181.072 406.637 180.4C406.989 179.728 407.165 178.944 407.165 178.048C407.165 177.152 406.989 176.368 406.637 175.696C406.301 175.024 405.821 174.504 405.197 174.136C404.589 173.752 403.885 173.56 403.085 173.56C402.301 173.56 401.597 173.752 400.973 174.136C400.365 174.504 399.885 175.024 399.533 175.696C399.197 176.368 399.029 177.152 399.029 178.048C399.029 178.944 399.197 179.728 399.533 180.4C399.885 181.072 400.365 181.6 400.973 181.984C401.597 182.352 402.301 182.536 403.085 182.536Z" fill="black"/>
<path d="M299.712 228V212.856H294.696V211.2H306.744V212.856H301.728V228H299.712ZM311.264 228.288C310.272 228.288 309.448 228.12 308.792 227.784C308.136 227.448 307.648 227 307.328 226.44C307.008 225.88 306.848 225.272 306.848 224.616C306.848 223.4 307.312 222.464 308.24 221.808C309.168 221.152 310.432 220.824 312.032 220.824H315.248V220.68C315.248 219.64 314.976 218.856 314.432 218.328C313.888 217.784 313.16 217.512 312.248 217.512C311.464 217.512 310.784 217.712 310.208 218.112C309.648 218.496 309.296 219.064 309.152 219.816H307.088C307.168 218.952 307.456 218.224 307.952 217.632C308.464 217.04 309.096 216.592 309.848 216.288C310.6 215.968 311.4 215.808 312.248 215.808C313.912 215.808 315.16 216.256 315.992 217.152C316.84 218.032 317.264 219.208 317.264 220.68V228H315.464L315.344 225.864C315.008 226.536 314.512 227.112 313.856 227.592C313.216 228.056 312.352 228.288 311.264 228.288ZM311.576 226.584C312.344 226.584 313 226.384 313.544 225.984C314.104 225.584 314.528 225.064 314.816 224.424C315.104 223.784 315.248 223.112 315.248 222.408V222.384H312.2C311.016 222.384 310.176 222.592 309.68 223.008C309.2 223.408 308.96 223.912 308.96 224.52C308.96 225.144 309.184 225.648 309.632 226.032C310.096 226.4 310.744 226.584 311.576 226.584ZM320.289 228V216.096H322.113L322.281 218.376C322.649 217.592 323.209 216.968 323.961 216.504C324.713 216.04 325.641 215.808 326.745 215.808V217.92H326.193C325.489 217.92 324.841 218.048 324.249 218.304C323.657 218.544 323.185 218.96 322.833 219.552C322.481 220.144 322.305 220.96 322.305 222V228H320.289ZM333.43 224.256C332.758 224.256 332.142 224.168 331.582 223.992L330.382 225.12C330.558 225.248 330.774 225.36 331.03 225.456C331.302 225.536 331.686 225.616 332.182 225.696C332.678 225.76 333.374 225.832 334.27 225.912C335.87 226.024 337.014 226.392 337.702 227.016C338.39 227.64 338.734 228.456 338.734 229.464C338.734 230.152 338.542 230.808 338.158 231.432C337.79 232.056 337.214 232.568 336.43 232.968C335.662 233.368 334.67 233.568 333.454 233.568C332.382 233.568 331.43 233.424 330.598 233.136C329.766 232.864 329.118 232.44 328.654 231.864C328.19 231.304 327.958 230.592 327.958 229.728C327.958 229.28 328.078 228.792 328.318 228.264C328.558 227.752 329.006 227.264 329.662 226.8C329.31 226.656 329.006 226.504 328.75 226.344C328.51 226.168 328.286 225.976 328.078 225.768V225.216L330.118 223.2C329.174 222.4 328.702 221.344 328.702 220.032C328.702 219.248 328.886 218.536 329.254 217.896C329.622 217.256 330.158 216.752 330.862 216.384C331.566 216 332.422 215.808 333.43 215.808C334.118 215.808 334.742 215.904 335.302 216.096H339.694V217.608L337.462 217.704C337.926 218.376 338.158 219.152 338.158 220.032C338.158 220.816 337.966 221.528 337.582 222.168C337.214 222.808 336.678 223.32 335.974 223.704C335.286 224.072 334.438 224.256 333.43 224.256ZM333.43 222.6C334.278 222.6 334.95 222.384 335.446 221.952C335.958 221.504 336.214 220.864 336.214 220.032C336.214 219.216 335.958 218.592 335.446 218.16C334.95 217.712 334.278 217.488 333.43 217.488C332.566 217.488 331.878 217.712 331.366 218.16C330.87 218.592 330.622 219.216 330.622 220.032C330.622 220.864 330.87 221.504 331.366 221.952C331.878 222.384 332.566 222.6 333.43 222.6ZM329.926 229.536C329.926 230.336 330.262 230.928 330.934 231.312C331.606 231.712 332.446 231.912 333.454 231.912C334.446 231.912 335.238 231.696 335.83 231.264C336.438 230.832 336.742 230.256 336.742 229.536C336.742 229.024 336.534 228.576 336.118 228.192C335.702 227.824 334.934 227.608 333.814 227.544C332.934 227.48 332.174 227.4 331.534 227.304C330.878 227.656 330.446 228.032 330.238 228.432C330.03 228.848 329.926 229.216 329.926 229.536ZM346.852 228.288C345.716 228.288 344.708 228.032 343.828 227.52C342.948 226.992 342.252 226.264 341.74 225.336C341.244 224.408 340.996 223.312 340.996 222.048C340.996 220.8 341.244 219.712 341.74 218.784C342.236 217.84 342.924 217.112 343.804 216.6C344.7 216.072 345.732 215.808 346.9 215.808C348.052 215.808 349.044 216.072 349.876 216.6C350.724 217.112 351.372 217.792 351.82 218.64C352.268 219.488 352.492 220.4 352.492 221.376C352.492 221.552 352.484 221.728 352.468 221.904C352.468 222.08 352.468 222.28 352.468 222.504H342.988C343.036 223.416 343.244 224.176 343.612 224.784C343.996 225.376 344.468 225.824 345.028 226.128C345.604 226.432 346.212 226.584 346.852 226.584C347.684 226.584 348.38 226.392 348.94 226.008C349.5 225.624 349.908 225.104 350.164 224.448H352.156C351.836 225.552 351.22 226.472 350.308 227.208C349.412 227.928 348.26 228.288 346.852 228.288ZM346.852 217.512C345.892 217.512 345.036 217.808 344.284 218.4C343.548 218.976 343.124 219.824 343.012 220.944H350.5C350.452 219.872 350.084 219.032 349.396 218.424C348.708 217.816 347.86 217.512 346.852 217.512ZM359.469 228C358.381 228 357.525 227.736 356.901 227.208C356.277 226.68 355.965 225.728 355.965 224.352V217.8H353.901V216.096H355.965L356.229 213.24H357.981V216.096H361.485V217.8H357.981V224.352C357.981 225.104 358.133 225.616 358.437 225.888C358.741 226.144 359.277 226.272 360.045 226.272H361.293V228H359.469ZM369.462 228L375.654 211.2H377.79L383.958 228H381.822L380.286 223.68H373.134L371.574 228H369.462ZM373.734 222.048H379.686L376.71 213.744L373.734 222.048ZM386.336 228V216.096H388.16L388.304 217.824C388.688 217.184 389.2 216.688 389.84 216.336C390.48 215.984 391.2 215.808 392 215.808C392.944 215.808 393.752 216 394.424 216.384C395.112 216.768 395.64 217.352 396.008 218.136C396.424 217.416 396.992 216.848 397.712 216.432C398.448 216.016 399.24 215.808 400.088 215.808C401.512 215.808 402.648 216.24 403.496 217.104C404.344 217.952 404.768 219.264 404.768 221.04V228H402.776V221.256C402.776 220.024 402.528 219.096 402.032 218.472C401.536 217.848 400.824 217.536 399.896 217.536C398.936 217.536 398.136 217.912 397.496 218.664C396.872 219.4 396.56 220.456 396.56 221.832V228H394.544V221.256C394.544 220.024 394.296 219.096 393.8 218.472C393.304 217.848 392.592 217.536 391.664 217.536C390.72 217.536 389.928 217.912 389.288 218.664C388.664 219.4 388.352 220.456 388.352 221.832V228H386.336ZM413.228 228.288C412.108 228.288 411.1 228.032 410.204 227.52C409.308 227.008 408.596 226.288 408.068 225.36C407.556 224.416 407.3 223.312 407.3 222.048C407.3 220.784 407.564 219.688 408.092 218.76C408.62 217.816 409.332 217.088 410.228 216.576C411.14 216.064 412.156 215.808 413.276 215.808C414.396 215.808 415.404 216.064 416.3 216.576C417.196 217.088 417.9 217.816 418.412 218.76C418.94 219.688 419.204 220.784 419.204 222.048C419.204 223.312 418.94 224.416 418.412 225.36C417.884 226.288 417.164 227.008 416.252 227.52C415.356 228.032 414.348 228.288 413.228 228.288ZM413.228 226.56C413.916 226.56 414.556 226.392 415.148 226.056C415.74 225.72 416.22 225.216 416.588 224.544C416.956 223.872 417.14 223.04 417.14 222.048C417.14 221.056 416.956 220.224 416.588 219.552C416.236 218.88 415.764 218.376 415.172 218.04C414.58 217.704 413.948 217.536 413.276 217.536C412.588 217.536 411.948 217.704 411.356 218.04C410.764 218.376 410.284 218.88 409.916 219.552C409.548 220.224 409.364 221.056 409.364 222.048C409.364 223.04 409.548 223.872 409.916 224.544C410.284 225.216 410.756 225.72 411.332 226.056C411.924 226.392 412.556 226.56 413.228 226.56ZM426.352 228.288C424.944 228.288 423.824 227.864 422.992 227.016C422.16 226.152 421.744 224.832 421.744 223.056V216.096H423.76V222.84C423.76 225.32 424.776 226.56 426.808 226.56C427.848 226.56 428.704 226.192 429.376 225.456C430.064 224.704 430.408 223.64 430.408 222.264V216.096H432.424V228H430.6L430.456 225.864C430.088 226.616 429.536 227.208 428.8 227.64C428.08 228.072 427.264 228.288 426.352 228.288ZM435.742 228V216.096H437.566L437.686 218.232C438.07 217.48 438.622 216.888 439.342 216.456C440.062 216.024 440.878 215.808 441.79 215.808C443.198 215.808 444.318 216.24 445.15 217.104C445.998 217.952 446.422 219.264 446.422 221.04V228H444.406V221.256C444.406 218.776 443.382 217.536 441.334 217.536C440.31 217.536 439.454 217.912 438.766 218.664C438.094 219.4 437.758 220.456 437.758 221.832V228H435.742ZM454.18 228C453.092 228 452.236 227.736 451.612 227.208C450.988 226.68 450.676 225.728 450.676 224.352V217.8H448.612V216.096H450.676L450.94 213.24H452.692V216.096H456.196V217.8H452.692V224.352C452.692 225.104 452.844 225.616 453.148 225.888C453.452 226.144 453.988 226.272 454.756 226.272H456.004V228H454.18ZM465.805 228.12C465.405 228.12 465.069 227.992 464.797 227.736C464.541 227.464 464.413 227.136 464.413 226.752C464.413 226.368 464.541 226.048 464.797 225.792C465.069 225.52 465.405 225.384 465.805 225.384C466.189 225.384 466.509 225.52 466.765 225.792C467.037 226.048 467.173 226.368 467.173 226.752C467.173 227.136 467.037 227.464 466.765 227.736C466.509 227.992 466.189 228.12 465.805 228.12ZM465.805 218.544C465.405 218.544 465.069 218.416 464.797 218.16C464.541 217.888 464.413 217.56 464.413 217.176C464.413 216.792 464.541 216.472 464.797 216.216C465.069 215.944 465.405 215.808 465.805 215.808C466.189 215.808 466.509 215.944 466.765 216.216C467.037 216.472 467.173 216.792 467.173 217.176C467.173 217.56 467.037 217.888 466.765 218.16C466.509 218.416 466.189 218.544 465.805 218.544Z" fill="black"/>
</svg>
