<svg width="556" height="556" viewBox="0 0 556 556" fill="none" xmlns="http://www.w3.org/2000/svg">
<rect width="556" height="556" fill="white"/>
<path d="M280.079 482.257C385.873 482.257 471.635 477.84 471.635 472.392C471.635 466.943 385.873 462.526 280.079 462.526C174.286 462.526 88.5234 466.943 88.5234 472.392C88.5234 477.84 174.286 482.257 280.079 482.257Z" fill="#263238"/>
<path d="M167.276 297.47H403.887C405.28 297.47 406.615 298.023 407.6 299.008C408.585 299.992 409.138 301.328 409.138 302.721V454.619H162.013V302.721C162.013 302.03 162.149 301.346 162.413 300.708C162.678 300.071 163.066 299.491 163.555 299.003C164.044 298.516 164.624 298.129 165.263 297.866C165.901 297.603 166.585 297.468 167.276 297.47Z" fill="#070807" stroke="#263238" stroke-linecap="round" stroke-linejoin="round"/>
<path d="M179.969 309.392H391.194C391.884 309.392 392.567 309.527 393.204 309.791C393.841 310.055 394.42 310.442 394.907 310.93C395.395 311.417 395.782 311.996 396.046 312.633C396.309 313.27 396.445 313.953 396.445 314.643V456.737H174.705V314.655C174.704 313.963 174.839 313.278 175.103 312.639C175.367 311.999 175.754 311.419 176.243 310.93C176.732 310.441 177.313 310.053 177.953 309.789C178.592 309.525 179.277 309.39 179.969 309.392Z" fill="#263238" stroke="#263238" stroke-linecap="round" stroke-linejoin="round"/>
<path d="M407.021 467.312H153.139C141.449 467.312 131.976 460.237 131.976 451.51H428.184C428.184 460.237 418.71 467.312 407.021 467.312Z" fill="#070807" stroke="#263238" stroke-linecap="round" stroke-linejoin="round"/>
<path d="M284.523 152.769C268.219 168.277 226.517 183.944 177.888 217.175C177.888 217.175 180.923 329.465 284.523 390.849V152.769Z" fill="#070807" stroke="#263238" stroke-linecap="round" stroke-linejoin="round"/>
<path d="M284.523 152.769C300.814 168.277 342.528 183.944 391.158 217.175C391.158 217.175 388.122 329.465 284.523 390.849V152.769Z" fill="#263238" stroke="#263238" stroke-linecap="round" stroke-linejoin="round"/>
<path d="M284.523 162.328C264.853 176.269 230.765 189.562 185.709 220.346C185.709 220.346 188.524 324.386 284.523 381.289C380.521 324.41 383.336 220.346 383.336 220.346C338.268 189.574 304.339 176.269 284.523 162.328Z" fill="#263238" stroke="#263238" stroke-linecap="round" stroke-linejoin="round"/>
<path d="M366.494 209.293C297.754 230.101 245.318 290.505 221.474 322.366C237.876 346.427 259.409 366.551 284.523 381.289C380.521 324.41 383.336 220.346 383.336 220.346C377.534 216.396 371.92 212.712 366.494 209.293Z" fill="#070807" stroke="#263238" stroke-linecap="round" stroke-linejoin="round"/>
<path d="M321.953 267.237H248.255C246.632 267.237 245.076 266.593 243.928 265.445C242.78 264.297 242.135 262.741 242.135 261.117V226.429C242.326 215.165 246.934 204.427 254.967 196.529C262.999 188.63 273.814 184.204 285.08 184.204C296.345 184.204 307.16 188.63 315.192 196.529C323.225 204.427 327.833 215.165 328.024 226.429V261.117C328.024 262.732 327.386 264.281 326.248 265.428C325.111 266.574 323.567 267.224 321.953 267.237ZM254.424 254.997H315.833V226.429C315.672 218.392 312.367 210.738 306.626 205.111C300.885 199.484 293.167 196.332 285.129 196.332C277.09 196.332 269.372 199.484 263.631 205.111C257.89 210.738 254.585 218.392 254.424 226.429V254.997Z" fill="white" stroke="#263238" stroke-linecap="round" stroke-linejoin="round"/>
<path d="M331.402 250.518H237.643V329.747H331.402V250.518Z" fill="white" stroke="#263238" stroke-linecap="round" stroke-linejoin="round"/>
<path d="M294.266 283.418C294.266 281.614 293.787 279.841 292.88 278.282C291.972 276.723 290.667 275.432 289.098 274.541C287.529 273.65 285.751 273.191 283.947 273.211C282.143 273.23 280.376 273.728 278.826 274.652C277.277 275.577 276 276.896 275.126 278.474C274.253 280.053 273.813 281.835 273.852 283.639C273.891 285.443 274.407 287.204 275.349 288.744C276.29 290.283 277.622 291.545 279.21 292.402L277.497 310.395H290.618L288.905 292.402C290.527 291.53 291.883 290.233 292.827 288.651C293.771 287.069 294.268 285.26 294.266 283.418Z" fill="#263238" stroke="#263238" stroke-linecap="round" stroke-linejoin="round"/>
<path d="M469.249 268.02L469.102 266.184" stroke="#263238" stroke-linecap="round" stroke-linejoin="round"/>
<path d="M468.747 262.524C463.9 216.646 442.503 174.106 408.559 142.864C374.615 111.621 330.45 93.8178 284.328 92.784C238.206 91.7502 193.288 107.557 157.978 137.247C122.669 166.937 99.3867 208.476 92.4893 254.091C91.967 257.567 91.559 261.056 91.2653 264.556" stroke="#263238" stroke-linecap="round" stroke-linejoin="round" stroke-dasharray="3.01 3.01"/>
<path d="M91.0448 266.367L90.8979 268.191" stroke="#263238" stroke-linecap="round" stroke-linejoin="round"/>
<path d="M133.187 236.122L144.032 191.997H111.131L133.187 236.122Z" fill="#263238" stroke="#263238" stroke-linecap="round" stroke-linejoin="round"/>
<path d="M133.187 236.122L135.599 193.674H114.656L133.187 236.122Z" fill="#070807" stroke="#263238" stroke-linecap="round" stroke-linejoin="round"/>
<path d="M133.187 236.122L130.947 190.369H110.005L133.187 236.122Z" fill="#070807" stroke="#263238" stroke-linecap="round" stroke-linejoin="round"/>
<path d="M94.0927 188.252L88.6948 182.145H60.2736L73.6029 236.123H133.187L123.738 188.252H94.0927Z" fill="#263238" stroke="#263238" stroke-linecap="round" stroke-linejoin="round"/>
<path d="M196.431 104.714H125.452C122.971 104.714 120.959 106.725 120.959 109.206V147.554C120.959 150.035 122.971 152.046 125.452 152.046H196.431C198.912 152.046 200.923 150.035 200.923 147.554V109.206C200.923 106.725 198.912 104.714 196.431 104.714Z" fill="#263238" stroke="#263238" stroke-linecap="round" stroke-linejoin="round"/>
<path d="M200.923 113.686H120.959V130.822H200.923V113.686Z" fill="#070807" stroke="#263238" stroke-linecap="round" stroke-linejoin="round"/>
<path d="M184.044 144.481C184.044 143.82 183.848 143.174 183.481 142.625C183.114 142.075 182.592 141.647 181.982 141.394C181.371 141.141 180.699 141.075 180.051 141.204C179.403 141.333 178.807 141.651 178.34 142.118C177.873 142.586 177.554 143.181 177.426 143.829C177.297 144.477 177.363 145.149 177.616 145.76C177.869 146.371 178.297 146.892 178.846 147.26C179.396 147.627 180.042 147.823 180.703 147.823C181.589 147.823 182.439 147.471 183.066 146.844C183.692 146.217 184.044 145.367 184.044 144.481Z" fill="white" stroke="#263238" stroke-linecap="round" stroke-linejoin="round"/>
<path d="M193.335 144.481C193.335 143.82 193.139 143.174 192.771 142.625C192.404 142.075 191.882 141.647 191.272 141.394C190.661 141.141 189.989 141.075 189.341 141.204C188.693 141.333 188.098 141.651 187.63 142.118C187.163 142.586 186.845 143.181 186.716 143.829C186.587 144.477 186.653 145.149 186.906 145.76C187.159 146.371 187.587 146.892 188.137 147.26C188.686 147.627 189.332 147.823 189.993 147.823C190.879 147.823 191.729 147.471 192.356 146.844C192.983 146.217 193.335 145.367 193.335 144.481Z" fill="white" stroke="#263238" stroke-linecap="round" stroke-linejoin="round"/>
<path d="M329.125 73H243.494V128.521H329.125V73Z" fill="#070807" stroke="#263238" stroke-linecap="round" stroke-linejoin="round"/>
<path d="M325.245 76.5254H247.668V124.543H325.245V76.5254Z" fill="#263238" stroke="#263238" stroke-linecap="round" stroke-linejoin="round"/>
<path d="M270.361 110.014C270.361 104.775 266.102 95.7666 260.863 95.7666C255.624 95.7666 251.352 104.775 251.352 110.014C251.352 115.253 255.612 116.55 260.863 116.55C266.114 116.55 270.361 115.216 270.361 110.014Z" fill="white" stroke="#263238" stroke-linecap="round" stroke-linejoin="round"/>
<path d="M260.863 97.5049C264.473 97.5049 267.399 94.5786 267.399 90.9688C267.399 87.359 264.473 84.4326 260.863 84.4326C257.253 84.4326 254.327 87.359 254.327 90.9688C254.327 94.5786 257.253 97.5049 260.863 97.5049Z" fill="white" stroke="#263238" stroke-linecap="round" stroke-linejoin="round"/>
<path d="M279.859 85.668H295.685" stroke="white" stroke-width="2" stroke-linecap="round" stroke-linejoin="round"/>
<path d="M279.859 92.5225H295.685" stroke="white" stroke-width="2" stroke-linecap="round" stroke-linejoin="round"/>
<path d="M279.859 104.665H316.787" stroke="white" stroke-width="2" stroke-linecap="round" stroke-linejoin="round"/>
<path d="M279.859 113.637H316.787" stroke="white" stroke-width="2" stroke-linecap="round" stroke-linejoin="round"/>
<path d="M446.311 104.714H382.626C378.685 104.714 375.49 107.909 375.49 111.85V144.996C375.49 148.937 378.685 152.132 382.626 152.132H446.311C450.252 152.132 453.447 148.937 453.447 144.996V111.85C453.447 107.909 450.252 104.714 446.311 104.714Z" fill="#263238" stroke="#263238" stroke-width="2" stroke-linecap="round" stroke-linejoin="round"/>
<path d="M417.584 127.235L453.447 109.096V108.263C453.447 107.322 453.073 106.419 452.407 105.754C451.741 105.088 450.839 104.714 449.897 104.714H379.052C378.109 104.714 377.205 105.087 376.538 105.753C375.87 106.418 375.493 107.321 375.49 108.263V109.255L410.705 127.321C411.778 127.845 412.96 128.11 414.154 128.095C415.349 128.08 416.523 127.786 417.584 127.235Z" fill="#070807" stroke="#263238" stroke-width="2" stroke-linecap="round" stroke-linejoin="round"/>
<path d="M492.749 187.383H423.875C421.137 187.383 418.918 189.602 418.918 192.34V222.193C418.918 224.931 421.137 227.151 423.875 227.151H492.749C495.487 227.151 497.707 224.931 497.707 222.193V192.34C497.707 189.602 495.487 187.383 492.749 187.383Z" fill="#263238"/>
<path d="M418.93 216.746V238.105L430.84 224.396" fill="#263238"/>
<path d="M446.397 207.995C446.399 207.185 446.161 206.393 445.713 205.719C445.264 205.045 444.626 204.519 443.878 204.208C443.131 203.897 442.308 203.815 441.514 203.972C440.72 204.13 439.99 204.519 439.418 205.092C438.845 205.664 438.456 206.394 438.298 207.188C438.141 207.982 438.223 208.805 438.534 209.553C438.845 210.3 439.371 210.939 440.045 211.387C440.719 211.835 441.511 212.073 442.321 212.071C443.401 212.068 444.435 211.637 445.199 210.873C445.963 210.11 446.393 209.075 446.397 207.995Z" fill="#070807"/>
<path d="M463.887 207.995C463.89 207.185 463.652 206.393 463.204 205.719C462.755 205.045 462.117 204.519 461.369 204.208C460.622 203.897 459.799 203.815 459.005 203.972C458.211 204.13 457.481 204.519 456.909 205.092C456.336 205.664 455.946 206.394 455.789 207.188C455.632 207.982 455.714 208.805 456.025 209.553C456.336 210.3 456.862 210.939 457.536 211.387C458.21 211.835 459.002 212.073 459.812 212.071C460.892 212.068 461.926 211.637 462.69 210.873C463.454 210.11 463.884 209.075 463.887 207.995Z" fill="#070807"/>
<path d="M481.391 207.995C481.393 207.186 481.155 206.394 480.708 205.72C480.26 205.046 479.622 204.521 478.875 204.209C478.129 203.898 477.306 203.815 476.512 203.972C475.719 204.128 474.989 204.516 474.416 205.088C473.843 205.659 473.453 206.387 473.294 207.181C473.135 207.974 473.215 208.797 473.524 209.544C473.833 210.292 474.357 210.931 475.03 211.381C475.703 211.831 476.493 212.071 477.303 212.071C478.384 212.068 479.42 211.638 480.185 210.874C480.951 210.111 481.384 209.076 481.391 207.995Z" fill="#070807"/>
<path d="M132.771 286.601C132.58 286.35 132.333 286.147 132.051 286.007C131.769 285.867 131.458 285.794 131.143 285.793H78.2664L76.2345 279.673C76.0965 279.266 75.8345 278.913 75.4855 278.662C75.1365 278.412 74.7178 278.278 74.2884 278.277H60.8978C60.3814 278.317 59.8991 278.551 59.5473 278.931C59.1954 279.311 59 279.81 59 280.328C59 280.845 59.1954 281.344 59.5473 281.724C59.8991 282.104 60.3814 282.338 60.8978 282.378H72.8073L85.7205 321.117C85.8569 321.525 86.1185 321.879 86.4679 322.13C86.8173 322.38 87.2368 322.514 87.6667 322.513H88.4133C87.6779 323.646 87.2868 324.968 87.2872 326.319C87.2807 327.422 87.5319 328.51 88.0207 329.498C88.5096 330.486 89.2225 331.346 90.1027 332.01C90.9829 332.674 92.006 333.122 93.0904 333.321C94.1747 333.519 95.2904 333.461 96.3484 333.151C97.4064 332.842 98.3774 332.289 99.184 331.538C99.9906 330.786 100.61 329.857 100.994 328.824C101.378 327.79 101.515 326.681 101.394 325.586C101.273 324.49 100.898 323.438 100.298 322.513H110.09C109.355 323.646 108.964 324.968 108.964 326.319C108.925 327.272 109.078 328.224 109.415 329.116C109.753 330.008 110.267 330.823 110.927 331.511C111.588 332.199 112.38 332.747 113.258 333.121C114.135 333.495 115.079 333.688 116.033 333.688C116.987 333.688 117.931 333.495 118.808 333.121C119.685 332.747 120.478 332.199 121.138 331.511C121.799 330.823 122.313 330.008 122.65 329.116C122.988 328.224 123.141 327.272 123.101 326.319C123.102 324.968 122.711 323.646 121.975 322.513H123.554C123.837 322.535 124.121 322.498 124.389 322.405C124.656 322.311 124.902 322.164 125.11 321.972C125.318 321.779 125.484 321.546 125.597 321.286C125.711 321.026 125.769 320.746 125.769 320.462C125.769 320.179 125.711 319.899 125.597 319.639C125.484 319.379 125.318 319.146 125.11 318.953C124.902 318.761 124.656 318.614 124.389 318.52C124.121 318.427 123.837 318.39 123.554 318.412H89.1355L86.8711 311.644H125.28C125.731 311.643 126.17 311.494 126.528 311.22C126.887 310.946 127.145 310.561 127.263 310.126L133.114 288.388C133.199 288.084 133.213 287.764 133.154 287.454C133.094 287.143 132.963 286.851 132.771 286.601ZM94.3497 329.281C93.7639 329.281 93.1912 329.108 92.7041 328.782C92.217 328.457 91.8373 327.994 91.6131 327.453C91.3889 326.912 91.3303 326.316 91.4445 325.741C91.5588 325.167 91.841 324.639 92.2552 324.225C92.6695 323.811 93.1972 323.528 93.7718 323.414C94.3464 323.3 94.942 323.359 95.4833 323.583C96.0245 323.807 96.4871 324.187 96.8126 324.674C97.1381 325.161 97.3118 325.733 97.3118 326.319C97.3086 327.104 96.9955 327.855 96.4407 328.41C95.8859 328.965 95.1343 329.278 94.3497 329.281ZM116.1 329.281C115.514 329.281 114.942 329.108 114.455 328.782C113.967 328.457 113.588 327.994 113.364 327.453C113.139 326.912 113.081 326.316 113.195 325.741C113.309 325.167 113.591 324.639 114.006 324.225C114.42 323.811 114.948 323.528 115.522 323.414C116.097 323.3 116.692 323.359 117.234 323.583C117.775 323.807 118.238 324.187 118.563 324.674C118.889 325.161 119.062 325.733 119.062 326.319C119.061 326.711 118.982 327.098 118.83 327.459C118.678 327.821 118.457 328.148 118.178 328.423C117.9 328.698 117.569 328.916 117.206 329.063C116.843 329.211 116.455 329.285 116.063 329.281H116.1ZM121.571 307.543H113.97V289.942H121.571V307.543ZM102.257 289.942H109.858V307.58H102.257V289.942ZM98.1564 307.58H90.5553V289.942H98.1564V307.58ZM79.6372 289.942H86.4427V307.58H85.5247L79.6372 289.942ZM125.672 300.322V289.942H128.463L125.672 300.322Z" fill="#263238"/>
<path d="M466.311 276.686C460.459 276.683 454.737 278.416 449.871 281.666C445.004 284.916 441.21 289.536 438.969 294.943C436.728 300.349 436.142 306.298 437.283 312.038C438.424 317.778 441.242 323.051 445.38 327.189C449.518 331.327 454.79 334.145 460.53 335.286C466.27 336.427 472.22 335.84 477.626 333.599C483.032 331.359 487.652 327.565 490.902 322.698C494.152 317.831 495.885 312.11 495.883 306.257C495.873 298.417 492.755 290.901 487.211 285.358C481.667 279.814 474.151 276.695 466.311 276.686ZM466.311 280.358C468.759 280.358 471.427 283.564 473.312 288.926H459.31C461.232 283.564 463.826 280.358 466.311 280.358ZM474.377 292.598C475.276 296.465 475.773 300.415 475.858 304.385H456.752C456.837 300.415 457.334 296.465 458.233 292.598H474.377ZM475.92 308.093C475.819 312.718 475.136 317.311 473.888 321.765H458.784C457.56 317.325 456.898 312.748 456.813 308.142L475.92 308.093ZM453.129 304.421H440.485C440.782 300.241 442.093 296.195 444.304 292.634H454.438C453.608 296.511 453.149 300.458 453.067 304.421H453.129ZM453.129 308.093C453.19 312.702 453.777 317.29 454.879 321.765H445.564C442.595 317.808 440.832 313.078 440.485 308.142L453.129 308.093ZM456.03 325.437C456.75 327.444 457.712 329.355 458.894 331.129C455.176 330.006 451.758 328.061 448.894 325.437H456.03ZM460.008 325.437H472.603C470.803 329.721 468.49 332.218 466.311 332.218C464.132 332.218 461.819 329.672 460.008 325.437ZM476.581 325.437H483.716C480.852 328.061 477.435 330.006 473.716 331.129C474.899 329.355 475.86 327.444 476.581 325.437ZM477.731 321.765C478.876 317.295 479.5 312.707 479.592 308.093H492.174C491.822 313.051 490.041 317.8 487.046 321.765H477.731ZM479.592 304.421C479.511 300.458 479.052 296.511 478.221 292.634H488.355C490.566 296.195 491.877 300.241 492.174 304.421H479.592ZM485.589 288.962H477.254C476.464 286.3 475.289 283.768 473.765 281.447C478.303 282.83 482.375 285.429 485.54 288.962H485.589ZM458.943 281.447C457.418 283.766 456.247 286.299 455.467 288.962H447.119C450.284 285.429 454.356 282.83 458.894 281.447H458.943Z" fill="#263238"/>
</svg>
