<svg width="872" height="536" viewBox="0 0 872 536" fill="none" xmlns="http://www.w3.org/2000/svg">
<rect width="872" height="536" fill="white"/>
<path d="M473.85 215.877C473.85 215.947 472.678 215.471 470.5 214.995C467.434 214.325 464.273 214.202 461.164 214.634C456.545 215.241 452.186 217.122 448.574 220.064C444.148 223.667 441.026 228.623 439.687 234.17V234.32L439.423 235.334L439.035 234.373C436.875 229.113 433.167 224.633 428.403 221.528C424.509 219.005 420.036 217.516 415.408 217.199C412.289 216.983 409.155 217.281 406.133 218.081C403.991 218.645 402.853 219.139 402.827 219.077C403.081 218.917 403.354 218.787 403.638 218.689C404.425 218.34 405.235 218.046 406.062 217.808C409.853 216.693 413.838 216.403 417.751 216.955C421.663 217.506 425.412 218.888 428.746 221.008C433.648 224.154 437.464 228.731 439.679 234.117L439.035 234.17V234.012C440.402 228.328 443.603 223.253 448.142 219.571C451.857 216.589 456.336 214.714 461.067 214.158C464.228 213.762 467.436 213.956 470.526 214.731C471.362 214.94 472.184 215.202 472.986 215.515C473.284 215.61 473.574 215.73 473.85 215.877Z" fill="#263238"/>
<path d="M555.144 161.093C555.144 161.145 554.483 160.907 553.293 160.661C551.61 160.314 549.879 160.263 548.179 160.511C545.664 160.857 543.294 161.891 541.329 163.499C538.929 165.466 537.236 168.162 536.507 171.178V171.266L536.251 172.271L535.863 171.319C534.694 168.437 532.678 165.977 530.08 164.266C527.968 162.887 525.542 162.065 523.027 161.877C521.323 161.746 519.609 161.886 517.949 162.292C516.767 162.591 516.141 162.838 516.115 162.785C516.244 162.681 516.39 162.601 516.547 162.547C516.977 162.347 517.422 162.179 517.878 162.045C519.554 161.522 521.309 161.304 523.062 161.401C525.685 161.518 528.231 162.327 530.441 163.746C533.169 165.487 535.293 168.027 536.524 171.02L535.872 171.072V170.984C536.636 167.822 538.428 165.004 540.968 162.97C542.689 161.595 544.707 160.639 546.861 160.18C549.016 159.721 551.248 159.771 553.381 160.326C553.841 160.441 554.292 160.592 554.73 160.775C555.003 160.987 555.153 161.066 555.144 161.093Z" fill="#263238"/>
<path d="M495.697 148.485C495.143 149.193 494.555 149.873 493.933 150.522C492.302 152.371 490.828 154.353 489.525 156.446C485.231 163.357 482.976 171.339 483.019 179.474V179.765L482.34 179.818C481.671 175.445 480.242 171.223 478.117 167.343C475.21 162.025 471.116 157.449 466.154 153.969C464.734 152.99 463.914 152.497 463.941 152.444C464.162 152.521 464.375 152.621 464.576 152.744C464.963 152.973 465.581 153.264 466.295 153.757C468.373 155.077 470.304 156.617 472.052 158.351C477.91 164.107 481.751 171.603 483.001 179.721L482.331 179.774V179.483C482.274 171.219 484.631 163.118 489.111 156.173C490.451 154.084 491.989 152.13 493.704 150.337C494.295 149.693 494.824 149.252 495.15 148.926C495.314 148.757 495.497 148.609 495.697 148.485Z" fill="#263238"/>
<path d="M252.009 444.788C244.074 438.775 235.716 428.76 233.442 418.516C242.246 425.096 248.745 434.292 252.009 444.788Z" fill="#FFC100"/>
<path d="M253.701 430.215C245.766 424.202 237.409 414.196 235.134 403.951C243.938 410.528 250.437 419.721 253.701 430.215Z" fill="#FFC100"/>
<path d="M254.618 415.862C246.684 409.849 238.317 399.843 236.042 389.599C244.854 396.17 251.357 405.365 254.618 415.862Z" fill="#FFC100"/>
<path d="M255.068 400.698C247.962 393.645 240.865 382.483 239.833 371.975C247.754 379.748 253.075 389.781 255.068 400.698Z" fill="#FFC100"/>
<path d="M254.389 388.849C250.325 379.327 247.654 366.024 250.334 355.762C254.91 366.152 256.32 377.661 254.389 388.849Z" fill="#FFC100"/>
<path d="M254.768 394.501C258.744 384.036 266.379 371.579 275.548 365.267C271.367 376.698 264.19 386.795 254.768 394.501Z" fill="#FFC100"/>
<path d="M254.645 407.02C259.635 396.44 268.61 384.098 278.678 378.358C273.392 389.901 265.089 399.803 254.645 407.02Z" fill="#FFC100"/>
<path d="M254.283 422.236C259.282 411.656 268.257 399.314 278.316 393.574C273.031 405.117 264.728 415.019 254.283 422.236Z" fill="#FFC100"/>
<path d="M252.423 440.565C257.413 429.985 266.388 417.643 276.447 411.903C271.161 423.443 262.861 433.344 252.423 440.565Z" fill="#FFC100"/>
<path d="M254.512 386.636C254.523 386.697 254.523 386.76 254.512 386.821C254.512 386.962 254.512 387.138 254.512 387.359C254.512 387.861 254.583 388.558 254.644 389.439C254.75 391.203 254.856 393.847 254.927 397.092C254.997 400.336 255.032 404.145 254.971 408.456C254.909 412.767 254.724 417.431 254.424 422.359C254.124 427.287 253.675 431.969 253.216 436.227C252.758 440.485 252.246 444.294 251.762 447.494C251.277 450.694 250.88 453.268 250.51 455.049C250.351 455.931 250.219 456.601 250.131 457.095C250.131 457.315 250.051 457.491 250.016 457.624C249.981 457.756 250.016 457.809 250.016 457.809C250.008 457.747 250.008 457.685 250.016 457.624C250.016 457.483 250.06 457.306 250.095 457.086C250.166 456.586 250.272 455.899 250.413 455.023C250.704 453.26 251.091 450.615 251.541 447.459C251.991 444.302 252.467 440.406 252.925 436.191C253.384 431.977 253.807 427.261 254.098 422.332C254.389 417.404 254.583 412.723 254.671 408.447C254.759 404.171 254.759 400.327 254.671 397.092C254.583 393.856 254.556 391.247 254.495 389.439C254.495 388.558 254.45 387.861 254.433 387.359V386.821C254.455 386.757 254.481 386.696 254.512 386.636Z" fill="#263238"/>
<g opacity="0.5">
<path d="M252.009 444.787C244.074 438.774 235.716 428.759 233.442 418.515C242.246 425.095 248.745 434.291 252.009 444.787Z" fill="black"/>
<path d="M253.701 430.215C245.767 424.202 237.409 414.196 235.134 403.951C243.938 410.528 250.437 419.721 253.701 430.215Z" fill="black"/>
<path d="M254.618 415.861C246.683 409.848 238.317 399.842 236.042 389.598C244.854 396.169 251.357 405.364 254.618 415.861Z" fill="black"/>
<path d="M255.068 400.698C247.962 393.645 240.865 382.483 239.833 371.975C247.754 379.748 253.075 389.781 255.068 400.698Z" fill="black"/>
<path d="M254.389 388.849C250.325 379.327 247.653 366.024 250.333 355.762C254.909 366.152 256.32 377.661 254.389 388.849Z" fill="black"/>
<path d="M254.768 394.5C258.744 384.035 266.379 371.578 275.548 365.266C271.367 376.697 264.19 386.794 254.768 394.5Z" fill="black"/>
<path d="M254.645 407.019C259.634 396.439 268.609 384.097 278.677 378.357C273.392 389.9 265.089 399.802 254.645 407.019Z" fill="black"/>
<path d="M254.283 422.236C259.282 411.656 268.257 399.314 278.316 393.574C273.031 405.117 264.728 415.019 254.283 422.236Z" fill="black"/>
<path d="M252.423 440.565C257.413 429.985 266.388 417.643 276.447 411.903C271.161 423.443 262.862 433.344 252.423 440.565Z" fill="black"/>
</g>
<path d="M253.701 449.443C252.123 440.133 252.555 427.799 257.043 419.354C258.878 429.495 257.717 439.952 253.701 449.443Z" fill="#FFC100"/>
<path d="M263.231 440.689C261.653 431.379 262.094 419.046 266.573 410.591C268.416 420.735 267.255 431.196 263.231 440.689Z" fill="#FFC100"/>
<path d="M272.145 431.554C270.567 422.245 271.008 409.911 275.486 401.465C277.332 411.606 276.171 422.065 272.145 431.554Z" fill="#FFC100"/>
<path d="M281.217 421.539C280.776 412.035 282.689 399.798 288.12 391.996C288.731 402.305 286.333 412.569 281.217 421.539Z" fill="#FFC100"/>
<path d="M287.688 413.094C290.606 403.951 296.619 393.16 304.289 387.985C301.35 397.808 295.575 406.543 287.688 413.094Z" fill="#FFC100"/>
<path d="M284.637 417.175C293.251 412.706 305.391 409.294 314.903 411.101C305.638 416.076 295.105 418.19 284.637 417.175Z" fill="#FFC100"/>
<path d="M277.293 425.586C286.621 421.725 299.536 419.283 309.314 422.06C299.226 426.385 288.08 427.612 277.293 425.586Z" fill="#FFC100"/>
<path d="M268.239 435.645C277.558 431.784 290.473 429.342 300.251 432.119C290.165 436.439 279.023 437.666 268.239 435.645Z" fill="#FFC100"/>
<path d="M256.426 446.869C265.753 443.007 278.669 440.565 288.446 443.342C278.357 447.663 267.213 448.89 256.426 446.869Z" fill="#FFC100"/>
<path d="M289.036 411.674C289.036 411.674 289.036 411.727 288.948 411.815L288.666 412.203L287.564 413.684C286.594 414.962 285.157 416.787 283.35 419.018C279.735 423.47 274.534 429.474 268.433 435.768C265.374 438.907 262.376 441.816 259.617 444.408C256.857 447 254.283 449.257 252.097 451.117C249.91 452.978 248.121 454.468 246.86 455.455L245.414 456.601L245.026 456.892L244.894 456.98L245.008 456.866L245.37 456.548L246.772 455.349C248.006 454.327 249.769 452.819 251.929 450.941C254.089 449.063 256.619 446.762 259.388 444.17C262.156 441.578 265.127 438.66 268.204 435.53C274.305 429.262 279.515 423.294 283.191 418.885C285.025 416.681 286.489 414.883 287.485 413.596L288.649 412.159C288.772 412.009 288.878 411.894 288.957 411.788L289.036 411.674Z" fill="#263238"/>
<path d="M599.11 290.259C599.11 290.382 524.032 290.488 431.435 290.488C338.839 290.488 263.751 290.382 263.751 290.259C263.751 290.135 338.812 290.029 431.435 290.029C524.058 290.029 599.11 290.179 599.11 290.259Z" fill="#263238"/>
<path d="M477.121 311.956C477.121 312.088 459.894 312.185 438.638 312.185C417.382 312.185 400.146 312.088 400.146 311.956C400.146 311.824 417.382 311.727 438.638 311.727C459.894 311.727 477.121 311.832 477.121 311.956Z" fill="#263238"/>
<path d="M452.409 320.436C452.409 320.56 447.031 320.665 440.401 320.665C433.771 320.665 428.394 320.56 428.394 320.436C428.394 320.313 433.771 320.207 440.401 320.207C447.031 320.207 452.409 320.304 452.409 320.436Z" fill="#263238"/>
<path d="M445.347 331.73C441.351 332.036 437.337 332.036 433.34 331.73C437.337 331.425 441.351 331.425 445.347 331.73Z" fill="#263238"/>
<path d="M582.704 425.243H571.031V456.876H582.704V425.243Z" fill="#F5F5F5"/>
<path d="M574.601 439.666L572.847 423.665L566.702 418.023L567.822 416.7L574.601 422.598L576.691 439.666H574.601Z" fill="#FFC100"/>
<path opacity="0.3" d="M574.601 439.666L572.847 423.665L566.702 418.023L567.822 416.7L574.601 422.598L576.691 439.666H574.601Z" fill="white"/>
<path d="M582.712 456.876C582.692 456.665 582.692 456.452 582.712 456.241C582.712 455.8 582.712 455.209 582.712 454.478C582.712 452.891 582.712 450.651 582.65 447.857C582.65 442.223 582.589 434.35 582.545 425.261L582.774 425.481H571.039L571.26 425.261V434.368C571.26 437.313 571.26 440.143 571.26 442.831C571.26 448.183 571.26 452.952 571.207 456.876L571.048 456.726L579.574 456.805L581.892 456.849H582.509H582.73C582.73 456.849 582.668 456.849 582.536 456.849H581.954H579.662L571.048 456.937H570.898V456.779C570.898 452.855 570.898 448.086 570.845 442.734C570.845 440.09 570.845 437.216 570.845 434.271V429.784C570.845 429.016 570.845 428.249 570.845 427.482V425.164L571.084 424.926H582.977V425.146C582.977 434.297 582.897 442.214 582.871 447.892C582.871 450.669 582.871 452.891 582.809 454.46C582.809 455.192 582.809 455.765 582.809 456.223C582.793 456.443 582.76 456.661 582.712 456.876Z" fill="#263238"/>
<path d="M572.027 440.442C572.499 439.864 573.115 439.421 573.813 439.158C574.512 438.895 575.267 438.821 576.003 438.944C578.384 439.481 578.489 441.112 580.596 441.059H581.822V454.16C581.822 454.486 581.693 454.799 581.463 455.03C581.234 455.261 580.922 455.392 580.596 455.395H573.253C572.927 455.392 572.615 455.261 572.385 455.03C572.156 454.799 572.027 454.486 572.027 454.16V440.442Z" fill="#FFC100"/>
<path d="M558.036 314.449C556.481 314.973 554.959 315.588 553.478 316.292L558.547 309.98C559.684 308.569 561.324 306.356 560.769 305.572C560.213 304.787 557.948 307.494 556.775 308.437C555.603 309.38 553.963 310.747 553.963 310.747C553.963 310.747 558.371 305.069 559.085 303.2C559.64 301.842 557.842 301.366 556.916 302.768C556.916 302.768 557.225 301.005 555.911 301.587C554.598 302.169 550.375 307.873 550.04 307.52C549.705 307.167 552.861 302.362 552.508 301.516C552.305 301.031 551.538 301.199 550.674 302.398C549.81 303.597 543.357 312.528 542.801 313.982C542.664 314.303 542.561 314.637 542.493 314.978C542.493 314.978 520.038 331.368 516.503 337.698C513.444 343.173 508.771 383.33 508.771 383.33L523.988 390.207L528.131 343.19L549.167 321.917C549.6 321.912 550.029 321.835 550.436 321.688C552.103 321.026 560.619 315.128 560.619 315.128C560.619 315.128 560.108 313.885 558.036 314.449Z" fill="#FFBE9D"/>
<path d="M547.535 312.801C547.805 313.117 547.998 313.491 548.1 313.894C548.436 314.849 548.573 315.863 548.505 316.874L548.258 316.689L548.373 316.645C549.354 316.309 550.387 316.151 551.423 316.177C551.853 316.153 552.283 316.223 552.684 316.38C551.266 316.389 549.857 316.597 548.496 316.997L548.382 317.041L548.108 317.13V316.847C548.152 315.476 547.958 314.107 547.535 312.801Z" fill="#EB996E"/>
<path d="M557.075 302.574C556.35 303.903 555.528 305.176 554.615 306.383C553.803 307.662 552.825 308.827 551.706 309.848C551.635 309.786 552.887 308.208 554.351 306.162C555.151 304.889 556.063 303.688 557.075 302.574Z" fill="#EB996E"/>
<path d="M543.304 316.336C543.41 316.336 543.683 317.218 544.265 318.293C544.847 319.369 545.49 320.056 545.411 320.145C544.803 319.702 544.3 319.131 543.936 318.473C543.572 317.815 543.356 317.086 543.304 316.336Z" fill="#EB996E"/>
<path d="M441.177 401.474L463.703 402.171L487.506 395.021C488.441 390.19 491.667 383.657 499.893 382.969C508.903 382.211 515.074 384.283 519.289 382.969L525.566 380.324C525.566 380.324 540.756 391.609 541.435 394.43C542.114 397.251 528.837 411.798 524.164 415.651C516.926 421.628 500.008 422.871 494.286 423.585C485.884 431.52 479.298 438.017 475.067 440.098C468.014 443.554 452.003 443.783 443.575 439.137C429.628 431.485 441.177 401.474 441.177 401.474Z" fill="#FFC100"/>
<path d="M538.843 391.177C538.089 390.406 537.168 389.819 536.152 389.46C535.136 389.101 534.051 388.979 532.98 389.105C530.845 389.376 528.742 389.86 526.703 390.551C522.515 391.707 518.17 392.19 513.831 391.979C510.869 391.838 507.819 391.335 505.315 389.731C502.811 388.126 500.907 385.816 501.286 382.872C506.197 382.71 511.114 382.846 516.009 383.277L519.262 382.281C520.761 381.699 525.248 379.769 525.248 379.769L535.616 386.822L538.843 391.177Z" fill="#FFBE9D"/>
<path d="M493.034 407.708C492.893 407.532 492.781 407.336 492.699 407.126C492.438 406.571 492.222 405.996 492.055 405.407C491.506 403.449 491.368 401.399 491.65 399.385C491.932 397.372 492.629 395.438 493.695 393.707C494.013 393.183 494.376 392.688 494.78 392.226C495.071 391.909 495.247 391.741 495.265 391.759C495.282 391.777 494.718 392.544 493.977 393.866C492.039 397.355 491.467 401.44 492.373 405.327C492.717 406.799 493.105 407.672 493.034 407.708Z" fill="#263238"/>
<path d="M481.573 418.014C481.512 418.058 480.745 416.965 479.325 415.369C477.479 413.251 475.41 411.339 473.154 409.665C470.899 407.992 468.473 406.565 465.916 405.407C463.95 404.525 462.68 404.102 462.707 404.022C463.008 404.064 463.303 404.138 463.588 404.243C464.17 404.41 465.008 404.701 466.013 405.124C471.278 407.304 475.919 410.757 479.519 415.175C480.062 415.839 480.571 416.531 481.044 417.247C481.252 417.479 481.43 417.737 481.573 418.014Z" fill="#263238"/>
<path d="M472.14 423.03C471.998 423.03 472.139 420.843 471.575 418.243C471.011 415.642 470.024 413.702 470.147 413.641C471.11 414.978 471.753 416.52 472.025 418.146C472.444 419.742 472.483 421.415 472.14 423.03Z" fill="#263238"/>
<g opacity="0.3">
<path d="M494.868 392.121C493.912 392.381 493.024 392.844 492.263 393.478C491.502 394.113 490.887 394.903 490.46 395.797C489.61 397.59 489.214 399.563 489.305 401.545C489.305 403.599 489.79 405.847 491.412 407.126C491.694 407.355 492.117 407.531 492.39 407.293C492.664 407.055 492.558 406.658 492.452 406.332C491.707 403.908 491.548 401.341 491.988 398.843C492.428 396.345 493.454 393.986 494.982 391.962" fill="black"/>
</g>
<g opacity="0.3">
<path d="M477.235 423.303C477.315 420.658 476.468 418.736 475.155 416.461C473.784 414.215 472.117 412.163 470.2 410.361C469.169 409.44 468.022 408.657 466.788 408.033C465.69 407.32 464.404 406.948 463.094 406.966C466.171 408.633 469.204 410.696 470.764 414.901C471.767 417.401 472.244 420.081 472.166 422.774L477.235 423.303Z" fill="black"/>
</g>
<path d="M493.105 424.079C493.621 423.501 494.09 422.882 494.506 422.228C495.578 420.405 495.983 418.268 495.653 416.18C495.369 414.655 494.683 413.234 493.664 412.065C492.645 410.896 491.332 410.021 489.86 409.532C488.098 409.016 486.235 408.946 484.438 409.329C482.552 409.585 480.418 409.92 478.399 409.136C477.394 408.781 476.515 408.141 475.869 407.293C475.245 406.448 474.95 405.404 475.04 404.357C475.07 403.846 475.219 403.349 475.475 402.905C475.73 402.461 476.085 402.083 476.513 401.8C476.936 401.552 477.41 401.405 477.899 401.37C478.389 401.334 478.88 401.412 479.334 401.598C479.781 401.764 480.168 402.06 480.446 402.448C480.724 402.836 480.88 403.298 480.894 403.775C480.901 404.213 480.813 404.647 480.639 405.048C480.464 405.45 480.205 405.809 479.88 406.103C479.261 406.616 478.497 406.924 477.694 406.984C476.998 407.047 476.297 406.962 475.637 406.735C474.976 406.509 474.37 406.146 473.859 405.671C473.423 405.282 473.051 404.827 472.757 404.322C472.254 403.524 471.952 402.617 471.875 401.677C471.838 401.083 471.901 400.487 472.06 399.914C472.123 399.722 472.202 399.536 472.298 399.358C472.074 400.097 471.99 400.872 472.052 401.642C472.149 402.536 472.451 403.395 472.933 404.154C473.226 404.629 473.592 405.055 474.018 405.415C474.481 405.834 475.023 406.154 475.613 406.358C476.27 406.614 476.982 406.692 477.678 406.585C478.375 406.478 479.031 406.19 479.581 405.75C479.863 405.492 480.088 405.177 480.24 404.826C480.392 404.475 480.468 404.096 480.462 403.714C480.439 403.323 480.301 402.947 480.066 402.634C479.831 402.32 479.509 402.083 479.14 401.95C478.746 401.797 478.323 401.734 477.902 401.766C477.481 401.798 477.072 401.924 476.707 402.135C476.341 402.384 476.037 402.714 475.82 403.099C475.603 403.485 475.478 403.915 475.455 404.357C475.375 405.299 475.638 406.238 476.195 407.002C476.794 407.775 477.602 408.359 478.523 408.686C480.409 409.418 482.437 409.118 484.341 408.862C485.293 408.719 486.253 408.645 487.215 408.642C488.152 408.648 489.08 408.806 489.966 409.109C491.257 409.527 492.433 410.237 493.405 411.184C494.376 412.131 495.116 413.29 495.566 414.569C496.017 415.849 496.166 417.215 496.002 418.562C495.838 419.909 495.365 421.199 494.621 422.333C494.231 423.007 493.717 423.599 493.105 424.079Z" fill="#FAFAFA"/>
<path d="M494.691 392.446C494.691 392.49 494.277 392.244 493.81 391.671C493.226 390.911 492.841 390.017 492.69 389.07C492.537 388.122 492.631 387.15 492.963 386.249C493.219 385.561 493.51 385.208 493.554 385.235C493.085 386.429 492.943 387.727 493.143 388.995C493.343 390.263 493.877 391.454 494.691 392.446Z" fill="#FAFAFA"/>
<path d="M513.496 413.059C513.452 413.059 513.734 412.371 513.902 411.084C514.111 409.263 513.934 407.419 513.382 405.671C512.61 403.065 510.847 400.865 508.471 399.544C507.081 398.782 505.504 398.427 503.922 398.521C502.224 398.609 500.602 399.25 499.302 400.346C498.657 400.887 498.173 401.595 497.9 402.391C497.766 402.758 497.731 403.153 497.799 403.537C497.867 403.921 498.036 404.28 498.288 404.578C498.549 404.85 498.87 405.057 499.225 405.181C499.581 405.305 499.961 405.343 500.334 405.292C500.692 405.23 501.033 405.094 501.337 404.894C501.64 404.694 501.899 404.433 502.097 404.128C502.468 403.54 502.656 402.856 502.639 402.161C502.621 401.466 502.399 400.792 502 400.223C501.292 399.198 500.271 398.431 499.091 398.036C497.36 397.44 495.479 397.44 493.748 398.036C493.12 398.287 492.51 398.581 491.923 398.918C492.05 398.795 492.188 398.686 492.337 398.592C492.764 398.32 493.216 398.09 493.686 397.904C495.472 397.193 497.451 397.134 499.276 397.737C500.539 398.137 501.636 398.943 502.397 400.029C502.81 400.65 503.059 401.366 503.12 402.109C503.184 402.911 502.972 403.71 502.52 404.375C502.288 404.734 501.984 405.041 501.628 405.276C501.271 405.511 500.869 405.67 500.448 405.742C500.001 405.798 499.546 405.748 499.121 405.594C498.697 405.441 498.315 405.189 498.006 404.86C497.696 404.503 497.488 404.069 497.403 403.604C497.317 403.139 497.358 402.659 497.521 402.215C497.813 401.337 498.344 400.558 499.055 399.967C500.429 398.802 502.149 398.124 503.948 398.036C505.613 397.944 507.27 398.326 508.727 399.138C509.944 399.822 511.014 400.739 511.874 401.837C512.735 402.936 513.371 404.194 513.743 405.539C514.273 407.335 514.396 409.226 514.105 411.075C514.02 411.572 513.896 412.062 513.734 412.539C513.676 412.721 513.596 412.896 513.496 413.059Z" fill="#FAFAFA"/>
<g opacity="0.3">
<path d="M526.147 395.091C523.961 393.327 520.858 393.327 518.019 393.53C515.736 393.662 513.285 393.848 511.486 395.293C510.288 396.339 509.416 397.707 508.974 399.234C508.451 400.767 508.18 402.375 508.171 403.995C508.226 404.88 508.166 405.769 507.995 406.64C507.634 407.971 506.602 409.003 505.8 410.122C503.719 413.058 502.555 418.736 505.923 422.112C505.923 422.112 509.644 421.477 510.948 421.125" fill="black"/>
</g>
<path d="M501.039 384.362C501.039 384.477 500.466 384.362 500.087 383.895C499.708 383.428 499.743 382.854 499.867 382.854C499.99 382.854 500.149 383.234 500.449 383.613C500.748 383.992 501.039 384.239 501.039 384.362Z" fill="#FAFAFA"/>
<path d="M522.26 400.381C522.26 400.425 521.748 400.187 521.096 399.623C519.412 398.087 518.394 395.956 518.257 393.681C518.192 393.216 518.238 392.742 518.389 392.297C518.546 393.813 518.923 395.298 519.509 396.705C520.236 398.062 521.163 399.301 522.26 400.381Z" fill="#FAFAFA"/>
<path d="M471.946 419.194C472.066 419.29 472.167 419.406 472.245 419.538C472.497 419.879 472.693 420.257 472.827 420.658C473.042 421.311 473.166 421.99 473.198 422.677C473.259 423.479 473.198 424.387 473.251 425.374C473.235 426.437 473.461 427.489 473.912 428.451C474.164 428.969 474.539 429.417 475.005 429.756C475.512 430.1 476.097 430.312 476.706 430.373C477.353 430.466 478.009 430.466 478.655 430.373C479.304 430.309 479.902 429.992 480.321 429.492C480.494 429.211 480.597 428.894 480.622 428.566C480.646 428.237 480.592 427.908 480.462 427.605C480.206 426.935 479.781 426.343 479.228 425.886C478.722 425.401 478.087 425.072 477.399 424.939C476.711 424.806 475.999 424.875 475.349 425.136C474.175 425.794 473.209 426.769 472.563 427.949C471.883 428.961 471.435 430.111 471.249 431.317C471.146 432.376 471.303 433.444 471.708 434.429C472.338 435.856 473.212 437.163 474.291 438.29C474.695 438.703 475.074 439.139 475.428 439.595C475.302 439.515 475.187 439.421 475.084 439.313C474.864 439.11 474.547 438.81 474.159 438.431C473.008 437.327 472.075 436.018 471.408 434.57C470.96 433.541 470.775 432.417 470.87 431.299C471.046 430.038 471.504 428.832 472.21 427.772C472.888 426.514 473.913 425.476 475.164 424.784C475.875 424.456 476.673 424.369 477.438 424.537C478.213 424.706 478.933 425.07 479.528 425.595C480.138 426.101 480.606 426.757 480.885 427.499C481.043 427.87 481.107 428.274 481.072 428.675C481.037 429.076 480.903 429.463 480.683 429.8C480.444 430.098 480.15 430.346 479.815 430.529C479.481 430.712 479.113 430.827 478.734 430.867C478.044 430.968 477.343 430.968 476.654 430.867C475.98 430.793 475.335 430.554 474.776 430.17C474.263 429.788 473.851 429.285 473.577 428.707C473.112 427.687 472.889 426.574 472.924 425.454C472.924 424.449 472.977 423.558 472.924 422.809C472.91 422.139 472.815 421.473 472.642 420.825C472.482 420.254 472.248 419.705 471.946 419.194Z" fill="#FAFAFA"/>
<path d="M468.516 406.781C468.56 406.781 468.789 406.896 469.036 407.266C469.344 407.749 469.52 408.304 469.548 408.876C469.576 409.448 469.454 410.017 469.195 410.528C468.983 410.907 468.772 411.084 468.728 411.048C469.002 410.364 469.125 409.628 469.089 408.892C469.052 408.155 468.857 407.435 468.516 406.781Z" fill="#FAFAFA"/>
<path d="M457.567 407.778C457.523 407.778 457.232 407.575 456.932 407.055C456.542 406.368 456.355 405.585 456.394 404.797C456.433 404.008 456.696 403.247 457.152 402.603C457.505 402.118 457.813 401.915 457.858 401.95C457.253 402.791 456.905 403.787 456.853 404.821C456.801 405.855 457.049 406.881 457.567 407.778Z" fill="#FAFAFA"/>
<path d="M332.342 374.196C332.342 374.196 386.261 362.85 390.528 361.351C394.795 359.852 401.452 361.624 403.629 363.467C403.629 363.467 456.949 403.492 453 403.228C447.49 402.858 435.702 425.859 435.702 425.859C435.702 425.859 393.94 383.85 388.404 383.4C382.867 382.951 332.35 377.229 332.35 377.229L332.342 374.196Z" fill="#EB996E"/>
<path d="M310.31 370.141C314.198 366.138 328.824 375.722 335.789 373.456C338.574 376.233 338.698 377.978 338.698 377.978C338.698 377.978 327.113 385.076 324.909 382.898C322.705 380.72 321.304 376.101 316.728 374.417C314.308 373.465 312.12 372.008 310.31 370.141Z" fill="#EB996E"/>
<path d="M326.999 374.621L330.631 374.33L388.192 369.789C388.192 369.789 396.374 368.026 401.716 372.505C403.435 373.951 453.009 403.229 453.009 403.229C453.009 403.229 471.734 417.053 464.549 432.182C458.325 445.282 445.665 441.201 437.104 436.837C429.778 433.107 407.711 411.023 397.723 397.922C397.529 397.666 397.343 397.411 397.167 397.146C396.1 395.603 391.56 389.458 386.87 389.917C381.51 390.455 364.3 390.172 355.37 388.303C346.439 386.434 325.13 379.91 325.13 379.91L326.999 374.621Z" fill="#FFBE9D"/>
<path d="M304.271 366.977C308.776 363.671 321.577 375.546 328.841 374.471C328.841 380.086 325.112 379.91 325.112 379.91C325.112 379.91 318.368 384.495 316.561 381.982C314.753 379.469 314.127 374.682 309.895 372.284C307.664 370.935 305.747 369.126 304.271 366.977Z" fill="#FFBE9D"/>
<path d="M571.745 366.658C568.756 364.763 564.895 366.024 561.368 366.315C557.138 366.655 552.921 365.498 549.458 363.044C541.894 357.631 538.993 346.769 530.521 342.925C527.937 341.835 525.108 341.46 522.33 341.84C519.551 342.22 516.927 343.341 514.731 345.085C512.575 346.875 510.866 349.144 509.743 351.711C508.619 354.278 508.111 357.072 508.26 359.87C508.45 362.665 509.192 365.395 510.441 367.902C511.691 370.409 513.425 372.644 515.542 374.478L548.55 389.748C557.022 390.63 566.949 386.53 571.243 379.169C572.389 377.194 574.769 374.822 574.707 372.53C574.728 371.384 574.469 370.251 573.952 369.228C573.436 368.205 572.679 367.323 571.745 366.658Z" fill="#FFC100"/>
<g opacity="0.3">
<path d="M540.051 355.418C539.736 352.801 538.695 350.325 537.045 348.269C535.395 346.214 533.202 344.662 530.714 343.79C528.206 342.98 525.533 342.828 522.949 343.346C520.365 343.865 517.957 345.037 515.956 346.752C513.99 348.505 512.462 350.694 511.493 353.143C510.524 355.592 510.141 358.234 510.375 360.858C510.79 364.606 512.186 368.179 514.422 371.217C516.662 374.238 519.336 376.912 522.357 379.151" fill="black"/>
</g>
<path d="M528.131 361.272C526.853 363.917 525.284 366.888 522.445 367.77C520.399 368.396 517.763 367.955 516.494 369.674C515.224 371.393 516.494 374.294 515.286 376.189C514.501 377.415 512.888 377.82 511.433 377.873C509.979 377.926 508.462 377.75 507.087 378.235C505.712 378.72 504.504 380.192 504.98 381.576C505.456 382.96 507.237 383.383 508.718 383.569C511.09 383.851 513.576 384.133 515.824 383.304C517.339 382.652 518.738 381.759 519.967 380.659L527.726 374.426" fill="#263238"/>
<path d="M548.55 351.513C547.121 351.003 545.577 350.909 544.096 351.239C542.616 351.57 541.259 352.313 540.183 353.382C539.434 354.264 538.825 355.357 537.767 355.859C536.811 356.165 535.808 356.3 534.805 356.256C533.124 356.393 531.531 357.061 530.256 358.165C528.98 359.269 528.09 360.75 527.714 362.394C527.337 364.038 527.495 365.759 528.163 367.307C528.831 368.856 529.975 370.151 531.429 371.005" fill="#263238"/>
<g opacity="0.3">
<path d="M549.281 389.158C552.693 389.051 556.04 388.197 559.087 386.657C562.133 385.118 564.805 382.929 566.914 380.245C568.175 378.731 569.058 376.939 569.488 375.017C569.616 374.541 569.575 374.037 569.374 373.588C568.915 372.768 567.734 372.76 566.835 373.033C565.935 373.306 565.01 373.765 564.11 373.5C563.343 376.695 561.523 379.54 558.944 381.576C556.376 383.583 553.59 385.295 550.639 386.68" fill="black"/>
</g>
<path d="M535.607 358.945C543.798 344.354 559.711 353.109 562.982 361.854C566.05 370.08 564.745 375.475 561.06 379.936C557.384 384.511 552.358 387.809 546.698 389.361C543.912 390.057 540.527 390.066 538.623 387.959" fill="#263238"/>
<path d="M514.907 384.088C520.699 379.68 524.182 377.114 524.146 377.132C524.111 377.15 521.29 371.472 527.1 365.6C529.991 362.682 535.475 358.909 540.068 355.964C544.194 353.32 550.956 352.385 553.434 356.626L559.332 371.181C559.697 371.8 559.816 372.534 559.664 373.237C559.512 373.94 559.1 374.559 558.512 374.972L532.513 392.816" fill="#FFBE9D"/>
<path d="M537.353 361.511C537.131 361.667 536.98 361.904 536.93 362.171C536.881 362.438 536.938 362.713 537.089 362.939C537.156 363.053 537.246 363.152 537.353 363.231C537.46 363.309 537.582 363.366 537.711 363.396C537.84 363.427 537.974 363.431 538.105 363.408C538.236 363.386 538.361 363.337 538.473 363.265C538.696 363.11 538.849 362.873 538.9 362.607C538.951 362.34 538.896 362.063 538.746 361.837C538.604 361.609 538.378 361.447 538.117 361.386C537.856 361.325 537.581 361.37 537.353 361.511Z" fill="#263238"/>
<path d="M543.939 370.449C543.718 370.604 543.566 370.839 543.517 371.105C543.467 371.37 543.524 371.644 543.674 371.868C543.742 371.983 543.832 372.082 543.939 372.161C544.046 372.239 544.168 372.295 544.297 372.326C544.426 372.356 544.56 372.36 544.691 372.338C544.822 372.315 544.947 372.267 545.058 372.195C545.281 372.041 545.434 371.806 545.485 371.541C545.536 371.275 545.481 371 545.332 370.775C545.263 370.661 545.172 370.561 545.064 370.483C544.957 370.404 544.834 370.348 544.704 370.317C544.574 370.287 544.44 370.283 544.308 370.305C544.177 370.328 544.051 370.377 543.939 370.449Z" fill="#263238"/>
<path d="M538.525 359.077C538.525 359.262 539.407 359.589 540.051 360.523C540.694 361.458 540.685 362.454 540.87 362.471C541.056 362.489 541.082 362.242 541.091 361.793C541.096 361.201 540.917 360.621 540.58 360.135C540.25 359.65 539.774 359.283 539.222 359.086C538.808 358.945 538.543 358.989 538.525 359.077Z" fill="#263238"/>
<path d="M544.635 367.857C544.635 368.042 545.517 368.333 546.213 369.241C546.91 370.15 546.918 371.146 547.095 371.163C547.271 371.181 547.297 370.917 547.289 370.476C547.274 369.883 547.073 369.309 546.716 368.836C546.37 368.364 545.881 368.015 545.323 367.84C544.908 367.76 544.644 367.76 544.635 367.857Z" fill="#263238"/>
<path d="M535.352 369.876C535.159 369.286 534.886 368.726 534.541 368.21C534.391 367.954 534.276 367.699 534.408 367.549C534.634 367.353 534.914 367.23 535.211 367.196L537.476 366.588C539.44 366.13 541.363 365.511 543.225 364.736C541.232 365.045 539.266 365.508 537.344 366.12L535.087 366.764C534.697 366.824 534.34 367.02 534.082 367.319C534.027 367.413 533.993 367.518 533.984 367.626C533.975 367.735 533.991 367.844 534.029 367.945C534.087 368.098 534.164 368.244 534.259 368.377C534.558 368.921 534.925 369.425 535.352 369.876Z" fill="#263238"/>
<path d="M524.146 377.133C526.377 380.253 529.428 382.695 532.962 384.186C532.962 384.186 526.791 385.314 522.533 378.279L524.146 377.133Z" fill="#EB996E"/>
<path d="M533.447 371.87C533.791 371.882 534.126 371.982 534.42 372.159C534.715 372.337 534.96 372.586 535.131 372.884C535.261 373.099 535.346 373.338 535.381 373.586C535.416 373.835 535.4 374.088 535.334 374.33C535.274 374.565 535.142 374.776 534.958 374.934C534.773 375.091 534.544 375.188 534.303 375.211C534.033 375.184 533.778 375.078 533.569 374.905C533.36 374.732 533.207 374.501 533.13 374.242C532.967 373.699 532.913 373.13 532.971 372.567C532.971 372.413 532.998 372.261 533.051 372.117C533.077 372.046 533.124 371.985 533.185 371.941C533.246 371.897 533.319 371.872 533.395 371.87" fill="#EB996E"/>
<path d="M536.692 373.05C536.586 372.901 535.599 373.623 534.285 373.288C532.971 372.953 532.301 371.834 532.16 371.922C532.019 372.01 532.16 372.301 532.451 372.751C532.867 373.335 533.476 373.754 534.17 373.932C534.835 374.102 535.54 374.007 536.136 373.668C536.577 373.359 536.745 373.05 536.692 373.05Z" fill="#263238"/>
<path d="M545.799 366.659C545.614 366.923 546.398 367.752 547.051 368.907C547.703 370.062 548.047 371.146 548.373 371.12C548.523 371.12 548.646 370.785 548.629 370.238C548.593 369.557 548.393 368.895 548.047 368.307C547.708 367.717 547.238 367.213 546.672 366.835C546.222 366.588 545.887 366.535 545.799 366.659Z" fill="#263238"/>
<path d="M541.003 357.587C540.915 357.896 541.585 358.363 542.149 359.113C542.713 359.862 543.031 360.603 543.357 360.594C543.507 360.594 543.639 360.329 543.63 359.906C543.588 359.36 543.386 358.839 543.049 358.407C542.712 357.976 542.255 357.654 541.735 357.482C541.329 357.376 541.056 357.446 541.003 357.587Z" fill="#263238"/>
<path d="M549.061 380.175C549.176 380.237 553.205 382.555 549.29 385.465C545.376 388.374 543.243 383.86 543.357 383.772C543.472 383.684 549.061 380.175 549.061 380.175Z" fill="#FFBE9D"/>
<path d="M545.728 383.877C545.728 383.877 545.728 383.974 545.728 384.132C545.782 384.346 545.914 384.531 546.098 384.652C546.448 384.783 546.826 384.82 547.195 384.758C547.563 384.696 547.909 384.538 548.197 384.3C548.557 384.062 548.858 383.745 549.078 383.374C549.168 383.248 549.227 383.102 549.25 382.949C549.273 382.796 549.26 382.639 549.21 382.492C549.173 382.399 549.104 382.322 549.015 382.275C548.926 382.229 548.823 382.215 548.725 382.237C548.576 382.237 548.523 382.351 548.496 382.334C548.47 382.316 548.496 382.201 548.681 382.113C548.798 382.072 548.926 382.072 549.043 382.113C549.204 382.159 549.34 382.267 549.422 382.413C549.512 382.598 549.552 382.803 549.54 383.009C549.528 383.214 549.463 383.413 549.351 383.586C549.145 384.001 548.843 384.36 548.47 384.635C548.136 384.914 547.727 385.088 547.294 385.137C546.862 385.185 546.424 385.106 546.037 384.908C545.924 384.828 545.832 384.722 545.767 384.6C545.703 384.477 545.668 384.341 545.666 384.203C545.64 383.956 545.71 383.868 545.728 383.877Z" fill="#EB996E"/>
<path d="M554.448 353.858C551.706 352.491 546.566 354.88 544.935 357.472C543.304 360.064 543.974 363.326 545.217 366.13C546.366 368.897 548.183 371.335 550.507 373.227C549.026 374.558 548.091 376.753 548.805 378.587C549.757 381.047 553.152 381.734 555.567 380.668C557.983 379.601 559.623 377.344 561.139 375.193" fill="#263238"/>
<path d="M552.905 381.726C552.731 381.717 552.56 381.688 552.394 381.638C552.076 381.55 551.609 381.435 551.045 381.224C550.377 380.994 549.749 380.661 549.184 380.236C548.467 379.715 547.938 378.976 547.677 378.129C547.458 377.266 547.532 376.354 547.888 375.537C548.166 374.877 548.57 374.278 549.079 373.774C549.414 373.446 549.78 373.151 550.172 372.892C550.306 372.784 550.458 372.701 550.621 372.646C550.621 372.646 550.022 373.077 549.22 373.933C548.755 374.429 548.385 375.005 548.126 375.634C547.806 376.399 547.744 377.247 547.95 378.05C548.191 378.843 548.679 379.538 549.343 380.033C549.878 380.453 550.473 380.792 551.106 381.039C552.173 381.479 552.922 381.682 552.905 381.726Z" fill="#263238"/>
<path d="M562.858 375.044C562.858 375.044 563.035 374.823 563.273 374.382C563.598 373.758 563.79 373.074 563.837 372.372C563.903 371.329 563.749 370.284 563.387 369.304C562.908 368.111 562.318 366.966 561.624 365.884C560.389 363.889 559.381 361.763 558.618 359.545C558.336 358.663 558.133 357.993 558.018 357.508C557.948 357.261 557.912 357.067 557.886 356.944C557.86 356.821 557.886 356.741 557.886 356.741C557.911 356.804 557.931 356.869 557.948 356.935L558.115 357.491C558.256 357.967 558.468 358.663 558.768 359.501C559.561 361.698 560.581 363.808 561.809 365.795C562.507 366.888 563.097 368.045 563.572 369.251C563.936 370.252 564.08 371.32 563.996 372.381C563.938 373.099 563.721 373.794 563.361 374.418C563.265 374.585 563.156 374.744 563.035 374.894C562.981 374.949 562.922 374.999 562.858 375.044Z" fill="#455A64"/>
<path d="M542.176 381.109C541.887 380.713 541.513 380.387 541.081 380.157C540.649 379.926 540.171 379.796 539.681 379.776C539.192 379.757 538.704 379.848 538.255 380.044C537.806 380.24 537.407 380.535 537.089 380.906C536.551 381.541 536.154 382.449 535.325 382.59C534.497 382.731 533.985 382.185 533.368 381.815C532.746 381.445 532.047 381.223 531.326 381.165C530.605 381.106 529.88 381.214 529.207 381.478C528.533 381.743 527.929 382.157 527.44 382.691C526.951 383.224 526.591 383.862 526.386 384.556C526.095 385.535 526.051 386.716 525.231 387.333C524.411 387.951 523.203 387.642 522.145 387.58C521.422 387.542 520.698 387.65 520.017 387.898C519.336 388.145 518.712 388.527 518.181 389.02C517.651 389.514 517.225 390.109 516.929 390.77C516.633 391.432 516.473 392.146 516.459 392.87C516.509 393.341 516.439 393.817 516.256 394.254C515.932 394.666 515.494 394.973 514.995 395.136C513.724 395.733 512.637 396.66 511.844 397.819C511.052 398.979 510.585 400.329 510.49 401.73C510.405 402.266 510.464 402.816 510.663 403.321C510.861 403.827 511.191 404.27 511.619 404.604C512.091 404.81 512.606 404.901 513.121 404.87C513.636 404.84 514.136 404.688 514.581 404.428C517.949 402.938 520.576 399.976 524.094 398.874C525.129 398.65 526.137 398.312 527.1 397.869C528.114 397.167 528.974 396.268 529.63 395.224C533.465 390.071 538.064 385.534 543.269 381.77" fill="#263238"/>
<path d="M514.501 345.271C516.391 343.684 518.597 342.519 520.974 341.855C523.35 341.19 525.841 341.041 528.279 341.418C530.718 341.794 533.048 342.687 535.113 344.038C537.178 345.388 538.931 347.164 540.253 349.247C540.594 349.932 541.115 350.511 541.761 350.922C542.863 351.469 544.159 350.825 545.287 350.349C547.538 349.4 549.997 349.052 552.423 349.339C554.849 349.626 557.159 350.538 559.126 351.985C561.094 353.433 562.652 355.367 563.647 357.597C564.643 359.828 565.043 362.279 564.806 364.71L570.334 366.051C570.405 366.051 570.334 366.641 570.334 366.641L570.898 373.826C567.742 374.708 558.291 373.139 556.581 372.398C552.719 370.75 549.863 369.603 546.654 366.906C541.426 362.498 539.998 350.111 534.602 345.914C529.312 341.832 520.152 341.832 514.484 345.315" fill="#FFC100"/>
<path d="M563.405 371.287C563.042 371.357 562.671 371.381 562.303 371.358C561.301 371.349 560.301 371.257 559.314 371.084C556.02 370.527 552.916 369.157 550.284 367.099C547.652 365.041 545.574 362.36 544.238 359.297C543.827 358.381 543.497 357.432 543.251 356.458C543.142 356.109 543.077 355.748 543.057 355.383C543.145 355.383 543.454 356.899 544.529 359.165C545.918 362.123 547.984 364.714 550.558 366.728C553.132 368.741 556.143 370.122 559.349 370.758C561.871 371.287 563.405 371.19 563.405 371.287Z" fill="#263238"/>
<path d="M564.815 365.495C564.461 365.609 564.094 365.677 563.722 365.698C562.712 365.813 561.695 365.84 560.681 365.777C557.306 365.577 554.047 364.477 551.241 362.591C548.435 360.706 546.185 358.105 544.723 355.057C544.281 354.145 543.921 353.195 543.648 352.218C543.529 351.864 543.455 351.497 543.427 351.125C543.891 352.412 544.42 353.675 545.014 354.907C546.519 357.856 548.748 360.374 551.493 362.225C554.238 364.076 557.409 365.198 560.707 365.487C563.237 365.681 564.807 365.398 564.815 365.495Z" fill="#FAFAFA"/>
<path d="M564.436 361.642C564.155 361.753 563.857 361.816 563.555 361.827C562.756 361.926 561.947 361.926 561.148 361.827C558.492 361.467 555.993 360.364 553.936 358.645C551.908 356.931 550.196 354.875 548.876 352.57C548.365 351.689 547.994 350.975 547.739 350.472C547.588 350.217 547.475 349.94 547.404 349.652C547.465 349.652 548.065 350.719 549.167 352.403C550.548 354.614 552.261 356.6 554.245 358.292C556.246 359.954 558.647 361.064 561.21 361.51C562.281 361.631 563.359 361.676 564.436 361.642Z" fill="#FAFAFA"/>
<path d="M563.802 358.6C563.081 358.52 562.378 358.324 561.721 358.019C560.096 357.358 558.583 356.451 557.233 355.33C555.891 354.205 554.731 352.878 553.795 351.398C553.376 350.803 553.055 350.145 552.843 349.449C554.144 351.499 555.723 353.359 557.533 354.977C559.444 356.471 561.553 357.691 563.802 358.6Z" fill="#FAFAFA"/>
<path d="M531.014 390.18C531.014 390.18 505.447 409.479 507.14 418.71C507.14 418.71 508.286 422.236 515.665 421.354C523.044 420.473 531.464 412.538 535.607 409.082C541.673 404.075 550.216 387.086 550.216 387.086L531.014 390.18Z" fill="#FFBE9D"/>
<path d="M547.677 364.992L544.344 376.453L520.038 401.553L537.75 402.249L554.183 382.325L560.504 371.745C560.504 371.745 562.338 367.496 558.82 368.06C558.82 368.06 558.071 365.574 556.661 365.636C555.966 365.641 555.275 365.739 554.606 365.927C554.606 365.927 554.077 364.34 552.79 364.692C552.449 364.751 552.13 364.903 551.87 365.132C551.61 365.361 551.419 365.657 551.318 365.988C551.318 365.988 551.142 364.049 549.44 364.225C547.739 364.402 547.677 364.992 547.677 364.992Z" fill="#FFBE9D"/>
<path d="M210.104 298.625C210.104 298.625 327.624 380.941 372.499 395.25C399.538 403.864 432.845 415.069 459.056 420.491C476.353 424.079 482.163 423.515 486.659 423.568C492.566 423.638 525.389 418.728 540.976 398.494C556.563 378.261 639.497 296.482 639.497 296.482L640.052 299.242C640.052 299.242 549.422 428.954 505.164 439.093C460.907 449.232 426.471 443.766 417.364 435.443C408.257 427.121 318.385 392.023 280.801 356.582C272.946 349.15 210.104 298.625 210.104 298.625Z" fill="#FFC100"/>
<path opacity="0.5" d="M210.104 298.625C210.104 298.625 327.624 380.941 372.499 395.25C399.538 403.864 432.845 415.069 459.056 420.491C476.353 424.079 482.163 423.515 486.659 423.568C492.566 423.638 525.389 418.728 540.976 398.494C556.563 378.261 639.497 296.482 639.497 296.482L640.052 299.242C640.052 299.242 549.422 428.954 505.164 439.093C460.907 449.232 426.471 443.766 417.364 435.443C408.257 427.121 318.385 392.023 280.801 356.582C272.946 349.15 210.104 298.625 210.104 298.625Z" fill="black"/>
<path d="M537.468 408.599C536.129 410.017 534.682 411.329 533.139 412.522C528.943 415.805 524.322 418.507 519.403 420.553C512.09 423.544 504.401 425.517 496.552 426.416C486.962 427.534 477.3 427.911 467.652 427.545C450.108 426.965 432.704 424.208 415.84 419.337C409.368 417.494 404.255 415.607 400.729 414.32L396.7 412.733L395.659 412.301C395.537 412.259 395.419 412.206 395.307 412.143L395.677 412.257L396.735 412.645L400.79 414.153C404.317 415.387 409.457 417.221 415.937 419.019C432.789 423.799 450.162 426.508 467.67 427.086C477.293 427.448 486.93 427.086 496.499 426.002C504.317 425.123 511.98 423.189 519.28 420.254C524.185 418.24 528.806 415.594 533.024 412.381C534.505 411.226 535.607 410.265 536.339 409.604L537.177 408.845C537.268 408.757 537.365 408.674 537.468 408.599Z" fill="#263238"/>
<path d="M514.263 422.599C514.087 422.688 513.904 422.765 513.717 422.828L512.103 423.41C510.701 423.921 508.656 424.591 506.117 425.367C492.839 429.404 479.15 431.935 465.307 432.914C462.662 433.099 460.502 433.196 459.021 433.231H457.258C457.061 433.25 456.863 433.25 456.667 433.231C456.86 433.183 457.059 433.16 457.258 433.16L458.968 433.037C460.449 432.958 462.591 432.808 465.236 432.579C470.526 432.138 477.826 431.3 485.796 429.828C493.765 428.356 500.88 426.531 505.976 425.05C508.533 424.309 510.587 423.683 512.006 423.233L513.637 422.731C513.84 422.664 514.05 422.62 514.263 422.599Z" fill="#263238"/>
<path d="M618.294 321.847C618.391 321.926 604.453 338.183 587.173 358.143C569.893 378.103 555.761 394.21 555.699 394.14C555.637 394.069 569.541 377.803 586.829 357.835C604.118 337.866 618.171 321.759 618.294 321.847Z" fill="#263238"/>
<path d="M393.287 412.653L393.049 412.565L392.379 412.265L389.796 411.075C387.566 410.035 384.348 408.492 380.389 406.552C372.455 402.673 361.611 397.163 349.78 390.78C337.948 384.397 327.36 378.341 319.796 373.818C316.005 371.57 312.954 369.727 310.856 368.431L308.449 366.932L307.823 366.527C307.75 366.485 307.682 366.434 307.621 366.377C307.702 366.404 307.779 366.442 307.85 366.492L308.493 366.853L310.953 368.272L319.963 373.562C327.58 377.97 338.169 384.009 349.991 390.401C361.814 396.793 372.658 402.338 380.539 406.27L389.876 410.916L392.415 412.195L393.067 412.53C393.145 412.562 393.219 412.603 393.287 412.653Z" fill="#263238"/>
<path d="M486.201 426.83C486.078 426.777 486.36 426.018 486.025 425.146C485.69 424.273 485.02 423.876 485.073 423.761C485.126 423.647 485.32 423.761 485.619 423.911C486.005 424.173 486.298 424.549 486.457 424.987C486.619 425.425 486.641 425.903 486.519 426.353C486.404 426.68 486.245 426.83 486.201 426.83Z" fill="#FAFAFA"/>
<path d="M476.186 431.026C476.124 431.132 475.366 430.559 475.243 429.484C475.119 428.408 475.683 427.659 475.772 427.72C475.86 427.782 475.569 428.496 475.692 429.395C475.816 430.295 476.283 430.929 476.186 431.026Z" fill="#FAFAFA"/>
<path d="M490.997 442.266C490.918 442.266 490.997 441.508 490.997 440.3C490.986 438.732 490.727 437.176 490.23 435.689C489.722 434.204 488.988 432.806 488.053 431.546C487.33 430.585 486.783 430.056 486.836 430.003C487.41 430.353 487.91 430.811 488.308 431.352C490.415 433.847 491.498 437.047 491.341 440.309C491.346 440.977 491.229 441.64 490.997 442.266Z" fill="#FAFAFA"/>
<path d="M512.262 422.872C512.05 422.089 511.797 421.318 511.504 420.562C510.931 419.354 510.067 418.64 510.155 418.534C510.243 418.428 511.283 419.037 511.918 420.359C512.146 420.731 512.294 421.147 512.353 421.579C512.412 422.012 512.381 422.452 512.262 422.872Z" fill="#FAFAFA"/>
<path d="M516.996 434.024C516.926 434.024 516.811 433.389 516.344 432.464C515.688 431.265 514.924 430.129 514.06 429.069C513.167 427.985 512.488 426.74 512.059 425.402C511.854 424.837 511.817 424.224 511.953 423.639C512.033 423.639 512.024 424.3 512.368 425.278C512.873 426.55 513.566 427.738 514.422 428.805C515.31 429.879 516.054 431.065 516.635 432.331C516.907 432.852 517.032 433.438 516.996 434.024Z" fill="#FAFAFA"/>
<path d="M531.807 413.06C531.558 412.344 531.23 411.658 530.829 411.015C530.079 410.009 529.065 409.648 529.127 409.525C529.189 409.401 529.418 409.481 529.833 409.657C530.373 409.892 530.841 410.266 531.19 410.741C531.548 411.207 531.782 411.756 531.869 412.337C531.895 412.787 531.895 413.06 531.807 413.06Z" fill="#FAFAFA"/>
<path d="M538.896 419.169C538.913 417.577 538.672 415.993 538.182 414.479C537.553 413.017 536.699 411.664 535.651 410.467C535.651 410.423 536.154 410.714 536.78 411.349C537.58 412.206 538.203 413.212 538.613 414.311C539.023 415.409 539.212 416.578 539.169 417.749C539.192 418.238 539.099 418.724 538.896 419.169Z" fill="#FAFAFA"/>
<path d="M556.202 401.784C556.131 401.828 555.699 401.131 554.853 400.144C552.629 397.555 549.676 395.696 546.38 394.81C545.128 394.475 544.317 394.378 544.317 394.299C545.037 394.237 545.762 394.303 546.46 394.493C548.163 394.859 549.789 395.522 551.265 396.45C552.743 397.387 554.042 398.581 555.1 399.976C555.566 400.513 555.938 401.123 556.202 401.784Z" fill="#FAFAFA"/>
<path d="M565.062 383.136C564.398 382.049 563.624 381.033 562.752 380.103C561.781 379.269 560.73 378.534 559.613 377.908C560.919 378.201 562.119 378.85 563.078 379.784C564.037 380.718 564.717 381.9 565.044 383.198L565.062 383.136Z" fill="#FAFAFA"/>
<path d="M572.856 385.2C572.856 385.253 572.424 385.2 571.78 384.979C570.948 384.649 570.192 384.154 569.557 383.524C568.923 382.894 568.422 382.141 568.086 381.312C567.848 380.668 567.813 380.245 567.866 380.228C568.406 381.302 569.084 382.301 569.885 383.199C570.786 383.989 571.784 384.662 572.856 385.2Z" fill="#FAFAFA"/>
<path d="M582.95 361.009C582.349 360.26 581.578 359.664 580.701 359.272C579.824 358.879 578.867 358.701 577.907 358.752C577.907 358.699 578.207 358.54 578.789 358.487C579.517 358.427 580.248 358.552 580.916 358.849C581.583 359.147 582.164 359.607 582.606 360.189C582.906 360.647 583.029 360.982 582.95 361.009Z" fill="#FAFAFA"/>
<path d="M588.548 365.998C587.379 366.15 586.192 365.912 585.172 365.319C584.086 364.864 583.176 364.069 582.58 363.054C583.476 363.725 584.409 364.346 585.374 364.914C586.407 365.344 587.468 365.707 588.548 365.998Z" fill="#FAFAFA"/>
<path d="M600.908 341.586C600.785 341.648 600.335 340.705 599.357 340.07C598.721 339.733 598.065 339.439 597.391 339.188C597.778 339.098 598.181 339.1 598.567 339.195C598.953 339.29 599.311 339.475 599.612 339.735C600.723 340.431 601.032 341.569 600.908 341.586Z" fill="#FAFAFA"/>
<path d="M607.653 342.547C606.68 342.572 605.726 342.274 604.939 341.7C604.153 341.126 603.579 340.308 603.307 339.373C603.883 340.077 604.52 340.729 605.211 341.321C605.99 341.797 606.806 342.207 607.653 342.547Z" fill="#FAFAFA"/>
<path d="M615.473 324.677C615.341 324.677 615.2 324.042 614.715 323.443C614.23 322.843 613.648 322.561 613.683 322.42C613.718 322.279 614.494 322.42 615.076 323.16C615.658 323.901 615.596 324.694 615.473 324.677Z" fill="#FAFAFA"/>
<path d="M620.939 325.206C620.939 325.329 619.96 325.32 619.061 324.606C618.162 323.892 617.933 322.931 618.047 322.913C618.162 322.896 618.55 323.628 619.343 324.245C620.137 324.862 620.939 325.073 620.939 325.206Z" fill="#FAFAFA"/>
<path d="M628.08 316.372C627.888 315.311 627.457 314.307 626.819 313.436C626.055 312.675 625.126 312.099 624.104 311.752C624.104 311.691 624.501 311.655 625.109 311.823C625.905 312.05 626.618 312.505 627.16 313.132C627.702 313.758 628.049 314.529 628.159 315.349C628.239 315.993 628.142 316.372 628.08 316.372Z" fill="#FAFAFA"/>
<path d="M459.541 426.628C459.022 425.716 458.765 424.677 458.801 423.628C458.837 422.579 459.163 421.56 459.744 420.686C459.533 421.661 459.371 422.647 459.259 423.639C459.301 424.639 459.395 425.637 459.541 426.628Z" fill="#FAFAFA"/>
<path d="M454.313 433.001C454.313 433.001 453.934 432.843 453.493 432.367C452.931 431.732 452.526 430.974 452.312 430.154C452.093 429.333 452.069 428.473 452.241 427.641C452.391 427.006 452.603 426.662 452.647 426.689C452.506 427.801 452.542 428.929 452.753 430.03C453.109 431.098 453.636 432.102 454.313 433.001Z" fill="#FAFAFA"/>
<path d="M458.413 444.7C458.504 444.121 458.667 443.555 458.898 443.016C459.365 441.704 459.713 440.353 459.938 438.979C460.145 437.611 460.067 436.215 459.709 434.879C459.409 433.865 459.039 433.301 459.109 433.257C459.527 433.682 459.831 434.207 459.991 434.782C460.462 436.15 460.589 437.612 460.361 439.04C460.139 440.446 459.739 441.818 459.171 443.122C458.989 443.679 458.734 444.21 458.413 444.7Z" fill="#FAFAFA"/>
<path d="M432.987 423.304C433.057 423.304 432.59 424.265 432.043 425.834C430.617 429.933 430.334 434.343 431.223 438.591C431.567 440.222 431.911 441.192 431.832 441.236C431.69 441.038 431.583 440.817 431.514 440.583C431.269 439.966 431.066 439.333 430.906 438.688C429.822 434.39 430.115 429.86 431.744 425.737C431.995 425.129 432.29 424.54 432.625 423.974C432.819 423.542 432.96 423.304 432.987 423.304Z" fill="#FAFAFA"/>
<path d="M441.406 416.78C441.406 416.841 441.027 417.097 440.525 417.661C439.913 418.435 439.49 419.34 439.29 420.306C439.104 421.288 439.015 422.287 439.026 423.286C439.065 423.712 439.029 424.142 438.92 424.556C438.767 424.156 438.692 423.731 438.7 423.304C438.596 422.271 438.643 421.228 438.841 420.209C439.05 419.168 439.552 418.208 440.287 417.441C440.895 416.894 441.38 416.727 441.406 416.78Z" fill="#FAFAFA"/>
<path d="M411.502 418.261C409.408 421.42 408.454 425.198 408.795 428.972C408.57 428.452 408.453 427.891 408.451 427.324C408.336 425.963 408.449 424.592 408.786 423.268C409.122 421.947 409.673 420.69 410.417 419.548C410.691 419.052 411.059 418.614 411.502 418.261Z" fill="#FAFAFA"/>
<path d="M412.207 408.555C412.321 408.643 411.14 410.212 410.214 412.416C409.289 414.62 408.954 416.551 408.812 416.533C408.95 413.553 410.154 410.721 412.207 408.555Z" fill="#FAFAFA"/>
<path d="M386.429 409.497C386.534 409.603 385.688 410.996 385.168 413.024C384.648 415.051 384.648 416.779 384.507 416.788C384.244 415.474 384.323 414.114 384.736 412.839C385.265 410.687 386.323 409.383 386.429 409.497Z" fill="#FAFAFA"/>
<path d="M383.837 399.5C383.837 399.5 384.207 399.809 384.507 400.487C384.881 401.392 385.012 402.379 384.886 403.351C384.761 404.322 384.384 405.243 383.793 406.024C383.325 406.606 382.911 406.844 382.911 406.8C382.911 406.756 383.176 406.43 383.546 405.839C384.027 405.065 384.336 404.197 384.453 403.294C384.57 402.391 384.492 401.473 384.225 400.602C383.996 399.941 383.784 399.553 383.837 399.5Z" fill="#FAFAFA"/>
<path d="M368.205 400.214C368.399 400.329 366.883 401.933 366.619 404.322C366.354 406.711 367.394 408.519 367.174 408.598C366.954 408.677 366.68 408.237 366.292 407.461C365.836 406.457 365.665 405.346 365.799 404.252C365.943 403.139 366.378 402.084 367.059 401.193C367.641 400.496 368.126 400.17 368.205 400.214Z" fill="#FAFAFA"/>
<path d="M362.131 390.966C362.223 391.863 362.037 392.767 361.599 393.555C361.16 394.343 360.491 394.978 359.68 395.374C359.601 395.259 360.562 394.563 361.188 393.346C361.814 392.13 361.99 390.957 362.131 390.966Z" fill="#FAFAFA"/>
<path d="M346.191 389.185C346.324 389.255 346.13 391.248 346.112 393.716C346.094 396.185 346.262 398.177 346.112 398.248C345.704 396.768 345.543 395.231 345.636 393.698C345.567 392.173 345.755 390.648 346.191 389.185Z" fill="#FAFAFA"/>
<path d="M342.929 381.99C343.035 382.07 342.497 382.819 342.242 383.886C341.986 384.953 342.092 385.852 341.96 385.887C341.782 385.567 341.675 385.212 341.646 384.847C341.617 384.482 341.667 384.115 341.792 383.771C342.083 382.581 342.85 381.867 342.929 381.99Z" fill="#FAFAFA"/>
<path d="M323.675 375.899C323.816 376.013 323.022 378.182 323.075 381.135C323.174 382.887 323.418 384.627 323.807 386.337C323.754 386.39 323.463 385.94 323.164 385.023C322.769 383.771 322.566 382.466 322.564 381.153C322.539 379.834 322.708 378.518 323.067 377.247C323.349 376.313 323.622 375.846 323.675 375.899Z" fill="#FAFAFA"/>
<path d="M321.85 370.733C321.912 370.847 321.259 371.288 320.915 372.143C320.572 372.998 320.695 373.765 320.572 373.801C320.448 373.836 320.395 373.642 320.325 373.298C320.258 372.847 320.316 372.387 320.492 371.967C320.662 371.545 320.95 371.18 321.321 370.918C321.603 370.724 321.824 370.68 321.85 370.733Z" fill="#FAFAFA"/>
<path d="M307.003 375.89C306.495 375.376 306.112 374.751 305.884 374.065C305.173 372.364 304.845 370.528 304.923 368.687C304.997 366.857 305.482 365.067 306.342 363.45C306.995 362.269 307.576 361.731 307.621 361.784C307.665 361.837 307.206 362.489 306.651 363.679C305.932 365.266 305.519 366.974 305.434 368.713C305.367 370.469 305.631 372.221 306.21 373.88C306.651 375.132 307.083 375.828 307.003 375.89Z" fill="#FAFAFA"/>
<path d="M294.74 366.977C294.216 366.496 293.799 365.91 293.515 365.258C292.751 363.765 292.327 362.121 292.272 360.444C292.217 358.768 292.533 357.1 293.197 355.56C293.429 354.896 293.809 354.293 294.308 353.797C294.502 353.85 292.739 356.645 292.906 360.435C293.074 364.226 294.916 366.88 294.74 366.977Z" fill="#FAFAFA"/>
<path d="M281.754 354.987C281.557 354.653 281.454 354.272 281.454 353.885C281.357 352.958 281.453 352.022 281.736 351.134C282.012 350.244 282.464 349.42 283.067 348.71C283.544 348.181 283.949 347.943 283.949 347.978C282.343 349.945 281.557 352.455 281.754 354.987Z" fill="#FAFAFA"/>
<path d="M271.051 338.668C270.488 339.95 270.088 341.298 269.861 342.679C269.785 344.075 269.877 345.475 270.134 346.849C269.88 346.505 269.708 346.107 269.632 345.686C269.367 344.689 269.289 343.652 269.403 342.626C269.515 341.602 269.814 340.607 270.284 339.691C270.672 338.968 271.007 338.606 271.051 338.668Z" fill="#FAFAFA"/>
<path d="M252.079 326.978C252.158 327.084 251.497 327.631 251.127 328.574C250.756 329.517 250.818 330.337 250.686 330.381C250.522 330.076 250.437 329.736 250.437 329.39C250.437 329.043 250.522 328.703 250.686 328.398C251.135 327.313 252.035 326.864 252.079 326.978Z" fill="#FAFAFA"/>
<path d="M237.435 317.933C237.435 318.065 237.083 318.232 236.756 318.567C236.43 318.903 236.263 319.264 236.13 319.246C235.998 319.229 235.989 318.691 236.43 318.241C236.871 317.792 237.435 317.809 237.435 317.933Z" fill="#FAFAFA"/>
<path d="M216.576 159.629C216.576 159.629 184.917 325.373 217.96 457.501H251.003C251.003 457.501 222.201 322.058 225.604 239.927L228.998 157.76L216.576 159.629Z" fill="#263238"/>
<path d="M228.936 309.161C228.531 309.118 228.132 309.032 227.746 308.905C226.979 308.72 225.886 308.394 224.563 307.944C221.1 306.738 217.768 305.185 214.619 303.307C211.462 301.43 208.508 299.231 205.802 296.747C204.771 295.795 203.96 294.984 203.44 294.411C203.141 294.13 202.875 293.817 202.646 293.477C202.966 293.714 203.261 293.983 203.528 294.279C204.092 294.825 204.93 295.592 205.979 296.509C208.726 298.895 211.676 301.036 214.795 302.91C217.924 304.77 221.21 306.352 224.616 307.635C225.921 308.129 226.997 308.517 227.737 308.737C228.149 308.841 228.55 308.983 228.936 309.161Z" fill="#FFC100"/>
<path d="M226.441 291.81C226.288 292.177 226.099 292.529 225.877 292.859C225.649 293.269 225.399 293.667 225.128 294.049C224.819 294.499 224.484 295.028 224.052 295.566C223.083 296.854 222.028 298.077 220.896 299.224C218.109 302.045 214.888 304.403 211.357 306.207C209.932 306.941 208.46 307.577 206.949 308.111C206.305 308.358 205.706 308.525 205.186 308.684C204.665 308.843 204.207 308.957 203.828 309.037C203.444 309.144 203.052 309.218 202.655 309.257C202.655 309.169 204.295 308.781 206.843 307.811C208.348 307.234 209.82 306.571 211.251 305.828C212.976 304.906 214.637 303.869 216.223 302.724C217.793 301.558 219.283 300.289 220.684 298.925C221.821 297.814 222.89 296.637 223.885 295.398C225.498 293.221 226.371 291.757 226.441 291.81Z" fill="#FFC100"/>
<path d="M228.196 310.457C227.889 310.594 227.566 310.692 227.235 310.748C226.618 310.906 225.701 311.1 224.59 311.303C218.671 312.363 212.637 312.621 206.649 312.07C205.503 311.964 204.586 311.85 203.951 311.744C203.615 311.72 203.283 311.652 202.964 311.541C203.298 311.506 203.635 311.506 203.969 311.541L206.675 311.726C208.968 311.859 212.133 311.955 215.624 311.806C219.115 311.656 222.262 311.285 224.537 310.924L227.182 310.51C227.517 310.459 227.857 310.441 228.196 310.457Z" fill="#FFC100"/>
<path d="M204.066 288.566C204.357 288.517 204.652 288.5 204.947 288.513C205.52 288.513 206.358 288.513 207.389 288.575C209.444 288.654 212.282 288.848 215.403 289.219C218.524 289.589 221.337 290.047 223.338 290.444C224.343 290.638 225.163 290.814 225.718 290.955C226.023 290.997 226.32 291.083 226.6 291.211C225.491 291.121 224.387 290.971 223.294 290.761C221.266 290.444 218.462 290.038 215.359 289.668C212.256 289.298 209.426 289.06 207.372 288.892C206.264 288.854 205.16 288.745 204.066 288.566Z" fill="#FFC100"/>
<path d="M226.485 291.387C226.551 291.066 226.658 290.755 226.803 290.461C227.147 289.641 227.578 288.861 228.09 288.133C229.29 286.395 230.839 284.927 232.639 283.822C232.992 283.611 233.353 283.408 233.732 283.223C233.93 283.108 234.144 283.024 234.367 282.976C234.5 282.932 234.641 282.921 234.779 282.942C234.917 282.964 235.047 283.017 235.16 283.099C235.274 283.194 235.359 283.318 235.406 283.458C235.452 283.599 235.459 283.749 235.425 283.893C235.376 284.119 235.292 284.336 235.178 284.536C234.984 284.916 234.773 285.277 234.561 285.621C234.13 286.279 233.644 286.898 233.106 287.472C232.192 288.434 231.137 289.252 229.977 289.897C229.198 290.331 228.369 290.669 227.508 290.902C227.198 291.007 226.874 291.069 226.547 291.087C227.67 290.679 228.76 290.187 229.809 289.615C230.917 288.951 231.923 288.131 232.798 287.181C233.303 286.63 233.766 286.04 234.182 285.418C234.385 285.083 234.587 284.73 234.764 284.369C234.94 284.007 235.072 283.62 234.878 283.487C234.684 283.355 234.261 283.487 233.935 283.655C233.609 283.822 233.212 284.034 232.877 284.237C232.225 284.627 231.603 285.066 231.017 285.55C230.025 286.371 229.137 287.309 228.372 288.345C227.688 289.323 227.058 290.339 226.485 291.387Z" fill="#FFC100"/>
<path d="M225.877 290.893C226.136 290.846 226.402 290.846 226.662 290.893C227.381 290.946 228.094 291.058 228.795 291.228C231.128 291.787 233.299 292.883 235.134 294.428L235.363 294.622L235.116 294.79L235.011 294.851C234.381 295.23 233.641 295.382 232.912 295.283C232.262 295.208 231.625 295.048 231.017 294.807C229.993 294.42 229.046 293.853 228.222 293.132C227.667 292.656 227.175 292.111 226.759 291.51C226.592 291.297 226.461 291.059 226.371 290.805C227.002 291.549 227.688 292.245 228.425 292.885C229.25 293.539 230.176 294.054 231.167 294.411C231.733 294.628 232.326 294.771 232.93 294.834C233.559 294.921 234.199 294.794 234.746 294.472L234.825 294.419V294.772C233.021 293.269 230.917 292.166 228.654 291.536C226.988 291.06 225.868 290.972 225.877 290.893Z" fill="#FFC100"/>
<path d="M317.724 181.396C310.847 162.97 294.74 147.7 275.406 144.033C256.072 140.365 234.402 149.666 225.577 167.237L227.499 167.74C242.247 177.185 259.261 182.496 276.764 183.115C275.624 180.594 274.492 178.072 273.37 175.551C287.298 181.678 302.684 183.705 317.724 181.396Z" fill="#455A64"/>
<path d="M220.358 171.337C219.829 158.218 211.93 145.911 200.865 138.832C189.801 131.752 175.951 129.663 162.956 131.779C149.961 133.894 137.936 140.127 127.691 148.318C127.339 148.6 126.959 148.952 127.004 149.402C127.048 149.852 127.559 150.169 128.009 150.363L141.127 155.988C144.654 157.495 148.251 159.029 152.068 159.329C155.885 159.629 160.002 158.5 162.427 155.503L158.636 162.133C176.892 170.161 197.305 171.861 216.638 166.964" fill="#455A64"/>
<path d="M219.318 165.571C204.701 157.734 187.394 162.318 172.539 169.697C165.122 173.465 158.694 178.922 153.772 185.63C148.85 192.337 145.573 200.106 144.204 208.312C143.939 210.005 143.798 211.891 144.786 213.293C145.664 214.352 146.888 215.067 148.242 215.312C150.628 215.922 153.127 215.946 155.525 215.38C157.922 214.815 160.147 213.678 162.01 212.065C163.872 210.453 165.317 208.414 166.22 206.123C167.123 203.831 167.458 201.354 167.196 198.905C168.952 202.646 170.07 206.654 170.503 210.763L215.624 179.342C219.9 176.362 221.469 175.075 225.595 173.779L219.318 165.571Z" fill="#455A64"/>
<path d="M272.744 202.255C269.217 195.096 263.275 189.489 257.227 184.305C252.44 180.206 247.459 176.212 241.728 173.594C235.998 170.975 229.386 169.82 223.329 171.61L224.555 172.13C219.582 191.526 233.194 214.06 247.75 227.857C250.416 227.128 252.712 225.426 254.186 223.088C252.423 225.891 250.636 228.689 248.825 231.481C255.07 238.148 261.823 244.32 269.023 249.942C272.065 242.307 274.842 234.487 275.953 226.35C277.064 218.212 276.35 209.643 272.744 202.255Z" fill="#455A64"/>
<path d="M235.901 169.627L226.653 168.578C209.021 172.052 194.668 186.651 189.572 203.843C184.476 221.034 188.091 240.183 197.418 255.497C204.119 247.915 210.863 240.289 216.206 231.693C217.775 229.172 219.247 226.492 219.626 223.538C219.966 221.187 219.361 218.797 217.943 216.891C220.023 218.707 222.606 220.126 224.881 218.857C225.85 218.203 226.648 217.326 227.208 216.3C231.74 209.3 236.025 201.991 238.158 193.925C240.292 185.858 240.08 176.865 235.901 169.627Z" fill="#455A64"/>
<path d="M235.487 120.671C231.766 104.247 222.172 89.7489 208.509 79.9046C207.381 79.1023 205.996 78.3001 204.692 78.7497C203.671 79.2587 202.887 80.1435 202.505 81.2182C195.378 95.6957 193.236 112.123 196.413 127.944C199.605 143.61 211.198 165.113 223.329 175.551L230.197 171.417C238.387 156.826 239.092 136.945 235.487 120.671Z" fill="#455A64"/>
<path d="M225.366 171.31C225.285 171.333 225.202 171.348 225.119 171.354L224.396 171.434C224.079 171.434 223.682 171.522 223.223 171.601C222.689 171.68 222.159 171.788 221.636 171.927C218.302 172.768 215.177 174.29 212.459 176.397C210.578 177.834 208.871 179.485 207.372 181.317C205.654 183.43 204.175 185.727 202.964 188.167C200.291 193.812 198.41 199.799 197.374 205.958C195.218 217.12 194.598 228.525 195.532 239.856C195.893 244.194 196.413 247.694 196.784 250.1C196.969 251.308 197.163 252.234 197.26 252.869L197.374 253.592C197.38 253.674 197.38 253.756 197.374 253.838C197.339 253.763 197.315 253.683 197.304 253.6C197.304 253.415 197.207 253.177 197.136 252.886C197.013 252.26 196.792 251.335 196.581 250.127C196.14 247.729 195.593 244.238 195.188 239.882C194.153 228.521 194.729 217.07 196.898 205.87C197.945 199.67 199.85 193.647 202.558 187.973C203.788 185.514 205.291 183.202 207.037 181.079C208.561 179.232 210.302 177.574 212.221 176.141C214.982 174.022 218.166 172.519 221.557 171.733C222.805 171.441 224.084 171.299 225.366 171.31Z" fill="#263238"/>
<path d="M227.517 167.74C227.276 167.821 227.028 167.88 226.776 167.917C226.3 168.031 225.569 168.128 224.669 168.357C222.097 168.964 219.587 169.815 217.176 170.896C215.512 171.647 213.898 172.504 212.344 173.462C210.574 174.574 208.883 175.809 207.284 177.156C203.613 180.268 200.406 183.89 197.762 187.912C195.084 191.896 192.827 196.148 191.027 200.598C190.256 202.545 189.6 204.535 189.061 206.558C188.621 208.317 188.288 210.101 188.065 211.901C187.732 214.533 187.691 217.194 187.941 219.835C188.003 220.77 188.162 221.484 188.206 221.977C188.25 222.471 188.294 222.727 188.285 222.727C188.204 222.486 188.147 222.238 188.117 221.986C188.038 221.501 187.853 220.787 187.765 219.853C187.459 217.217 187.459 214.554 187.765 211.918C187.973 210.092 188.297 208.281 188.735 206.496C189.251 204.451 189.896 202.439 190.665 200.475C192.456 195.983 194.72 191.695 197.419 187.682C200.077 183.635 203.311 179.997 207.019 176.883C208.645 175.534 210.363 174.3 212.159 173.189C213.731 172.236 215.366 171.39 217.052 170.658C219.487 169.587 222.028 168.777 224.634 168.243C225.516 168.031 226.283 167.961 226.768 167.881C227.014 167.82 227.265 167.773 227.517 167.74Z" fill="#263238"/>
<path d="M236.818 175.612C236.996 176.051 237.131 176.506 237.223 176.97C237.373 177.501 237.494 178.039 237.585 178.583C237.699 179.218 237.858 179.941 237.937 180.752C238.017 181.563 238.149 182.445 238.184 183.397C238.22 184.349 238.246 185.381 238.246 186.456C238.177 188.792 237.917 191.118 237.47 193.412C236.986 195.703 236.314 197.95 235.46 200.13C235.037 201.126 234.658 202.07 234.208 202.925C233.759 203.78 233.327 204.565 232.948 205.27C232.568 205.975 232.128 206.584 231.775 207.121C231.48 207.589 231.16 208.039 230.814 208.47C230.552 208.859 230.257 209.225 229.932 209.563C230.148 209.146 230.398 208.748 230.682 208.373C230.946 208.003 231.255 207.545 231.563 206.989C231.872 206.434 232.295 205.825 232.665 205.102C233.036 204.38 233.476 203.621 233.864 202.757C234.252 201.893 234.658 200.994 235.072 199.98C236.746 195.654 237.676 191.075 237.823 186.439C237.823 185.381 237.867 184.358 237.823 183.415C237.779 182.471 237.717 181.581 237.629 180.77C237.541 179.959 237.435 179.245 237.347 178.61C237.259 177.975 237.162 177.428 237.065 176.988C236.947 176.536 236.864 176.076 236.818 175.612Z" fill="#263238"/>
<path d="M267.533 248.373C267.522 248.303 267.522 248.232 267.533 248.162L267.675 247.571C267.789 247.051 268.018 246.301 268.221 245.305C268.861 242.523 269.314 239.701 269.579 236.859C270.574 226.015 268.767 215.097 264.33 205.152C259.893 195.207 252.976 186.569 244.241 180.065C243.448 179.439 242.778 179.016 242.354 178.69L241.87 178.329C241.758 178.252 241.705 178.208 241.711 178.196L241.896 178.293L242.407 178.619C242.848 178.91 243.527 179.316 244.347 179.915C246.684 181.578 248.896 183.407 250.968 185.39C254.057 188.326 256.832 191.576 259.246 195.088C265.247 203.708 268.927 213.727 269.931 224.182C270.367 228.417 270.367 232.686 269.931 236.921C269.642 239.775 269.141 242.604 268.433 245.384C268.204 246.372 267.948 247.148 267.798 247.633C267.727 247.871 267.666 248.056 267.622 248.214C267.6 248.271 267.57 248.325 267.533 248.373Z" fill="#263238"/>
<path d="M316.049 180.189C316.049 180.189 315.978 180.136 315.873 180.004C315.767 179.871 315.59 179.66 315.388 179.422C314.965 178.919 314.383 178.135 313.554 177.182C311.291 174.454 308.881 171.853 306.333 169.389C304.738 167.811 302.886 166.189 300.859 164.505C298.675 162.742 296.397 161.1 294.035 159.585C288.632 156.093 282.711 153.477 276.491 151.836C273.261 151.05 269.963 150.577 266.643 150.425C263.549 150.3 260.449 150.466 257.386 150.919C252.182 151.666 247.154 153.338 242.54 155.856C240.777 156.828 239.091 157.933 237.497 159.162C236.809 159.726 236.157 160.238 235.584 160.74L234.076 162.186C233.664 162.558 233.278 162.959 232.921 163.385L232.11 164.267L231.608 164.822C231.493 164.946 231.431 165.007 231.422 164.998C231.465 164.926 231.515 164.858 231.572 164.796L232.04 164.205L232.824 163.262C233.172 162.822 233.549 162.407 233.953 162.019C234.393 161.578 234.896 161.084 235.434 160.537C235.972 159.991 236.659 159.506 237.338 158.924C238.93 157.661 240.619 156.526 242.39 155.53C247.021 152.952 252.081 151.235 257.324 150.461C260.414 149.998 263.539 149.824 266.661 149.94C270.014 150.087 273.345 150.562 276.605 151.36C282.865 153.011 288.818 155.658 294.238 159.197C296.609 160.729 298.893 162.392 301.079 164.179C303.098 165.88 304.941 167.529 306.536 169.116C309.07 171.616 311.451 174.266 313.669 177.05C314.471 178.02 315.035 178.813 315.432 179.351L315.881 179.96L316.049 180.189Z" fill="#263238"/>
<path d="M204.956 78L205.088 78.194L205.432 78.7846L206.737 81.0945C207.31 82.0907 207.989 83.325 208.721 84.7796C209.452 86.2343 210.343 87.8741 211.198 89.7432L212.582 92.6966C213.058 93.7104 213.464 94.7948 213.993 95.8968C214.98 98.1009 215.915 100.517 216.92 103.038C218.85 108.125 220.772 113.785 222.474 119.789C224.175 125.793 225.401 131.691 226.371 137.042C226.803 139.687 227.252 142.27 227.534 144.677C227.684 145.876 227.86 147.031 227.975 148.142C228.09 149.252 228.187 150.337 228.292 151.359C228.522 153.405 228.61 155.256 228.724 156.887C228.839 158.518 228.901 159.92 228.927 161.075C228.954 162.23 228.98 163.076 228.998 163.72C228.998 164.002 228.998 164.222 228.998 164.407C229.005 164.484 229.005 164.56 228.998 164.637C228.989 164.56 228.989 164.484 228.998 164.407C228.998 164.222 228.998 164.002 228.945 163.72C228.945 163.085 228.857 162.195 228.795 161.075C228.733 159.955 228.663 158.518 228.513 156.896C228.363 155.274 228.266 153.422 228.01 151.377C227.905 150.363 227.79 149.288 227.667 148.177C227.543 147.066 227.358 145.911 227.199 144.721C226.9 142.323 226.441 139.784 225.991 137.112C225.004 131.77 223.726 125.942 222.068 119.903C220.411 113.864 218.471 108.213 216.567 103.153C215.58 100.631 214.663 98.2155 213.684 96.0115C213.199 94.9094 212.802 93.825 212.3 92.8112L210.951 89.8842C210.069 88.0064 209.25 86.3577 208.535 84.8943C207.821 83.4308 207.169 82.1877 206.622 81.1738L205.397 78.8287L205.088 78.2204C205.03 78.1563 204.985 78.0814 204.956 78Z" fill="#263238"/>
<path d="M228.037 166.461C227.961 166.403 227.893 166.335 227.834 166.259L227.261 165.642C226.741 165.104 226.062 164.249 225.066 163.252C222.328 160.393 219.381 157.741 216.25 155.318C214.275 153.757 212 152.188 209.514 150.601C206.835 148.951 204.069 147.447 201.227 146.096C194.701 143.028 187.787 140.863 180.676 139.66C173.553 138.518 166.306 138.355 159.138 139.175C156.013 139.536 152.91 140.074 149.846 140.789C146.972 141.494 144.327 142.252 141.912 143.09C138.158 144.391 134.507 145.971 130.988 147.815C129.728 148.441 128.802 149.032 128.15 149.376L127.409 149.781C127.327 149.834 127.238 149.876 127.145 149.905L127.383 149.737L128.097 149.296C128.74 148.926 129.657 148.309 130.909 147.665C134.404 145.749 138.048 144.119 141.806 142.79C144.408 141.864 147.057 141.072 149.74 140.418C152.815 139.685 155.929 139.129 159.068 138.752C173.549 136.996 188.231 139.413 201.386 145.717C204.239 147.08 207.012 148.604 209.69 150.284C212.014 151.759 214.259 153.354 216.417 155.062C219.554 157.52 222.485 160.23 225.18 163.164C226.159 164.178 226.829 165.06 227.323 165.615C227.543 165.88 227.72 166.1 227.861 166.259C227.927 166.319 227.987 166.387 228.037 166.461Z" fill="#263238"/>
<path d="M192.596 135.094C192.759 135.123 192.916 135.176 193.063 135.252L194.377 135.781C195.505 136.266 197.136 136.98 199.111 137.941C204.257 140.46 209.226 143.326 213.984 146.52C216.636 148.24 219.161 150.149 221.539 152.232C223.499 153.931 225.18 155.928 226.52 158.148C227.426 159.65 228.048 161.306 228.354 163.032C228.442 163.498 228.492 163.969 228.504 164.443C228.527 164.607 228.527 164.773 228.504 164.937C228.454 164.779 228.424 164.616 228.416 164.452C228.366 163.986 228.286 163.523 228.178 163.068C227.809 161.385 227.156 159.778 226.247 158.316C224.881 156.155 223.199 154.211 221.257 152.55C218.88 150.496 216.364 148.608 213.728 146.899C208.982 143.72 204.051 140.826 198.961 138.232C197.013 137.236 195.435 136.469 194.297 135.949L193.028 135.332C192.875 135.269 192.73 135.19 192.596 135.094Z" fill="#263238"/>
<path d="M144.786 213.293C144.798 213.205 144.822 213.119 144.856 213.037C144.927 212.852 145.024 212.614 145.129 212.314C145.394 211.688 145.72 210.736 146.258 209.563C147.72 206.223 149.438 203.002 151.398 199.927C154.306 195.357 157.715 191.125 161.563 187.311C163.844 185.074 166.255 182.972 168.783 181.017C171.522 178.949 174.383 177.05 177.353 175.33C183.114 172.031 189.282 169.5 195.699 167.801C198.492 167.059 201.323 166.471 204.18 166.038C206.878 165.668 209.391 165.403 211.7 165.306C215.343 165.122 218.994 165.21 222.624 165.571C223.911 165.668 224.898 165.853 225.568 165.932L226.335 166.056L226.591 166.109C226.503 166.116 226.414 166.116 226.327 166.109L225.56 166.038C224.881 165.985 223.893 165.826 222.606 165.756C218.984 165.464 215.346 165.426 211.718 165.641C209.417 165.756 206.913 166.038 204.242 166.426C201.4 166.863 198.584 167.452 195.805 168.189C189.432 169.901 183.307 172.428 177.582 175.709C174.629 177.419 171.782 179.306 169.057 181.361C166.538 183.298 164.136 185.382 161.863 187.602C158.02 191.379 154.602 195.565 151.671 200.086C149.683 203.136 147.915 206.324 146.381 209.625C145.817 210.78 145.5 211.715 145.182 212.332C145.05 212.623 144.953 212.852 144.865 213.037C144.777 213.222 144.786 213.293 144.786 213.293Z" fill="#263238"/>
<path d="M226.582 165.959C226.492 165.945 226.403 165.921 226.318 165.888L225.56 165.624C224.89 165.412 223.937 164.998 222.65 164.628C219.062 163.483 215.376 162.672 211.639 162.203C206.102 161.465 200.49 161.485 194.959 162.265C188.178 163.179 181.597 165.213 175.484 168.286C172.337 169.891 169.319 171.736 166.456 173.805C163.797 175.762 161.295 177.923 158.971 180.267C156.893 182.404 154.975 184.691 153.232 187.109C151.734 189.23 150.387 191.454 149.203 193.765C147.487 197.117 146.133 200.643 145.165 204.283C144.795 205.561 144.636 206.593 144.46 207.271C144.38 207.598 144.319 207.853 144.274 208.047C144.259 208.138 144.232 208.227 144.195 208.312C144.188 208.221 144.188 208.129 144.195 208.038C144.195 207.844 144.274 207.58 144.336 207.254C144.477 206.566 144.609 205.491 144.962 204.239C145.867 200.563 147.18 197 148.876 193.615C150.049 191.279 151.389 189.03 152.888 186.888C154.636 184.438 156.573 182.127 158.68 179.977C161.007 177.612 163.516 175.434 166.183 173.461C169.068 171.369 172.11 169.5 175.281 167.872C181.437 164.773 188.072 162.738 194.906 161.85C197.878 161.458 200.874 161.269 203.872 161.286C206.485 161.326 209.094 161.523 211.683 161.877C215.433 162.383 219.127 163.248 222.712 164.46C223.99 164.857 224.934 165.298 225.595 165.536L226.335 165.844L226.582 165.959Z" fill="#263238"/>
<path d="M255.491 183.124C255.142 182.918 254.817 182.676 254.521 182.401C253.93 181.916 253.057 181.219 251.964 180.373C246.304 175.937 240.183 172.124 233.706 169C232.471 168.392 231.458 167.925 230.752 167.598C230.381 167.448 230.024 167.265 229.686 167.052C230.076 167.142 230.457 167.269 230.823 167.431C231.546 167.704 232.586 168.136 233.847 168.7C237.134 170.193 240.32 171.898 243.386 173.805C246.462 175.711 249.407 177.819 252.202 180.117C253.269 180.999 254.115 181.74 254.679 182.268C254.976 182.527 255.248 182.814 255.491 183.124Z" fill="#263238"/>
<path d="M641.084 188.793C641.084 188.793 610.227 355.656 640.052 457.475H670.909C670.909 457.475 646.224 338.006 649.362 262.522L652.501 187.029L641.084 188.793Z" fill="#263238"/>
<path d="M649.891 299.568C649.664 299.757 649.411 299.914 649.142 300.036C648.639 300.318 647.899 300.697 646.973 301.129C644.548 302.242 642.039 303.164 639.471 303.888C636.903 304.616 634.283 305.141 631.633 305.457C630.619 305.581 629.79 305.643 629.217 305.669C628.925 305.712 628.628 305.712 628.336 305.669C628.336 305.599 629.588 305.466 631.598 305.149C634.214 304.733 636.804 304.168 639.356 303.456C641.904 302.722 644.406 301.839 646.85 300.811C648.719 300.044 649.865 299.507 649.891 299.568Z" fill="#FFC100"/>
<path d="M650.729 312.104C650.484 312.287 650.218 312.438 649.935 312.554C649.406 312.827 648.631 313.189 647.67 313.612C645.142 314.695 642.554 315.634 639.92 316.424C637.285 317.211 634.606 317.844 631.898 318.32C630.857 318.496 630.011 318.62 629.42 318.681C629.13 318.736 628.834 318.757 628.539 318.743C629.636 318.438 630.748 318.191 631.871 318.003C633.925 317.562 636.746 316.9 639.806 315.984C642.865 315.067 645.607 314.07 647.564 313.339C648.596 312.87 649.652 312.458 650.729 312.104Z" fill="#FFC100"/>
<path d="M650.279 287.534C650.149 288.017 649.981 288.489 649.777 288.945C649.433 289.826 648.895 291.122 648.154 292.674C644.328 300.805 639.191 308.252 632.946 314.714C631.756 315.949 630.751 316.919 630.037 317.553C629.68 317.902 629.3 318.226 628.9 318.523C629.202 318.127 629.541 317.761 629.914 317.43C630.593 316.751 631.554 315.755 632.717 314.494C638.786 307.946 643.887 300.562 647.863 292.568C648.622 291.034 649.221 289.782 649.627 288.91C649.806 288.434 650.024 287.974 650.279 287.534Z" fill="#FFC100"/>
<path d="M652.439 312.414C652.084 312.294 651.744 312.134 651.425 311.938C650.782 311.612 649.874 311.109 648.78 310.466C646.559 309.178 643.544 307.283 640.352 305C637.161 302.716 634.401 300.477 632.418 298.784C631.448 297.903 630.654 297.241 630.161 296.739C629.877 296.497 629.617 296.228 629.385 295.937C629.703 296.126 629.998 296.351 630.266 296.607L632.62 298.537C634.604 300.159 637.381 302.346 640.555 304.629C643.729 306.913 646.726 308.826 648.886 310.183L651.469 311.788C651.812 311.965 652.137 312.175 652.439 312.414Z" fill="#FFC100"/>
<path d="M629.579 295.09C629.579 295.09 629.499 295.478 628.917 295.769C628.569 295.933 628.181 295.997 627.798 295.954C627.301 295.89 626.817 295.754 626.361 295.548C625.188 295.068 624.051 294.506 622.958 293.864C622.341 293.503 621.706 293.097 621.062 292.648C620.725 292.421 620.404 292.17 620.101 291.898C619.916 291.737 619.779 291.526 619.706 291.291C619.633 291.056 619.626 290.806 619.687 290.567C619.776 290.341 619.922 290.141 620.11 289.987C620.298 289.832 620.523 289.729 620.762 289.686C621.194 289.618 621.635 289.667 622.041 289.827C622.748 290.096 623.433 290.423 624.086 290.805C625.192 291.446 626.214 292.222 627.128 293.115C627.74 293.714 628.298 294.366 628.794 295.063C628.99 295.313 629.151 295.589 629.27 295.883C629.2 295.883 628.477 294.79 626.907 293.353C625.985 292.515 624.971 291.785 623.883 291.176C623.243 290.818 622.577 290.508 621.891 290.25C621.56 290.121 621.202 290.082 620.851 290.135C620.691 290.162 620.54 290.23 620.414 290.332C620.287 290.434 620.189 290.566 620.128 290.717C620.09 290.877 620.099 291.045 620.152 291.201C620.205 291.356 620.3 291.494 620.427 291.599C620.703 291.854 620.997 292.086 621.309 292.295C621.935 292.745 622.552 293.177 623.152 293.521C624.223 294.175 625.333 294.764 626.475 295.284C626.822 295.503 627.21 295.648 627.615 295.709C628.02 295.769 628.434 295.745 628.829 295.637C629.116 295.511 629.372 295.324 629.579 295.09Z" fill="#FFC100"/>
<path d="M628.556 295.821C628.31 295.627 628.095 295.395 627.921 295.134C627.387 294.467 626.921 293.75 626.528 292.991C625.943 291.874 625.496 290.69 625.197 289.465C625.016 288.735 624.892 287.992 624.827 287.243C624.786 286.842 624.768 286.439 624.774 286.035C624.779 285.575 624.94 285.13 625.232 284.775C625.327 284.673 625.444 284.596 625.574 284.548C625.705 284.501 625.844 284.485 625.982 284.501C626.11 284.525 626.232 284.573 626.341 284.645C626.45 284.716 626.544 284.808 626.617 284.916C626.831 285.267 627.003 285.643 627.128 286.035C627.404 286.77 627.642 287.475 627.842 288.151C628.199 289.358 628.493 290.582 628.724 291.819C628.926 292.877 629.05 293.741 629.111 294.331C629.15 294.642 629.15 294.956 629.111 295.266C629.041 295.266 628.847 293.961 628.362 291.889C628.115 290.849 627.789 289.624 627.357 288.284C627.14 287.614 626.893 286.917 626.617 286.194C626.506 285.843 626.355 285.506 626.167 285.189C626.136 285.128 626.091 285.076 626.036 285.036C625.98 284.996 625.916 284.971 625.848 284.961C625.781 284.952 625.712 284.959 625.648 284.981C625.583 285.004 625.526 285.042 625.479 285.092C625.266 285.371 625.145 285.711 625.135 286.062C625.135 286.423 625.135 286.829 625.188 287.199C625.248 287.929 625.357 288.653 625.514 289.368C625.785 290.586 626.193 291.769 626.731 292.894C627.745 294.763 628.627 295.769 628.556 295.821Z" fill="#FFC100"/>
<path d="M553.636 194.312C560.504 175.886 576.611 160.616 595.954 156.949C615.297 153.281 636.949 162.582 645.783 180.153L643.861 180.664C629.108 190.104 612.091 195.411 594.587 196.031L597.99 188.467C584.062 194.592 568.676 196.62 553.636 194.312Z" fill="#455A64"/>
<path d="M650.993 184.253C651.522 171.161 659.421 158.818 670.486 151.765C681.55 144.712 695.4 142.597 708.395 144.712C721.39 146.828 733.424 153.061 743.66 161.252C744.013 161.534 744.401 161.895 744.356 162.336C744.312 162.777 743.792 163.103 743.343 163.297L730.259 168.948C726.733 170.465 723.136 171.99 719.319 172.298C715.501 172.607 711.384 171.461 708.968 168.463L712.751 175.093C694.488 183.149 674.057 184.868 654.705 179.977" fill="#455A64"/>
<path d="M652.033 178.487C666.651 170.65 683.957 175.234 698.812 182.613C706.23 186.38 712.658 191.838 717.58 198.545C722.502 205.252 725.779 213.022 727.147 221.228C727.412 222.921 727.553 224.807 726.574 226.209C725.691 227.268 724.465 227.985 723.11 228.237C720.724 228.845 718.226 228.867 715.829 228.301C713.433 227.735 711.209 226.598 709.348 224.986C707.487 223.374 706.043 221.335 705.14 219.045C704.237 216.754 703.902 214.278 704.164 211.83C702.404 215.566 701.286 219.572 700.858 223.679L655.727 192.258C651.452 189.278 649.882 187.991 645.765 186.695L652.033 178.487Z" fill="#455A64"/>
<path d="M598.608 215.17C602.134 208.012 608.076 202.413 614.124 197.23C618.911 193.121 623.892 189.127 629.623 186.509C635.353 183.891 641.966 182.745 648.022 184.534L646.797 185.046C651.769 204.441 638.157 226.975 623.602 240.773C620.957 240.029 618.68 238.333 617.21 236.012C618.973 238.804 620.76 241.598 622.57 244.396C616.325 251.06 609.572 257.23 602.372 262.848C599.339 255.214 596.553 247.402 595.443 239.256C594.332 231.11 595.011 222.558 598.608 215.17Z" fill="#455A64"/>
<path d="M635.45 182.551L644.698 181.493C662.287 184.967 676.683 199.575 681.779 216.758C686.875 233.941 683.26 253.089 673.942 268.403C667.232 260.821 660.488 253.195 655.145 244.599C653.576 242.069 652.104 239.389 651.725 236.444C651.388 234.091 651.994 231.699 653.409 229.788C651.328 231.604 648.745 233.024 646.47 231.754C645.5 231.105 644.703 230.227 644.152 229.198C639.611 222.206 635.336 214.889 633.193 206.822C631.051 198.755 631.298 189.78 635.45 182.551Z" fill="#455A64"/>
<path d="M635.873 133.595C639.583 117.166 649.179 102.665 662.851 92.8289C663.971 92.0266 665.355 91.2155 666.66 91.674C667.679 92.1809 668.462 93.0623 668.846 94.1337C675.979 108.609 678.121 125.039 674.938 140.859C671.746 156.526 660.162 178.037 648.022 188.467L641.154 184.332C632.964 169.741 632.259 149.861 635.873 133.595Z" fill="#455A64"/>
<path d="M645.986 184.227C647.253 184.225 648.517 184.373 649.75 184.667C653.14 185.457 656.323 186.96 659.086 189.075C661.006 190.51 662.749 192.168 664.279 194.013C666.022 196.136 667.522 198.449 668.749 200.907C671.461 206.579 673.366 212.603 674.409 218.804C676.596 230.002 677.189 241.452 676.172 252.816C675.767 257.172 675.22 260.663 674.77 263.07C674.559 264.269 674.338 265.194 674.215 265.82C674.145 266.114 674.092 266.352 674.056 266.534C674.012 266.693 673.986 266.781 673.986 266.772C673.976 266.69 673.976 266.608 673.986 266.526L674.1 265.803C674.206 265.168 674.391 264.242 674.577 263.034C674.964 260.628 675.458 257.136 675.828 252.79C676.762 241.459 676.142 230.054 673.986 218.892C672.95 212.733 671.069 206.746 668.396 201.101C667.185 198.661 665.707 196.364 663.988 194.251C662.489 192.419 660.782 190.768 658.901 189.331C656.184 187.223 653.059 185.701 649.724 184.861C649.133 184.711 648.604 184.606 648.137 184.535C647.669 184.465 647.255 184.394 646.964 184.368L646.241 184.288C646.154 184.276 646.069 184.256 645.986 184.227Z" fill="#263238"/>
<path d="M643.861 180.665C644.113 180.668 644.363 180.694 644.61 180.744C645.095 180.833 645.827 180.894 646.744 181.106C649.352 181.641 651.896 182.451 654.334 183.521C656.019 184.257 657.653 185.102 659.227 186.052C661.021 187.163 662.736 188.397 664.358 189.746C668.067 192.862 671.304 196.5 673.968 200.546C676.664 204.558 678.925 208.846 680.712 213.338C681.479 215.304 682.127 217.315 682.652 219.359C683.087 221.144 683.408 222.955 683.613 224.781C683.919 227.417 683.919 230.08 683.613 232.716C683.525 233.659 683.34 234.364 683.26 234.858C683.225 235.106 683.172 235.35 683.102 235.59C683.103 235.338 683.127 235.088 683.172 234.84C683.216 234.347 683.375 233.633 683.437 232.698C683.688 230.057 683.646 227.396 683.313 224.764C683.088 222.952 682.753 221.156 682.308 219.386C681.771 217.363 681.117 215.373 680.351 213.426C678.546 208.976 676.286 204.725 673.607 200.739C670.971 196.727 667.774 193.114 664.112 190.01C662.513 188.663 660.822 187.429 659.051 186.316C657.499 185.361 655.888 184.504 654.229 183.751C651.818 182.668 649.308 181.821 646.735 181.22C645.853 180.982 645.104 180.885 644.619 180.771C644.364 180.752 644.111 180.717 643.861 180.665Z" fill="#263238"/>
<path d="M634.534 188.528C634.495 188.998 634.418 189.464 634.304 189.921C634.207 190.371 634.102 190.909 634.022 191.543C633.943 192.178 633.793 192.901 633.74 193.712C633.687 194.523 633.573 195.387 633.555 196.357C633.537 197.327 633.555 198.323 633.555 199.39C633.711 204.023 634.644 208.598 636.314 212.923C636.72 213.91 637.081 214.853 637.513 215.7C637.945 216.546 638.325 217.34 638.712 218.054C639.1 218.768 639.488 219.376 639.814 219.932C640.141 220.487 640.449 220.945 640.696 221.316C640.977 221.692 641.228 222.09 641.445 222.506C641.122 222.169 640.828 221.806 640.564 221.421C640.22 220.989 639.9 220.539 639.603 220.073C639.25 219.526 638.818 218.927 638.43 218.212C638.042 217.498 637.549 216.731 637.17 215.867C636.791 215.003 636.341 214.104 635.918 213.073C635.064 210.896 634.395 208.652 633.916 206.363C633.467 204.067 633.204 201.738 633.132 199.399C633.132 198.323 633.132 197.3 633.194 196.339C633.255 195.378 633.343 194.497 633.44 193.695C633.537 192.892 633.687 192.169 633.793 191.526C633.899 190.882 634.04 190.353 634.154 189.912C634.236 189.44 634.363 188.976 634.534 188.528Z" fill="#263238"/>
<path d="M603.818 261.288C603.818 261.288 603.818 261.226 603.747 261.094L603.562 260.512C603.421 260.001 603.157 259.252 602.927 258.264C602.222 255.483 601.721 252.655 601.429 249.801C600.433 240.342 601.609 230.78 604.867 221.845C606.689 216.95 609.111 212.301 612.079 208.003C614.498 204.495 617.272 201.245 620.357 198.305C622.424 196.317 624.637 194.487 626.978 192.831C627.798 192.222 628.477 191.825 628.917 191.526L629.438 191.2L629.614 191.103C629.614 191.103 629.57 191.155 629.455 191.244L628.97 191.605C628.547 191.922 627.886 192.346 627.084 192.972C624.797 194.683 622.624 196.542 620.577 198.535C612.793 206.151 607.098 215.641 604.038 226.093C600.978 236.545 600.656 247.608 603.104 258.22C603.306 259.208 603.536 259.983 603.65 260.486C603.703 260.715 603.756 260.909 603.791 261.077C603.813 261.145 603.822 261.217 603.818 261.288Z" fill="#263238"/>
<path d="M555.312 193.112C555.312 193.112 555.312 193.033 555.444 192.892L555.893 192.284C556.299 191.764 556.854 190.961 557.657 189.992C559.874 187.207 562.255 184.557 564.789 182.057C566.385 180.47 568.227 178.821 570.255 177.12C572.436 175.332 574.718 173.668 577.088 172.139C582.508 168.601 588.461 165.954 594.72 164.301C597.98 163.504 601.311 163.028 604.664 162.882C607.789 162.765 610.917 162.939 614.01 163.402C619.264 164.19 624.333 165.922 628.971 168.515C630.741 169.508 632.428 170.643 634.014 171.91C634.701 172.483 635.354 173.003 635.918 173.523L637.408 175.004C637.811 175.387 638.185 175.8 638.527 176.238L639.312 177.182L639.779 177.772C639.885 177.905 639.938 177.975 639.929 177.984L639.744 177.799L639.242 177.243C639.012 176.988 638.739 176.688 638.431 176.362C638.072 175.938 637.686 175.537 637.276 175.163C636.826 174.722 636.323 174.281 635.768 173.717C635.213 173.153 634.543 172.712 633.855 172.148C632.265 170.91 630.578 169.802 628.812 168.833C624.197 166.315 619.169 164.643 613.966 163.896C610.902 163.442 607.803 163.277 604.709 163.402C601.388 163.554 598.09 164.027 594.861 164.813C588.641 166.454 582.719 169.069 577.317 172.562C574.954 174.076 572.676 175.719 570.493 177.481C568.465 179.174 566.614 180.796 565.018 182.366C562.473 184.832 560.062 187.433 557.798 190.159C556.978 191.111 556.396 191.922 555.964 192.398L555.488 192.98L555.312 193.112Z" fill="#263238"/>
<path d="M666.404 90.9336C666.378 91.0098 666.346 91.0836 666.307 91.154L665.998 91.7711L664.773 94.1074C664.226 95.1213 663.574 96.3644 662.86 97.8367C662.146 99.309 661.282 100.94 660.444 102.818C660.021 103.752 659.563 104.722 659.095 105.745C658.628 106.767 658.214 107.843 657.711 108.945C656.733 111.158 655.824 113.565 654.828 116.086C652.924 121.173 651.02 126.824 649.327 132.837C647.634 138.85 646.391 144.712 645.404 150.046C644.954 152.691 644.522 155.256 644.196 157.654C644.037 158.845 643.852 160 643.729 161.11C643.605 162.221 643.491 163.297 643.385 164.32C643.129 166.356 643.023 168.207 642.882 169.83C642.741 171.452 642.662 172.862 642.6 174.008C642.539 175.155 642.486 176.01 642.45 176.653C642.45 176.935 642.433 177.165 642.397 177.341C642.407 177.42 642.407 177.5 642.397 177.579C642.388 177.5 642.388 177.42 642.397 177.341V176.653C642.397 176.01 642.442 175.128 642.468 174.008C642.494 172.889 642.547 171.452 642.671 169.821C642.794 168.19 642.874 166.338 643.103 164.293C643.209 163.27 643.314 162.195 643.42 161.084C643.526 159.973 643.711 158.809 643.861 157.61C644.152 155.212 644.593 152.665 645.033 149.976C645.994 144.624 647.264 138.779 648.93 132.722C650.596 126.666 652.545 121.014 654.476 115.972C655.481 113.45 656.415 111.034 657.411 108.83C657.896 107.728 658.346 106.644 658.822 105.63L660.197 102.712C661.079 100.843 661.961 99.1855 662.675 97.7485C663.389 96.3115 664.094 95.0596 664.658 94.0633L665.901 91.7006L666.254 91.1099C666.296 91.0448 666.346 90.9855 666.404 90.9336Z" fill="#263238"/>
<path d="M643.314 179.378C643.314 179.378 643.367 179.29 643.491 179.148L644.029 178.496C644.513 177.941 645.183 177.068 646.162 176.045C648.86 173.113 651.791 170.403 654.925 167.943C657.087 166.235 659.335 164.64 661.661 163.165C664.336 161.483 667.106 159.959 669.957 158.598C683.111 152.29 697.794 149.877 712.275 151.642C715.414 152.011 718.528 152.565 721.602 153.299C724.485 154.031 727.139 154.807 729.537 155.671C733.291 157.014 736.932 158.656 740.425 160.582C741.677 161.225 742.585 161.842 743.228 162.213L743.942 162.653C744.11 162.759 744.189 162.812 744.18 162.821L743.925 162.697L743.184 162.292C742.523 161.948 741.597 161.357 740.337 160.74C736.81 158.877 733.147 157.285 729.378 155.98C726.788 155.077 724.155 154.306 721.488 153.67C718.425 152.96 715.326 152.421 712.204 152.056C697.799 150.345 683.204 152.748 670.107 158.986C667.264 160.331 664.497 161.832 661.82 163.482C659.333 165.078 657.068 166.638 655.093 168.199C651.958 170.617 649.011 173.27 646.277 176.133C645.28 177.13 644.593 177.985 644.081 178.523L643.508 179.14C643.394 179.316 643.323 179.387 643.314 179.378Z" fill="#263238"/>
<path d="M678.756 148.01C678.624 148.11 678.478 148.19 678.324 148.248L677.054 148.865C675.943 149.394 674.339 150.161 672.39 151.157C667.299 153.748 662.368 156.642 657.623 159.823C654.987 161.529 652.471 163.414 650.094 165.466C648.154 167.127 646.475 169.071 645.113 171.232C644.202 172.694 643.546 174.301 643.173 175.984C643.086 176.43 643.021 176.88 642.98 177.332C642.97 177.5 642.941 177.666 642.891 177.826C642.868 177.662 642.868 177.496 642.891 177.332C642.903 176.856 642.953 176.381 643.041 175.913C643.351 174.19 643.972 172.538 644.875 171.038C646.218 168.816 647.898 166.818 649.856 165.113C652.236 163.032 654.761 161.123 657.412 159.4C662.154 156.226 667.109 153.381 672.24 150.884C674.224 149.923 675.846 149.2 676.975 148.715L678.288 148.186C678.437 148.109 678.593 148.05 678.756 148.01Z" fill="#263238"/>
<path d="M726.574 226.209C726.523 226.135 726.481 226.055 726.451 225.971L726.134 225.266C725.851 224.648 725.499 223.714 724.935 222.559C723.4 219.258 721.633 216.07 719.645 213.02C716.717 208.499 713.302 204.313 709.462 200.536C707.184 198.318 704.779 196.234 702.259 194.294C699.536 192.238 696.689 190.351 693.734 188.643C688.007 185.366 681.883 182.838 675.511 181.123C672.732 180.386 669.916 179.797 667.074 179.36C664.429 178.981 661.899 178.69 659.598 178.575C655.97 178.36 652.332 178.398 648.71 178.69C647.431 178.769 646.435 178.919 645.765 178.972L644.989 179.042C644.902 179.056 644.813 179.056 644.725 179.042L644.989 178.989L645.748 178.875C646.426 178.787 647.414 178.602 648.701 178.505C652.327 178.144 655.976 178.056 659.615 178.24C661.925 178.337 664.447 178.61 667.136 178.972C669.995 179.409 672.829 179.998 675.626 180.735C682.041 182.433 688.206 184.964 693.963 188.264C696.935 189.984 699.797 191.886 702.533 193.959C705.067 195.907 707.478 198.009 709.753 200.254C713.603 204.062 717.013 208.291 719.918 212.861C721.88 215.935 723.598 219.156 725.058 222.497C725.605 223.67 725.94 224.622 726.186 225.248L726.46 225.971C726.505 226.047 726.543 226.126 726.574 226.209Z" fill="#263238"/>
<path d="M644.743 178.875L644.99 178.76L645.73 178.452C646.391 178.214 647.335 177.773 648.613 177.376C652.198 176.164 655.892 175.299 659.642 174.793C662.232 174.448 664.84 174.25 667.453 174.202C670.454 174.185 673.453 174.374 676.428 174.766C683.26 175.664 689.893 177.699 696.053 180.788C699.22 182.418 702.259 184.287 705.142 186.377C707.811 188.348 710.32 190.526 712.645 192.893C714.735 195.046 716.656 197.357 718.393 199.804C719.894 201.948 721.234 204.199 722.404 206.54C724.103 209.908 725.416 213.457 726.319 217.119C726.671 218.415 726.804 219.447 726.954 220.135L727.086 220.928C727.099 221.016 727.099 221.105 727.086 221.193C727.048 221.111 727.021 221.025 727.006 220.937C727.006 220.734 726.901 220.478 726.821 220.152C726.645 219.473 726.495 218.442 726.116 217.164C725.146 213.525 723.793 209.999 722.078 206.646C720.897 204.333 719.55 202.109 718.049 199.99C716.309 197.57 714.39 195.283 712.31 193.148C709.989 190.812 707.493 188.657 704.843 186.704C701.997 184.646 699 182.807 695.877 181.202C689.764 178.128 683.182 176.093 676.402 175.181C673.447 174.785 670.469 174.585 667.488 174.581C664.891 174.614 662.298 174.793 659.721 175.119C655.985 175.592 652.299 176.403 648.71 177.544C647.423 177.914 646.471 178.328 645.801 178.54L645.042 178.804L644.743 178.875Z" fill="#263238"/>
<path d="M615.861 196.04C616.124 195.716 616.419 195.421 616.742 195.158C617.307 194.629 618.144 193.889 619.211 193.007C624.786 188.41 630.946 184.574 637.531 181.599C638.792 181.026 639.832 180.594 640.555 180.329C640.92 180.162 641.301 180.032 641.692 179.941C641.355 180.157 640.998 180.34 640.626 180.488C639.92 180.814 638.915 181.29 637.672 181.89C634.439 183.454 631.29 185.188 628.239 187.083C625.196 188.987 622.254 191.047 619.423 193.254C618.338 194.135 617.465 194.797 616.866 195.29C616.562 195.58 616.225 195.831 615.861 196.04Z" fill="#263238"/>
</svg>
