<svg width="802" height="802" viewBox="0 0 802 802" fill="none" xmlns="http://www.w3.org/2000/svg">
<rect width="802" height="802" fill="white"/>
<path d="M587.334 552.334L587.427 541.428L451.701 508.444L215.36 587.526V598.884C215.35 599.431 215.534 599.963 215.878 600.387C216.292 600.872 216.83 601.235 217.435 601.438L350.302 656.274C351.389 656.698 352.523 656.988 353.68 657.138C356.262 657.506 358.887 657.439 361.447 656.939C362.619 656.721 363.761 656.368 364.852 655.888L585.751 554.994C586.21 554.833 586.603 554.524 586.869 554.117C587.231 553.597 587.396 552.965 587.334 552.334Z" fill="white"/>
<mask id="mask0_463_2069" style="mask-type:luminance" maskUnits="userSpaceOnUse" x="215" y="508" width="373" height="150">
<path d="M587.334 552.334L587.427 541.428L451.701 508.444L215.36 587.526V598.884C215.35 599.431 215.534 599.963 215.878 600.387C216.292 600.872 216.83 601.235 217.435 601.438L350.302 656.274C351.389 656.698 352.523 656.988 353.68 657.138C356.262 657.506 358.887 657.439 361.447 656.939C362.619 656.721 363.761 656.368 364.852 655.888L585.751 554.994C586.21 554.833 586.603 554.524 586.869 554.117C587.231 553.597 587.396 552.965 587.334 552.334Z" fill="white"/>
</mask>
<g mask="url(#mask0_463_2069)">
<path opacity="0.2" d="M586.869 554.143C587.228 553.627 587.393 553 587.334 552.374L587.428 541.468L451.701 508.444L360.25 539.034V657.085C360.649 657.085 361.062 656.979 361.447 656.899C362.619 656.681 363.761 656.328 364.852 655.848L585.752 554.994C586.207 554.84 586.599 554.541 586.869 554.143Z" fill="black"/>
<path opacity="0.2" d="M356.593 657.577V639.263H351.964V657.005C353.466 657.442 355.029 657.635 356.593 657.577Z" fill="black"/>
</g>
<path d="M587.334 552.334L587.427 541.428L451.701 508.444L215.36 587.526V598.884C215.35 599.431 215.534 599.963 215.878 600.387C216.292 600.872 216.83 601.235 217.435 601.438L350.302 656.274C351.389 656.698 352.523 656.988 353.68 657.138C356.262 657.506 358.887 657.439 361.447 656.939C362.619 656.721 363.761 656.368 364.852 655.888L585.751 554.994C586.21 554.833 586.603 554.524 586.869 554.117C587.231 553.597 587.396 552.965 587.334 552.334Z" stroke="#263238" stroke-miterlimit="10"/>
<path d="M517.894 527.875L500.511 523.473C500.254 523.406 499.991 523.361 499.726 523.34C499.447 523.34 499.154 523.34 498.875 523.34C498.608 523.348 498.342 523.37 498.077 523.406C497.856 523.441 497.638 523.494 497.425 523.566C497.278 523.611 497.145 523.693 497.04 523.805C497.019 523.844 497.008 523.888 497.008 523.932C497.008 523.976 497.019 524.019 497.04 524.058C497.102 524.171 497.201 524.26 497.319 524.311C497.502 524.411 497.7 524.482 497.904 524.524L515.287 528.966C515.555 529.025 515.826 529.069 516.099 529.099H516.963C517.235 529.087 517.506 529.06 517.774 529.019C517.996 528.988 518.215 528.934 518.426 528.859C518.567 528.808 518.694 528.727 518.799 528.62C518.823 528.58 518.836 528.534 518.836 528.487C518.836 528.44 518.823 528.394 518.799 528.354C518.728 528.24 518.626 528.147 518.506 528.088C518.314 527.996 518.114 527.925 517.907 527.875" fill="white"/>
<path d="M568.821 542.891L539.494 535.416H534.693C534.161 535.416 533.642 535.416 533.123 535.416C532.605 535.416 532.086 535.35 531.594 535.283C531.102 535.217 530.596 535.15 530.118 535.07C529.639 534.991 529.2 534.884 528.788 534.778L477.649 521.651L476.612 521.331C476.292 521.212 476.013 521.092 475.76 520.972C475.538 520.856 475.324 520.723 475.122 520.573C474.969 520.457 474.835 520.318 474.723 520.161L473.699 518.671L447.445 512.021L247.506 580.929L373.696 629.248L568.821 542.891Z" fill="#7E57C2" stroke="white" stroke-width="3" stroke-miterlimit="10"/>
<path d="M587.813 540.537C587.484 540.134 587.065 539.815 586.589 539.606C585.864 539.253 585.101 538.985 584.315 538.808L456.249 506.888C455.444 506.695 454.626 506.557 453.802 506.476C452.917 506.398 452.029 506.367 451.142 506.383C450.278 506.393 449.416 506.46 448.562 506.582C447.821 506.682 447.092 506.846 446.38 507.074L218.418 584.401C217.577 584.668 216.776 585.048 216.038 585.531C215.537 585.821 215.138 586.257 214.894 586.781C214.808 586.981 214.778 587.2 214.806 587.415C214.834 587.63 214.92 587.834 215.054 588.005C215.46 588.495 215.994 588.864 216.596 589.069L350.315 643.213C351.401 643.642 352.535 643.936 353.693 644.091C356.275 644.459 358.9 644.392 361.46 643.891C362.632 643.673 363.774 643.321 364.865 642.841L586.802 542.346C587.263 542.176 587.659 541.864 587.932 541.455C587.997 541.305 588.02 541.141 587.999 540.98C587.978 540.818 587.913 540.665 587.813 540.537ZM373.683 629.248L247.506 580.929L447.431 511.916L473.685 518.566L474.709 520.055C474.821 520.212 474.955 520.351 475.108 520.467C475.31 520.617 475.524 520.75 475.747 520.866C476 520.986 476.279 521.106 476.598 521.226L477.635 521.545L528.747 534.725C529.173 534.831 529.625 534.938 530.077 535.018C530.53 535.097 531.048 535.177 531.554 535.23C532.059 535.284 532.564 535.337 533.083 535.363C533.602 535.39 534.121 535.363 534.653 535.363H539.454L568.78 542.838L373.683 629.248ZM497.027 523.766C497.132 523.654 497.265 523.571 497.413 523.526C497.625 523.455 497.843 523.401 498.064 523.367C498.329 523.33 498.595 523.308 498.862 523.3C499.142 523.3 499.434 523.3 499.713 523.3C499.978 523.322 500.241 523.366 500.498 523.433L517.881 527.836C518.088 527.886 518.288 527.957 518.48 528.048C518.6 528.108 518.702 528.2 518.772 528.314C518.797 528.354 518.81 528.4 518.81 528.447C518.81 528.494 518.797 528.541 518.772 528.58C518.668 528.687 518.54 528.769 518.4 528.82C518.189 528.895 517.97 528.948 517.748 528.979C517.479 529.021 517.209 529.047 516.937 529.059H516.072C515.8 529.03 515.529 528.986 515.261 528.926L497.878 524.484C497.673 524.443 497.476 524.371 497.293 524.271C497.174 524.22 497.076 524.131 497.014 524.019C496.997 523.978 496.99 523.933 496.995 523.889C496.999 523.845 497.015 523.802 497.04 523.766H497.027ZM303.538 607.742C303.227 607.992 302.876 608.19 302.501 608.327C302.014 608.509 301.511 608.642 300.998 608.726C300.45 608.831 299.894 608.888 299.336 608.899C298.793 608.914 298.251 608.887 297.713 608.819C297.259 608.752 296.813 608.636 296.383 608.474C296.059 608.357 295.764 608.171 295.519 607.928C295.44 607.846 295.38 607.747 295.343 607.639C295.306 607.531 295.294 607.417 295.306 607.303C295.371 607.045 295.527 606.818 295.745 606.665C296.053 606.41 296.404 606.212 296.782 606.08C297.269 605.898 297.772 605.764 298.285 605.681C298.83 605.587 299.381 605.533 299.934 605.521C300.472 605.507 301.01 605.533 301.543 605.601C301.997 605.664 302.443 605.776 302.873 605.933C303.198 606.042 303.494 606.224 303.738 606.465C303.823 606.544 303.888 606.641 303.928 606.75C303.967 606.859 303.979 606.976 303.964 607.09C303.907 607.353 303.756 607.585 303.538 607.742Z" fill="#263238"/>
<path d="M302.86 605.934C302.43 605.776 301.984 605.664 301.53 605.601C300.997 605.534 300.459 605.507 299.921 605.521C299.368 605.534 298.817 605.587 298.272 605.681C297.759 605.765 297.256 605.898 296.769 606.08C296.391 606.212 296.04 606.41 295.731 606.665C295.514 606.819 295.358 607.045 295.293 607.303C295.28 607.417 295.293 607.532 295.33 607.639C295.367 607.747 295.427 607.846 295.505 607.929C295.75 608.171 296.045 608.357 296.37 608.474C296.799 608.637 297.245 608.753 297.7 608.82C298.238 608.888 298.78 608.914 299.322 608.899C299.88 608.889 300.437 608.831 300.985 608.727C301.498 608.643 302.001 608.509 302.488 608.328C302.863 608.19 303.213 607.992 303.525 607.742C303.737 607.583 303.884 607.351 303.938 607.091C303.953 606.976 303.94 606.859 303.901 606.75C303.862 606.642 303.797 606.544 303.711 606.466C303.468 606.225 303.172 606.043 302.847 605.934" fill="white"/>
<path d="M258.478 548.265L262.281 554.702" stroke="#263238" stroke-miterlimit="10"/>
<path d="M202.591 453.741L254.182 540.989" stroke="#263238" stroke-miterlimit="10"/>
<path d="M302.114 529.618L304.282 534.805" stroke="#263238" stroke-miterlimit="10"/>
<path d="M287.339 494.267L299.695 523.819" stroke="#263238" stroke-miterlimit="10"/>
<path d="M544.866 448.847L517.681 515.639" stroke="#263238" stroke-miterlimit="10"/>
<path d="M551.583 432.368L548.218 440.601" stroke="#263238" stroke-miterlimit="10"/>
<path d="M566.665 514.27L560.733 520.8" stroke="#263238" stroke-miterlimit="10"/>
<path d="M604.942 472.162L572.597 507.74" stroke="#263238" stroke-miterlimit="10"/>
<path d="M278.493 538.489L300.598 581.222" stroke="#263238" stroke-miterlimit="10"/>
<path d="M549.68 511.955L525.354 545.112" stroke="#263238" stroke-miterlimit="10"/>
<path d="M394.191 511.955L400.083 541.428" stroke="#263238" stroke-miterlimit="10"/>
<path d="M287.326 246.102C295.318 246.102 301.796 239.623 301.796 231.632C301.796 223.64 295.318 217.161 287.326 217.161C279.334 217.161 272.855 223.64 272.855 231.632C272.855 239.623 279.334 246.102 287.326 246.102Z" fill="white" stroke="white" stroke-width="0.5" stroke-miterlimit="10"/>
<path d="M292.126 230.646H282.697C281.811 230.646 280.962 230.998 280.336 231.624C279.71 232.25 279.358 233.099 279.358 233.985V241.965C281.664 243.761 284.509 244.727 287.432 244.705C290.355 244.683 293.186 243.676 295.465 241.845V234.051C295.474 233.607 295.394 233.166 295.23 232.753C295.066 232.341 294.822 231.965 294.511 231.648C294.2 231.331 293.829 231.079 293.419 230.907C293.01 230.735 292.57 230.646 292.126 230.646Z" fill="#7E57C2"/>
<path d="M287.246 229.197C289.897 229.197 292.047 227.048 292.047 224.396C292.047 221.744 289.897 219.595 287.246 219.595C284.594 219.595 282.444 221.744 282.444 224.396C282.444 227.048 284.594 229.197 287.246 229.197Z" fill="#7E57C2"/>
<path d="M328.092 495.195C331.001 487.751 327.324 479.359 319.88 476.451C312.436 473.543 304.044 477.219 301.136 484.663C298.228 492.107 301.905 500.499 309.348 503.407C316.792 506.316 325.184 502.639 328.092 495.195Z" fill="white" stroke="white" stroke-width="0.5" stroke-miterlimit="10"/>
<path d="M319.418 488.96H309.975C309.094 488.96 308.248 489.31 307.624 489.934C307.001 490.557 306.65 491.403 306.65 492.285V500.198C308.954 501.994 311.797 502.959 314.718 502.937C317.639 502.915 320.466 501.908 322.743 500.079V492.285C322.743 491.403 322.393 490.557 321.77 489.934C321.146 489.31 320.3 488.96 319.418 488.96Z" fill="#7E57C2"/>
<path d="M314.538 487.496C315.487 487.496 316.416 487.215 317.205 486.687C317.995 486.159 318.61 485.41 318.973 484.532C319.337 483.655 319.432 482.69 319.247 481.758C319.061 480.827 318.604 479.971 317.933 479.3C317.261 478.628 316.406 478.171 315.474 477.986C314.543 477.801 313.578 477.896 312.7 478.259C311.823 478.622 311.073 479.238 310.545 480.027C310.018 480.817 309.736 481.745 309.736 482.695C309.736 483.325 309.861 483.95 310.102 484.532C310.343 485.115 310.697 485.644 311.143 486.09C311.588 486.536 312.118 486.889 312.7 487.131C313.283 487.372 313.907 487.496 314.538 487.496Z" fill="#7E57C2"/>
<path d="M503.597 450.596C560.04 394.153 560.04 302.641 503.597 246.199C447.154 189.756 355.642 189.756 299.199 246.199C242.756 302.641 242.756 394.153 299.199 450.596C355.642 507.039 447.154 507.039 503.597 450.596Z" fill="white"/>
<mask id="mask1_463_2069" style="mask-type:luminance" maskUnits="userSpaceOnUse" x="256" y="203" width="290" height="290">
<path d="M503.597 450.596C560.04 394.153 560.04 302.641 503.597 246.199C447.154 189.756 355.642 189.756 299.199 246.199C242.756 302.641 242.756 394.153 299.199 450.596C355.642 507.039 447.154 507.039 503.597 450.596Z" fill="white"/>
</mask>
<g mask="url(#mask1_463_2069)">
<path opacity="0.18" d="M503.597 450.596C560.04 394.153 560.04 302.641 503.597 246.199C447.154 189.756 355.642 189.756 299.199 246.199C242.756 302.641 242.756 394.153 299.199 450.596C355.642 507.039 447.154 507.039 503.597 450.596Z" fill="black"/>
<path opacity="0.86" d="M401.399 410.143C370.289 410.141 340.008 400.104 315.056 381.523C290.104 362.941 271.81 336.807 262.893 307.002C256.461 328.574 255.158 351.35 259.085 373.516C263.013 395.681 272.064 416.622 285.516 434.671C298.969 452.719 316.451 467.376 336.57 477.473C356.689 487.57 378.889 492.828 401.399 492.828C423.91 492.828 446.109 487.57 466.228 477.473C486.347 467.376 503.829 452.719 517.282 434.671C530.735 416.622 539.785 395.681 543.713 373.516C547.641 351.35 546.337 328.574 539.906 307.002C530.986 336.806 512.692 362.939 487.741 381.52C462.789 400.101 432.509 410.139 401.399 410.143Z" fill="white"/>
<path d="M396.199 281.492L409.925 287.663L413.688 293.834L419.873 296.242L420.551 302.759L418.157 306.536L413.356 307.56L403.062 303.437V302.107L408.887 299.713L406.826 292.504L397.516 289.073L393.406 283.593L396.199 281.492ZM482.649 439.962L471.676 435.506L458.257 430.705H447.617L437.708 428.643L426.722 431.051L420.551 431.383H416.774L409.579 435.506L402.716 438.246L393.406 432.42L395.8 422.818L389.975 420.411H383.112L382.088 417.325L382.766 411.154L380.372 407.722L375.571 408.401L374.241 411.832L368.415 412.178L363.268 406.033L361.167 397.774L366.314 388.171L376.262 388.85L379.002 391.257H383.125L388.272 388.171L392.728 389.501L398.899 400.141L401.306 399.809L400.615 391.909L398.566 387.799L399.245 381.282L411.933 375.789L413.649 363.101L419.141 358.645L423.597 350.758L427.028 350.067L434.915 344.92L435.261 342.18L429.768 342.526L428.744 339.773H425.007L419.181 341.103L421.921 336.647L433.891 333.216L436.631 330.13L441.432 337.671L444.531 340.77L449.332 339.44L447.271 334.985L440.062 329.838L431.83 320.528L423.251 314.689L415.018 313.359L410.909 309.249L405.416 307.919L404.738 309.249L404.046 319.198L405.376 322.629L402.397 333.628L395.534 328.135L396.571 323.334L389.363 319.902L386.277 316.139L387.993 307.56L397.941 300.351L398.633 292.119L394.856 292.465L392.448 289.379L391.424 284.232L389.017 283.886L387.687 289.379L383.923 290.071L382.207 278.101L379.454 276.385L374.653 274.323L369.147 277.023L375.996 283.554L377.326 289.379L364.984 280.069L356.405 270.759L355.727 261.449L346.803 258.709L339.887 263.311C338.224 264.32 336.506 265.235 334.74 266.051C332.032 266.696 329.28 267.141 326.507 267.381L325.177 273.219L317.29 273.565L317.982 277.329L330.67 279.391L337.187 286.599V298.569L333.41 309.209L334.101 320.528L324.499 337.339L322.437 362.369L325.523 376.787L329.978 387.759L335.125 388.451L333.41 382.958L330.67 378.835L328.954 371.294L332.04 370.602L336.841 382.958L340.286 394.063V402.988L346.803 410.874L358.507 419.333L376.342 424.135L381.835 429.282L385.945 434.761L392.116 438.538L399.67 440.6L407.211 440.254C407.211 440.254 406.866 443.686 406.866 445.401C406.866 447.117 402.064 452.942 402.064 452.942L398.3 459.805L401.04 467.346L408.581 470.445L419.221 481.418L424.023 483.479V488.613L424.621 491.02C451.305 486.704 476.236 474.965 496.561 457.145L496.747 454.658L506.057 437.847L501.601 434.761L482.649 439.962ZM518.333 304.474L514.556 297.957L509.754 290.403L508.424 280.122L514.596 281.146L514.941 277.715L510.473 277.369L514.25 275.653L518.373 273.259V269.828L514.25 264.335L513.372 256.954C493.427 232.555 466.06 215.336 435.432 207.915C404.804 200.495 372.591 203.279 343.691 215.843L351.604 221.443L346.803 227.627L340.286 228.957L339.594 238.267L336.854 239.291L333.423 243.068L333.769 249.24L339.594 249.931L337.227 255.743H343.052L353.001 243.055L354.038 237.575L363.641 236.884L366.035 232.761L375.983 231.737L377.02 225.911L384.216 225.566C384.216 225.566 389.363 222.826 390.4 222.826C392.38 223.253 394.327 223.821 396.226 224.528L401.373 228.651H408.568L414.752 224.874L422.639 225.566C423.775 226.303 425.07 226.759 426.417 226.896C428.132 226.896 433.266 224.488 433.266 224.488L443.214 230.673L447.337 233.758V238.905L452.485 239.584L454.2 236.498L458.656 238.56L458.31 241.299L448.016 244.053L453.854 251.594L466.197 258.456L471.344 265.319L478.898 265.998L480.614 262.566L483.354 261.888L474.43 255.025L468.897 254.413L473.352 253.083L469.229 247.258L475.068 246.912L482.609 251.022L484.325 259.254L488.102 263.723L491.188 273.672L498.729 279.151V290.47L506.629 295.617L506.283 299.394L505.246 303.849L507.307 310.021L507.999 313.119L513.824 314.144L516.577 308.305L518.333 304.474ZM522.788 269.894V271.863L521.073 277.342L522.097 282.144L525.874 283.474V289.991L521.751 288.275L520.767 306.868L516.657 314.423L519.397 324.025L523.852 328.135V346.662L528.308 361.066L533.122 372.052L541.009 374.1L543.749 367.237L544.866 366.373C545.609 360.412 545.982 354.411 545.984 348.404C546.011 320.548 537.948 293.283 522.775 269.921L522.788 269.894ZM443.534 267.713L420.924 257.765L410.975 258.111L408.568 264.628L404.458 260.172L396.917 261.888L396.226 273.206L402.397 277.662L406.852 271.145L411.999 276.292L422.639 285.602L424.701 295.55L433.612 306.868L448.016 304.474L447.683 299.327L444.598 293.489L443.906 279.776L447.337 273.938L443.534 267.713ZM462.061 275.268L456.913 273.938L452.458 277.715L454.852 287.663H459.321L462.061 275.268ZM493.981 281.785L482.303 275.693L479.896 271.584L477.156 272.608L479.55 279.47L481.612 288.395L486.759 290.443L487.783 289.113L484.697 283.966L493.621 287.397L493.981 281.785ZM393.818 405.608L392.488 406.938L402.782 410.023L406.892 414.825L413.422 415.516L415.816 411.739L407.93 410.409L393.818 405.608ZM424.408 412.125L417.2 414.186L418.237 416.926H427.148L428.864 414.186L425.778 414.532L424.408 412.125Z" fill="#7E57C2"/>
<mask id="mask2_463_2069" style="mask-type:luminance" maskUnits="userSpaceOnUse" x="317" y="203" width="229" height="289">
<path d="M396.199 281.492L409.925 287.663L413.688 293.834L419.873 296.242L420.551 302.759L418.157 306.536L413.356 307.56L403.062 303.437V302.107L408.887 299.713L406.826 292.504L397.516 289.073L393.406 283.593L396.199 281.492ZM482.649 439.962L471.676 435.506L458.257 430.705H447.617L437.708 428.643L426.722 431.051L420.551 431.383H416.774L409.579 435.506L402.716 438.246L393.406 432.42L395.8 422.818L389.975 420.411H383.112L382.088 417.325L382.766 411.154L380.372 407.722L375.571 408.401L374.241 411.832L368.415 412.178L363.268 406.033L361.167 397.774L366.314 388.171L376.262 388.85L379.002 391.257H383.125L388.272 388.171L392.728 389.501L398.899 400.141L401.306 399.809L400.615 391.909L398.566 387.799L399.245 381.282L411.933 375.789L413.649 363.101L419.141 358.645L423.597 350.758L427.028 350.067L434.915 344.92L435.261 342.18L429.768 342.526L428.744 339.773H425.007L419.181 341.103L421.921 336.647L433.891 333.216L436.631 330.13L441.432 337.671L444.531 340.77L449.332 339.44L447.271 334.985L440.062 329.838L431.83 320.528L423.251 314.689L415.018 313.359L410.909 309.249L405.416 307.919L404.738 309.249L404.046 319.198L405.376 322.629L402.397 333.628L395.534 328.135L396.571 323.334L389.363 319.902L386.277 316.139L387.993 307.56L397.941 300.351L398.633 292.119L394.856 292.465L392.448 289.379L391.424 284.232L389.017 283.886L387.687 289.379L383.923 290.071L382.207 278.101L379.454 276.385L374.653 274.323L369.147 277.023L375.996 283.554L377.326 289.379L364.984 280.069L356.405 270.759L355.727 261.449L346.803 258.709L339.887 263.311C338.224 264.32 336.506 265.235 334.74 266.051C332.032 266.696 329.28 267.141 326.507 267.381L325.177 273.219L317.29 273.565L317.982 277.329L330.67 279.391L337.187 286.599V298.569L333.41 309.209L334.101 320.528L324.499 337.339L322.437 362.369L325.523 376.787L329.978 387.759L335.125 388.451L333.41 382.958L330.67 378.835L328.954 371.294L332.04 370.602L336.841 382.958L340.286 394.063V402.988L346.803 410.874L358.507 419.333L376.342 424.135L381.835 429.282L385.945 434.761L392.116 438.538L399.67 440.6L407.211 440.254C407.211 440.254 406.866 443.686 406.866 445.401C406.866 447.117 402.064 452.942 402.064 452.942L398.3 459.805L401.04 467.346L408.581 470.445L419.221 481.418L424.023 483.479V488.613L424.621 491.02C451.305 486.704 476.236 474.965 496.561 457.145L496.747 454.658L506.057 437.847L501.601 434.761L482.649 439.962ZM518.333 304.474L514.556 297.957L509.754 290.403L508.424 280.122L514.596 281.146L514.941 277.715L510.473 277.369L514.25 275.653L518.373 273.259V269.828L514.25 264.335L513.372 256.954C493.427 232.555 466.06 215.336 435.432 207.915C404.804 200.495 372.591 203.279 343.691 215.843L351.604 221.443L346.803 227.627L340.286 228.957L339.594 238.267L336.854 239.291L333.423 243.068L333.769 249.24L339.594 249.931L337.227 255.743H343.052L353.001 243.055L354.038 237.575L363.641 236.884L366.035 232.761L375.983 231.737L377.02 225.911L384.216 225.566C384.216 225.566 389.363 222.826 390.4 222.826C392.38 223.253 394.327 223.821 396.226 224.528L401.373 228.651H408.568L414.752 224.874L422.639 225.566C423.775 226.303 425.07 226.759 426.417 226.896C428.132 226.896 433.266 224.488 433.266 224.488L443.214 230.673L447.337 233.758V238.905L452.485 239.584L454.2 236.498L458.656 238.56L458.31 241.299L448.016 244.053L453.854 251.594L466.197 258.456L471.344 265.319L478.898 265.998L480.614 262.566L483.354 261.888L474.43 255.025L468.897 254.413L473.352 253.083L469.229 247.258L475.068 246.912L482.609 251.022L484.325 259.254L488.102 263.723L491.188 273.672L498.729 279.151V290.47L506.629 295.617L506.283 299.394L505.246 303.849L507.307 310.021L507.999 313.119L513.824 314.144L516.577 308.305L518.333 304.474ZM522.788 269.894V271.863L521.073 277.342L522.097 282.144L525.874 283.474V289.991L521.751 288.275L520.767 306.868L516.657 314.423L519.397 324.025L523.852 328.135V346.662L528.308 361.066L533.122 372.052L541.009 374.1L543.749 367.237L544.866 366.373C545.609 360.412 545.982 354.411 545.984 348.404C546.011 320.548 537.948 293.283 522.775 269.921L522.788 269.894ZM443.534 267.713L420.924 257.765L410.975 258.111L408.568 264.628L404.458 260.172L396.917 261.888L396.226 273.206L402.397 277.662L406.852 271.145L411.999 276.292L422.639 285.602L424.701 295.55L433.612 306.868L448.016 304.474L447.683 299.327L444.598 293.489L443.906 279.776L447.337 273.938L443.534 267.713ZM462.061 275.268L456.913 273.938L452.458 277.715L454.852 287.663H459.321L462.061 275.268ZM493.981 281.785L482.303 275.693L479.896 271.584L477.156 272.608L479.55 279.47L481.612 288.395L486.759 290.443L487.783 289.113L484.697 283.966L493.621 287.397L493.981 281.785ZM393.818 405.608L392.488 406.938L402.782 410.023L406.892 414.825L413.422 415.516L415.816 411.739L407.93 410.409L393.818 405.608ZM424.408 412.125L417.2 414.186L418.237 416.926H427.148L428.864 414.186L425.778 414.532L424.408 412.125Z" fill="white"/>
</mask>
<g mask="url(#mask2_463_2069)">
<path opacity="0.65" d="M401.399 410.142C370.289 410.14 340.008 400.103 315.056 381.522C290.104 362.94 271.81 336.806 262.893 307.001C256.461 328.573 255.158 351.349 259.085 373.515C263.013 395.68 272.064 416.621 285.516 434.67C298.969 452.718 316.451 467.375 336.57 477.472C356.689 487.569 378.889 492.827 401.399 492.827C423.91 492.827 446.109 487.569 466.228 477.472C486.347 467.375 503.829 452.718 517.282 434.67C530.735 416.621 539.785 395.68 543.713 373.515C547.641 351.349 546.337 328.573 539.906 307.001C530.986 336.805 512.692 362.938 487.741 381.519C462.789 400.1 432.509 410.138 401.399 410.142Z" fill="white"/>
</g>
<path d="M396.199 281.492L409.925 287.663L413.688 293.834L419.873 296.242L420.551 302.759L418.157 306.536L413.356 307.56L403.062 303.437V302.107L408.887 299.713L406.826 292.504L397.516 289.073L393.406 283.593L396.199 281.492ZM482.649 439.962L471.676 435.506L458.257 430.705H447.617L437.708 428.643L426.722 431.051L420.551 431.383H416.774L409.579 435.506L402.716 438.246L393.406 432.42L395.8 422.818L389.975 420.411H383.112L382.088 417.325L382.766 411.154L380.372 407.722L375.571 408.401L374.241 411.832L368.415 412.178L363.268 406.033L361.167 397.774L366.314 388.171L376.262 388.85L379.002 391.257H383.125L388.272 388.171L392.728 389.501L398.899 400.141L401.306 399.809L400.615 391.909L398.566 387.799L399.245 381.282L411.933 375.789L413.649 363.101L419.141 358.645L423.597 350.758L427.028 350.067L434.915 344.92L435.261 342.18L429.768 342.526L428.744 339.773H425.007L419.181 341.103L421.921 336.647L433.891 333.216L436.631 330.13L441.432 337.671L444.531 340.77L449.332 339.44L447.271 334.985L440.062 329.838L431.83 320.528L423.251 314.689L415.018 313.359L410.909 309.249L405.416 307.919L404.738 309.249L404.046 319.198L405.376 322.629L402.397 333.628L395.534 328.135L396.571 323.334L389.363 319.902L386.277 316.139L387.993 307.56L397.941 300.351L398.633 292.119L394.856 292.465L392.448 289.379L391.424 284.232L389.017 283.886L387.687 289.379L383.923 290.071L382.207 278.101L379.454 276.385L374.653 274.323L369.147 277.023L375.996 283.554L377.326 289.379L364.984 280.069L356.405 270.759L355.727 261.449L346.803 258.709L339.887 263.311C338.224 264.32 336.506 265.235 334.74 266.051C332.032 266.696 329.28 267.141 326.507 267.381L325.177 273.219L317.29 273.565L317.982 277.329L330.67 279.391L337.187 286.599V298.569L333.41 309.209L334.101 320.528L324.499 337.339L322.437 362.369L325.523 376.787L329.978 387.759L335.125 388.451L333.41 382.958L330.67 378.835L328.954 371.294L332.04 370.602L336.841 382.958L340.286 394.063V402.988L346.803 410.874L358.507 419.333L376.342 424.135L381.835 429.282L385.945 434.761L392.116 438.538L399.67 440.6L407.211 440.254C407.211 440.254 406.866 443.686 406.866 445.401C406.866 447.117 402.064 452.942 402.064 452.942L398.3 459.805L401.04 467.346L408.581 470.445L419.221 481.418L424.023 483.479V488.613L424.621 491.02C451.305 486.704 476.236 474.965 496.561 457.145L496.747 454.658L506.057 437.847L501.601 434.761L482.649 439.962ZM518.333 304.474L514.556 297.957L509.754 290.403L508.424 280.122L514.596 281.146L514.941 277.715L510.473 277.369L514.25 275.653L518.373 273.259V269.828L514.25 264.335L513.372 256.954C493.427 232.555 466.06 215.336 435.432 207.915C404.804 200.495 372.591 203.279 343.691 215.843L351.604 221.443L346.803 227.627L340.286 228.957L339.594 238.267L336.854 239.291L333.423 243.068L333.769 249.24L339.594 249.931L337.227 255.743H343.052L353.001 243.055L354.038 237.575L363.641 236.884L366.035 232.761L375.983 231.737L377.02 225.911L384.216 225.566C384.216 225.566 389.363 222.826 390.4 222.826C392.38 223.253 394.327 223.821 396.226 224.528L401.373 228.651H408.568L414.752 224.874L422.639 225.566C423.775 226.303 425.07 226.759 426.417 226.896C428.132 226.896 433.266 224.488 433.266 224.488L443.214 230.673L447.337 233.758V238.905L452.485 239.584L454.2 236.498L458.656 238.56L458.31 241.299L448.016 244.053L453.854 251.594L466.197 258.456L471.344 265.319L478.898 265.998L480.614 262.566L483.354 261.888L474.43 255.025L468.897 254.413L473.352 253.083L469.229 247.258L475.068 246.912L482.609 251.022L484.325 259.254L488.102 263.723L491.188 273.672L498.729 279.151V290.47L506.629 295.617L506.283 299.394L505.246 303.849L507.307 310.021L507.999 313.119L513.824 314.144L516.577 308.305L518.333 304.474ZM522.788 269.894V271.863L521.073 277.342L522.097 282.144L525.874 283.474V289.991L521.751 288.275L520.767 306.868L516.657 314.423L519.397 324.025L523.852 328.135V346.662L528.308 361.066L533.122 372.052L541.009 374.1L543.749 367.237L544.866 366.373C545.609 360.412 545.982 354.411 545.984 348.404C546.011 320.548 537.948 293.283 522.775 269.921L522.788 269.894ZM443.534 267.713L420.924 257.765L410.975 258.111L408.568 264.628L404.458 260.172L396.917 261.888L396.226 273.206L402.397 277.662L406.852 271.145L411.999 276.292L422.639 285.602L424.701 295.55L433.612 306.868L448.016 304.474L447.683 299.327L444.598 293.489L443.906 279.776L447.337 273.938L443.534 267.713ZM462.061 275.268L456.913 273.938L452.458 277.715L454.852 287.663H459.321L462.061 275.268ZM493.981 281.785L482.303 275.693L479.896 271.584L477.156 272.608L479.55 279.47L481.612 288.395L486.759 290.443L487.783 289.113L484.697 283.966L493.621 287.397L493.981 281.785ZM393.818 405.608L392.488 406.938L402.782 410.023L406.892 414.825L413.422 415.516L415.816 411.739L407.93 410.409L393.818 405.608ZM424.408 412.125L417.2 414.186L418.237 416.926H427.148L428.864 414.186L425.778 414.532L424.408 412.125Z" stroke="#263238" stroke-miterlimit="10"/>
</g>
<path d="M503.597 450.596C560.04 394.153 560.04 302.641 503.597 246.199C447.154 189.756 355.642 189.756 299.199 246.199C242.756 302.641 242.756 394.153 299.199 450.596C355.642 507.039 447.154 507.039 503.597 450.596Z" stroke="#263238" stroke-miterlimit="10"/>
<path d="M582.459 289.416C590.347 288.132 595.7 280.696 594.415 272.808C593.13 264.92 585.695 259.567 577.807 260.852C569.919 262.136 564.566 269.572 565.85 277.46C567.135 285.348 574.571 290.701 582.459 289.416Z" fill="white" stroke="white" stroke-width="0.5" stroke-miterlimit="10"/>
<path d="M584.926 274.165H575.483C575.045 274.165 574.612 274.251 574.208 274.419C573.803 274.587 573.436 274.833 573.127 275.144C572.818 275.454 572.574 275.822 572.407 276.227C572.241 276.632 572.156 277.066 572.158 277.503V285.417C574.462 287.212 577.305 288.177 580.226 288.156C583.146 288.134 585.974 287.127 588.251 285.297V277.503C588.253 277.066 588.168 276.632 588.002 276.227C587.836 275.822 587.591 275.454 587.282 275.144C586.973 274.833 586.606 274.587 586.202 274.419C585.797 274.251 585.364 274.165 584.926 274.165Z" fill="#7E57C2"/>
<path d="M580.045 272.701C580.995 272.701 581.923 272.42 582.713 271.892C583.502 271.364 584.118 270.615 584.481 269.737C584.845 268.86 584.94 267.895 584.754 266.963C584.569 266.032 584.112 265.176 583.44 264.505C582.769 263.833 581.913 263.376 580.982 263.191C580.051 263.006 579.085 263.101 578.208 263.464C577.331 263.828 576.581 264.443 576.053 265.232C575.526 266.022 575.244 266.95 575.244 267.9C575.244 268.53 575.368 269.155 575.61 269.737C575.851 270.32 576.205 270.849 576.65 271.295C577.096 271.741 577.626 272.094 578.208 272.336C578.791 272.577 579.415 272.701 580.045 272.701Z" fill="#7E57C2"/>
<path d="M478.154 231.538C486.146 231.538 492.624 225.06 492.624 217.068C492.624 209.076 486.146 202.598 478.154 202.598C470.162 202.598 463.684 209.076 463.684 217.068C463.684 225.06 470.162 231.538 478.154 231.538Z" fill="white" stroke="white" stroke-width="0.5" stroke-miterlimit="10"/>
<path d="M482.942 216.083H473.513C472.637 216.097 471.801 216.455 471.186 217.08C470.572 217.704 470.227 218.546 470.228 219.422V227.402C472.534 229.198 475.378 230.164 478.302 230.142C481.225 230.12 484.055 229.113 486.334 227.282V219.422C486.334 218.979 486.246 218.54 486.075 218.132C485.904 217.723 485.653 217.353 485.337 217.042C485.022 216.731 484.647 216.487 484.236 216.322C483.825 216.158 483.385 216.076 482.942 216.083Z" fill="#7E57C2"/>
<path d="M478.061 214.62C480.713 214.62 482.862 212.471 482.862 209.819C482.862 207.167 480.713 205.018 478.061 205.018C475.409 205.018 473.26 207.167 473.26 209.819C473.26 212.471 475.409 214.62 478.061 214.62Z" fill="#7E57C2"/>
<path d="M218.695 319.356C226.583 318.071 231.936 310.635 230.651 302.747C229.367 294.86 221.931 289.507 214.043 290.791C206.155 292.076 200.802 299.512 202.087 307.399C203.371 315.287 210.807 320.64 218.695 319.356Z" fill="white" stroke="white" stroke-width="0.5" stroke-miterlimit="10"/>
<path d="M221.171 304.089H211.728C211.291 304.089 210.857 304.175 210.453 304.343C210.049 304.511 209.681 304.757 209.373 305.067C209.064 305.378 208.819 305.746 208.653 306.151C208.486 306.556 208.402 306.989 208.403 307.427V315.341C210.707 317.136 213.55 318.101 216.471 318.079C219.391 318.058 222.219 317.05 224.496 315.221V307.427C224.498 306.989 224.413 306.556 224.247 306.151C224.081 305.746 223.836 305.378 223.527 305.067C223.218 304.757 222.851 304.511 222.447 304.343C222.043 304.175 221.609 304.089 221.171 304.089Z" fill="#7E57C2"/>
<path d="M216.291 302.627C217.24 302.627 218.168 302.345 218.958 301.818C219.748 301.29 220.363 300.54 220.726 299.663C221.09 298.786 221.185 297.82 221 296.889C220.814 295.958 220.357 295.102 219.686 294.431C219.014 293.759 218.159 293.302 217.227 293.117C216.296 292.931 215.331 293.026 214.453 293.39C213.576 293.753 212.826 294.369 212.298 295.158C211.771 295.948 211.489 296.876 211.489 297.826C211.489 299.099 211.995 300.32 212.896 301.221C213.796 302.121 215.017 302.627 216.291 302.627Z" fill="#7E57C2"/>
<path d="M228.018 410.452C235.906 409.168 241.259 401.732 239.974 393.844C238.69 385.956 231.254 380.603 223.366 381.888C215.478 383.172 210.125 390.608 211.41 398.496C212.695 406.384 220.13 411.737 228.018 410.452Z" fill="white" stroke="white" stroke-width="0.5" stroke-miterlimit="10"/>
<path d="M230.482 395.194H221.039C220.601 395.194 220.168 395.281 219.763 395.449C219.359 395.617 218.992 395.863 218.683 396.173C218.374 396.483 218.129 396.851 217.963 397.256C217.797 397.661 217.712 398.095 217.714 398.533V406.446C220.018 408.242 222.86 409.207 225.781 409.185C228.702 409.163 231.53 408.156 233.807 406.326V398.533C233.809 398.095 233.724 397.661 233.558 397.256C233.391 396.851 233.147 396.483 232.838 396.173C232.529 395.863 232.162 395.617 231.757 395.449C231.353 395.281 230.92 395.194 230.482 395.194Z" fill="#7E57C2"/>
<path d="M225.6 393.732C226.55 393.732 227.478 393.45 228.268 392.922C229.057 392.395 229.673 391.645 230.036 390.768C230.399 389.89 230.494 388.925 230.309 387.994C230.124 387.062 229.667 386.207 228.995 385.535C228.324 384.864 227.468 384.406 226.537 384.221C225.605 384.036 224.64 384.131 223.763 384.494C222.885 384.858 222.136 385.473 221.608 386.263C221.08 387.052 220.799 387.981 220.799 388.93C220.799 390.204 221.305 391.425 222.205 392.325C223.106 393.226 224.327 393.732 225.6 393.732Z" fill="#7E57C2"/>
<path d="M298.157 328.315C301.084 320.879 297.43 312.478 289.993 309.55C282.557 306.622 274.156 310.277 271.228 317.713C268.3 325.149 271.955 333.551 279.391 336.479C286.827 339.407 295.229 335.752 298.157 328.315Z" fill="white" stroke="white" stroke-width="0.5" stroke-miterlimit="10"/>
<path d="M289.493 322.045H280.037C279.155 322.045 278.309 322.395 277.686 323.019C277.062 323.642 276.712 324.488 276.712 325.37V333.35C279.016 335.145 281.858 336.11 284.779 336.089C287.7 336.067 290.528 335.06 292.805 333.23V325.436C292.814 324.995 292.735 324.557 292.572 324.147C292.41 323.736 292.168 323.363 291.86 323.047C291.551 322.731 291.183 322.48 290.777 322.308C290.371 322.136 289.934 322.047 289.493 322.045Z" fill="#7E57C2"/>
<path d="M284.613 320.581C285.562 320.581 286.491 320.3 287.28 319.772C288.07 319.244 288.685 318.495 289.049 317.617C289.412 316.74 289.507 315.774 289.322 314.843C289.137 313.912 288.679 313.056 288.008 312.385C287.336 311.713 286.481 311.256 285.55 311.071C284.618 310.886 283.653 310.981 282.775 311.344C281.898 311.707 281.148 312.323 280.621 313.112C280.093 313.902 279.812 314.83 279.812 315.78C279.812 316.41 279.936 317.035 280.177 317.617C280.418 318.2 280.772 318.729 281.218 319.175C281.664 319.621 282.193 319.974 282.775 320.216C283.358 320.457 283.982 320.581 284.613 320.581Z" fill="#7E57C2"/>
<path d="M380.146 479.463C388.138 479.463 394.617 472.985 394.617 464.993C394.617 457.001 388.138 450.522 380.146 450.522C372.154 450.522 365.676 457.001 365.676 464.993C365.676 472.985 372.154 479.463 380.146 479.463Z" fill="white" stroke="white" stroke-width="0.5" stroke-miterlimit="10"/>
<path d="M384.948 464.022H375.518C374.633 464.022 373.784 464.374 373.157 465C372.531 465.626 372.18 466.475 372.18 467.361V475.274C374.486 477.071 377.331 478.036 380.254 478.015C383.177 477.993 386.007 476.985 388.286 475.155V467.361C388.286 466.475 387.934 465.626 387.308 465C386.682 464.374 385.833 464.022 384.948 464.022Z" fill="#7E57C2"/>
<path d="M380.066 462.559C382.718 462.559 384.867 460.409 384.867 457.757C384.867 455.106 382.718 452.956 380.066 452.956C377.414 452.956 375.265 455.106 375.265 457.757C375.265 460.409 377.414 462.559 380.066 462.559Z" fill="#7E57C2"/>
<path d="M484.192 507.287C492.184 507.287 498.662 500.808 498.662 492.816C498.662 484.824 492.184 478.346 484.192 478.346C476.2 478.346 469.722 484.824 469.722 492.816C469.722 500.808 476.2 507.287 484.192 507.287Z" fill="white" stroke="white" stroke-width="0.5" stroke-miterlimit="10"/>
<path d="M488.98 491.846H479.537C478.653 491.846 477.806 492.196 477.181 492.819C476.555 493.442 476.202 494.288 476.198 495.171V503.151C478.504 504.947 481.349 505.913 484.272 505.891C487.195 505.869 490.026 504.862 492.305 503.031V495.144C492.298 494.267 491.944 493.428 491.321 492.81C490.699 492.192 489.857 491.846 488.98 491.846Z" fill="#7E57C2"/>
<path d="M484.099 490.382C486.751 490.382 488.9 488.232 488.9 485.581C488.9 482.929 486.751 480.779 484.099 480.779C481.447 480.779 479.298 482.929 479.298 485.581C479.298 488.232 481.447 490.382 484.099 490.382Z" fill="#7E57C2"/>
<path d="M570.931 414.454C573.688 406.953 569.842 398.637 562.341 395.88C554.84 393.123 546.524 396.969 543.767 404.471C541.01 411.972 544.856 420.288 552.358 423.045C559.859 425.802 568.175 421.956 570.931 414.454Z" fill="white" stroke="white" stroke-width="0.5" stroke-miterlimit="10"/>
<path d="M562.144 408.494H552.687C551.805 408.494 550.96 408.844 550.336 409.468C549.713 410.092 549.362 410.937 549.362 411.819V419.799C551.666 421.595 554.509 422.56 557.43 422.538C560.35 422.516 563.178 421.509 565.455 419.679V411.886C565.464 411.445 565.385 411.006 565.223 410.596C565.06 410.186 564.818 409.812 564.51 409.496C564.202 409.18 563.834 408.929 563.427 408.757C563.021 408.585 562.585 408.496 562.144 408.494Z" fill="#7E57C2"/>
<path d="M557.262 407.031C558.212 407.031 559.14 406.75 559.93 406.222C560.719 405.695 561.335 404.945 561.698 404.067C562.061 403.19 562.157 402.225 561.971 401.293C561.786 400.362 561.329 399.506 560.657 398.835C559.986 398.164 559.13 397.706 558.199 397.521C557.268 397.336 556.302 397.431 555.425 397.794C554.548 398.158 553.798 398.773 553.27 399.563C552.743 400.352 552.461 401.28 552.461 402.23C552.461 403.503 552.967 404.725 553.867 405.625C554.768 406.525 555.989 407.031 557.262 407.031Z" fill="#7E57C2"/>
<path d="M528.561 279.206C548.99 295.764 561.106 316.446 561.106 338.763C561.106 393.293 489.06 437.529 400.176 437.529C311.292 437.529 239.246 393.306 239.246 338.763C239.246 314.903 253.038 293.024 275.994 275.947" stroke="white" stroke-width="0.5" stroke-miterlimit="10"/>
<path d="M307.968 238.121C322.451 214.381 342.814 198.554 366.94 195.029C423.625 186.863 479.631 250.184 492.053 336.461C504.475 422.739 468.605 499.293 411.934 507.46C386.132 511.17 360.463 500.078 338.983 478.745" stroke="white" stroke-width="0.5" stroke-miterlimit="10"/>
<path d="M525.614 447.441C544.45 416.607 497.893 353.843 421.626 307.253C345.359 260.663 268.263 247.89 249.428 278.724C230.592 309.558 277.149 372.322 353.415 418.912C429.682 465.502 506.778 478.275 525.614 447.441Z" stroke="white" stroke-width="0.5" stroke-miterlimit="10"/>
<path d="M433.474 411.666C511.74 363.855 559.918 300.1 541.082 269.266C522.247 238.432 443.53 252.195 365.263 300.007C286.997 347.818 238.819 411.573 257.655 442.407C276.491 473.241 355.208 459.478 433.474 411.666Z" stroke="white" stroke-width="0.5" stroke-miterlimit="10"/>
<path d="M467.661 257.074C467.661 256.548 467.505 256.034 467.213 255.596C466.92 255.159 466.505 254.818 466.019 254.617C465.533 254.415 464.998 254.363 464.482 254.465C463.966 254.568 463.492 254.821 463.12 255.193C462.748 255.565 462.495 256.039 462.392 256.555C462.289 257.071 462.342 257.606 462.543 258.092C462.745 258.578 463.086 258.993 463.523 259.286C463.96 259.578 464.475 259.734 465.001 259.734C465.706 259.734 466.383 259.454 466.882 258.955C467.381 258.456 467.661 257.78 467.661 257.074Z" fill="white" stroke="white" stroke-width="0.5" stroke-miterlimit="10"/>
<path d="M496.921 365.961C496.921 365.435 496.765 364.92 496.472 364.483C496.18 364.046 495.765 363.705 495.279 363.503C494.792 363.302 494.258 363.249 493.742 363.352C493.226 363.455 492.752 363.708 492.38 364.08C492.008 364.452 491.754 364.926 491.652 365.442C491.549 365.958 491.602 366.493 491.803 366.979C492.004 367.465 492.345 367.88 492.783 368.172C493.22 368.465 493.735 368.621 494.261 368.621C494.966 368.621 495.643 368.341 496.142 367.842C496.64 367.343 496.921 366.666 496.921 365.961Z" fill="white" stroke="white" stroke-width="0.5" stroke-miterlimit="10"/>
<path d="M491.069 421.276C491.069 420.75 490.913 420.236 490.621 419.798C490.328 419.361 489.913 419.02 489.427 418.819C488.941 418.617 488.406 418.565 487.89 418.667C487.374 418.77 486.9 419.023 486.528 419.395C486.156 419.767 485.903 420.241 485.8 420.757C485.698 421.273 485.75 421.808 485.951 422.294C486.153 422.78 486.494 423.196 486.931 423.488C487.369 423.78 487.883 423.936 488.409 423.936C489.115 423.936 489.791 423.656 490.29 423.157C490.789 422.658 491.069 421.982 491.069 421.276Z" fill="white" stroke="white" stroke-width="0.5" stroke-miterlimit="10"/>
<path d="M474.097 463.41C474.097 462.884 473.941 462.37 473.649 461.932C473.357 461.495 472.941 461.154 472.455 460.952C471.969 460.751 471.434 460.698 470.918 460.801C470.402 460.904 469.928 461.157 469.556 461.529C469.184 461.901 468.931 462.375 468.828 462.891C468.726 463.407 468.779 463.942 468.98 464.428C469.181 464.914 469.522 465.329 469.96 465.622C470.397 465.914 470.911 466.07 471.437 466.07C472.143 466.07 472.819 465.79 473.318 465.291C473.817 464.792 474.097 464.115 474.097 463.41Z" fill="white" stroke="white" stroke-width="0.5" stroke-miterlimit="10"/>
<path d="M524.757 403.374C524.757 402.848 524.601 402.333 524.308 401.896C524.016 401.459 523.601 401.118 523.114 400.916C522.628 400.715 522.094 400.662 521.578 400.765C521.062 400.868 520.588 401.121 520.216 401.493C519.844 401.865 519.59 402.339 519.488 402.855C519.385 403.371 519.438 403.906 519.639 404.392C519.84 404.878 520.181 405.293 520.619 405.586C521.056 405.878 521.57 406.034 522.097 406.034C522.802 406.034 523.479 405.754 523.977 405.255C524.476 404.756 524.757 404.079 524.757 403.374Z" fill="white" stroke="white" stroke-width="0.5" stroke-miterlimit="10"/>
<path d="M388.059 436.784C388.059 436.258 387.903 435.744 387.611 435.306C387.319 434.869 386.903 434.528 386.417 434.327C385.931 434.125 385.396 434.072 384.88 434.175C384.364 434.278 383.89 434.531 383.518 434.903C383.146 435.275 382.893 435.749 382.79 436.265C382.688 436.781 382.74 437.316 382.942 437.802C383.143 438.288 383.484 438.703 383.921 438.996C384.359 439.288 384.873 439.444 385.399 439.444C386.105 439.444 386.781 439.164 387.28 438.665C387.779 438.166 388.059 437.49 388.059 436.784Z" fill="white" stroke="white" stroke-width="0.5" stroke-miterlimit="10"/>
<path d="M266.911 392.601C266.911 392.075 266.755 391.561 266.463 391.124C266.17 390.686 265.755 390.345 265.269 390.144C264.783 389.943 264.248 389.89 263.732 389.993C263.216 390.095 262.742 390.348 262.37 390.72C261.998 391.092 261.745 391.566 261.642 392.082C261.539 392.598 261.592 393.133 261.793 393.619C261.995 394.105 262.336 394.521 262.773 394.813C263.21 395.105 263.725 395.261 264.251 395.261C264.956 395.261 265.633 394.981 266.132 394.482C266.631 393.983 266.911 393.307 266.911 392.601Z" fill="white" stroke="white" stroke-width="0.5" stroke-miterlimit="10"/>
<path d="M287.392 365.084C287.392 364.558 287.236 364.043 286.944 363.606C286.652 363.169 286.236 362.828 285.75 362.626C285.264 362.425 284.729 362.372 284.213 362.475C283.697 362.578 283.223 362.831 282.851 363.203C282.479 363.575 282.226 364.049 282.123 364.565C282.021 365.081 282.073 365.616 282.275 366.102C282.476 366.588 282.817 367.003 283.254 367.296C283.692 367.588 284.206 367.744 284.732 367.744C285.438 367.744 286.114 367.464 286.613 366.965C287.112 366.466 287.392 365.789 287.392 365.084Z" fill="white" stroke="white" stroke-width="0.5" stroke-miterlimit="10"/>
<path d="M388.352 288.129C388.352 287.603 388.196 287.088 387.904 286.651C387.612 286.214 387.196 285.873 386.71 285.671C386.224 285.47 385.689 285.417 385.173 285.52C384.657 285.622 384.183 285.876 383.811 286.248C383.439 286.62 383.186 287.094 383.083 287.61C382.981 288.126 383.033 288.661 383.235 289.147C383.436 289.633 383.777 290.048 384.214 290.34C384.652 290.633 385.166 290.789 385.692 290.789C386.398 290.789 387.074 290.509 387.573 290.01C388.072 289.511 388.352 288.834 388.352 288.129Z" fill="white" stroke="white" stroke-width="0.5" stroke-miterlimit="10"/>
<path d="M546.37 294.859C546.37 294.333 546.214 293.819 545.922 293.381C545.629 292.944 545.214 292.603 544.728 292.402C544.242 292.2 543.707 292.148 543.191 292.25C542.675 292.353 542.201 292.606 541.829 292.978C541.457 293.35 541.204 293.824 541.101 294.34C540.998 294.856 541.051 295.391 541.252 295.877C541.454 296.363 541.795 296.779 542.232 297.071C542.669 297.363 543.184 297.519 543.71 297.519C544.415 297.519 545.092 297.239 545.591 296.74C546.09 296.241 546.37 295.565 546.37 294.859Z" fill="white" stroke="white" stroke-width="0.5" stroke-miterlimit="10"/>
<path d="M250.232 307.734C250.232 307.208 250.076 306.694 249.784 306.256C249.492 305.819 249.076 305.478 248.59 305.277C248.104 305.075 247.569 305.023 247.053 305.125C246.537 305.228 246.063 305.481 245.691 305.853C245.319 306.225 245.066 306.699 244.963 307.215C244.861 307.731 244.913 308.266 245.115 308.752C245.316 309.238 245.657 309.654 246.094 309.946C246.532 310.238 247.046 310.394 247.572 310.394C248.278 310.394 248.954 310.114 249.453 309.615C249.952 309.116 250.232 308.44 250.232 307.734Z" fill="white" stroke="white" stroke-width="0.5" stroke-miterlimit="10"/>
<path d="M546.343 293.808L567.25 282.557" stroke="white" stroke-width="0.5" stroke-miterlimit="10"/>
<path d="M244.965 307.734L230.841 305.074" stroke="white" stroke-width="0.5" stroke-miterlimit="10"/>
<path d="M284.759 362.45V337.486" stroke="white" stroke-width="0.5" stroke-miterlimit="10"/>
<path d="M261.643 392.601L240.15 396.178" stroke="white" stroke-width="0.5" stroke-miterlimit="10"/>
<path d="M384.828 439.377L382.859 450.948" stroke="white" stroke-width="0.5" stroke-miterlimit="10"/>
<path d="M472.462 465.95L478.62 479.357" stroke="white" stroke-width="0.5" stroke-miterlimit="10"/>
<path d="M524.718 403.428L542.593 407.258" stroke="white" stroke-width="0.5" stroke-miterlimit="10"/>
<path d="M486.307 419.347L468.95 402.643" stroke="white" stroke-width="0.5" stroke-miterlimit="10"/>
<path d="M466.091 254.706L474.004 231.179" stroke="white" stroke-width="0.5" stroke-miterlimit="10"/>
<path d="M297.833 242.378L301.185 244.892" stroke="white" stroke-width="0.5" stroke-miterlimit="10"/>
<path d="M323.396 478.266L327.159 473.238" stroke="white" stroke-width="0.5" stroke-miterlimit="10"/>
<path d="M471.803 397.934C474.62 390.455 470.841 382.109 463.362 379.292C455.883 376.475 447.537 380.254 444.72 387.733C441.903 395.212 445.682 403.558 453.161 406.375C460.64 409.192 468.986 405.413 471.803 397.934Z" fill="white" stroke="white" stroke-width="0.5" stroke-miterlimit="10"/>
<path d="M463.058 391.869H453.615C452.733 391.869 451.887 392.219 451.264 392.843C450.64 393.467 450.29 394.312 450.29 395.194V403.174C452.594 404.97 455.437 405.935 458.357 405.913C461.278 405.891 464.106 404.884 466.383 403.054V395.261C466.392 394.818 466.312 394.379 466.149 393.968C465.986 393.557 465.743 393.182 465.433 392.866C465.123 392.551 464.754 392.3 464.346 392.128C463.938 391.957 463.5 391.869 463.058 391.869Z" fill="#7E57C2"/>
<path d="M458.177 390.406C459.127 390.406 460.055 390.125 460.845 389.597C461.634 389.07 462.25 388.32 462.613 387.442C462.977 386.565 463.072 385.6 462.886 384.668C462.701 383.737 462.244 382.881 461.572 382.21C460.901 381.539 460.045 381.081 459.114 380.896C458.183 380.711 457.217 380.806 456.34 381.169C455.463 381.533 454.713 382.148 454.185 382.938C453.658 383.727 453.376 384.655 453.376 385.605C453.376 386.878 453.882 388.1 454.782 389C455.683 389.9 456.904 390.406 458.177 390.406Z" fill="#7E57C2"/>
<path d="M504.411 329.425C507.209 321.939 503.408 313.603 495.922 310.805C488.436 308.008 480.099 311.809 477.302 319.295C474.504 326.781 478.305 335.117 485.791 337.915C493.277 340.712 501.614 336.911 504.411 329.425Z" fill="white" stroke="white" stroke-width="0.5" stroke-miterlimit="10"/>
<path d="M495.644 323.375H486.187C485.305 323.375 484.46 323.725 483.836 324.349C483.213 324.972 482.862 325.818 482.862 326.7V334.68C485.166 336.475 488.009 337.44 490.93 337.419C493.85 337.397 496.678 336.39 498.955 334.56V326.766C498.964 326.325 498.885 325.887 498.723 325.477C498.56 325.066 498.318 324.693 498.01 324.377C497.702 324.061 497.334 323.81 496.927 323.638C496.521 323.466 496.085 323.377 495.644 323.375Z" fill="#7E57C2"/>
<path d="M490.762 321.911C491.712 321.911 492.64 321.63 493.43 321.102C494.219 320.574 494.835 319.825 495.198 318.947C495.561 318.07 495.657 317.105 495.471 316.173C495.286 315.242 494.829 314.386 494.157 313.715C493.486 313.043 492.63 312.586 491.699 312.401C490.768 312.216 489.802 312.311 488.925 312.674C488.048 313.037 487.298 313.653 486.77 314.442C486.243 315.232 485.961 316.16 485.961 317.11C485.961 318.383 486.467 319.605 487.367 320.505C488.268 321.405 489.489 321.911 490.762 321.911Z" fill="#7E57C2"/>
</svg>
