<svg width="802" height="420" viewBox="0 0 802 420" fill="none" xmlns="http://www.w3.org/2000/svg">
<rect width="802" height="420" fill="white"/>
<circle cx="675.5" cy="107.5" r="69.5" fill="#7F0799"/>
<circle cx="127.5" cy="312.5" r="69.5" fill="#7F0799"/>
<g filter="url(#filter0_b_463_630)">
<rect x="94" y="80" width="606" height="271" rx="30" fill="#455A64" fill-opacity="0.3"/>
<rect x="92.5" y="78.5" width="609" height="274" rx="31.5" stroke="white" stroke-opacity="0.25" stroke-width="3"/>
</g>
<path d="M133.232 126.024L128.624 109.2H130.784L134.408 123.624L138.536 109.2H140.768L144.776 123.624L148.448 109.2H150.608L145.904 126H143.6L139.592 112.128L135.488 126L133.232 126.024ZM155.647 126.288C154.655 126.288 153.831 126.12 153.175 125.784C152.519 125.448 152.031 125 151.711 124.44C151.391 123.88 151.231 123.272 151.231 122.616C151.231 121.4 151.695 120.464 152.623 119.808C153.551 119.152 154.815 118.824 156.415 118.824H159.631V118.68C159.631 117.64 159.359 116.856 158.815 116.328C158.271 115.784 157.543 115.512 156.631 115.512C155.847 115.512 155.167 115.712 154.591 116.112C154.031 116.496 153.679 117.064 153.535 117.816H151.471C151.551 116.952 151.839 116.224 152.335 115.632C152.847 115.04 153.479 114.592 154.231 114.288C154.983 113.968 155.783 113.808 156.631 113.808C158.295 113.808 159.543 114.256 160.375 115.152C161.223 116.032 161.647 117.208 161.647 118.68V126H159.847L159.727 123.864C159.391 124.536 158.895 125.112 158.239 125.592C157.599 126.056 156.735 126.288 155.647 126.288ZM155.959 124.584C156.727 124.584 157.383 124.384 157.927 123.984C158.487 123.584 158.911 123.064 159.199 122.424C159.487 121.784 159.631 121.112 159.631 120.408V120.384H156.583C155.399 120.384 154.559 120.592 154.063 121.008C153.583 121.408 153.343 121.912 153.343 122.52C153.343 123.144 153.567 123.648 154.015 124.032C154.479 124.4 155.127 124.584 155.959 124.584ZM164.672 126V108.72H166.688V126H164.672ZM169.992 126V108.72H172.008V126H169.992ZM180.664 126.288C179.528 126.288 178.52 126.032 177.64 125.52C176.76 124.992 176.064 124.264 175.552 123.336C175.056 122.408 174.808 121.312 174.808 120.048C174.808 118.8 175.056 117.712 175.552 116.784C176.048 115.84 176.736 115.112 177.616 114.6C178.512 114.072 179.544 113.808 180.712 113.808C181.864 113.808 182.856 114.072 183.688 114.6C184.536 115.112 185.184 115.792 185.632 116.64C186.08 117.488 186.304 118.4 186.304 119.376C186.304 119.552 186.296 119.728 186.28 119.904C186.28 120.08 186.28 120.28 186.28 120.504H176.8C176.848 121.416 177.056 122.176 177.424 122.784C177.808 123.376 178.28 123.824 178.84 124.128C179.416 124.432 180.024 124.584 180.664 124.584C181.496 124.584 182.192 124.392 182.752 124.008C183.312 123.624 183.72 123.104 183.976 122.448H185.968C185.648 123.552 185.032 124.472 184.12 125.208C183.224 125.928 182.072 126.288 180.664 126.288ZM180.664 115.512C179.704 115.512 178.848 115.808 178.096 116.4C177.36 116.976 176.936 117.824 176.824 118.944H184.312C184.264 117.872 183.896 117.032 183.208 116.424C182.52 115.816 181.672 115.512 180.664 115.512ZM193.282 126C192.194 126 191.338 125.736 190.714 125.208C190.09 124.68 189.778 123.728 189.778 122.352V115.8H187.714V114.096H189.778L190.042 111.24H191.794V114.096H195.298V115.8H191.794V122.352C191.794 123.104 191.946 123.616 192.25 123.888C192.554 124.144 193.09 124.272 193.858 124.272H195.106V126H193.282ZM204.331 126V109.2H210.235C211.419 109.2 212.395 109.392 213.163 109.776C213.947 110.144 214.531 110.656 214.915 111.312C215.299 111.952 215.491 112.672 215.491 113.472C215.491 114.56 215.195 115.416 214.603 116.04C214.027 116.664 213.331 117.096 212.515 117.336C213.139 117.448 213.707 117.696 214.219 118.08C214.731 118.464 215.131 118.944 215.419 119.52C215.723 120.096 215.875 120.728 215.875 121.416C215.875 122.264 215.667 123.04 215.251 123.744C214.835 124.432 214.219 124.984 213.403 125.4C212.587 125.8 211.595 126 210.427 126H204.331ZM206.347 116.544H210.091C211.163 116.544 211.987 116.296 212.563 115.8C213.139 115.288 213.427 114.584 213.427 113.688C213.427 112.84 213.139 112.16 212.563 111.648C212.003 111.136 211.155 110.88 210.019 110.88H206.347V116.544ZM206.347 124.32H210.211C211.363 124.32 212.251 124.056 212.875 123.528C213.499 122.984 213.811 122.232 213.811 121.272C213.811 120.328 213.483 119.576 212.827 119.016C212.171 118.44 211.283 118.152 210.163 118.152H206.347V124.32ZM222.608 126.288C221.616 126.288 220.792 126.12 220.136 125.784C219.48 125.448 218.992 125 218.672 124.44C218.352 123.88 218.192 123.272 218.192 122.616C218.192 121.4 218.656 120.464 219.584 119.808C220.512 119.152 221.776 118.824 223.376 118.824H226.592V118.68C226.592 117.64 226.32 116.856 225.776 116.328C225.232 115.784 224.504 115.512 223.592 115.512C222.808 115.512 222.128 115.712 221.552 116.112C220.992 116.496 220.64 117.064 220.496 117.816H218.432C218.512 116.952 218.8 116.224 219.296 115.632C219.808 115.04 220.44 114.592 221.192 114.288C221.944 113.968 222.744 113.808 223.592 113.808C225.256 113.808 226.504 114.256 227.336 115.152C228.184 116.032 228.608 117.208 228.608 118.68V126H226.808L226.688 123.864C226.352 124.536 225.856 125.112 225.2 125.592C224.56 126.056 223.696 126.288 222.608 126.288ZM222.92 124.584C223.688 124.584 224.344 124.384 224.888 123.984C225.448 123.584 225.872 123.064 226.16 122.424C226.448 121.784 226.592 121.112 226.592 120.408V120.384H223.544C222.36 120.384 221.52 120.592 221.024 121.008C220.544 121.408 220.304 121.912 220.304 122.52C220.304 123.144 220.528 123.648 220.976 124.032C221.44 124.4 222.088 124.584 222.92 124.584ZM231.633 126V108.72H233.649V126H231.633ZM240.913 126.288C239.921 126.288 239.097 126.12 238.441 125.784C237.785 125.448 237.297 125 236.977 124.44C236.657 123.88 236.497 123.272 236.497 122.616C236.497 121.4 236.961 120.464 237.889 119.808C238.817 119.152 240.081 118.824 241.681 118.824H244.897V118.68C244.897 117.64 244.625 116.856 244.081 116.328C243.537 115.784 242.809 115.512 241.897 115.512C241.113 115.512 240.433 115.712 239.857 116.112C239.297 116.496 238.945 117.064 238.801 117.816H236.737C236.817 116.952 237.105 116.224 237.601 115.632C238.113 115.04 238.745 114.592 239.497 114.288C240.249 113.968 241.049 113.808 241.897 113.808C243.561 113.808 244.809 114.256 245.641 115.152C246.489 116.032 246.913 117.208 246.913 118.68V126H245.113L244.993 123.864C244.657 124.536 244.161 125.112 243.505 125.592C242.865 126.056 242.001 126.288 240.913 126.288ZM241.225 124.584C241.993 124.584 242.649 124.384 243.193 123.984C243.753 123.584 244.177 123.064 244.465 122.424C244.753 121.784 244.897 121.112 244.897 120.408V120.384H241.849C240.665 120.384 239.825 120.592 239.329 121.008C238.849 121.408 238.609 121.912 238.609 122.52C238.609 123.144 238.833 123.648 239.281 124.032C239.745 124.4 240.393 124.584 241.225 124.584ZM249.937 126V114.096H251.761L251.881 116.232C252.265 115.48 252.817 114.888 253.537 114.456C254.257 114.024 255.073 113.808 255.985 113.808C257.393 113.808 258.513 114.24 259.345 115.104C260.193 115.952 260.617 117.264 260.617 119.04V126H258.601V119.256C258.601 116.776 257.577 115.536 255.529 115.536C254.505 115.536 253.649 115.912 252.961 116.664C252.289 117.4 251.953 118.456 251.953 119.832V126H249.937ZM269.144 126.288C268.008 126.288 266.984 126.032 266.072 125.52C265.176 124.992 264.464 124.264 263.936 123.336C263.424 122.392 263.168 121.296 263.168 120.048C263.168 118.8 263.424 117.712 263.936 116.784C264.464 115.84 265.176 115.112 266.072 114.6C266.984 114.072 268.008 113.808 269.144 113.808C270.552 113.808 271.736 114.176 272.696 114.912C273.672 115.648 274.288 116.632 274.544 117.864H272.48C272.32 117.128 271.928 116.56 271.304 116.16C270.68 115.744 269.952 115.536 269.12 115.536C268.448 115.536 267.816 115.704 267.224 116.04C266.632 116.376 266.152 116.88 265.784 117.552C265.416 118.224 265.232 119.056 265.232 120.048C265.232 121.04 265.416 121.872 265.784 122.544C266.152 123.216 266.632 123.728 267.224 124.08C267.816 124.416 268.448 124.584 269.12 124.584C269.952 124.584 270.68 124.384 271.304 123.984C271.928 123.568 272.32 122.984 272.48 122.232H274.544C274.304 123.432 273.696 124.408 272.72 125.16C271.744 125.912 270.552 126.288 269.144 126.288ZM282.711 126.288C281.575 126.288 280.567 126.032 279.687 125.52C278.807 124.992 278.111 124.264 277.599 123.336C277.103 122.408 276.855 121.312 276.855 120.048C276.855 118.8 277.103 117.712 277.599 116.784C278.095 115.84 278.783 115.112 279.663 114.6C280.559 114.072 281.591 113.808 282.759 113.808C283.911 113.808 284.903 114.072 285.735 114.6C286.583 115.112 287.231 115.792 287.679 116.64C288.127 117.488 288.351 118.4 288.351 119.376C288.351 119.552 288.343 119.728 288.327 119.904C288.327 120.08 288.327 120.28 288.327 120.504H278.847C278.895 121.416 279.103 122.176 279.471 122.784C279.855 123.376 280.327 123.824 280.887 124.128C281.463 124.432 282.071 124.584 282.711 124.584C283.543 124.584 284.239 124.392 284.799 124.008C285.359 123.624 285.767 123.104 286.023 122.448H288.015C287.695 123.552 287.079 124.472 286.167 125.208C285.271 125.928 284.119 126.288 282.711 126.288ZM282.711 115.512C281.751 115.512 280.895 115.808 280.143 116.4C279.407 116.976 278.983 117.824 278.871 118.944H286.359C286.311 117.872 285.943 117.032 285.255 116.424C284.567 115.816 283.719 115.512 282.711 115.512Z" fill="white"/>
<path fill-rule="evenodd" clip-rule="evenodd" d="M138 160H128V170V180H138V170V160Z" fill="#2E7D32"/>
<path fill-rule="evenodd" clip-rule="evenodd" d="M158 160H148V170V180H158V170V160Z" fill="#2E7D32"/>
<path fill-rule="evenodd" clip-rule="evenodd" d="M148 160H138V170V180H148V170V160Z" fill="white"/>
<path fill-rule="evenodd" clip-rule="evenodd" d="M196.141 231.224V277.166H202.586V224.097H198.264L187.575 228.722V233.119L196.141 231.224ZM212.726 269.433L208.329 286.188H212.726L219.322 269.433H212.726ZM235.753 274.664C239.19 276.938 243.258 278.076 247.959 278.076C252.659 278.076 256.702 276.938 260.089 274.664C263.475 272.339 266.078 269.13 267.897 265.036C269.717 260.891 270.626 256.09 270.626 250.632C270.626 245.173 269.717 240.397 267.897 236.303C266.078 232.159 263.475 228.949 260.089 226.675C256.702 224.35 252.659 223.188 247.959 223.188C243.258 223.188 239.19 224.35 235.753 226.675C232.367 228.949 229.764 232.159 227.944 236.303C226.125 240.397 225.215 245.173 225.215 250.632C225.215 256.09 226.125 260.891 227.944 265.036C229.764 269.13 232.367 272.339 235.753 274.664ZM256.222 269.888C253.796 271.606 251.042 272.465 247.959 272.465C244.825 272.465 242.045 271.606 239.619 269.888C237.193 268.119 235.273 265.617 233.857 262.382C232.442 259.097 231.735 255.18 231.735 250.632C231.735 246.083 232.442 242.191 233.857 238.956C235.273 235.722 237.193 233.245 239.619 231.527C242.045 229.758 244.825 228.873 247.959 228.873C251.042 228.873 253.796 229.758 256.222 231.527C258.699 233.245 260.619 235.722 261.984 238.956C263.399 242.191 264.107 246.083 264.107 250.632C264.107 255.18 263.399 259.097 261.984 262.382C260.619 265.617 258.699 268.119 256.222 269.888ZM288.318 274.664C291.755 276.938 295.823 278.076 300.524 278.076C305.224 278.076 309.267 276.938 312.654 274.664C316.04 272.339 318.643 269.13 320.462 265.036C322.282 260.891 323.192 256.09 323.192 250.632C323.192 245.173 322.282 240.397 320.462 236.303C318.643 232.159 316.04 228.949 312.654 226.675C309.267 224.35 305.224 223.188 300.524 223.188C295.823 223.188 291.755 224.35 288.318 226.675C284.932 228.949 282.329 232.159 280.509 236.303C278.69 240.397 277.78 245.173 277.78 250.632C277.78 256.09 278.69 260.891 280.509 265.036C282.329 269.13 284.932 272.339 288.318 274.664ZM308.787 269.888C306.361 271.606 303.607 272.465 300.524 272.465C297.39 272.465 294.61 271.606 292.184 269.888C289.758 268.119 287.838 265.617 286.423 262.382C285.007 259.097 284.3 255.18 284.3 250.632C284.3 246.083 285.007 242.191 286.423 238.956C287.838 235.722 289.758 233.245 292.184 231.527C294.61 229.758 297.39 228.873 300.524 228.873C303.607 228.873 306.361 229.758 308.787 231.527C311.264 233.245 313.184 235.722 314.549 238.956C315.964 242.191 316.672 246.083 316.672 250.632C316.672 255.18 315.964 259.097 314.549 262.382C313.184 265.617 311.264 268.119 308.787 269.888ZM340.883 274.664C344.32 276.938 348.389 278.076 353.089 278.076C357.789 278.076 361.833 276.938 365.219 274.664C368.605 272.339 371.208 269.13 373.028 265.036C374.847 260.891 375.757 256.09 375.757 250.632C375.757 245.173 374.847 240.397 373.028 236.303C371.208 232.159 368.605 228.949 365.219 226.675C361.833 224.35 357.789 223.188 353.089 223.188C348.389 223.188 344.32 224.35 340.883 226.675C337.497 228.949 334.894 232.159 333.074 236.303C331.255 240.397 330.345 245.173 330.345 250.632C330.345 256.09 331.255 260.891 333.074 265.036C334.894 269.13 337.497 272.339 340.883 274.664ZM361.352 269.888C358.926 271.606 356.172 272.465 353.089 272.465C349.955 272.465 347.176 271.606 344.75 269.888C342.324 268.119 340.403 265.617 338.988 262.382C337.573 259.097 336.865 255.18 336.865 250.632C336.865 246.083 337.573 242.191 338.988 238.956C340.403 235.722 342.324 233.245 344.75 231.527C347.176 229.758 349.955 228.873 353.089 228.873C356.172 228.873 358.926 229.758 361.352 231.527C363.829 233.245 365.75 235.722 367.114 238.956C368.529 242.191 369.237 246.083 369.237 250.632C369.237 255.18 368.529 259.097 367.114 262.382C365.75 265.617 363.829 268.119 361.352 269.888ZM381.601 269.433L377.204 286.188H381.601L388.196 269.433H381.601ZM404.628 274.664C408.064 276.938 412.133 278.076 416.833 278.076C421.534 278.076 425.577 276.938 428.963 274.664C432.35 272.339 434.953 269.13 436.772 265.036C438.591 260.891 439.501 256.09 439.501 250.632C439.501 245.173 438.591 240.397 436.772 236.303C434.953 232.159 432.35 228.949 428.963 226.675C425.577 224.35 421.534 223.188 416.833 223.188C412.133 223.188 408.064 224.35 404.628 226.675C401.241 228.949 398.638 232.159 396.819 236.303C394.999 240.397 394.09 245.173 394.09 250.632C394.09 256.09 394.999 260.891 396.819 265.036C398.638 269.13 401.241 272.339 404.628 274.664ZM425.097 269.888C422.671 271.606 419.916 272.465 416.833 272.465C413.7 272.465 410.92 271.606 408.494 269.888C406.068 268.119 404.147 265.617 402.732 262.382C401.317 259.097 400.61 255.18 400.61 250.632C400.61 246.083 401.317 242.191 402.732 238.956C404.147 235.722 406.068 233.245 408.494 231.527C410.92 229.758 413.7 228.873 416.833 228.873C419.916 228.873 422.671 229.758 425.097 231.527C427.573 233.245 429.494 235.722 430.859 238.956C432.274 242.191 432.981 246.083 432.981 250.632C432.981 255.18 432.274 259.097 430.859 262.382C429.494 265.617 427.573 268.119 425.097 269.888ZM457.193 274.664C460.63 276.938 464.698 278.076 469.398 278.076C474.099 278.076 478.142 276.938 481.528 274.664C484.915 272.339 487.518 269.13 489.337 265.036C491.157 260.891 492.066 256.09 492.066 250.632C492.066 245.173 491.157 240.397 489.337 236.303C487.518 232.159 484.915 228.949 481.528 226.675C478.142 224.35 474.099 223.188 469.398 223.188C464.698 223.188 460.63 224.35 457.193 226.675C453.806 228.949 451.204 232.159 449.384 236.303C447.565 240.397 446.655 245.173 446.655 250.632C446.655 256.09 447.565 260.891 449.384 265.036C451.204 269.13 453.806 272.339 457.193 274.664ZM477.662 269.888C475.236 271.606 472.482 272.465 469.398 272.465C466.265 272.465 463.485 271.606 461.059 269.888C458.633 268.119 456.713 265.617 455.297 262.382C453.882 259.097 453.175 255.18 453.175 250.632C453.175 246.083 453.882 242.191 455.297 238.956C456.713 235.722 458.633 233.245 461.059 231.527C463.485 229.758 466.265 228.873 469.398 228.873C472.482 228.873 475.236 229.758 477.662 231.527C480.139 233.245 482.059 235.722 483.424 238.956C484.839 242.191 485.547 246.083 485.547 250.632C485.547 255.18 484.839 259.097 483.424 262.382C482.059 265.617 480.139 268.119 477.662 269.888ZM509.758 274.664C513.195 276.938 517.263 278.076 521.964 278.076C526.664 278.076 530.707 276.938 534.094 274.664C537.48 272.339 540.083 269.13 541.902 265.036C543.722 260.891 544.632 256.09 544.632 250.632C544.632 245.173 543.722 240.397 541.902 236.303C540.083 232.159 537.48 228.949 534.094 226.675C530.707 224.35 526.664 223.188 521.964 223.188C517.263 223.188 513.195 224.35 509.758 226.675C506.372 228.949 503.769 232.159 501.949 236.303C500.13 240.397 499.22 245.173 499.22 250.632C499.22 256.09 500.13 260.891 501.949 265.036C503.769 269.13 506.372 272.339 509.758 274.664ZM530.227 269.888C527.801 271.606 525.047 272.465 521.964 272.465C518.83 272.465 516.05 271.606 513.624 269.888C511.198 268.119 509.278 265.617 507.863 262.382C506.447 259.097 505.74 255.18 505.74 250.632C505.74 246.083 506.447 242.191 507.863 238.956C509.278 235.722 511.198 233.245 513.624 231.527C516.05 229.758 518.83 228.873 521.964 228.873C525.047 228.873 527.801 229.758 530.227 231.527C532.704 233.245 534.624 235.722 535.989 238.956C537.404 242.191 538.112 246.083 538.112 250.632C538.112 255.18 537.404 259.097 535.989 262.382C534.624 265.617 532.704 268.119 530.227 269.888ZM549.432 276.332C550.291 277.141 551.353 277.545 552.616 277.545C553.829 277.545 554.84 277.141 555.649 276.332C556.508 275.473 556.937 274.437 556.937 273.224C556.937 272.011 556.508 271 555.649 270.191C554.84 269.332 553.829 268.902 552.616 268.902C551.353 268.902 550.291 269.332 549.432 270.191C548.623 271 548.219 272.011 548.219 273.224C548.219 274.437 548.623 275.473 549.432 276.332ZM571.059 274.664C574.496 276.938 578.565 278.076 583.265 278.076C587.965 278.076 592.009 276.938 595.395 274.664C598.781 272.339 601.384 269.13 603.204 265.036C605.023 260.891 605.933 256.09 605.933 250.632C605.933 245.173 605.023 240.397 603.204 236.303C601.384 232.159 598.781 228.949 595.395 226.675C592.009 224.35 587.965 223.188 583.265 223.188C578.565 223.188 574.496 224.35 571.059 226.675C567.673 228.949 565.07 232.159 563.251 236.303C561.431 240.397 560.521 245.173 560.521 250.632C560.521 256.09 561.431 260.891 563.251 265.036C565.07 269.13 567.673 272.339 571.059 274.664ZM591.529 269.888C589.103 271.606 586.348 272.465 583.265 272.465C580.131 272.465 577.352 271.606 574.926 269.888C572.5 268.119 570.579 265.617 569.164 262.382C567.749 259.097 567.041 255.18 567.041 250.632C567.041 246.083 567.749 242.191 569.164 238.956C570.579 235.722 572.5 233.245 574.926 231.527C577.352 229.758 580.131 228.873 583.265 228.873C586.348 228.873 589.103 229.758 591.529 231.527C594.005 233.245 595.926 235.722 597.29 238.956C598.705 242.191 599.413 246.083 599.413 250.632C599.413 255.18 598.705 259.097 597.29 262.382C595.926 265.617 594.005 268.119 591.529 269.888ZM623.624 274.664C627.061 276.938 631.13 278.076 635.83 278.076C640.531 278.076 644.574 276.938 647.96 274.664C651.346 272.339 653.949 269.13 655.769 265.036C657.588 260.891 658.498 256.09 658.498 250.632C658.498 245.173 657.588 240.397 655.769 236.303C653.949 232.159 651.346 228.949 647.96 226.675C644.574 224.35 640.531 223.188 635.83 223.188C631.13 223.188 627.061 224.35 623.624 226.675C620.238 228.949 617.635 232.159 615.816 236.303C613.996 240.397 613.086 245.173 613.086 250.632C613.086 256.09 613.996 260.891 615.816 265.036C617.635 269.13 620.238 272.339 623.624 274.664ZM644.094 269.888C641.668 271.606 638.913 272.465 635.83 272.465C632.697 272.465 629.917 271.606 627.491 269.888C625.065 268.119 623.144 265.617 621.729 262.382C620.314 259.097 619.606 255.18 619.606 250.632C619.606 246.083 620.314 242.191 621.729 238.956C623.144 235.722 625.065 233.245 627.491 231.527C629.917 229.758 632.697 228.873 635.83 228.873C638.913 228.873 641.668 229.758 644.094 231.527C646.57 233.245 648.491 235.722 649.855 238.956C651.271 242.191 651.978 246.083 651.978 250.632C651.978 255.18 651.271 259.097 649.855 262.382C648.491 265.617 646.57 268.119 644.094 269.888ZM135.024 249.857V253.796H128V261.317H135.024V277.169H144.65V261.317H158.793L169.393 277.169H179.02V261.317H186.255V253.796H179.02V249.857H186.255V242.336H179.02V224.524H169.393V242.336H156.537L144.65 224.524H135.024V242.336H128V249.857H135.024ZM153.764 253.796H144.65V249.857H151.13L153.764 253.796ZM169.393 261.601L169.204 261.317H169.393V261.601ZM164.185 253.796H169.393V249.857H161.556L164.185 253.796ZM144.65 242.336H146.101L144.65 240.167V242.336Z" fill="white"/>
<defs>
<filter id="filter0_b_463_630" x="61" y="47" width="672" height="337" filterUnits="userSpaceOnUse" color-interpolation-filters="sRGB">
<feFlood flood-opacity="0" result="BackgroundImageFix"/>
<feGaussianBlur in="BackgroundImageFix" stdDeviation="15"/>
<feComposite in2="SourceAlpha" operator="in" result="effect1_backgroundBlur_463_630"/>
<feBlend mode="normal" in="SourceGraphic" in2="effect1_backgroundBlur_463_630" result="shape"/>
</filter>
</defs>
</svg>
